<?xml version="1.0" encoding="UTF-8"?>
<svg version="1.1" xmlns="http://www.w3.org/2000/svg" width="1024" height="712">
<path d="M0 0 C1.20959948 -0.00282738 2.41919895 -0.00565475 3.66545296 -0.00856781 C10.08873833 -0.02347634 16.51200181 -0.03275386 22.93530273 -0.03710938 C28.1446852 -0.04146013 33.35389889 -0.05523117 38.56323242 -0.078125 C69.60529641 -0.21172046 100.39378532 0.20804832 131.32147598 3.01664734 C133.22266868 3.18896422 135.12442111 3.35507527 137.0262146 3.52062988 C143.44562179 4.08263263 149.85100192 4.72790199 156.25390625 5.453125 C157.17907043 5.55605865 158.10423462 5.65899231 159.05743408 5.76504517 C365.59809326 28.90583029 365.59809326 28.90583029 412.33984375 77.23046875 C412.80648437 77.86082031 413.273125 78.49117188 413.75390625 79.140625 C419.18741919 85.700447 427.16580327 90.03927911 435.37890625 92.203125 C436.77505443 92.28778558 438.17245994 92.35329908 439.5703125 92.40234375 C445.26497299 92.99525874 448.83113101 95.75676912 453.25390625 99.203125 C454.03910645 99.79399902 454.82430664 100.38487305 455.63330078 100.99365234 C457.89877888 102.70944286 460.14206556 104.45023629 462.37890625 106.203125 C462.93964844 106.63786133 463.50039063 107.07259766 464.078125 107.52050781 C471.54348859 113.33506594 478.4925905 119.72416878 485.37890625 126.203125 C486.08789062 126.85796875 486.796875 127.5128125 487.52734375 128.1875 C506.72508999 146.52330662 518.50115438 169.62010428 524.37890625 195.203125 C524.63639648 196.29141602 524.89388672 197.37970703 525.15917969 198.50097656 C533.2124804 232.69696408 538.49091923 267.33042626 542.43359375 302.22265625 C542.55652802 303.29996254 542.55652802 303.29996254 542.6819458 304.39903259 C542.93150099 306.66567465 543.15971158 308.93334253 543.37890625 311.203125 C543.46922119 312.12071594 543.55953613 313.03830688 543.65258789 313.98370361 C544.51454083 323.74665174 544.56099925 333.48081709 544.58203125 343.2734375 C544.58485863 344.17766323 544.587686 345.08188896 544.59059906 346.01351547 C544.6055179 350.81956003 544.61478771 355.62557525 544.61914062 360.43164062 C544.62348287 364.32333979 544.63721818 368.21481194 544.66015625 372.10644531 C544.84318592 403.83549701 543.57804741 435.06047094 538.62890625 466.453125 C538.50362549 467.26813477 538.37834473 468.08314453 538.24926758 468.92285156 C531.37858172 513.42606038 531.37858172 513.42606038 522.37890625 533.203125 C521.94457275 534.16847168 521.94457275 534.16847168 521.50146484 535.15332031 C501.42098803 579.22205578 462.68420494 609.20187409 421.37890625 632.203125 C420.62125977 632.6259375 419.86361328 633.04875 419.08300781 633.484375 C383.84518374 652.98477051 345.02494801 666.19606851 306.44140625 677.390625 C305.42353027 677.69444092 304.4056543 677.99825684 303.35693359 678.3112793 C296.53927042 680.22806085 292.15178724 680.460752 285.37890625 678.203125 C270.06030136 677.1254342 255.94548211 678.54981678 243.078125 687.67578125 C241.28149722 689.11787932 241.28149722 689.11787932 240.31445312 691.17797852 C237.3578162 694.27148296 233.77314725 694.47709783 229.7109375 695.1328125 C228.82536163 695.28849701 227.93978577 695.44418152 227.02737427 695.60458374 C224.08495092 696.11483846 221.1388618 696.59784916 218.19140625 697.078125 C216.11465762 697.42671557 214.0379162 697.77534909 211.96118164 698.12402344 C177.88757965 703.76249854 143.60252122 707.55404351 109.1953125 710.44140625 C108.45125153 710.50465591 107.70719055 710.56790558 106.94058228 710.6330719 C104.42096017 710.83859131 101.90050197 711.02333812 99.37890625 711.203125 C98.19143295 711.29096756 97.00395966 711.37881012 95.78050232 711.46931458 C83.75790701 712.30251039 71.76566493 712.33264311 59.71875 712.30078125 C57.8297936 712.29930626 55.94083678 712.29828899 54.05187988 712.29772949 C47.140049 712.29254117 40.22822694 712.27858029 33.31640625 712.265625 C17.82703125 712.245 2.33765625 712.224375 -13.62109375 712.203125 C-14.11609375 621.618125 -14.11609375 621.618125 -14.62109375 529.203125 C-23.20109375 533.823125 -31.78109375 538.443125 -40.62109375 543.203125 C-99.12109376 574.703125 -99.12109376 574.703125 -102.37207031 576.45361328 C-104.5355236 577.61857467 -106.69893516 578.78361355 -108.86230469 579.94873047 C-114.32779406 582.89212937 -119.79403527 585.83411617 -125.26171875 588.7734375 C-135.27336036 594.15722324 -145.27688188 599.55363069 -155.24609375 605.015625 C-165.02302797 610.36948727 -174.86645438 615.59444494 -184.71594238 620.81304932 C-194.04534154 625.75729781 -203.34644826 630.74737554 -212.60644531 635.82080078 C-220.59036944 640.19422693 -228.60139936 644.51627743 -236.62109375 648.82373047 C-241.77977697 651.59467591 -246.93561635 654.37031985 -252.07836914 657.17071533 C-253.88646005 658.15506817 -255.69552261 659.13761145 -257.50488281 660.11962891 C-259.78742355 661.35922411 -262.06810641 662.60224808 -264.34667969 663.84912109 C-265.3730957 664.4055127 -266.39951172 664.9619043 -267.45703125 665.53515625 C-268.3598584 666.02733643 -269.26268555 666.5195166 -270.19287109 667.02661133 C-273.8195508 668.78379708 -275.49779726 669.49688229 -279.48901367 668.453125 C-280.59865479 668.040625 -281.7082959 667.628125 -282.8515625 667.203125 C-283.46626404 666.97646149 -284.08096558 666.74979797 -284.71429443 666.51626587 C-286.75111333 665.75876416 -288.78012099 664.98268242 -290.80859375 664.203125 C-291.51138458 663.93602722 -292.21417542 663.66892944 -292.93826294 663.39373779 C-331.02471326 648.88160062 -366.75119147 630.53411209 -399.01342773 605.43725586 C-400.42468563 604.35389843 -401.8756932 603.32273605 -403.33203125 602.30078125 C-406.23424905 599.64124037 -407.74775558 596.62888461 -409.43359375 593.140625 C-415.35408079 581.52378364 -422.63070475 571.07809045 -433.40234375 563.5 C-442.51751801 557.08399485 -448.64734899 551.41252841 -453.62109375 541.203125 C-454.37493592 539.731738 -455.12884608 538.26038583 -455.8828125 536.7890625 C-466.69250021 515.23673084 -472.18503667 492.57665074 -475.80859375 468.828125 C-475.96344238 467.82724854 -476.11829102 466.82637207 -476.27783203 465.79516602 C-479.16151392 445.77412978 -479.93593202 425.7219065 -479.921875 405.51953125 C-479.92578166 403.12182036 -479.9301202 400.72411014 -479.93486023 398.32640076 C-479.94225228 393.33549748 -479.94208391 388.34466501 -479.93676758 383.35375977 C-479.93214352 378.31102563 -479.93903703 373.26853306 -479.95727539 368.22583008 C-480.05582571 340.72833392 -480.04092816 313.52020441 -476.62109375 286.203125 C-476.41954739 284.47413062 -476.21870129 282.74505436 -476.01879883 281.01586914 C-475.53575514 276.98447123 -474.97068315 272.96902773 -474.37109375 268.953125 C-474.26849243 268.25485596 -474.16589111 267.55658691 -474.06018066 266.8371582 C-470.51489238 242.79954404 -466.03920334 218.96051868 -460.12109375 195.390625 C-459.94767456 194.68421875 -459.77425537 193.9778125 -459.59558105 193.25 C-454.4578264 172.49907822 -444.95667566 154.84468032 -431.62109375 138.203125 C-430.67556641 136.79160156 -430.67556641 136.79160156 -429.7109375 135.3515625 C-427.62109375 133.203125 -427.62109375 133.203125 -424.66796875 132.70703125 C-423.58 132.72636719 -422.49203125 132.74570313 -421.37109375 132.765625 C-414.70828543 132.50389852 -411.2636377 130.90326875 -406.62109375 126.203125 C-405.87859375 125.460625 -405.13609375 124.718125 -404.37109375 123.953125 C-401.30938826 119.14187352 -399.2923049 113.78049858 -397.85717773 108.26977539 C-396.40094635 104.65695248 -395.14119482 103.64661445 -391.9140625 101.5390625 C-390.94597656 100.89807617 -389.97789062 100.25708984 -388.98046875 99.59667969 C-387.93375 98.93055664 -386.88703125 98.26443359 -385.80859375 97.578125 C-384.72707031 96.8759082 -383.64554687 96.17369141 -382.53125 95.45019531 C-327.09161147 59.79419828 -264.58362387 38.80399643 -200.81402588 23.72381592 C-198.77083934 23.23868067 -196.72962953 22.7461072 -194.68896484 22.25048828 C-191.40075234 21.4590237 -188.10757607 20.69821976 -184.80859375 19.953125 C-183.91011719 19.73615967 -183.01164062 19.51919434 -182.0859375 19.2956543 C-176.38768147 18.07483353 -171.92897629 18.44091084 -166.24780273 19.66992188 C-156.61332257 21.6256524 -145.11113045 21.56979454 -136.62109375 16.203125 C-135.79609375 15.336875 -134.97109375 14.470625 -134.12109375 13.578125 C-127.20689463 7.00963584 -111.46837828 7.85038104 -102.24609375 6.765625 C-100.86997925 6.60229675 -100.86997925 6.60229675 -99.46606445 6.43566895 C-86.36870683 4.88823242 -73.2651891 3.53465983 -60.12109375 2.453125 C-59.41043762 2.39432159 -58.69978149 2.33551819 -57.96759033 2.27493286 C-53.18769217 1.88421251 -48.40534444 1.53633307 -43.62109375 1.203125 C-42.35611557 1.11466309 -41.09113739 1.02620117 -39.78782654 0.93505859 C-26.5287388 0.07608014 -13.28282647 0.02132702 0 0 Z " fill="#F7C838" transform="translate(479.62109375,-0.203125)"/>
<path d="M0 0 C3.22956111 3.17870188 4.3528212 5.40051482 4.92578125 9.90234375 C4.30456384 14.96082838 2.57447581 17.70236904 -1.32421875 20.99609375 C-20.15017134 34.5618537 -46.11649733 35.562706 -68.32421875 32.27734375 C-80.78500302 30.21232008 -93.53072976 26.32109943 -102.07421875 16.52734375 C-103.86899848 12.70368259 -104.24477351 10.64325587 -103.51171875 6.46484375 C-100.42837105 0.17696874 -94.8682425 -2.21081677 -88.5234375 -4.41015625 C-62.47825604 -12.12330675 -22.54967023 -18.97648908 0 0 Z " fill="#FDC226" transform="translate(827.51171875,133.53515625)"/>
<path d="M0 0 C6.10790716 3.5639008 9.36274049 8.20072629 11.22998047 15.04248047 C13.56290105 26.56419544 12.25755098 39.38660133 7.64453125 50.08984375 C7.36544922 50.74500977 7.08636719 51.40017578 6.79882812 52.07519531 C2.525932 61.90467079 -1.93674195 70.72712641 -12.35546875 75.08984375 C-16.50710614 75.66171509 -20.21494965 75.55641974 -24.10546875 73.96484375 C-31.12937178 68.11159122 -35.418397 60.01671685 -37.35546875 51.08984375 C-38.32471126 35.34362532 -36.49589711 21.8446013 -26.35546875 9.08984375 C-18.89076417 1.3729532 -11.09069998 -4.28546119 0 0 Z " fill="#F59F00" transform="translate(362.35546875,353.91015625)"/>
<path d="M0 0 C4.98881113 3.95986884 6.43148775 7.50783662 7.3125 13.80078125 C6.2070943 23.59151747 1.45502477 32.38808858 -6.125 38.67578125 C-14.10037026 43.58529489 -22.56853825 47.43448438 -32.10546875 45.21484375 C-38.3789637 43.15199241 -42.74672995 39.45042964 -47 34.48828125 C-49.52965574 28.16414191 -49.9177442 21.87104928 -47.625 15.42578125 C-43.6506994 6.88238676 -36.48083211 1.68095039 -28.125 -2.32421875 C-18.74259295 -5.52311446 -8.57870736 -5.34592241 0 0 Z " fill="#FEB51B" transform="translate(661.125,551.32421875)"/>
<path d="M0 0 C6.4015724 6.03576826 7.49207247 15.11662234 7.875 23.5 C7.93429687 24.29019531 7.99359375 25.08039062 8.0546875 25.89453125 C8.36771959 31.87148766 7.15187702 36.46139158 5 42 C4.63519531 43.1240625 4.27039063 44.248125 3.89453125 45.40625 C1.094927 53.41089465 -2.56071427 60.68005209 -10.03515625 65.2421875 C-13.31147311 66.50581667 -15.65142657 65.86601037 -19 65 C-24.96953718 61.3714578 -27.33056881 56.71524008 -29 50 C-30.69006861 37.3762222 -25.81070069 26.37176402 -20.6875 15.125 C-20.15588257 13.92991821 -20.15588257 13.92991821 -19.61352539 12.71069336 C-17.00165064 7.19236282 -13.82824283 2.80605048 -9 -1 C-5.12858486 -2.29047171 -3.68452784 -1.6542778 0 0 Z " fill="#E59400" transform="translate(368,487)"/>
<path d="M0 0 C2.09051858 3.13577787 2.52422116 5.0555996 2.46875 8.79296875 C1.58879319 12.93609871 -1.2346593 15.90545207 -4 19 C-7.46941546 18.54177532 -10.67395049 18.10868317 -14 17 C-29.86414238 15.88392968 -45.33722581 17.34580378 -58 28 C-59.01477867 28.98499962 -60.01979625 29.9805881 -61 31 C-61.9841125 29.73299277 -62.96211497 28.4612381 -63.9375 27.1875 C-64.48277344 26.47980469 -65.02804687 25.77210938 -65.58984375 25.04296875 C-68.57913322 20.71222528 -68.609329 16.07484013 -68 11 C-64.27650913 3.25513899 -57.93900392 0.18956711 -50.25 -2.6875 C-34.39372684 -7.9951788 -14.07450135 -11.25960108 0 0 Z " fill="#D98D0D" transform="translate(779,661)"/>
<path d="M0 0 C0 12.21 0 24.42 0 37 C-1.485 37.495 -1.485 37.495 -3 38 C-3.2502157 40.91634129 -3.2502157 40.91634129 -3 44 C-2.01 44.66 -1.02 45.32 0 46 C0.5 48.4375 0.5 48.4375 0 51 C-2.21738451 53.07879798 -3.87469365 53.94328093 -6.9375 54.09765625 C-11.70902656 53.72713998 -14.63494113 52.55200658 -18 49 C-23.04399399 41.82594098 -23.97795211 34.65210115 -22.50390625 26.1328125 C-20.0868022 15.3992318 -16.15912365 7.43821244 -7 1 C-4 0 -4 0 0 0 Z " fill="#E59201" transform="translate(467,414)"/>
<path d="M0 0 C3.00083045 2.70074741 5.18350686 4.69206866 6.00390625 8.73046875 C6.16527574 16.18573921 4.51452792 20.7117325 -0.5 26.25 C-5.46749268 31.30399131 -11.48986555 33.02320153 -18.5 33.25 C-22.09264512 32.560108 -24.65281914 31.19446479 -27.1328125 28.4296875 C-29.811249 24.15949446 -29.9995013 18.9608857 -29.09765625 14.06640625 C-27.03373475 7.80136642 -23.11649158 3.13630789 -17.8125 -0.6875 C-11.66400116 -2.65966 -5.82839718 -2.91419859 0 0 Z " fill="#FBB603" transform="translate(902.5,528.75)"/>
<path d="M0 0 C4.489188 1.46761915 4.489188 1.46761915 6.25 4.0625 C9.53680435 10.56715477 7.55627841 17.42649231 5.65234375 24.18359375 C3.15303914 30.66382666 -1.80459937 37.43725571 -7.75 41.0625 C-11.3125 42.0625 -11.3125 42.0625 -14.75 42.0625 C-17.69572605 39.89196501 -18.59060941 38.54067177 -19.75 35.0625 C-20.81037587 25.27441503 -18.19539766 15.99924865 -12.41796875 8.08203125 C-5.82302324 0.09705039 -5.82302324 0.09705039 0 0 Z " fill="#DC9512" transform="translate(443.75,285.9375)"/>
<path d="M0 0 C5.63447149 2.81723575 8.21706936 8.81273483 10.3125 14.4375 C10.56660645 15.10015869 10.82071289 15.76281738 11.08251953 16.44555664 C14.67343816 25.97026361 17.1341681 34.57578321 13.0390625 44.296875 C11.73552847 46.81481254 10.44550951 48.42449329 8.125 50.0625 C5.375 50.3125 5.375 50.3125 3.125 50.0625 C2.465 48.7425 1.805 47.4225 1.125 46.0625 C1.785 45.4025 2.445 44.7425 3.125 44.0625 C3.36712873 42.08121492 3.36712873 42.08121492 3.25 39.9375 C3.188125 38.019375 3.188125 38.019375 3.125 36.0625 C0.01167752 36.73118314 0.01167752 36.73118314 -1.0625 39.125 C-1.4646875 40.0840625 -1.4646875 40.0840625 -1.875 41.0625 C-6.54535347 37.02009321 -7.5102443 31.07380788 -8.05224609 25.11328125 C-9.02949655 7.79491865 -9.02949655 7.79491865 -3.38671875 1.3671875 C-1.875 0.0625 -1.875 0.0625 0 0 Z " fill="#E59501" transform="translate(60.875,423.9375)"/>
<path d="M0 0 C6.00769518 0.48168603 10.53218873 1.74597357 15.875 4.5 C16.56754883 4.85384766 17.26009766 5.20769531 17.97363281 5.57226562 C26.92973216 10.3360595 34.4579679 16.25472651 38 26 C38.44279297 27.09828125 38.44279297 27.09828125 38.89453125 28.21875 C40.81366512 33.33644031 41.29727739 37.54991451 41 43 C40.01 43.33 39.02 43.66 38 44 C37.43152344 42.94941406 36.86304688 41.89882813 36.27734375 40.81640625 C32.04509839 33.08431323 27.87032347 25.63541302 22 19 C21.51789062 18.43667969 21.03578125 17.87335937 20.5390625 17.29296875 C15.96087847 12.33133276 10.45717257 8.53897171 4.97851562 4.64306641 C3.30402187 3.4494637 1.64991685 2.22735127 0 1 C0 0.67 0 0.34 0 0 Z " fill="#D98C0C" transform="translate(35,554)"/>
<path d="M0 0 C3.35636895 1.22793986 4.60168658 1.8873458 6.5625 4.9375 C7.54766479 10.61131942 7.28586882 15.46971466 4.25 20.4375 C-0.18062647 26.71754713 -0.18062647 26.71754713 -3.9375 27.375 C-6.4375 26.9375 -6.4375 26.9375 -8.06640625 25.33984375 C-10.86763959 20.43169987 -10.02115571 14.39975615 -9.4375 8.9375 C-8.42436975 6.21098772 -7.48346422 5.10037646 -5.4375 2.9375 C-4.963125 2.298125 -4.48875 1.65875 -4 1 C-2.4375 -0.0625 -2.4375 -0.0625 0 0 Z " fill="#DC9511" transform="translate(278.4375,431.0625)"/>
<path d="M0 0 C2.21888872 3.32833307 3.08746683 6.49763639 4.0625 10.3125 C4.23587891 10.96412109 4.40925781 11.61574219 4.58789062 12.28710938 C7.11771759 21.97024019 9.21466791 31.91638493 4 41 C-0.35352883 47.24123781 -4.82101459 50.52561047 -12 53 C-10.88530455 49.75724961 -9.4296963 47.03891121 -7.5625 44.1875 C-2.63814216 36.47412534 -0.99939007 28.83954199 -0.68359375 19.7265625 C-0.64169922 18.57285156 -0.59980469 17.41914063 -0.55664062 16.23046875 C-0.51732422 15.04066406 -0.47800781 13.85085938 -0.4375 12.625 C-0.39431641 11.41199219 -0.35113281 10.19898438 -0.30664062 8.94921875 C-0.20094487 5.96624968 -0.09884679 2.98320258 0 0 Z " fill="#FDBE49" transform="translate(497,284)"/>
<path d="M0 0 C2.4375 0.25 2.4375 0.25 5 1 C8.26832226 5.90248339 7.68010436 11.27523807 7 17 C5.70350297 20.30222764 4.07639264 23.13012875 2 26 C-0.375 26.1875 -0.375 26.1875 -3 26 C-6.39320275 20.91019588 -5.55739654 14.94119133 -5 9 C-3.91160979 5.64125736 -2.54682088 2.54682088 0 0 Z " fill="#FEA705" transform="translate(992,346)"/>
<path d="M0 0 C1.3125 0.29166667 2.625 0.58333333 3.9375 0.875 C5.17113281 1.14763672 5.17113281 1.14763672 6.4296875 1.42578125 C8.06165943 1.79037072 9.69209672 2.16195529 11.3203125 2.54296875 C16.210859 3.67614416 21.0126462 4.42768071 26 5 C27.010625 5.185625 28.02125 5.37125 29.0625 5.5625 C34.18879021 6.32599003 38.96221663 6.22128082 44 5 C40.45167313 9.47397736 36.46895304 10.99313315 31 12 C20.38757525 12.86440751 9.37637882 13.11802214 0.64453125 6.109375 C-1 4 -1 4 -0.75 1.75 C-0.5025 1.1725 -0.255 0.595 0 0 Z " fill="#FDB207" transform="translate(608,74)"/>
<path d="M0 0 C4.31534601 1.50950688 7.73723468 2.71689255 10.80078125 6.2109375 C10.14078125 7.5309375 9.48078125 8.8509375 8.80078125 10.2109375 C-0.27063273 10.68768334 -7.97966748 10.3815987 -16.19921875 6.2109375 C-16.85921875 5.5509375 -17.51921875 4.8909375 -18.19921875 4.2109375 C-18.19921875 2.8909375 -18.19921875 1.5709375 -18.19921875 0.2109375 C-13.00601837 -2.38566269 -5.45771691 -1.34610356 0 0 Z " fill="#FDD353" transform="translate(174.19921875,252.7890625)"/>
<path d="M0 0 C1.67542976 0.28604898 3.34385343 0.61781233 5 1 C5.878324 9.78323999 2.99486825 16.89604434 -2.44921875 23.8515625 C-4 25 -4 25 -8 25 C-8.44567962 15.64072806 -6.64905052 8.53206736 -1 1 C-0.67 0.67 -0.34 0.34 0 0 Z " fill="#FDDB4F" transform="translate(892,351)"/>
<path d="M0 0 C0.69480469 -0.01611328 1.38960937 -0.03222656 2.10546875 -0.04882812 C6.86195623 -0.05330693 10.05172956 0.8927986 14.125 3.3125 C14.125 4.6325 14.125 5.9525 14.125 7.3125 C9.66241461 9.01998313 5.89712152 9.60930223 1.125 9.625 C-0.050625 9.64175781 -1.22625 9.65851563 -2.4375 9.67578125 C-6.19102485 9.27910192 -8.62829892 8.18826175 -11.875 6.3125 C-11.875 4.9925 -11.875 3.6725 -11.875 2.3125 C-8.11758275 -0.13079463 -4.33079191 -0.01986602 0 0 Z " fill="#FDD353" transform="translate(677.875,313.6875)"/>
<path d="M0 0 C2.28118673 1.31758199 2.85657385 2.63714451 3.8125 5.046875 C0.01004741 7.58184339 -3.09524357 7.37808679 -7.5 7.359375 C-8.24701172 7.37548828 -8.99402344 7.39160156 -9.76367188 7.40820312 C-14.65483556 7.41249739 -17.89642519 6.63243518 -22.1875 4.046875 C-22.1875 2.726875 -22.1875 1.406875 -22.1875 0.046875 C-15.1313242 -3.71641876 -7.28784965 -2.3425231 0 0 Z " fill="#FDCE49" transform="translate(773.1875,154.953125)"/>
<path d="M0 0 C0.19335938 0.74636719 0.38671875 1.49273437 0.5859375 2.26171875 C2.46230465 5.89523634 5.08407065 7.09878099 8.625 8.8125 C9.23601563 9.12380859 9.84703125 9.43511719 10.4765625 9.75585938 C11.97731946 10.51796252 13.48776998 11.2609242 15 12 C12 13 12 13 9.25 12.0625 C6.0154227 10.81873567 6.0154227 10.81873567 2.5 11 C-1.16020231 11 -3.59332864 10.25898724 -7 9 C-8.299375 8.7834375 -8.299375 8.7834375 -9.625 8.5625 C-12.35329496 7.91632488 -13.8837847 6.80270192 -16 5 C-11.09937459 1.63082003 -5.98172577 0 0 0 Z " fill="#FDC731" transform="translate(624,68)"/>
<path d="M0 0 C1.875 0.25 1.875 0.25 4 1 C6.45601033 4.52085397 6.26748113 7.9382705 6.25 12.125 C6.25515625 13.36507813 6.2603125 14.60515625 6.265625 15.8828125 C6 19 6 19 4 21 C2 20.875 2 20.875 0 20 C-2.17449786 16.70762649 -2.26942919 13.88583894 -2.25 10 C-2.25515625 8.96875 -2.2603125 7.9375 -2.265625 6.875 C-2.00499165 4.05402722 -1.45296344 2.39854282 0 0 Z " fill="#FDDC52" transform="translate(58,296)"/>
<path d="M0 0 C0.99 0.66 1.98 1.32 3 2 C3.4375 4.9375 3.4375 4.9375 3 8 C0.77031412 10.57271448 -0.62495274 10.95311909 -4 11.375 C-7.26843543 10.96644557 -8.61223142 10.20409407 -11 8 C-10.67842796 5.02545866 -10.37860258 3.40664722 -8.3125 1.1875 C-5.33010093 -0.34400223 -3.31309774 -0.35245721 0 0 Z " fill="#FDE37C" transform="translate(665,408)"/>
<path d="M0 0 C0.99 0.33 1.98 0.66 3 1 C3.33 2.32 3.66 3.64 4 5 C-0.56205359 7.6384227 -4.84935072 7.55879686 -10 7 C-13.625 5.5 -13.625 5.5 -16 4 C-12.9242189 -2.81065815 -6.43607009 -1.84824009 0 0 Z " fill="#FDD759" transform="translate(428,83)"/>
<path d="M0 0 C1.24652344 -0.01417969 2.49304688 -0.02835937 3.77734375 -0.04296875 C7.0625 0.1875 7.0625 0.1875 10.0625 2.1875 C9.6875 4.125 9.6875 4.125 9.0625 6.1875 C6.10662889 7.66543555 3.41252355 7.35803651 0.125 7.375 C-1.12152344 7.38917969 -2.36804688 7.40335938 -3.65234375 7.41796875 C-6.9375 7.1875 -6.9375 7.1875 -9.9375 5.1875 C-9.5625 3.25 -9.5625 3.25 -8.9375 1.1875 C-5.98162889 -0.29043555 -3.28752355 0.01696349 0 0 Z " fill="#FDDB61" transform="translate(209.9375,121.8125)"/>
<path d="M0 0 C2 2 2 2 2.4375 4.375 C2 7 2 7 -0.125 9.3125 C-3.46634223 11.27372261 -5.19002893 11.57977821 -9 11 C-10.9375 9.8125 -10.9375 9.8125 -12 8 C-11.92302567 4.92102698 -11.43484603 3.48502058 -9.375 1.1875 C-6.1090958 -0.4454521 -3.59930998 -0.33326944 0 0 Z " fill="#FDE47E" transform="translate(363,292)"/>
<path d="M0 0 C8.60764545 -0.46112386 16.61479306 1.27151563 25 3 C22.31331999 5.9425543 20.34492639 6.899082 16.29296875 7.203125 C5.44899577 7.36680761 5.44899577 7.36680761 1 4 C0.35546875 1.890625 0.35546875 1.890625 0 0 Z " fill="#FDB40A" transform="translate(765,225)"/>
<path d="M0 0 C1.14210938 -0.01417969 2.28421875 -0.02835938 3.4609375 -0.04296875 C6.46436816 0.17579966 8.10425934 0.61669363 10.625 2.1875 C10.3125 4.125 10.3125 4.125 9.625 6.1875 C3.17249386 8.33833538 -3.05910093 7.3375933 -9.375 5.1875 C-9 3.25 -9 3.25 -8.375 1.1875 C-5.5555932 -0.2222034 -3.14232774 0.01765353 0 0 Z " fill="#FDDC63" transform="translate(600.375,212.8125)"/>
<path d="M0 0 C3.06434726 0.15714601 4.55269031 0.58353926 6.8125 2.6875 C8.35606595 5.69339158 8.42599916 7.66300655 8 11 C6.8125 12.9375 6.8125 12.9375 5 14 C1.65807308 13.75546876 0.39456443 13.39456443 -2 11 C-2.265625 8.90625 -2.265625 8.90625 -2.25 6.5 C-2.25515625 5.7059375 -2.2603125 4.911875 -2.265625 4.09375 C-2 2 -2 2 0 0 Z " fill="#FCDB56" transform="translate(355,402)"/>
<path d="M0 0 C2.94563014 0.3184465 4.61076606 0.66266392 6.875 2.625 C8.49571141 6.04650187 7.86989425 8.38659313 7 12 C6.34 12.66 5.68 13.32 5 14 C2.5 13.8125 2.5 13.8125 0 13 C-2.45811625 9.31282562 -2.31118164 7.35654296 -2 3 C-1.34 2.01 -0.68 1.02 0 0 Z " fill="#ECB71D" transform="translate(357,533)"/>
<path d="M0 0 C0.66 0.66 1.32 1.32 2 2 C1.81597683 5.37375813 1.59820495 8.0239814 -0.1875 10.9375 C-2.83587932 12.48999822 -4.99619814 12.26120016 -8 12 C-9 11 -9 11 -9.3125 7.6875 C-9 4 -9 4 -7.3125 1.5625 C-4.57791039 -0.28519568 -3.23581461 -0.5109181 0 0 Z " fill="#FDE47F" transform="translate(262,361)"/>
<path d="M0 0 C4.62696606 -0.19279025 8.29271325 0.23948442 12.80078125 1.48828125 C16.8087888 2.42087271 20.90452035 2.6810897 25 3 C21.29890608 6.94430866 17.87442274 7.04466544 12.625 7.25 C8.04050303 7.18866894 4.96825012 6.31481257 1 4 C0.0625 1.8125 0.0625 1.8125 0 0 Z " fill="#FDB30A" transform="translate(765,75)"/>
<path d="M0 0 C8.13105861 0.49122453 16.01920915 1.35266241 24 3 C19.71359539 6.95185596 15.72053769 6.42444527 10.1484375 6.29296875 C6.47899216 5.95151912 3.96354318 5.22265738 1 3 C0.67 2.01 0.34 1.02 0 0 Z " fill="#FDB60F" transform="translate(296,60)"/>
<path d="M0 0 C3.4375 0.75 3.4375 0.75 5.4375 2.75 C4.88194444 7.30555556 4.88194444 7.30555556 3.4375 8.75 C-2.84156977 9.21511628 -2.84156977 9.21511628 -5.5 7.5 C-6.5625 5.75 -6.5625 5.75 -6.5625 1.75 C-3.5625 -0.25 -3.5625 -0.25 0 0 Z " fill="#FDDB58" transform="translate(649.5625,579.25)"/>
<path d="M0 0 C7.62595318 -0.45755719 14.6029854 1.25463701 22 3 C21 5 21 5 19.20703125 5.609375 C12.50575996 6.79544072 6.96320437 6.35430246 1 3 C0.67 2.01 0.34 1.02 0 0 Z " fill="#FDB60E" transform="translate(99,182)"/>
<path d="M0 0 C7.93396732 -0.24923458 15.2441657 0.29005228 23 2 C20.00815814 4.99184186 17.3098742 5.17435017 13.25 5.25 C8.41454162 5.2075216 5.22190093 4.33551966 1 2 C0.67 1.34 0.34 0.68 0 0 Z " fill="#FDB50D" transform="translate(484,145)"/>
<path d="M0 0 C2.38836975 0.51763147 4.61848968 0.60248655 7.0546875 0.4453125 C7.6796875 2.3203125 7.6796875 2.3203125 8.0546875 4.4453125 C7.3946875 5.1053125 6.7346875 5.7653125 6.0546875 6.4453125 C6.0546875 5.4553125 6.0546875 4.4653125 6.0546875 3.4453125 C5.46977539 3.3952002 4.88486328 3.34508789 4.28222656 3.29345703 C1.62223569 3.06080015 -1.03646599 2.81568814 -3.6953125 2.5703125 C-4.61570312 2.49167969 -5.53609375 2.41304687 -6.484375 2.33203125 C-7.37382812 2.24824219 -8.26328125 2.16445313 -9.1796875 2.078125 C-9.99663086 2.00480957 -10.81357422 1.93149414 -11.65527344 1.85595703 C-14.06293299 1.42422106 -15.82440642 0.64204866 -17.9453125 -0.5546875 C-11.79011826 -2.60641891 -6.12925635 -1.50580346 0 0 Z " fill="#FDCF41" transform="translate(314.9453125,57.5546875)"/>
<path d="M0 0 C0.99 0.33 1.98 0.66 3 1 C3.35233161 6.37305699 3.35233161 6.37305699 3 9 C1 11 1 11 -1 12 C-2.32 10.35 -3.64 8.7 -5 7 C-3.68221547 4.36443095 -1.85780102 2.27730447 0 0 Z " fill="#EBB51A" transform="translate(62,459)"/>
<path d="M0 0 C8.60764545 -0.46112386 16.61479306 1.27151563 25 3 C23.91796875 4.578125 23.91796875 4.578125 22 6 C18.92578125 5.671875 18.92578125 5.671875 15.3125 4.75 C10.18178173 3.51118409 5.24692264 2.52469226 0 2 C0 1.34 0 0.68 0 0 Z " fill="#FDBF21" transform="translate(765,225)"/>
<path d="M0 0 C1.32 0 2.64 0 4 0 C4 1.65 4 3.3 4 5 C3.67 4.34 3.34 3.68 3 3 C1.09354154 2.37354182 1.09354154 2.37354182 -1.25 2 C-2.13945313 1.83757812 -3.02890625 1.67515625 -3.9453125 1.5078125 C-9.28916318 0.61944858 -14.64071001 -0.21038674 -20 -1 C-20 -1.33 -20 -1.66 -20 -2 C-12.6164016 -3.90544475 -6.6871792 -3.73237909 0 0 Z " fill="#FDD347" transform="translate(121,180)"/>
<path d="M0 0 C3.25048455 0.30758717 6.5002817 0.62192818 9.75 0.9375 C10.67039062 1.02451172 11.59078125 1.11152344 12.5390625 1.20117188 C13.42851562 1.28818359 14.31796875 1.37519531 15.234375 1.46484375 C16.45979004 1.58267212 16.45979004 1.58267212 17.70996094 1.70288086 C19.87120901 1.98329012 21.90017313 2.42444505 24 3 C24 3.66 24 4.32 24 5 C15.58432901 4.4237919 7.32051741 3.38227951 -1 2 C-0.67 1.34 -0.34 0.68 0 0 Z " fill="#FDC52C" transform="translate(297,58)"/>
<path d="M0 0 C2.63671875 0.53515625 2.63671875 0.53515625 5.63671875 1.53515625 C5.30671875 2.52515625 4.97671875 3.51515625 4.63671875 4.53515625 C4.63671875 3.87515625 4.63671875 3.21515625 4.63671875 2.53515625 C3.48171875 2.57640625 2.32671875 2.61765625 1.13671875 2.66015625 C-6.08327598 2.6833344 -13.22510392 1.51610823 -20.36328125 0.53515625 C-14.3554292 -3.47007845 -6.75371502 -1.16741553 0 0 Z " fill="#FDD043" transform="translate(786.36328125,223.46484375)"/>
<path d="M0 0 C4.62696606 -0.19279025 8.29271325 0.23948442 12.80078125 1.48828125 C16.8087888 2.42087271 20.90452035 2.6810897 25 3 C24.01 3.99 23.02 4.98 22 6 C21.67 5.34 21.34 4.68 21 4 C20.154375 4.03480469 19.30875 4.06960937 18.4375 4.10546875 C11.49430443 4.27115864 6.30389938 3.96654088 0 1 C0 0.67 0 0.34 0 0 Z " fill="#FDBD1C" transform="translate(765,75)"/>
<path d="M0 0 C2.66688629 0.14243597 5.33345767 0.28886578 8 0.4375 C8.74378906 0.47681641 9.48757813 0.51613281 10.25390625 0.55664062 C15.20733918 0.83661727 20.08313469 1.33510571 25 2 C24.67 2.99 24.34 3.98 24 5 C23.27296875 4.86722656 22.5459375 4.73445312 21.796875 4.59765625 C14.54202272 3.32340655 7.34805008 2.49508139 0 2 C0 1.34 0 0.68 0 0 Z " fill="#FDC124" transform="translate(484,143)"/>
<path d="M0 0 C1.2741291 0.66360891 2.53962842 1.34399935 3.796875 2.0390625 C4.4465625 2.38195312 5.09625 2.72484375 5.765625 3.078125 C7.36697631 3.92589922 8.95798944 4.79314929 10.546875 5.6640625 C6.72348195 6.93852685 5.27682363 6.00684401 1.546875 4.6640625 C0.2475 4.4475 0.2475 4.4475 -1.078125 4.2265625 C-3.80641996 3.58038738 -5.3369097 2.46676442 -7.453125 0.6640625 C-4.46416773 -1.67577778 -3.61997409 -1.40048771 0 0 Z " fill="#FDC125" transform="translate(615.453125,72.3359375)"/>
<path d="M0 0 C0.66 0.66 1.32 1.32 2 2 C1.55789821 8.18942511 -0.10730322 14.23935183 -4.6875 18.5 C-5.450625 18.995 -6.21375 19.49 -7 20 C-6.72414063 19.33613281 -6.44828125 18.67226563 -6.1640625 17.98828125 C-4.77696529 14.42744445 -3.56948099 10.81608323 -2.375 7.1875 C-2.14554687 6.49462891 -1.91609375 5.80175781 -1.6796875 5.08789062 C-1.11841567 3.39238197 -0.55901687 1.69625347 0 0 Z " fill="#EDBA1F" transform="translate(373,525)"/>
<path d="M0 0 C5.11365014 1.0681847 10.07227969 2.23107476 15 4 C14.67 4.66 14.34 5.32 14 6 C3.44191344 5.03644647 3.44191344 5.03644647 -1 4 C-0.67 2.68 -0.34 1.36 0 0 Z " fill="#FDBA16" transform="translate(608,74)"/>
<path d="M0 0 C3.875 0.875 3.875 0.875 5 2 C5.04080783 3.99958364 5.04254356 6.00045254 5 8 C3.68 8 2.36 8 1 8 C0 7 0 7 -0.0625 3.4375 C-0.041875 2.303125 -0.02125 1.16875 0 0 Z " fill="#FDDE5D" transform="translate(253,581)"/>
<path d="M0 0 C1.17175781 0.24878906 2.34351563 0.49757813 3.55078125 0.75390625 C4.79214844 1.02074219 6.03351562 1.28757812 7.3125 1.5625 C8.56675781 1.83191406 9.82101562 2.10132812 11.11328125 2.37890625 C12.54220703 2.68634766 12.54220703 2.68634766 14 3 C13.67 3.99 13.34 4.98 13 6 C13 5.34 13 4.68 13 4 C12.34515625 3.95101562 11.6903125 3.90203125 11.015625 3.8515625 C3.932835 3.27133394 -3.0071584 2.25700294 -10 1 C-10 0.67 -10 0.34 -10 0 C-6.21621898 -0.97297226 -3.77965599 -0.8493609 0 0 Z " fill="#FDD145" transform="translate(778,72)"/>
<path d="M0 0 C-4.76971162 3.93501209 -4.76971162 3.93501209 -8.14453125 4.11328125 C-10.3125 3.875 -10.3125 3.875 -14 3 C-14.33 2.34 -14.66 1.68 -15 1 C-13.96875 0.855625 -12.9375 0.71125 -11.875 0.5625 C-9.47187464 0.21365922 -7.07370953 -0.17477179 -4.6875 -0.625 C-2 -1 -2 -1 0 0 Z " fill="#FDBB18" transform="translate(652,80)"/>
<path d="M0 0 C0.99 0 1.98 0 3 0 C3 2.97 3 5.94 3 9 C1.68 8.34 0.36 7.68 -1 7 C-1.04254356 5.00045254 -1.04080783 2.99958364 -1 1 C-0.67 0.67 -0.34 0.34 0 0 Z " fill="#FCDC59" transform="translate(464,451)"/>
<path d="M0 0 C1.051875 0.14695312 1.051875 0.14695312 2.125 0.296875 C3.176875 0.42835937 3.176875 0.42835937 4.25 0.5625 C6.125 1.046875 6.125 1.046875 8.125 3.046875 C3.60407032 4.50294019 0.60851204 3.31720341 -3.875 2.046875 C-1.875 0.046875 -1.875 0.046875 0 0 Z " fill="#FDB914" transform="translate(627.875,77.953125)"/>
<path d="M0 0 C2.97 0.495 2.97 0.495 6 1 C6 1.99 6 2.98 6 4 C3.36 3.67 0.72 3.34 -2 3 C-1.34 2.01 -0.68 1.02 0 0 Z " fill="#FDD148" transform="translate(592,218)"/>
</svg>
