<?xml version="1.0" encoding="UTF-8"?>
<svg version="1.1" xmlns="http://www.w3.org/2000/svg" width="512" height="512">
<path d="M0 0 C4.76038043 3.7260411 9.47147479 7.48644796 14.07421875 11.40625 C15.27884766 12.42525391 15.27884766 12.42525391 16.5078125 13.46484375 C21.49821327 17.78200327 25.84448186 22.3526487 30.07421875 27.40625 C30.95058045 28.42164658 31.82828688 29.43588347 32.70703125 30.44921875 C33.66308489 31.55961654 34.61881326 32.67029448 35.57421875 33.78125 C36.0129834 34.28615967 36.45174805 34.79106934 36.90380859 35.3112793 C37.34160645 35.824729 37.7794043 36.33817871 38.23046875 36.8671875 C38.69308105 37.40480713 39.15569336 37.94242676 39.63232422 38.49633789 C41.07421875 40.40625 41.07421875 40.40625 42.48876953 43.00170898 C45.61371067 48.48863081 45.61371067 48.48863081 51.04003906 51.3125 C54.70081609 51.66985406 58.27121909 51.73990262 61.94921875 51.71875 C64.65485843 51.78704481 67.35833648 51.89629666 70.0625 52.0078125 C70.74048141 52.0321788 71.41846283 52.0565451 72.11698914 52.08164978 C95.7949632 53.05244441 119.42769394 61.09015524 140.07421875 72.40625 C141.28770976 73.05087663 142.50125088 73.69540892 143.71484375 74.33984375 C156.13310801 81.06067558 166.84411712 89.71201083 177.07421875 99.40625 C177.96882813 100.24800781 178.8634375 101.08976563 179.78515625 101.95703125 C199.51379509 121.05015371 213.60362537 145.41515151 222.36035156 171.30078125 C222.97149374 173.10327444 223.60998319 174.89645573 224.25390625 176.6875 C235.27598738 209.15564597 234.71236242 246.21346796 220.703125 277.46484375 C214.37367014 290.10582301 204.5964632 299.61575593 191.19921875 304.28125 C173.92183208 308.76853394 157.91718763 301.64127524 143.07421875 293.40625 C142.45047363 293.06464844 141.82672852 292.72304688 141.18408203 292.37109375 C131.17183974 286.82893174 122.22671321 280.14419096 113.23681641 273.09228516 C109.63039478 270.28059541 105.97969801 267.52867757 102.32421875 264.78125 C101.66881104 264.28455811 101.01340332 263.78786621 100.33813477 263.27612305 C97.01604139 260.77751744 93.6951325 258.46547194 90.07421875 256.40625 C82.14798898 267.24075898 74.36211015 278.13053979 67.07421875 289.40625 C66.38875977 290.46634277 66.38875977 290.46634277 65.68945312 291.54785156 C51.23512009 313.99216435 37.62569506 337.04209039 25.76171875 360.96875 C25.28653809 361.92539551 25.28653809 361.92539551 24.80175781 362.90136719 C22.9810515 366.57064995 22.9810515 366.57064995 21.17382812 370.24658203 C16.45691584 379.82170843 12.46986421 386.12360292 2.27075195 389.79101562 C-1.36171845 390.80844648 -4.85955115 390.89598717 -8.61328125 390.84375 C-9.4007373 390.83472656 -10.18819336 390.82570313 -10.99951172 390.81640625 C-27.82437267 390.32326968 -43.57362868 381.62990304 -56.47265625 371.2890625 C-60.37035327 368.15080419 -60.37035327 368.15080419 -65.125 367.61328125 C-65.94613281 367.81308594 -66.76726562 368.01289063 -67.61328125 368.21875 C-87.57940237 372.25951261 -107.91520578 370.6293824 -126.92578125 363.40625 C-127.72242188 363.10976563 -128.5190625 362.81328125 -129.33984375 362.5078125 C-137.81491098 358.82740482 -145.50606108 351.66407511 -149.0546875 343.11181641 C-152.01958978 333.90300278 -149.06977732 323.77676817 -147.21960449 314.56991577 C-138.92649562 272.98290881 -135.26224597 230.75835603 -133.92578125 188.40625 C-134.82296875 188.4784375 -135.72015625 188.550625 -136.64453125 188.625 C-146.08281399 189.32702103 -155.46144157 189.61476914 -164.92578125 189.40625 C-166.1775415 189.37942139 -166.1775415 189.37942139 -167.45458984 189.35205078 C-192.31125218 188.72938435 -218.87538301 187.06145484 -238.11328125 169.375 C-251.42854986 154.91186341 -251.6031511 136.26035749 -251.10498047 117.80078125 C-250.6981157 110.09363181 -249.11391357 102.78828241 -246.92578125 95.40625 C-246.71147461 94.6829248 -246.49716797 93.95959961 -246.27636719 93.21435547 C-242.95433294 82.38510407 -238.28254718 72.36329201 -232.92578125 62.40625 C-232.60351562 61.79652344 -232.28125 61.18679687 -231.94921875 60.55859375 C-225.44634479 48.31944479 -217.38770352 37.84312379 -208.00390625 27.671875 C-206.10759794 25.6044712 -204.29548519 23.48874907 -202.48828125 21.34375 C-191.45494851 8.7450474 -177.36471182 -1.28297019 -162.92578125 -9.59375 C-162.35666016 -9.92616699 -161.78753906 -10.25858398 -161.20117188 -10.60107422 C-110.4070791 -40.0430442 -46.67670357 -35.39996113 0 0 Z M-43.92578125 188.40625 C-44.24211633 203.58124184 -43.72498456 218.53057022 -42.55078125 233.65625 C-42.48756683 234.48923615 -42.42435242 235.32222229 -42.35922241 236.18045044 C-41.60460431 246.0030567 -40.61688139 255.69382122 -38.92578125 265.40625 C-32.09271137 259.68878337 -25.94117913 253.64692135 -20.1328125 246.89453125 C-17.77043294 244.23110509 -15.34075779 241.64168983 -12.89794922 239.05224609 C-7.42804682 233.25267472 -2.13190232 227.40777697 2.84375 221.171875 C4.52252984 219.0903056 6.22185865 217.04578452 7.9609375 215.015625 C8.70500854 214.14671631 8.70500854 214.14671631 9.46411133 213.26025391 C10.4260294 212.14036178 11.39055023 211.02269787 12.3581543 209.90771484 C14.94819588 206.88465587 17.07181617 203.83862999 19.07421875 200.40625 C10.559884 192.0211113 3.44299637 187.31969976 -8.76953125 187.234375 C-12.99571539 187.2725963 -17.20483999 187.45222822 -21.42578125 187.65625 C-23.61703924 187.71658664 -25.80845917 187.77131397 -28 187.8203125 C-33.31219188 187.95110161 -38.61820623 188.15062853 -43.92578125 188.40625 Z " fill="#080807" transform="translate(265.92578125,75.59375)"/>
<path d="M0 0 C2.27712617 0.01072966 4.55346381 0.00003414 6.83056641 -0.01269531 C15.66422542 -0.02101202 24.07366663 0.61051105 32.77978516 2.26074219 C34.55869141 2.56044922 34.55869141 2.56044922 36.37353516 2.86621094 C77.31343782 11.06519682 115.07404983 34.51838064 138.77978516 69.26074219 C160.51615834 101.93809624 174.90374838 143.1401836 167.59228516 182.76074219 C164.10222363 198.48217674 158.88625214 214.81355836 145.77978516 225.26074219 C145.44978516 225.26074219 145.11978516 225.26074219 144.77978516 225.26074219 C144.77043945 224.70314209 144.76109375 224.14554199 144.75146484 223.57104492 C144.16870693 195.76149465 135.70168047 173.1826375 115.77978516 153.26074219 C104.7008389 143.51963095 92.47649316 140.12106726 77.86425781 141.02246094 C64.93237918 142.50073612 55.34139771 151.8901333 47.63525391 161.57714844 C41.55273395 169.37329932 35.64756091 177.30237931 29.77978516 185.26074219 C29.21324219 186.02725098 28.64669922 186.79375977 28.06298828 187.58349609 C19.24125316 199.54948223 10.89891075 211.80856245 2.77978516 224.26074219 C2.27092773 225.03998047 1.76207031 225.81921875 1.23779297 226.62207031 C-12.37549753 247.56697475 -24.45466372 269.31660271 -35.78271484 291.56152344 C-36.63349609 293.21595459 -36.63349609 293.21595459 -37.50146484 294.90380859 C-38.6857797 297.21692354 -39.85061776 299.53435641 -41.00146484 301.86376953 C-41.58927734 303.0195752 -42.17708984 304.17538086 -42.78271484 305.36621094 C-43.29962891 306.40285889 -43.81654297 307.43950684 -44.34912109 308.50756836 C-47.15181124 312.63151627 -50.53335096 314.69845423 -55.22021484 316.26074219 C-71.54151912 318.18274906 -87.00364121 308.90094548 -99.53271484 299.41308594 C-111.6486536 289.70976871 -124.15588966 278.28967983 -126.69677734 262.25292969 C-127.06364028 256.83151072 -126.79624157 253.17891911 -123.22021484 248.94824219 C-121.92116348 247.68289874 -120.58708334 246.45250516 -119.22021484 245.26074219 C-118.31722656 244.44089844 -118.31722656 244.44089844 -117.39599609 243.60449219 C-116.11218245 242.46332451 -114.81432936 241.33782215 -113.50537109 240.22558594 C-110.23695912 237.41531034 -107.07595232 234.49083942 -103.90698242 231.56982422 C-101.445953 229.30191381 -98.97880114 227.04450448 -96.48583984 224.81152344 C-89.76172076 218.76171573 -83.31317078 212.45946777 -76.90771484 206.07324219 C-76.05951172 205.22963135 -75.21130859 204.38602051 -74.33740234 203.5168457 C-69.98789032 199.15663114 -65.78738408 194.72969437 -61.77319336 190.05883789 C-59.52836598 187.4596941 -57.18604763 184.96129841 -54.84521484 182.44824219 C-50.55146104 177.80035677 -46.48489644 173.01657871 -42.51708984 168.08496094 C-40.49459444 165.5981171 -38.42787688 163.15725728 -36.33740234 160.72753906 C-30.42730603 153.84649835 -24.90502075 146.71031419 -19.43115234 139.47949219 C-16.90981803 136.15212023 -14.34475404 132.86363263 -11.74975586 129.59350586 C-0.71861451 115.690011 8.09417336 103.73519854 6.77978516 85.26074219 C4.72119095 72.71727408 -1.74475405 62.64096819 -11.99365234 55.26464844 C-31.7404031 42.36831369 -56.85914801 36.51734366 -80.25537109 40.90527344 C-82.9741681 41.57588801 -85.58530488 42.31900585 -88.22021484 43.26074219 C-89.21021484 43.59074219 -90.20021484 43.92074219 -91.22021484 44.26074219 C-90.39381183 38.22164325 -87.0858978 34.77461037 -83.22021484 30.26074219 C-82.71619141 29.66003906 -82.21216797 29.05933594 -81.69287109 28.44042969 C-70.28888363 15.96278437 -52.95425485 8.96330577 -37.03271484 4.44824219 C-36.34532227 4.25327148 -35.65792969 4.05830078 -34.94970703 3.85742188 C-23.3570403 0.77871366 -11.93059348 -0.06669435 0 0 Z " fill="#FEE9A8" transform="translate(317.22021484375,138.7392578125)"/>
<path d="M0 0 C1.05445313 0.56460938 2.10890625 1.12921875 3.1953125 1.7109375 C15.85043363 8.74890304 26.56748528 18.0649896 37 28 C37.70640625 28.65355469 38.4128125 29.30710938 39.140625 29.98046875 C43.4590914 34.09705562 47.2219197 38.59370586 50.9375 43.25 C51.4229126 43.85303955 51.9083252 44.4560791 52.40844727 45.07739258 C54.712141 48.02367183 56.26629085 50.33889551 57 54 C55.89785156 54.15855469 54.79570312 54.31710938 53.66015625 54.48046875 C27.47895044 58.42976803 3.06105044 66.93894956 -16 86 C-16.57234375 86.57234375 -17.1446875 87.1446875 -17.734375 87.734375 C-25.72112916 96.37983053 -30.6067411 107.18467218 -30.30078125 118.98828125 C-28.12393603 140.7850042 -11.31057123 156.46059411 4.0546875 170.30859375 C6.78386776 172.80249985 9.39534276 175.37749512 12 178 C-9.29828698 178.04690716 -30.59656533 178.08207996 -51.89489365 178.10362434 C-61.78606655 178.11389765 -71.67720719 178.12788167 -81.56835938 178.15087891 C-90.19849301 178.17093452 -98.82860325 178.18374504 -107.45875955 178.18817699 C-112.02016108 178.19076395 -116.58149576 178.19676015 -121.14287567 178.21146011 C-187.24502146 178.41592883 -187.24502146 178.41592883 -205.2890625 163.05078125 C-217.19083902 150.16141051 -216.88697165 133.90694129 -216.22949219 117.30908203 C-213.96891039 84.71341647 -194.36083295 54.45859576 -172.36914062 31.43652344 C-171.04194932 30.04401387 -169.7316017 28.63551092 -168.421875 27.2265625 C-124.02913386 -19.15986462 -56.28402788 -30.99562992 0 0 Z " fill="#FEC675" transform="translate(243,75)"/>
<path d="M0 0 C21.78 0 43.56 0 66 0 C66.433125 7.940625 66.86625 15.88125 67.3125 24.0625 C68.24539887 40.71791685 69.28312064 57.32436484 71.08520508 73.91040039 C72.80866416 89.79604634 72.80866416 89.79604634 70.77734375 92.8203125 C70.17019531 93.25085938 69.56304687 93.68140625 68.9375 94.125 C64.54332341 97.52441647 60.52911145 101.18242312 56.5 105 C52.55484396 108.72740864 48.61892537 112.36131435 44.375 115.75 C39.39552764 120.10975637 36.61363113 125.32827273 35.5234375 131.8515625 C34.81089058 146.06499845 42.70001623 158.10941524 51 169 C45.04431996 170.71430698 39.68686364 171.35422142 33.5 171.3125 C32.62923828 171.30758545 31.75847656 171.3026709 30.86132812 171.29760742 C15.52767584 171.02459225 -1.61651142 168.1552482 -13 157 C-17.27713054 150.85162484 -16.35152896 144.13480423 -15.13650513 137.06512451 C-15.01153656 136.37847717 -14.88656799 135.69182983 -14.7578125 134.984375 C-14.62937958 134.24729309 -14.50094666 133.51021118 -14.36862183 132.75079346 C-13.960407 130.41603047 -13.54297946 128.0830325 -13.125 125.75 C-12.85223167 124.2019343 -12.58009157 122.65375777 -12.30859375 121.10546875 C-11.78036292 118.09700214 -11.25079309 115.08877788 -10.71972656 112.08081055 C-10.59650024 111.38192719 -10.47327393 110.68304382 -10.34631348 109.96298218 C-10.04106755 108.23278003 -9.73495647 106.50273057 -9.42871094 104.77270508 C-8.02124453 96.61091482 -6.98306145 88.40917807 -6 80.1875 C-5.91317963 79.46390289 -5.82635925 78.74030579 -5.73690796 77.99478149 C-3.50154346 59.28417166 -1.86426842 40.68588686 -1.34106445 21.83862305 C-1.30972412 20.73301025 -1.27838379 19.62739746 -1.24609375 18.48828125 C-1.22216553 17.52446533 -1.1982373 16.56064941 -1.17358398 15.56762695 C-0.92068418 10.36984234 -0.43216315 5.18595779 0 0 Z " fill="#FDE8A8" transform="translate(144,263)"/>
<path d="M0 0 C1.52923426 0.10470816 1.52923426 0.10470816 3.08936214 0.21153164 C13.70221232 0.9061048 24.26924446 1.1667981 34.90258789 1.20532227 C36.61936155 1.21493344 38.33613301 1.22494523 40.05290222 1.23532104 C44.65504021 1.26202603 49.2571881 1.28321866 53.85935903 1.30332303 C58.69063507 1.32539851 63.52188185 1.35268028 68.35313416 1.37937927 C77.47570506 1.42901797 86.59829246 1.474062 95.72089523 1.51740164 C106.11772529 1.5670226 116.51452596 1.62184741 126.91132748 1.67708123 C148.27419085 1.79045798 169.63708237 1.89739107 191 2 C191.33 1.34 191.66 0.68 192 0 C192.37769531 0.65484375 192.75539062 1.3096875 193.14453125 1.984375 C200.3067682 13.85993415 209.83929098 23.10001083 220.0546875 32.30859375 C222.78386776 34.80249985 225.39534276 37.37749512 228 40 C206.70171302 40.04690716 185.40343467 40.08207996 164.10510635 40.10362434 C154.21393345 40.11389765 144.32279281 40.12788167 134.43164062 40.15087891 C125.80150699 40.17093452 117.17139675 40.18374504 108.54124045 40.18817699 C103.97983892 40.19076395 99.41850424 40.19676015 94.85712433 40.21146011 C28.75497854 40.41592883 28.75497854 40.41592883 10.7109375 25.05078125 C3.82338085 17.59170394 1.45331714 9.88276553 0 0 Z " fill="#F1B05A" transform="translate(27,213)"/>
<path d="M0 0 C2.87376238 2.79813705 3.87850772 4.3560909 4.625 8.3125 C3.61540278 14.26912358 0.52216907 18.00430723 -4.17895508 21.72412109 C-10.0276352 25.79912346 -15.97451397 29.36701898 -22.3125 32.625 C-23.28815918 33.1293457 -24.26381836 33.63369141 -25.26904297 34.15332031 C-91.47293018 67.89293644 -91.47293018 67.89293644 -116 65 C-119.05496902 63.33591118 -120.44964645 61.1007071 -122 58 C-122.45955321 51.79270151 -121.55120614 47.73049416 -118.6875 42.25 C-118.33284668 41.55898193 -117.97819336 40.86796387 -117.61279297 40.15600586 C-113.77491258 33.043189 -108.78166232 27.57721881 -103 22 C-101.86498047 20.83597656 -101.86498047 20.83597656 -100.70703125 19.6484375 C-78.44983266 -2.03413462 -27.63160038 -22.79607031 0 0 Z " fill="#FFD79E" transform="translate(192,95)"/>
<path d="M0 0 C15.11797137 11.12156851 26.75335199 29.06864278 30.62109375 47.52734375 C30.84042242 51.00379531 30.80621971 54.48213351 30.80859375 57.96484375 C30.82083984 58.90650391 30.83308594 59.84816406 30.84570312 60.81835938 C30.86377062 69.35224174 30.86377062 69.35224174 28.62109375 73.52734375 C8.26504213 75.1486222 -10.67355504 60.98237644 -26.37890625 49.52734375 C-27.37470703 48.8017627 -27.37470703 48.8017627 -28.390625 48.06152344 C-38.27112137 40.82315207 -47.86408432 33.23763048 -57.37890625 25.52734375 C-49.90766372 13.32746671 -40.12062838 -0.88277167 -25.72265625 -5 C-16.40404216 -6.87925384 -8.06804922 -4.99450666 0 0 Z " fill="#C28956" transform="translate(420.37890625,295.47265625)"/>
<path d="M0 0 C1.00716064 0.00684814 2.01432129 0.01369629 3.05200195 0.02075195 C21.97997784 0.42328238 39.78050234 6.9423875 53.8125 19.8125 C60.53237053 27.02484331 61.38143505 33.91429685 61.37109375 43.59375 C60.32482648 52.868768 56.52880695 59.01949165 50.875 66.3125 C49.61304923 67.97638655 48.35132077 69.64044174 47.08984375 71.3046875 C46.53288818 72.02769043 45.97593262 72.75069336 45.40209961 73.49560547 C44.19069918 75.10178634 43.05344155 76.76358768 41.9375 78.4375 C36.68272318 76.83101004 32.85504127 73.492496 28.625 70.125 C27.83464355 69.50197998 27.04428711 68.87895996 26.22998047 68.23706055 C23.79329699 66.31112189 21.36464048 64.37544553 18.9375 62.4375 C18.20901855 61.8590332 17.48053711 61.28056641 16.72998047 60.68457031 C7.80958114 53.59203702 -0.79585262 46.28574345 -9.0625 38.4375 C-9.73796875 37.81488281 -10.4134375 37.19226563 -11.109375 36.55078125 C-18.7045763 29.34206144 -26.72446088 19.14181298 -28.0625 8.4375 C-26.92550618 7.65368682 -25.77714876 6.88636146 -24.625 6.125 C-23.98691406 5.69574219 -23.34882813 5.26648438 -22.69140625 4.82421875 C-15.25670396 0.90249615 -8.3411486 -0.08760975 0 0 Z " fill="#C28956" transform="translate(252.0625,188.5625)"/>
<path d="M0 0 C0.65887207 0.25201172 1.31774414 0.50402344 1.99658203 0.76367188 C10.73847016 4.15234708 18.68143568 8.05055485 26 14 C27.26070312 15.01707031 27.26070312 15.01707031 28.546875 16.0546875 C36.56619217 22.88325757 45.65349796 32.15399294 47.30859375 43.02734375 C47.536933 46.74304612 47.1327529 48.79202046 45.125 51.9375 C41.95454564 55.0147057 39.96578116 55.25337946 35.625 55.4375 C19.50481069 55.15866429 4.40178776 47.70431541 -10.25 41.625 C-11.00846222 41.31102264 -11.76692444 40.99704529 -12.54837036 40.67355347 C-53.59585057 23.59997146 -53.59585057 23.59997146 -60 13 C-60.625 9.4375 -60.625 9.4375 -60 6 C-47.89729606 -10.26300842 -16.34971952 -6.42647935 0 0 Z " fill="#FFEFC2" transform="translate(369,158)"/>
<path d="M0 0 C21.78 0 43.56 0 66 0 C66.433125 7.940625 66.86625 15.88125 67.3125 24.0625 C68.24539887 40.71791685 69.28312064 57.32436484 71.08520508 73.91040039 C72.80866416 89.79604634 72.80866416 89.79604634 70.77734375 92.8203125 C70.17019531 93.25085938 69.56304687 93.68140625 68.9375 94.125 C63.6455007 98.19650217 58.91560165 102.75720015 54.10522461 107.37744141 C53.47495361 107.97347168 52.84468262 108.56950195 52.1953125 109.18359375 C51.62828613 109.72556396 51.06125977 110.26753418 50.47705078 110.82592773 C49 112 49 112 47 112 C45.96107838 100.45995503 45.01425206 88.93342965 44.75 77.34765625 C44.73279404 76.62189896 44.71558807 75.89614166 44.69786072 75.14839172 C44.61728712 71.58986083 44.55550487 68.03213564 44.51782227 64.47290039 C44.24842942 50.38442903 42.05596701 39.74435403 32.4375 29.1875 C31.633125 28.465625 30.82875 27.74375 30 27 C29.2575 26.319375 28.515 25.63875 27.75 24.9375 C19.11648186 18.85479404 10.25425911 17.95622539 0 17 C0 20.63 0 24.26 0 28 C-0.33 28 -0.66 28 -1 28 C-1.02760245 25.58325176 -1.04712014 23.16683459 -1.0625 20.75 C-1.07087891 20.08742188 -1.07925781 19.42484375 -1.08789062 18.7421875 C-1.11785002 12.39079484 -0.53454623 6.41455479 0 0 Z " fill="#F5D791" transform="translate(144,263)"/>
<path d="M0 0 C16.65770809 0.53734542 33.35306521 7.66897578 45.5625 18.9375 C52.4180686 26.44528972 53.44432774 33.10923266 53.43359375 43.15625 C52.38732648 52.431268 48.59130695 58.58199165 42.9375 65.875 C41.67554923 67.53888655 40.41382077 69.20294174 39.15234375 70.8671875 C38.59538818 71.59019043 38.03843262 72.31319336 37.46459961 73.05810547 C36.25319918 74.66428634 35.11594155 76.32608768 34 78 C29.32800909 76.46906512 25.97829995 73.89242605 22.1875 70.875 C21.2912793 70.17310547 21.2912793 70.17310547 20.37695312 69.45703125 C18.91383208 68.30994435 17.45633703 67.15568766 16 66 C16.38671875 65.5153125 16.7734375 65.030625 17.171875 64.53125 C25.70565898 53.54717161 28.20269729 43.81627184 27 30 C26.17147376 26.28820246 24.9098629 23.27749344 23 20 C22.62230469 19.319375 22.24460937 18.63875 21.85546875 17.9375 C18.12640635 12.16928263 12.67175449 8.67092582 7.0234375 4.98046875 C4.60443618 3.39592913 2.28597882 1.76745192 0 0 Z " fill="#B57547" transform="translate(260,189)"/>
<path d="M0 0 C11.41078927 8.39437193 21.53914924 20.82513807 25.62109375 34.52734375 C22.57462596 33.16445026 20.50355362 31.5971073 18.12109375 29.27734375 C8.69721955 21.05944979 -0.3294692 18.18135656 -12.6796875 18.89453125 C-24.35046125 20.1200453 -32.39726809 26.6634255 -39.68359375 35.3671875 C-40.24304688 36.08003906 -40.8025 36.79289062 -41.37890625 37.52734375 C-45.33990432 34.94862946 -49.0778787 32.25790663 -52.75390625 29.27734375 C-53.62789063 28.5709375 -54.501875 27.86453125 -55.40234375 27.13671875 C-56.05460937 26.605625 -56.706875 26.07453125 -57.37890625 25.52734375 C-49.90766372 13.32746671 -40.12062838 -0.88277167 -25.72265625 -5 C-16.40404216 -6.87925384 -8.06804922 -4.99450666 0 0 Z " fill="#B57547" transform="translate(420.37890625,295.47265625)"/>
<path d="M0 0 C10.92663157 19.72339906 7.56507191 50.93285617 1.96875 71.85546875 C-1.45448484 83.60078256 -7.2516348 95.22956397 -17 103 C-17.33 103 -17.66 103 -18 103 C-18.0093457 102.4423999 -18.01869141 101.8847998 -18.02832031 101.31030273 C-18.36199184 85.38730104 -20.49339593 71.70907835 -27 57 C-26.50371094 56.68289063 -26.00742187 56.36578125 -25.49609375 56.0390625 C-10.62872228 45.82656065 -4.27283459 27.02952944 -1 10 C-0.52440675 6.66681676 -0.16167818 3.36290624 0 0 Z " fill="#F5D690" transform="translate(480,261)"/>
<path d="M0 0 C4.93872808 3.99915621 9.1821935 8.24992262 13.25 13.125 C13.765625 13.73214844 14.28125 14.33929688 14.8125 14.96484375 C16.22209555 16.63238076 17.61436912 18.3125379 19 20 C19.92039062 21.10988281 19.92039062 21.10988281 20.859375 22.2421875 C22 24 22 24 22 27 C18.37 27.33 14.74 27.66 11 28 C10.54109375 26.70964844 10.0821875 25.41929688 9.609375 24.08984375 C8.98992332 22.37227318 8.37011254 20.65483208 7.75 18.9375 C7.44964844 18.08994141 7.14929688 17.24238281 6.83984375 16.36914062 C5.39728454 12.39442961 3.9124254 8.65479212 1.765625 5.00390625 C0 2 0 2 0 0 Z " fill="#EEAE59" transform="translate(278,102)"/>
<path d="M0 0 C3.83384234 0.30069352 6.59957923 0.78310542 10 2.625 C12 5 12 5 12 8.625 C11 12 11 12 8 14 C3.6253342 13.76975443 1.06096527 12.06096527 -2 9 C-3 6.5 -3 6.5 -3 4 C-1.5625 1.6875 -1.5625 1.6875 0 0 Z " fill="#110E09" transform="translate(94,218)"/>
<path d="M0 0 C3.94277862 1.18283358 5.62013582 2.69591106 8.125 5.9375 C8.69585094 8.93446745 8.60686565 10.20202085 6.9375 12.75 C4.36993261 14.43219933 3.15424147 14.50107981 0.125 13.9375 C-3.1875 11.875 -3.1875 11.875 -5.875 8.9375 C-6.4375 5.25 -6.4375 5.25 -5.875 1.9375 C-2.875 -0.0625 -2.875 -0.0625 0 0 Z " fill="#0F0C09" transform="translate(64.875,216.0625)"/>
<path d="M0 0 C2.4375 1.6875 2.4375 1.6875 4 4 C4.375 7.125 4.375 7.125 4 10 C2 12 2 12 -0.75 12.4375 C-5.41275545 11.80982138 -6.89708284 10.5570026 -10 7 C-10 3.25 -10 3.25 -9 0 C-5.81452856 -1.59273572 -3.39809153 -0.76164121 0 0 Z " fill="#0A0907" transform="translate(87,185)"/>
</svg>
