<?xml version="1.0" encoding="UTF-8"?>
<svg version="1.1" xmlns="http://www.w3.org/2000/svg" width="479" height="640">
<path d="M0 0 C1.97303774 1.97303774 2.77145934 3.54291869 4 6 C4.99 6.99 4.99 6.99 6 8 C5.625 10.125 5.625 10.125 5 12 C3.25 12.75 3.25 12.75 1 13 C-1.25 11.0625 -1.25 11.0625 -3 9 C-3.66 9.33 -4.32 9.66 -5 10 C-3.7934375 11.2065625 -3.7934375 11.2065625 -2.5625 12.4375 C1 16 1 16 1.1875 18.9375 C1 22 1 22 -1 24 C6.3430246 24.98375449 13.7263237 25.19382449 21.125 25.3125 C22.51936279 25.35697266 22.51936279 25.35697266 23.94189453 25.40234375 C29.76214384 25.45188657 33.9366063 24.58588009 39.11450195 21.88842773 C41.48218218 20.7728006 43.41783651 20.66681761 46 21 C46.33 21.99 46.66 22.98 47 24 C47.6705542 23.64695801 48.3411084 23.29391602 49.03198242 22.93017578 C52.08249781 21.32591858 55.13497261 19.72542528 58.1875 18.125 C59.24259766 17.56941406 60.29769531 17.01382813 61.38476562 16.44140625 C62.40634766 15.90644531 63.42792969 15.37148437 64.48046875 14.8203125 C65.88655396 14.08192139 65.88655396 14.08192139 67.32104492 13.32861328 C70 12 70 12 72.77856445 11.00341797 C73.51163818 10.67229004 74.24471191 10.34116211 75 10 C75.73080266 8.02253397 76.39421747 6.01927511 77 4 C78.6875 1.625 78.6875 1.625 81 0 C84.4375 -0.5625 84.4375 -0.5625 88 0 C92.18203869 3.15976257 93.57089792 6.0531082 95 11 C95.66 11.66 96.32 12.32 97 13 C97.3359375 15.0234375 97.3359375 15.0234375 97.375 17.375 C97.40335937 18.14585937 97.43171875 18.91671875 97.4609375 19.7109375 C96.81965208 22.89562609 95.51164974 23.98569087 93 26 C90.44580078 26.21484375 90.44580078 26.21484375 87.5703125 25.9375 C80.16495058 25.68547918 74.56638721 28.05260325 67.875 31 C65.66506381 31.93985792 63.45417536 32.87748098 61.2421875 33.8125 C59.80141846 34.44091797 59.80141846 34.44091797 58.33154297 35.08203125 C56 36 56 36 54 36 C53.95875 37.051875 53.9175 38.10375 53.875 39.1875 C52.72418674 44.2017578 51.02417775 45.00327189 47 48 C46.77636223 50.34281317 46.77636223 50.34281317 49.375 52.625 C52.93602965 55.45534668 56.02043915 55.64895321 60.47265625 55.44140625 C63.80370678 54.85963081 66.33270453 53.55706114 69.25 51.8984375 C71.62681355 50.6781984 73.38228265 50.55124845 76 51 C76.99 51.66 77.98 52.32 79 53 C83.10322646 51.03907077 87.17797924 49.02483579 91.25 47 C92.40886719 46.44699219 93.56773437 45.89398438 94.76171875 45.32421875 C101.86203105 41.75354146 105.18491561 39.46471816 108 32 C111.5086396 29.66090693 112.87089433 29.58708943 117 30 C121.63235294 32.26470588 121.63235294 32.26470588 123 35 C123.039992 36.99960012 123.04346799 39.00047242 123 41 C123.639375 41.20625 124.27875 41.4125 124.9375 41.625 C127 43 127 43 127.9375 45.8125 C128.01111746 49.56699058 127.22526721 51.03297706 125 54 C123 56 123 56 120.64111328 56.01953125 C119.66899902 55.95121094 118.69688477 55.88289063 117.6953125 55.8125 C110.27454953 55.68834024 104.582772 58.04538614 97.875 61 C95.66506381 61.93985792 93.45417536 62.87748098 91.2421875 63.8125 C89.80141846 64.44091797 89.80141846 64.44091797 88.33154297 65.08203125 C86 66 86 66 84 66 C84.061875 67.4540625 84.061875 67.4540625 84.125 68.9375 C83.37107608 74.96889132 77.43489606 78.45047339 73 82 C73.4640625 83.051875 73.4640625 83.051875 73.9375 84.125 C76.10632019 89.99357229 76.05859522 95.30754759 75.625 101.4375 C75.55925781 102.52514648 75.55925781 102.52514648 75.4921875 103.63476562 C75.20121718 108.13268189 74.69239015 112.54640572 74 117 C74.94101562 117.59167969 75.88203125 118.18335938 76.8515625 118.79296875 C78.10951567 119.59092412 79.36732025 120.38911376 80.625 121.1875 C81.24246094 121.57486328 81.85992187 121.96222656 82.49609375 122.36132812 C88.07234739 125.91252123 93.29264592 129.60756147 97.25 135 C97.72953125 135.639375 98.2090625 136.27875 98.703125 136.9375 C101.22931462 140.95505458 102.25283972 144.4232138 102.23046875 149.16015625 C102.22853516 150.11857422 102.22660156 151.07699219 102.22460938 152.06445312 C102.21236328 153.05380859 102.20011719 154.04316406 102.1875 155.0625 C102.18685547 156.05572266 102.18621094 157.04894531 102.18554688 158.07226562 C102.14079117 165.45695695 102.14079117 165.45695695 101.42944336 168.20068359 C100.77631821 170.0606088 100.77631821 170.0606088 101.9609375 171.81640625 C102.42757813 172.39261719 102.89421875 172.96882812 103.375 173.5625 C106.8551624 177.92728469 107.49071421 181.74624008 107.38671875 187.25 C106.31544137 194.86797251 101.50223355 199.9620156 95.6875 204.625 C56.77806275 231.65731965 1.50811569 234.22407616 -44.3125 234.25 C-45.38970306 234.25067474 -46.46690613 234.25134949 -47.57675171 234.25204468 C-86.26438838 234.21377373 -125.67268997 230.89087948 -162.1171875 217.015625 C-164.74835243 216.08865632 -167.25432242 215.46605597 -170 215 C-170 214.34 -170 213.68 -170 213 C-170.87527344 212.73960937 -171.75054687 212.47921875 -172.65234375 212.2109375 C-175.98700574 211.00470037 -178.59844872 209.55606044 -181.5625 207.625 C-182.47128906 207.03976562 -183.38007813 206.45453125 -184.31640625 205.8515625 C-190.71495756 201.43684151 -194.89881533 197.21542299 -198 190 C-199.12129968 183.83285175 -198.14923265 179.41668015 -195 174 C-194.04740688 170.58654134 -193.86140142 169.41579574 -195 166 C-195.28197401 162.44246035 -195.27759316 158.87997927 -195.3125 155.3125 C-195.34150391 154.34376953 -195.37050781 153.37503906 -195.40039062 152.37695312 C-195.47833776 143.50896778 -192.83004498 137.30673036 -186.86328125 130.77734375 C-180.65494777 124.8553485 -173.5596192 120.57623599 -165.9375 116.75 C-164.90955322 116.23203857 -164.90955322 116.23203857 -163.86083984 115.70361328 C-160.02818861 113.82817785 -156.38610365 112.53109314 -152.25 111.4375 C-149.84826405 110.66484686 -149.84826405 110.66484686 -148 109 C-146.2332583 104.79860205 -145.38453974 100.49802761 -144.47607422 96.05664062 C-140.79942489 80.17351553 -131.17197746 66.51541981 -120 55 C-119.10087891 53.99066406 -119.10087891 53.99066406 -118.18359375 52.9609375 C-100.98356643 34.31209578 -72.27341181 23.1552689 -47.27758789 21.79785156 C-42.64676689 21.67166958 -38.01689049 21.58611911 -33.38452148 21.54370117 C-31.40070319 21.52212504 -29.41711305 21.48204807 -27.43359375 21.44140625 C-26.26884521 21.42795166 -25.10409668 21.41449707 -23.90405273 21.40063477 C-20.67878333 20.95568587 -20.05877131 20.36292152 -18 18 C-15.3125 18.3125 -15.3125 18.3125 -13 19 C-13.061875 18.071875 -13.12375 17.14375 -13.1875 16.1875 C-13 13 -13 13 -11.625 11.125 C-10 10 -10 10 -8 10 C-6.99782936 6.41672247 -6.99782936 6.41672247 -8 3 C-6.02 3.33 -4.04 3.66 -2 4 C-1.34 2.68 -0.68 1.36 0 0 Z M-2 4 C-1.60196439 6.88575819 -1.20990931 7.82189513 1.0625 9.75 C1.701875 10.1625 2.34125 10.575 3 11 C3 10.01 3 9.02 3 8 C0.5609294 5.79857668 0.5609294 5.79857668 -2 4 Z M-11 13 C-11 14.65 -11 16.3 -11 18 C-8.525 18.99 -8.525 18.99 -6 20 C-5.34 19.34 -4.68 18.68 -4 18 C-4.32041397 15.39719432 -4.32041397 15.39719432 -5 13 C-8.04913228 11.98888907 -8.04913228 11.98888907 -11 13 Z M-2 17 C-3.485 19.475 -3.485 19.475 -5 22 C-3.68 21.67 -2.36 21.34 -1 21 C-1.33 19.68 -1.66 18.36 -2 17 Z M-17 20 C-17.99 21.485 -17.99 21.485 -19 23 C-16.69 23.33 -14.38 23.66 -12 24 C-13.31200404 22.64567325 -14.64631404 21.31266518 -16 20 C-16.33 20 -16.66 20 -17 20 Z M-11 21 C-10.34 22.32 -9.68 23.64 -9 25 C-7.35 25 -5.7 25 -4 25 C-4.66 24.67 -5.32 24.34 -6 24 C-6 23.34 -6 22.68 -6 22 C-7.65 21.67 -9.3 21.34 -11 21 Z " fill="#F5923A" transform="translate(285,211)"/>
<path d="M0 0 C-0.02094727 0.75506836 -0.04189453 1.51013672 -0.06347656 2.28808594 C-0.14764582 5.77525007 -0.19897679 9.26219944 -0.25 12.75 C-0.28351563 13.93722656 -0.31703125 15.12445313 -0.3515625 16.34765625 C-0.50006414 29.93555652 3.39461303 40.52548317 12.375 50.6875 C32.1981387 68.15074123 56.3982776 71.5498311 81.93359375 71.44604492 C85.09962828 71.43756793 88.26383123 71.466349 91.4296875 71.49804688 C104.50298215 71.5421385 116.75745496 70.2362546 129.53747559 67.50845337 C132.89170451 66.81588399 136.26167697 66.23281296 139.63768005 65.65727234 C165.00819745 61.16443803 191.97229177 51.1592406 208 30 C212.60586685 23.03939549 216.20125983 15.85733264 219 8 C223.53746885 9.29641967 226.80151342 11.03954781 230.5625 13.875 C231.47128906 14.55304688 232.38007813 15.23109375 233.31640625 15.9296875 C234.20199219 16.61289062 235.08757812 17.29609375 236 18 C236.87140625 18.66386719 237.7428125 19.32773437 238.640625 20.01171875 C240.84212424 21.86695569 242.48325287 23.63014128 244.1875 25.9375 C244.67605469 26.58589844 245.16460937 27.23429687 245.66796875 27.90234375 C248.2238313 31.92726513 249.25294128 35.40170889 249.23046875 40.16015625 C249.22853516 41.11857422 249.22660156 42.07699219 249.22460938 43.06445312 C249.21236328 44.05380859 249.20011719 45.04316406 249.1875 46.0625 C249.18685547 47.05572266 249.18621094 48.04894531 249.18554688 49.07226562 C249.14079117 56.45695695 249.14079117 56.45695695 248.42944336 59.20068359 C247.77631821 61.0606088 247.77631821 61.0606088 248.9609375 62.81640625 C249.42757813 63.39261719 249.89421875 63.96882813 250.375 64.5625 C253.8551624 68.92728469 254.49071421 72.74624008 254.38671875 78.25 C253.31544137 85.86797251 248.50223355 90.9620156 242.6875 95.625 C203.77806275 122.65731965 148.50811569 125.22407616 102.6875 125.25 C101.61029694 125.25067474 100.53309387 125.25134949 99.42324829 125.25204468 C60.73561162 125.21377373 21.32731003 121.89087948 -15.1171875 108.015625 C-17.74835243 107.08865632 -20.25432242 106.46605597 -23 106 C-23 105.34 -23 104.68 -23 104 C-24.31291016 103.60941406 -24.31291016 103.60941406 -25.65234375 103.2109375 C-28.98700574 102.00470037 -31.59844872 100.55606044 -34.5625 98.625 C-35.47128906 98.03976562 -36.38007812 97.45453125 -37.31640625 96.8515625 C-43.71495756 92.43684151 -47.89881533 88.21542299 -51 81 C-52.12129968 74.83285175 -51.14923265 70.41668015 -48 65 C-47.04740688 61.58654134 -46.86140142 60.41579574 -48 57 C-48.28197401 53.44246035 -48.27759316 49.87997927 -48.3125 46.3125 C-48.35600586 44.8594043 -48.35600586 44.8594043 -48.40039062 43.37695312 C-48.47833776 34.50896778 -45.83004498 28.30673036 -39.86328125 21.77734375 C-31.6634398 13.95569205 -12.12608624 0 0 0 Z " fill="#D9D5E8" transform="translate(138,320)"/>
<path d="M0 0 C3.78119644 3.38645616 4.53844597 7.07675699 5 12 C5.02287661 14.88245236 4.9079081 17.74721813 4.75 20.625 C4.71165039 21.34123535 4.67330078 22.0574707 4.63378906 22.79541016 C3.38866364 40.45096314 -6.47594709 56.91963334 -19 69 C-38.34765102 85.7023442 -64.07087372 92.2658151 -88.65917969 96.39819336 C-90.95096177 96.81102899 -93.23338076 97.27844713 -95.50488281 97.79125977 C-106.68988037 100.22595635 -117.61896001 100.49230148 -129.04345703 100.44604492 C-132.23145548 100.43754942 -135.4176465 100.46637977 -138.60546875 100.49804688 C-162.43861282 100.57999802 -186.46247525 97.1250225 -204.75 80.5 C-205.86375 79.2625 -205.86375 79.2625 -207 78 C-207.73669922 77.23429687 -207.73669922 77.23429687 -208.48828125 76.453125 C-216.83289775 67.42520244 -219.37020906 56.46773299 -219.25 44.4375 C-219.24323242 43.46675537 -219.23646484 42.49601074 -219.22949219 41.49584961 C-218.92198261 19.95766413 -218.92198261 19.95766413 -213 12 C-212.34 11.67 -211.68 11.34 -211 11 C-210.77957031 12.30710937 -210.77957031 12.30710937 -210.5546875 13.640625 C-207.84296819 28.04078961 -202.43051617 40.12661763 -190.0625 48.625 C-175.03143216 57.6353932 -159.26496862 59.92623763 -142 61 C-143.01854575 58.29573879 -143.81207554 56.22272529 -145.6875 54 C-147 52 -147 52 -146.875 49.4375 C-145.91041439 46.75044008 -145.38918727 45.56532959 -143 44 C-140.15581508 43.75794171 -137.81162631 43.76436656 -135.0625 44.5625 C-129.57534397 45.72644219 -125.54910517 43.77384461 -121 41 C-115.31430179 39.29920259 -110.22748951 38.68656848 -104.3125 38.75 C-103.57966797 38.74226563 -102.84683594 38.73453125 -102.09179688 38.7265625 C-97.95427119 38.74148595 -94.71886805 39.15156855 -91 41 C-91.37253906 40.32453125 -91.74507813 39.6490625 -92.12890625 38.953125 C-92.83853516 37.61507812 -92.83853516 37.61507812 -93.5625 36.25 C-94.03816406 35.36828125 -94.51382813 34.4865625 -95.00390625 33.578125 C-96.07998186 30.79298812 -96.06528748 29.73019786 -95 27 C-94.64808594 27.72445313 -94.29617188 28.44890625 -93.93359375 29.1953125 C-88.46385223 39.90629459 -83.33574341 44.27700831 -71.8359375 48.08984375 C-63.12147548 50.15753179 -53.46640461 50.16669785 -45 47 C-44.06671875 46.65839844 -43.1334375 46.31679688 -42.171875 45.96484375 C-22.02595786 38.09376306 -13.42742219 24.2762584 -4.34765625 5.6015625 C-3.11485753 3.22172496 -2.01761444 1.72938381 0 0 Z " fill="#F28627" transform="translate(356,292)"/>
<path d="M0 0 C1.93130605 1.85405381 3.77698532 3.72729504 5.47265625 5.80078125 C10.00863682 11.32331078 15.02494488 15.12455374 21 19 C22.20896369 19.81156176 23.41741931 20.6238818 24.625 21.4375 C25.40875 21.953125 26.1925 22.46875 27 23 C26.34 24.32 25.68 25.64 25 27 C26.98 28.98 28.96 30.96 31 33 C30.319375 32.2575 29.63875 31.515 28.9375 30.75 C27 28 27 28 27.25 25.6875 C27.4975 25.130625 27.745 24.57375 28 24 C31.91765919 25.29828562 35.82187222 26.6290194 39.71875 27.98828125 C74.68575361 40.04810689 109.55873898 45.00364238 146.5 45.125 C148.40555664 45.13225098 148.40555664 45.13225098 150.34960938 45.13964844 C165.98088028 45.11157792 181.28303611 43.94957866 196.75 41.75 C197.53270264 41.63984558 198.31540527 41.52969116 199.12182617 41.41619873 C230.16090842 37.01170591 269.81349129 29.54261058 290 3 C290.66 2.01 291.32 1.02 292 0 C296.03620153 1.34540051 296.85167306 3.41945509 299 7 C300.74898064 12.24694191 300.96536204 17.30520215 299.08203125 22.5625 C290.30116958 39.04270959 269.31813537 45.91035538 252.625 51.1875 C218.98263096 61.38171045 183.6768972 64.23020411 148.6875 64.25 C147.61029694 64.25067474 146.53309387 64.25134949 145.42324829 64.25204468 C106.73561162 64.21377373 67.32731003 60.89087948 30.8828125 47.015625 C28.25164757 46.08865632 25.74567758 45.46605597 23 45 C23 44.34 23 43.68 23 43 C21.68708984 42.60941406 21.68708984 42.60941406 20.34765625 42.2109375 C17.01299426 41.00470037 14.40155128 39.55606044 11.4375 37.625 C10.52871094 37.03976562 9.61992188 36.45453125 8.68359375 35.8515625 C2.28504244 31.43684151 -1.89881533 27.21542299 -5 20 C-6.10427624 13.92648066 -5.2689198 9.28056276 -2 4 C-1.608125 3.21625 -1.21625 2.4325 -0.8125 1.625 C-0.544375 1.08875 -0.27625 0.5525 0 0 Z " fill="#CCCCCC" transform="translate(92,381)"/>
<path d="M0 0 C1.97303774 1.97303774 2.77145934 3.54291869 4 6 C4.99 6.99 4.99 6.99 6 8 C5.625 10.125 5.625 10.125 5 12 C3.25 12.75 3.25 12.75 1 13 C-1.25 11.0625 -1.25 11.0625 -3 9 C-3.66 9.33 -4.32 9.66 -5 10 C-4.195625 10.804375 -3.39125 11.60875 -2.5625 12.4375 C1 16 1 16 1.1875 18.9375 C1 22 1 22 -1 24 C6.3430246 24.98375449 13.7263237 25.19382449 21.125 25.3125 C22.51936279 25.35697266 22.51936279 25.35697266 23.94189453 25.40234375 C29.76214384 25.45188657 33.9366063 24.58588009 39.11450195 21.88842773 C41.48218218 20.7728006 43.41783651 20.66681761 46 21 C46.33 21.99 46.66 22.98 47 24 C47.6705542 23.64695801 48.3411084 23.29391602 49.03198242 22.93017578 C52.08249781 21.32591858 55.13497261 19.72542528 58.1875 18.125 C59.24259766 17.56941406 60.29769531 17.01382813 61.38476562 16.44140625 C62.40634766 15.90644531 63.42792969 15.37148437 64.48046875 14.8203125 C65.41785889 14.32805176 66.35524902 13.83579102 67.32104492 13.32861328 C70 12 70 12 72.77856445 11.00341797 C73.51163818 10.67229004 74.24471191 10.34116211 75 10 C75.73080266 8.02253397 76.39421747 6.01927511 77 4 C78.6875 1.625 78.6875 1.625 81 0 C84.4375 -0.5625 84.4375 -0.5625 88 0 C92.18203869 3.15976257 93.57089792 6.0531082 95 11 C95.99 11.99 95.99 11.99 97 13 C97.3359375 15.0234375 97.3359375 15.0234375 97.375 17.375 C97.40335938 18.14585937 97.43171875 18.91671875 97.4609375 19.7109375 C96.81965208 22.89562609 95.51164974 23.98569087 93 26 C90.44580078 26.21484375 90.44580078 26.21484375 87.5703125 25.9375 C80.16495058 25.68547918 74.56638721 28.05260325 67.875 31 C65.66506381 31.93985792 63.45417536 32.87748098 61.2421875 33.8125 C59.80141846 34.44091797 59.80141846 34.44091797 58.33154297 35.08203125 C56 36 56 36 54 36 C53.95875 37.051875 53.9175 38.10375 53.875 39.1875 C52.72418674 44.2017578 51.02417775 45.00327189 47 48 C47 48.66 47 49.32 47 50 C48.55705194 51.57840572 48.55705194 51.57840572 50.5 53.125 C51.1496875 53.66382813 51.799375 54.20265625 52.46875 54.7578125 C53.22671875 55.37269531 53.22671875 55.37269531 54 56 C53.01 56.495 53.01 56.495 52 57 C49.95692753 55.93285947 47.96578475 54.76608812 46 53.5625 C30.99523196 44.74695487 11.77571278 35 -6 35 C1.26 37.97 8.52 40.94 16 44 C16 44.33 16 44.66 16 45 C10.24833743 44.60753361 4.71493646 43.77408386 -0.921875 42.55859375 C-8.63334514 40.96171656 -16.34311947 40.07648153 -24.1875 39.375 C-25.53785814 39.24911725 -26.88819976 39.12305714 -28.23852539 38.99682617 C-38.81332708 38.02709076 -49.38793378 37.36593332 -60 37 C-60 36.34 -60 35.68 -60 35 C-56.7 34.01 -53.4 33.02 -50 32 C-55.39215616 31.8157739 -60.1846645 32.42966159 -65.4375 33.625 C-66.2217334 33.80321289 -67.0059668 33.98142578 -67.81396484 34.16503906 C-86.34043462 38.57557024 -103.28362176 46.76206295 -118.50561523 58.13916016 C-119.51797241 58.89011963 -119.51797241 58.89011963 -120.55078125 59.65625 C-121.14544189 60.10806641 -121.74010254 60.55988281 -122.3527832 61.02539062 C-124 62 -124 62 -127 62 C-105.84864183 39.37507454 -78.89262868 23.51473054 -47.27758789 21.79785156 C-42.64676689 21.67166958 -38.01689049 21.58611911 -33.38452148 21.54370117 C-31.40070319 21.52212504 -29.41711305 21.48204807 -27.43359375 21.44140625 C-26.26884521 21.42795166 -25.10409668 21.41449707 -23.90405273 21.40063477 C-20.67878333 20.95568587 -20.05877131 20.36292152 -18 18 C-15.3125 18.3125 -15.3125 18.3125 -13 19 C-13.0928125 17.6078125 -13.0928125 17.6078125 -13.1875 16.1875 C-13 13 -13 13 -11.625 11.125 C-10 10 -10 10 -8 10 C-6.99782936 6.41672247 -6.99782936 6.41672247 -8 3 C-5.03 3.495 -5.03 3.495 -2 4 C-1.34 2.68 -0.68 1.36 0 0 Z M-2 4 C-1.60196439 6.88575819 -1.20990931 7.82189513 1.0625 9.75 C1.701875 10.1625 2.34125 10.575 3 11 C3 10.01 3 9.02 3 8 C0.5609294 5.79857668 0.5609294 5.79857668 -2 4 Z M-11 13 C-11 14.65 -11 16.3 -11 18 C-8.525 18.99 -8.525 18.99 -6 20 C-5.34 19.34 -4.68 18.68 -4 18 C-4.32041397 15.39719432 -4.32041397 15.39719432 -5 13 C-8.04913228 11.98888907 -8.04913228 11.98888907 -11 13 Z M-2 17 C-3.485 19.475 -3.485 19.475 -5 22 C-3.68 21.67 -2.36 21.34 -1 21 C-1.33 19.68 -1.66 18.36 -2 17 Z M-17 20 C-17.99 21.485 -17.99 21.485 -19 23 C-16.69 23.33 -14.38 23.66 -12 24 C-13.31200404 22.64567325 -14.64631404 21.31266518 -16 20 C-16.33 20 -16.66 20 -17 20 Z M-11 21 C-10.34 22.32 -9.68 23.64 -9 25 C-7.35 25 -5.7 25 -4 25 C-4.66 24.67 -5.32 24.34 -6 24 C-6 23.34 -6 22.68 -6 22 C-7.65 21.67 -9.3 21.34 -11 21 Z " fill="#FED550" transform="translate(285,211)"/>
<path d="M0 0 C1.51930029 1.96537392 2.94521663 3.90816763 4.21875 6.04296875 C16.18679624 26.07485103 43.07588775 34.33866501 64.37890625 40.1015625 C86.47669805 45.58429402 109.32798884 49.22165027 132.13671875 49.09765625 C133.14217239 49.0962413 134.14762604 49.09482635 135.18354797 49.09336853 C138.35156404 49.0878326 141.51950579 49.07529266 144.6875 49.0625 C146.85351459 49.0574767 149.01953031 49.05291526 151.18554688 49.04882812 C156.45705602 49.03788428 161.7285227 49.02121154 167 49 C166.01 47.68 165.02 46.36 164 45 C164.66 45 165.32 45 166 45 C166.66 43.35 167.32 41.7 168 40 C173.3820598 39.64119601 173.3820598 39.64119601 175.9375 41.125 C177.50576287 43.89252272 176.59560549 45.96857345 176 49 C212.69073526 45.51823914 261.99509876 40.72339496 289 12 C291.78453919 8.22098253 293.93118615 4.20286057 296 0 C296.33 0 296.66 0 297 0 C297.64142656 7.85747534 295.94193732 12.30310524 291.08203125 18.41015625 C269.08331427 44.22457989 230.65449517 51.25988976 198.75 55.75 C197.6204187 55.91063934 197.6204187 55.91063934 196.46801758 56.07452393 C143.61825423 63.49959015 88.12305347 59.31184991 37.98339844 40.72460938 C35.34085777 39.75919078 32.67474154 38.87164101 30 38 C30.56371414 41.26954202 31.49962266 42.82575883 34 45 C33.505 45.99 33.505 45.99 33 47 C30.69 44.69 28.38 42.38 26 40 C26.99 39.505 26.99 39.505 28 39 C27.83484847 37.07645559 27.83484847 37.07645559 27 35 C25.03617283 33.52203442 25.03617283 33.52203442 22.5625 32.3125 C13.54125272 27.18884453 3.40085962 19.20257885 0 9 C-0.06740865 7.43881572 -0.08514456 5.8749748 -0.0625 4.3125 C-0.05347656 3.50425781 -0.04445313 2.69601562 -0.03515625 1.86328125 C-0.02355469 1.24839844 -0.01195313 0.63351562 0 0 Z " fill="#CCC7DF" transform="translate(90,368)"/>
<path d="M0 0 C2.93715827 4.40573741 3.9044537 7.71799041 3 13 C-0.35035132 21.01887366 -6.58869071 25.02038645 -14 29 C-14.92167969 29.51304687 -15.84335937 30.02609375 -16.79296875 30.5546875 C-27.20464373 35.86367897 -41.23778928 41 -53 41 C-53.33 42.65 -53.66 44.3 -54 46 C-56.97 46.495 -56.97 46.495 -60 47 C-60 46.34 -60 45.68 -60 45 C-61.32 45 -62.64 45 -64 45 C-63.67 45.99 -63.34 46.98 -63 48 C-65.49361571 46.79618552 -67.68143083 45.54571278 -70 44 C-70.66 45.32 -71.32 46.64 -72 48 C-70.02 50.475 -70.02 50.475 -68 53 C-70.95012857 51.63029745 -73.5652222 50.17390875 -76 48 C-76 47.01 -76 46.02 -76 45 C-76.9701001 45.01047363 -77.9402002 45.02094727 -78.93969727 45.03173828 C-168.29065736 45.90810283 -168.29065736 45.90810283 -194.2109375 21.95703125 C-197.74766929 18.1099332 -201.02003528 14.43938955 -200.98828125 8.98828125 C-200.8125 6.8125 -200.8125 6.8125 -200 3 C-199.01 2.34 -198.02 1.68 -197 1 C-196.43732422 1.88751953 -196.43732422 1.88751953 -195.86328125 2.79296875 C-185.58107268 18.66952758 -170.74869314 26.28863411 -152.72558594 30.82397461 C-141.5011179 33.20117932 -130.51653512 33.49258302 -119.06640625 33.44604492 C-115.90037172 33.43756793 -112.73616877 33.466349 -109.5703125 33.49804688 C-96.49701785 33.5421385 -84.24254504 32.2362546 -71.46252441 29.50845337 C-68.10829549 28.81588399 -64.73832303 28.23281296 -61.36231995 27.65727234 C-39.70082769 23.82126482 -15.89480018 15.89480018 0 0 Z " fill="#C5BDD9" transform="translate(339,358)"/>
<path d="M0 0 C4.34369 -0.21110717 6.66691172 -0.15766547 10.46484375 2.12109375 C12.33984375 4.24609375 12.33984375 4.24609375 12.33984375 6.24609375 C12.85546875 5.75109375 13.37109375 5.25609375 13.90234375 4.74609375 C17.22781311 2.69965106 19.50290788 2.82751893 23.33984375 3.24609375 C25.27734375 4.49609375 25.27734375 4.49609375 26.33984375 6.24609375 C26.33984375 7.56609375 26.33984375 8.88609375 26.33984375 10.24609375 C27.32984375 10.57609375 28.31984375 10.90609375 29.33984375 11.24609375 C28.96484375 13.68359375 28.96484375 13.68359375 28.33984375 16.24609375 C27.67984375 16.57609375 27.01984375 16.90609375 26.33984375 17.24609375 C25.84484375 18.73109375 25.84484375 18.73109375 25.33984375 20.24609375 C24.20546875 20.69984375 23.07109375 21.15359375 21.90234375 21.62109375 C18.1854879 22.88144761 18.1854879 22.88144761 16.90234375 25.93359375 C16.71671875 26.69671875 16.53109375 27.45984375 16.33984375 28.24609375 C15.67984375 28.24609375 15.01984375 28.24609375 14.33984375 28.24609375 C14.33984375 29.89609375 14.33984375 31.54609375 14.33984375 33.24609375 C13.16421875 33.59671875 11.98859375 33.94734375 10.77734375 34.30859375 C7.41673681 35.55631472 5.39626621 36.93567502 2.96484375 39.55859375 C-5.17811886 48.25175654 -17.10479441 53.19918767 -28.97265625 53.74609375 C-35.16161024 53.45425689 -39.56329978 51.08084316 -44.16015625 47.05859375 C-46.98419864 41.76351427 -46.17510044 36.38545672 -44.59765625 30.74609375 C-39.80923375 17.93984754 -28.10691154 9.15930025 -16.0859375 3.65625 C-10.68993048 1.43508862 -5.76750282 0.53355753 0 0 Z " fill="#F7A635" transform="translate(305.66015625,266.75390625)"/>
<path d="M0 0 C4.63235294 2.26470588 4.63235294 2.26470588 6 5 C6.039992 6.99960012 6.04346799 9.00047242 6 11 C6.639375 11.20625 7.27875 11.4125 7.9375 11.625 C10 13 10 13 10.9375 15.8125 C11.01111746 19.56699058 10.22526721 21.03297706 8 24 C6 26 6 26 3.64111328 26.01953125 C2.66899902 25.95121094 1.69688477 25.88289063 0.6953125 25.8125 C-6.72545047 25.68834024 -12.417228 28.04538614 -19.125 31 C-21.33493619 31.93985792 -23.54582464 32.87748098 -25.7578125 33.8125 C-27.19858154 34.44091797 -27.19858154 34.44091797 -28.66845703 35.08203125 C-31 36 -31 36 -33 36 C-32.979375 36.99 -32.95875 37.98 -32.9375 39 C-33.60251169 43.88336942 -36.97188434 46.17775532 -40.578125 49.203125 C-43 51 -43 51 -45.5546875 52.265625 C-48.95110884 54.67458838 -50.21450035 57.80923996 -51.875 61.5 C-52.56602148 62.94996947 -53.26136754 64.39788555 -53.9609375 65.84375 C-54.30350586 66.55273438 -54.64607422 67.26171875 -54.99902344 67.9921875 C-63.26029737 84.56309403 -75.6237894 94.04176385 -93 100 C-106.14701836 102.75946776 -118.86741888 101.62566997 -130.44140625 94.49609375 C-135.87170815 90.2198598 -139.5045482 84.40877393 -142 78 C-142.15625 75.1640625 -142.15625 75.1640625 -142 73 C-139.59731837 75.26559169 -137.73659384 77.69680763 -135.8125 80.375 C-131.21486019 86.34029216 -125.44958471 90.42412631 -118 92 C-107.33096192 92.71026174 -99.04819301 90.87860236 -89.6875 85.9375 C-82.27475248 82.09158416 -82.27475248 82.09158416 -79 81 C-78.814375 79.081875 -78.814375 79.081875 -78.625 77.125 C-78.25 73.25 -78.25 73.25 -76 71 C-74.6798505 70.52419612 -73.34423075 70.09027502 -72 69.6875 C-68.51587016 68.47764232 -68.51587016 68.47764232 -66.5 65.3125 C-66.335 64.549375 -66.17 63.78625 -66 63 C-67.65 62.34 -69.3 61.68 -71 61 C-71 60.34 -71 59.68 -71 59 C-70.34 59 -69.68 59 -69 59 C-69.04125 58.05125 -69.0825 57.1025 -69.125 56.125 C-69 53 -69 53 -67 51 C-65.49822936 50.34989513 -63.97337469 49.75233655 -62.4375 49.1875 C-57.97198513 47.46999428 -53.92391807 45.39060857 -49.8125 42.953125 C-48 42 -48 42 -46 42 C-46.350625 41.484375 -46.70125 40.96875 -47.0625 40.4375 C-49.03760361 35.30223062 -46.81194491 29.95264942 -45 25 C-46.485 24.505 -46.485 24.505 -48 24 C-48 23.34 -48 22.68 -48 22 C-41.375 20.75 -41.375 20.75 -38 23 C-33.89677354 21.03907077 -29.82202076 19.02483579 -25.75 17 C-24.59113281 16.44699219 -23.43226563 15.89398438 -22.23828125 15.32421875 C-15.13796895 11.75354146 -11.81508439 9.46471816 -9 2 C-5.4913604 -0.33909307 -4.12910567 -0.41291057 0 0 Z " fill="#D36F36" transform="translate(402,241)"/>
<path d="M0 0 C0.7425 0.37125 1.485 0.7425 2.25 1.125 C2.45086443 4.84099191 2.4019437 5.89708445 0.25 9.125 C0.00098333 12.36221672 0.42359256 15.01109677 1.25 18.125 C-1.4769181 19.58756659 -4.2069188 21.04428541 -6.9375 22.5 C-7.70642578 22.9125 -8.47535156 23.325 -9.26757812 23.75 C-12.40549787 25.41996587 -15.40503869 26.99923286 -18.75 28.21875 C-19.41 28.5178125 -20.07 28.816875 -20.75 29.125 C-21.64830839 32.17772465 -21.64830839 32.17772465 -21.75 35.125 C-22.41 35.125 -23.07 35.125 -23.75 35.125 C-23.75 35.785 -23.75 36.445 -23.75 37.125 C-22.1 37.785 -20.45 38.445 -18.75 39.125 C-18.9375 41.4375 -18.9375 41.4375 -19.75 44.125 C-22.27978571 46.02233929 -24.37439547 47.02891512 -27.4375 47.8125 C-28.200625 48.245625 -28.96375 48.67875 -29.75 49.125 C-29.894375 50.32125 -30.03875 51.5175 -30.1875 52.75 C-30.84029935 56.33386842 -31.72155698 57.10404002 -34.734375 59.32421875 C-46.67180242 66.40266095 -59.32772255 71.84927882 -73.46875 68.4765625 C-82.93600035 65.05783321 -89.02850529 58.86430511 -93.75 50.125 C-94.41 51.115 -95.07 52.105 -95.75 53.125 C-95.75 50.155 -95.75 47.185 -95.75 44.125 C-95.21375 44.8675 -94.6775 45.61 -94.125 46.375 C-90.50806416 50.56303098 -86.3460925 53.70152193 -80.7265625 54.36328125 C-69.49048399 54.71790831 -58.68872415 50.89815696 -49.75 44.125 C-48.3267255 42.71466436 -46.93002474 41.27695657 -45.5625 39.8125 C-43.03862961 37.11386058 -41.45578117 35.63742265 -37.75 35.125 C-36.76 35.125 -35.77 35.125 -34.75 35.125 C-34.75 33.475 -34.75 31.825 -34.75 30.125 C-34.09 29.795 -33.43 29.465 -32.75 29.125 C-32.523125 28.320625 -32.29625 27.51625 -32.0625 26.6875 C-30.75 24.125 -30.75 24.125 -27.125 22.8125 C-26.01125 22.585625 -24.8975 22.35875 -23.75 22.125 C-23.564375 21.1659375 -23.564375 21.1659375 -23.375 20.1875 C-23.16875 19.506875 -22.9625 18.82625 -22.75 18.125 C-21.76 17.63 -21.76 17.63 -20.75 17.125 C-20.75 15.805 -20.75 14.485 -20.75 13.125 C-21.74 12.63 -21.74 12.63 -22.75 12.125 C-23.45211894 10.47295544 -24.11971413 8.80576231 -24.75 7.125 C-25.90568119 5.74731356 -25.90568119 5.74731356 -29.0625 5.9375 C-32.39638318 6.10701948 -34.00691987 6.36942871 -36.75 8.125 C-39.225 5.155 -39.225 5.155 -41.75 2.125 C-41.00951416 2.13023682 -40.26902832 2.13547363 -39.50610352 2.14086914 C-36.10824452 2.16182557 -32.71039919 2.17471908 -29.3125 2.1875 C-28.14783203 2.19587891 -26.98316406 2.20425781 -25.78320312 2.21289062 C-14.92762602 2.71678104 -14.92762602 2.71678104 -4.67797852 0.03149414 C-2.75 -0.875 -2.75 -0.875 0 0 Z " fill="#F28627" transform="translate(354.75,264.875)"/>
<path d="M0 0 C4.63235294 2.26470588 4.63235294 2.26470588 6 5 C6.039992 6.99960012 6.04346799 9.00047242 6 11 C6.639375 11.20625 7.27875 11.4125 7.9375 11.625 C10 13 10 13 10.9375 15.8125 C11.01111746 19.56699058 10.22526721 21.03297706 8 24 C7.34 24.66 6.68 25.32 6 26 C3.66088867 25.99975586 3.66088867 25.99975586 0.73046875 25.77734375 C-6.96330613 25.64760243 -12.80272795 28.3852106 -19.6875 31.5625 C-33.53924752 37.937233 -33.53924752 37.937233 -42 36 C-42.23016406 31.28163678 -41.85181305 27.37701266 -40 23 C-38.01930175 22.27800354 -36.01237678 21.62831851 -34 21 C-30.3962266 19.41236986 -26.88881867 17.6513227 -23.375 15.875 C-22.43398438 15.42640625 -21.49296875 14.9778125 -20.5234375 14.515625 C-15.05705135 11.73584341 -11.94149474 9.60589301 -9.80322266 3.73876953 C-7.80020142 -0.59725395 -4.16028612 -0.41602861 0 0 Z " fill="#FECDA6" transform="translate(402,241)"/>
<path d="M0 0 C4.18203869 3.15976257 5.57089792 6.0531082 7 11 C7.66 11.66 8.32 12.32 9 13 C9.3359375 15.0234375 9.3359375 15.0234375 9.375 17.375 C9.40335937 18.14585937 9.43171875 18.91671875 9.4609375 19.7109375 C8.81980206 22.89488128 7.51117564 23.98681001 5 26 C2.46557617 26.19287109 2.46557617 26.19287109 -0.39453125 25.8984375 C-9.28254188 25.59358238 -16.30908466 29.57832839 -24.19726562 33.265625 C-31.40809996 36.45952096 -35.47495442 37.74075142 -43 35 C-42.68554487 32.66404762 -42.3496418 30.33094534 -42 28 C-41.88833496 26.98510498 -41.88833496 26.98510498 -41.77441406 25.94970703 C-40.61693754 23.03558109 -38.80504144 22.45103924 -36.046875 21.0546875 C-34.52900391 20.27544922 -34.52900391 20.27544922 -32.98046875 19.48046875 C-31.91441406 18.95066406 -30.84835937 18.42085937 -29.75 17.875 C-28.17412109 17.06869141 -28.17412109 17.06869141 -26.56640625 16.24609375 C-18.70633184 12.25130308 -18.70633184 12.25130308 -15.22363281 11.01220703 C-14.48983398 10.67817871 -13.75603516 10.34415039 -13 10 C-12.26919734 8.02253397 -11.60578253 6.01927511 -11 4 C-7.89164132 -0.37472703 -5.22872976 -0.82558891 0 0 Z " fill="#F7C0AC" transform="translate(373,211)"/>
<path d="M0 0 C3.86979806 3.33968874 4.27722598 7.11504456 5 12 C5.125 15.5625 5.125 15.5625 5 18 C4.34 18 3.68 18 3 18 C2.74347656 18.72574219 2.48695313 19.45148438 2.22265625 20.19921875 C-4.71437531 36.09011853 -21.32345763 45.39603562 -36.6953125 51.45703125 C-49.53713375 55.45069654 -67.15911294 56.89016388 -79.5390625 50.73828125 C-86.75293916 45.80744795 -93.41147983 39.65815366 -96 31 C-95.59765625 28.76171875 -95.59765625 28.76171875 -95 27 C-94.64808594 27.72445313 -94.29617188 28.44890625 -93.93359375 29.1953125 C-88.46385223 39.90629459 -83.33574341 44.27700831 -71.8359375 48.08984375 C-63.12147548 50.15753179 -53.46640461 50.16669785 -45 47 C-44.06671875 46.65839844 -43.1334375 46.31679688 -42.171875 45.96484375 C-22.02595786 38.09376306 -13.42742219 24.2762584 -4.34765625 5.6015625 C-3.11485753 3.22172496 -2.01761444 1.72938381 0 0 Z " fill="#EE6D1B" transform="translate(356,292)"/>
<path d="M0 0 C1 1 1 1 1.1875 3.625 C0.97675742 7.41836648 0.15428667 10.39285416 -1 14 C0.3921875 13.938125 0.3921875 13.938125 1.8125 13.875 C5 14 5 14 8 16 C7.92474415 19.16074555 7.57774204 21.31127067 5.515625 23.76953125 C2.10871794 26.87796996 2.10871794 26.87796996 0 28 C-4.0265584 27.80990497 -7.2630318 25.05131062 -10.5625 22.9375 C-21.74396958 15.99221882 -34.0726234 11.34681417 -46.3828125 6.7890625 C-48 6 -48 6 -49 4 C-47.98687744 4.02094727 -46.97375488 4.04189453 -45.92993164 4.06347656 C-42.13369145 4.1364467 -38.33751189 4.18200435 -34.54077148 4.21972656 C-32.90459736 4.23971332 -31.26849349 4.26691243 -29.63256836 4.30175781 C-17.7070414 4.77171392 -17.7070414 4.77171392 -6.62670898 0.89672852 C-4.37232979 -0.34600521 -2.51302346 -0.39265992 0 0 Z " fill="#E46836" transform="translate(331,232)"/>
<path d="M0 0 C1 1 1 1 1.1875 3.625 C0.97675742 7.41836648 0.15428667 10.39285416 -1 14 C-0.071875 13.95875 0.85625 13.9175 1.8125 13.875 C5 14 5 14 8 16 C7.92474415 19.16074555 7.57774204 21.31127067 5.515625 23.76953125 C2.10871794 26.87796996 2.10871794 26.87796996 0 28 C-3.49385947 27.57569828 -6.12778445 25.99459414 -9 24 C-9 23.34 -9 22.68 -9 22 C-7.68 21.67 -6.36 21.34 -5 21 C-5.33 20.46375 -5.66 19.9275 -6 19.375 C-7.23696723 16.43720283 -7.21056341 14.15845117 -7 11 C-6.67 10.67 -6.34 10.34 -6 10 C-5.85363946 6.63370749 -5.92806521 4.21580438 -7 1 C-4.51588385 -0.24205807 -2.74800896 -0.14092354 0 0 Z " fill="#C85D46" transform="translate(331,232)"/>
<path d="M0 0 C2.3125 0.5 2.3125 0.5 5 2 C6.01085992 4.00473061 6.68026684 5.97585988 7.32421875 8.125 C7.92495258 10.20859478 7.92495258 10.20859478 10 12 C10.3359375 14.0234375 10.3359375 14.0234375 10.375 16.375 C10.40335937 17.14585937 10.43171875 17.91671875 10.4609375 18.7109375 C9.81980206 21.89488128 8.51117564 22.98681001 6 25 C3.46557617 25.19287109 3.46557617 25.19287109 0.60546875 24.8984375 C-8.28254188 24.59358238 -15.30908466 28.57832839 -23.19726562 32.265625 C-30.40809996 35.45952096 -34.47495442 36.74075142 -42 34 C-41 26.57142857 -41 26.57142857 -40 23 C-39.01 23.33 -38.02 23.66 -37 24 C-37.62759865 26.92879371 -38.58622659 29.36095629 -40 32 C-31.15048514 32.93264348 -24.7962152 28.87888026 -17.10742188 24.91015625 C-10.89518652 21.86144929 -6.22224589 20.41849132 0.72924805 20.90429688 C3.16722266 21.14197857 3.16722266 21.14197857 6 20 C6.33 18.02 6.66 16.04 7 14 C6.175 13.649375 5.35 13.29875 4.5 12.9375 C3.675 12.298125 2.85 11.65875 2 11 C1.8125 7.5625 1.8125 7.5625 2 4 C1.11935073 1.64630193 1.11935073 1.64630193 0 0 Z " fill="#E8A993" transform="translate(372,212)"/>
<path d="M0 0 C5.875 2.75 5.875 2.75 7 5 C7.039992 6.99960012 7.04346799 9.00047242 7 11 C7.639375 11.20625 8.27875 11.4125 8.9375 11.625 C11 13 11 13 11.9375 15.8125 C12.01111746 19.56699058 11.22526721 21.03297706 9 24 C8.34 24.66 7.68 25.32 7 26 C4.66088867 25.99975586 4.66088867 25.99975586 1.73046875 25.77734375 C-5.96330613 25.64760243 -11.80272795 28.3852106 -18.6875 31.5625 C-32.53924752 37.937233 -32.53924752 37.937233 -41 36 C-41.23509196 31.18061476 -40.45184478 27.53701494 -39 23 C-38.67 23 -38.34 23 -38 23 C-37.875 29.625 -37.875 29.625 -39 33 C-30.17042234 33.92942923 -23.854556 29.89648886 -16.1953125 25.91015625 C-9.66044067 22.69286002 -4.79058225 21.45268832 2.51269531 22.00195312 C5.25599782 22.2294796 5.25599782 22.2294796 8 20 C8.66685938 17.54327108 8.66685938 17.54327108 8 15 C7.175 14.54625 6.35 14.0925 5.5 13.625 C4.675 13.08875 3.85 12.5525 3 12 C2.875 8.5 2.875 8.5 3 5 C1.60414215 3.18523997 1.60414215 3.18523997 0 2 C0 1.34 0 0.68 0 0 Z " fill="#F0B88C" transform="translate(401,241)"/>
<path d="M0 0 C2.81282746 1.27855794 4.50828818 2.35183442 6.375 4.8125 C7.24659951 7.8630983 6.85637881 9.96973651 6 13 C3 15 3 15 -0.4375 14.875 C-4.37434174 13.90805642 -5.72819198 13.3203348 -8 10 C-9.56903766 4.0376569 -9.56903766 4.0376569 -7.9375 1.0625 C-5.10718985 -0.48960556 -3.18597524 -0.38231703 0 0 Z " fill="#F59138" transform="translate(160,346)"/>
<path d="M0 0 C1.97303774 1.97303774 2.77145934 3.54291869 4 6 C4.66 6.66 5.32 7.32 6 8 C5.625 10.125 5.625 10.125 5 12 C3.25 12.75 3.25 12.75 1 13 C-1.25 11.0625 -1.25 11.0625 -3 9 C-3.99 9.495 -3.99 9.495 -5 10 C-4.195625 10.804375 -3.39125 11.60875 -2.5625 12.4375 C1 16 1 16 1.375 18.875 C1 22 1 22 -1.375 23.9375 C-2.674375 24.4634375 -2.674375 24.4634375 -4 25 C-4.66 24.67 -5.32 24.34 -6 24 C-6 23.34 -6 22.68 -6 22 C-6.78375 21.87625 -7.5675 21.7525 -8.375 21.625 C-11 21 -11 21 -13 19 C-13.55743243 13.76013514 -13.55743243 13.76013514 -11.625 11.125 C-10 10 -10 10 -8 10 C-6.99782936 6.41672247 -6.99782936 6.41672247 -8 3 C-5.03 3.495 -5.03 3.495 -2 4 C-1.34 2.68 -0.68 1.36 0 0 Z M-2 4 C-1.60196439 6.88575819 -1.20990931 7.82189513 1.0625 9.75 C1.701875 10.1625 2.34125 10.575 3 11 C3 10.01 3 9.02 3 8 C0.5609294 5.79857668 0.5609294 5.79857668 -2 4 Z M-11 13 C-11 14.65 -11 16.3 -11 18 C-8.525 18.99 -8.525 18.99 -6 20 C-5.34 19.34 -4.68 18.68 -4 18 C-4.32041397 15.39719432 -4.32041397 15.39719432 -5 13 C-8.04913228 11.98888907 -8.04913228 11.98888907 -11 13 Z M-2 17 C-3.485 19.475 -3.485 19.475 -5 22 C-3.68 21.67 -2.36 21.34 -1 21 C-1.33 19.68 -1.66 18.36 -2 17 Z " fill="#FFFFFF" transform="translate(285,531)"/>
<path d="M0 0 C1.97303774 1.97303774 2.77145934 3.54291869 4 6 C4.66 6.66 5.32 7.32 6 8 C5.625 10.125 5.625 10.125 5 12 C3.25 12.75 3.25 12.75 1 13 C-1.25 11.0625 -1.25 11.0625 -3 9 C-3.99 9.495 -3.99 9.495 -5 10 C-4.195625 10.804375 -3.39125 11.60875 -2.5625 12.4375 C1 16 1 16 1.375 18.875 C1 22 1 22 -1.375 23.9375 C-2.674375 24.4634375 -2.674375 24.4634375 -4 25 C-4.66 24.67 -5.32 24.34 -6 24 C-6 23.34 -6 22.68 -6 22 C-6.78375 21.87625 -7.5675 21.7525 -8.375 21.625 C-11 21 -11 21 -13 19 C-13.55743243 13.76013514 -13.55743243 13.76013514 -11.625 11.125 C-10 10 -10 10 -8 10 C-6.99782936 6.41672247 -6.99782936 6.41672247 -8 3 C-5.03 3.495 -5.03 3.495 -2 4 C-1.34 2.68 -0.68 1.36 0 0 Z M-2 4 C-1.60196439 6.88575819 -1.20990931 7.82189513 1.0625 9.75 C1.701875 10.1625 2.34125 10.575 3 11 C3 10.01 3 9.02 3 8 C0.5609294 5.79857668 0.5609294 5.79857668 -2 4 Z M-11 13 C-11 14.65 -11 16.3 -11 18 C-8.525 18.99 -8.525 18.99 -6 20 C-5.34 19.34 -4.68 18.68 -4 18 C-4.32041397 15.39719432 -4.32041397 15.39719432 -5 13 C-8.04913228 11.98888907 -8.04913228 11.98888907 -11 13 Z M-2 17 C-3.485 19.475 -3.485 19.475 -5 22 C-3.68 21.67 -2.36 21.34 -1 21 C-1.33 19.68 -1.66 18.36 -2 17 Z " fill="#FFFFFF" transform="translate(285,211)"/>
<path d="M0 0 C0.66 0 1.32 0 2 0 C2.12375 1.0828125 2.12375 1.0828125 2.25 2.1875 C3.14750201 5.55313254 4.7114278 7.41612816 7 10 C5.75 11.5625 5.75 11.5625 4 13 C1.34305562 12.83394098 0.23616321 12.21086001 -1.75 10.4375 C-2.1625 9.963125 -2.575 9.48875 -3 9 C-3.99 9.495 -3.99 9.495 -5 10 C-3.989375 10.845625 -2.97875 11.69125 -1.9375 12.5625 C-0.26953125 14.19921875 -0.26953125 14.19921875 1 16 C0.875 19.875 0.875 19.875 0 23 C-1.98 23.33 -3.96 23.66 -6 24 C-6 23.34 -6 22.68 -6 22 C-6.78375 21.87625 -7.5675 21.7525 -8.375 21.625 C-11 21 -11 21 -13 19 C-13.55743243 13.76013514 -13.55743243 13.76013514 -11.625 11.125 C-10 10 -10 10 -8 10 C-6.99782936 6.41672247 -6.99782936 6.41672247 -8 3 C-5.03 3.495 -5.03 3.495 -2 4 C-1.34 2.68 -0.68 1.36 0 0 Z M-2 4 C-1.42655063 6.86724686 -1.1385485 7.8614515 1 10 C1.99 9.67 2.98 9.34 4 9 C2.02 7.35 0.04 5.7 -2 4 Z M-11 13 C-11.042721 14.66611905 -11.04063832 16.33382885 -11 18 C-9.93354885 19.29633621 -9.93354885 19.29633621 -7.4375 19.0625 C-6.633125 19.041875 -5.82875 19.02125 -5 19 C-4.32041397 16.60280568 -4.32041397 16.60280568 -4 14 C-4.66 13.34 -5.32 12.68 -6 12 C-8.9254644 11.7763932 -8.9254644 11.7763932 -11 13 Z M-2 17 C-3.32 18.65 -4.64 20.3 -6 22 C-4.35 21.67 -2.7 21.34 -1 21 C-1.33 19.68 -1.66 18.36 -2 17 Z " fill="#000000" transform="translate(285,61)"/>
<path d="M0 0 C1.97303774 1.97303774 2.77145934 3.54291869 4 6 C4.66 6.66 5.32 7.32 6 8 C5.625 10.125 5.625 10.125 5 12 C3.35 12.33 1.7 12.66 0 13 C-0.99 11.68 -1.98 10.36 -3 9 C-3.99 9.495 -3.99 9.495 -5 10 C-3.989375 10.845625 -2.97875 11.69125 -1.9375 12.5625 C-0.26953125 14.19921875 -0.26953125 14.19921875 1 16 C0.875 19.875 0.875 19.875 0 23 C-1.65 23.66 -3.3 24.32 -5 25 C-5.33 24.01 -5.66 23.02 -6 22 C-7.1446875 21.9071875 -7.1446875 21.9071875 -8.3125 21.8125 C-11 21 -11 21 -12.8125 18.4375 C-13.204375 17.633125 -13.59625 16.82875 -14 16 C-11.375 11.125 -11.375 11.125 -8 10 C-6.78130071 7.49552484 -6.78130071 7.49552484 -6 5 C-6.66 5 -7.32 5 -8 5 C-8 4.34 -8 3.68 -8 3 C-5.03 3.495 -5.03 3.495 -2 4 C-1.34 2.68 -0.68 1.36 0 0 Z M-2 4 C-2.33 4.99 -2.66 5.98 -3 7 C-0.03 8.98 -0.03 8.98 3 11 C3 10.01 3 9.02 3 8 C0.5609294 5.79857668 0.5609294 5.79857668 -2 4 Z M-11 13 C-11 14.65 -11 16.3 -11 18 C-8.525 18.99 -8.525 18.99 -6 20 C-5.34 19.34 -4.68 18.68 -4 18 C-4.32041397 15.39719432 -4.32041397 15.39719432 -5 13 C-8.04913228 11.98888907 -8.04913228 11.98888907 -11 13 Z M-2 17 C-3.32 18.65 -4.64 20.3 -6 22 C-4.35 21.67 -2.7 21.34 -1 21 C-1.33 19.68 -1.66 18.36 -2 17 Z " fill="#000000" transform="translate(455,531)"/>
<path d="M0 0 C1.97303774 1.97303774 2.77145934 3.54291869 4 6 C4.66 6.66 5.32 7.32 6 8 C5.625 10.125 5.625 10.125 5 12 C3.35 12.33 1.7 12.66 0 13 C-0.99 11.68 -1.98 10.36 -3 9 C-3.99 9.495 -3.99 9.495 -5 10 C-3.989375 10.845625 -2.97875 11.69125 -1.9375 12.5625 C-0.26953125 14.19921875 -0.26953125 14.19921875 1 16 C0.875 19.875 0.875 19.875 0 23 C-1.65 23.66 -3.3 24.32 -5 25 C-5.33 24.01 -5.66 23.02 -6 22 C-7.1446875 21.9071875 -7.1446875 21.9071875 -8.3125 21.8125 C-11 21 -11 21 -12.8125 18.4375 C-13.204375 17.633125 -13.59625 16.82875 -14 16 C-11.375 11.125 -11.375 11.125 -8 10 C-6.78130071 7.49552484 -6.78130071 7.49552484 -6 5 C-6.66 5 -7.32 5 -8 5 C-8 4.34 -8 3.68 -8 3 C-5.03 3.495 -5.03 3.495 -2 4 C-1.34 2.68 -0.68 1.36 0 0 Z M-2 4 C-2.33 4.99 -2.66 5.98 -3 7 C-0.03 8.98 -0.03 8.98 3 11 C3 10.01 3 9.02 3 8 C0.5609294 5.79857668 0.5609294 5.79857668 -2 4 Z M-11 13 C-11 14.65 -11 16.3 -11 18 C-8.525 18.99 -8.525 18.99 -6 20 C-5.34 19.34 -4.68 18.68 -4 18 C-4.32041397 15.39719432 -4.32041397 15.39719432 -5 13 C-8.04913228 11.98888907 -8.04913228 11.98888907 -11 13 Z M-2 17 C-3.32 18.65 -4.64 20.3 -6 22 C-4.35 21.67 -2.7 21.34 -1 21 C-1.33 19.68 -1.66 18.36 -2 17 Z " fill="#000000" transform="translate(135,531)"/>
<path d="M0 0 C1.97303774 1.97303774 2.77145934 3.54291869 4 6 C4.66 6.66 5.32 7.32 6 8 C5.625 10.125 5.625 10.125 5 12 C3.35 12.33 1.7 12.66 0 13 C-0.99 11.68 -1.98 10.36 -3 9 C-3.99 9.495 -3.99 9.495 -5 10 C-3.989375 10.845625 -2.97875 11.69125 -1.9375 12.5625 C-0.26953125 14.19921875 -0.26953125 14.19921875 1 16 C0.875 19.875 0.875 19.875 0 23 C-1.65 23.66 -3.3 24.32 -5 25 C-5.33 24.01 -5.66 23.02 -6 22 C-7.1446875 21.9071875 -7.1446875 21.9071875 -8.3125 21.8125 C-11 21 -11 21 -12.8125 18.4375 C-13.204375 17.633125 -13.59625 16.82875 -14 16 C-11.375 11.125 -11.375 11.125 -8 10 C-6.78130071 7.49552484 -6.78130071 7.49552484 -6 5 C-6.66 5 -7.32 5 -8 5 C-8 4.34 -8 3.68 -8 3 C-5.03 3.495 -5.03 3.495 -2 4 C-1.34 2.68 -0.68 1.36 0 0 Z M-2 4 C-2.33 4.99 -2.66 5.98 -3 7 C-0.03 8.98 -0.03 8.98 3 11 C3 10.01 3 9.02 3 8 C0.5609294 5.79857668 0.5609294 5.79857668 -2 4 Z M-11 13 C-11 14.65 -11 16.3 -11 18 C-8.525 18.99 -8.525 18.99 -6 20 C-5.34 19.34 -4.68 18.68 -4 18 C-4.32041397 15.39719432 -4.32041397 15.39719432 -5 13 C-8.04913228 11.98888907 -8.04913228 11.98888907 -11 13 Z M-2 17 C-3.32 18.65 -4.64 20.3 -6 22 C-4.35 21.67 -2.7 21.34 -1 21 C-1.33 19.68 -1.66 18.36 -2 17 Z " fill="#000000" transform="translate(455,211)"/>
<path d="M0 0 C1.97303774 1.97303774 2.77145934 3.54291869 4 6 C4.66 6.66 5.32 7.32 6 8 C5.625 10.125 5.625 10.125 5 12 C3.35 12.33 1.7 12.66 0 13 C-0.99 11.68 -1.98 10.36 -3 9 C-3.99 9.495 -3.99 9.495 -5 10 C-3.989375 10.845625 -2.97875 11.69125 -1.9375 12.5625 C-0.26953125 14.19921875 -0.26953125 14.19921875 1 16 C0.875 19.875 0.875 19.875 0 23 C-1.65 23.66 -3.3 24.32 -5 25 C-5.33 24.01 -5.66 23.02 -6 22 C-7.1446875 21.9071875 -7.1446875 21.9071875 -8.3125 21.8125 C-11 21 -11 21 -12.8125 18.4375 C-13.204375 17.633125 -13.59625 16.82875 -14 16 C-11.375 11.125 -11.375 11.125 -8 10 C-6.78130071 7.49552484 -6.78130071 7.49552484 -6 5 C-6.66 5 -7.32 5 -8 5 C-8 4.34 -8 3.68 -8 3 C-5.03 3.495 -5.03 3.495 -2 4 C-1.34 2.68 -0.68 1.36 0 0 Z M-2 4 C-2.33 4.99 -2.66 5.98 -3 7 C-0.03 8.98 -0.03 8.98 3 11 C3 10.01 3 9.02 3 8 C0.5609294 5.79857668 0.5609294 5.79857668 -2 4 Z M-11 13 C-11 14.65 -11 16.3 -11 18 C-8.525 18.99 -8.525 18.99 -6 20 C-5.34 19.34 -4.68 18.68 -4 18 C-4.32041397 15.39719432 -4.32041397 15.39719432 -5 13 C-8.04913228 11.98888907 -8.04913228 11.98888907 -11 13 Z M-2 17 C-3.32 18.65 -4.64 20.3 -6 22 C-4.35 21.67 -2.7 21.34 -1 21 C-1.33 19.68 -1.66 18.36 -2 17 Z " fill="#000000" transform="translate(135,211)"/>
<path d="M0 0 C3.125 0.25 3.125 0.25 5 1.375 C6.67163625 4.16106042 6.58876624 6.06988862 6.125 9.25 C4.4375 11.1875 4.4375 11.1875 2.125 12.25 C-0.625 11.9375 -0.625 11.9375 -2.875 11.25 C-2.545 11.58 -2.215 11.91 -1.875 12.25 C-2.125 15.1875 -2.125 15.1875 -2.875 18.25 C-6.09643276 20.39762184 -7.1345467 20.811068 -10.875 20.25 C-12.75 18.625 -12.75 18.625 -13.875 16.25 C-14 13.1875 -14 13.1875 -12.875 10.25 C-10.54828135 9.23470459 -8.2146553 8.23511802 -5.875 7.25 C-4.42339062 4.23220128 -4.42339062 4.23220128 -3.875 1.25 C-2.875 0.25 -2.875 0.25 0 0 Z M-1.875 2.25 C-2.205 3.9 -2.535 5.55 -2.875 7.25 C-1.225 5.6 0.425 3.95 2.125 2.25 C0.805 2.25 -0.515 2.25 -1.875 2.25 Z M3.125 4.25 C1.805 5.9 0.485 7.55 -0.875 9.25 C0.775 8.92 2.425 8.59 4.125 8.25 C3.795 6.93 3.465 5.61 3.125 4.25 Z M-8.875 10.25 C-9.865 10.91 -10.855 11.57 -11.875 12.25 C-11.545 13.57 -11.215 14.89 -10.875 16.25 C-9.555 14.6 -8.235 12.95 -6.875 11.25 C-7.535 10.92 -8.195 10.59 -8.875 10.25 Z M-4.875 12.25 C-6.56588222 14.22956942 -8.23330472 16.22945196 -9.875 18.25 C-8.225 17.92 -6.575 17.59 -4.875 17.25 C-4.545 15.6 -4.215 13.95 -3.875 12.25 C-4.205 12.25 -4.535 12.25 -4.875 12.25 Z " fill="#FFFFFF" transform="translate(154.875,49.75)"/>
<path d="M0 0 C0.7425 0.2475 1.485 0.495 2.25 0.75 C2.58 1.74 2.91 2.73 3.25 3.75 C3.91 3.75 4.57 3.75 5.25 3.75 C5.47223194 6.49086056 5.59781139 8.18963721 4.125 10.5625 C1.47464043 12.24106106 -0.68246424 11.95450238 -3.75 11.75 C-3.481875 12.306875 -3.21375 12.86375 -2.9375 13.4375 C-2.75 15.75 -2.75 15.75 -4.875 18.5625 C-7.75 20.75 -7.75 20.75 -10.4375 20.6875 C-12.75 19.75 -12.75 19.75 -14.75 17.75 C-15.083728 14.61295684 -15.27849028 12.58445834 -13.5625 9.875 C-11.18963721 8.40218861 -9.49086056 8.52776806 -6.75 8.75 C-6.8325 8.0075 -6.915 7.265 -7 6.5 C-6.75 3.75 -6.75 3.75 -5.0625 1.375 C-2.75 -0.25 -2.75 -0.25 0 0 Z M-3.75 2.75 C-4.08 4.4 -4.41 6.05 -4.75 7.75 C-3.1 6.1 -1.45 4.45 0.25 2.75 C-1.07 2.75 -2.39 2.75 -3.75 2.75 Z M2.25 3.75 C0.55911778 5.72956942 -1.10830472 7.72945196 -2.75 9.75 C-1.1 9.42 0.55 9.09 2.25 8.75 C2.58 7.1 2.91 5.45 3.25 3.75 C2.92 3.75 2.59 3.75 2.25 3.75 Z M-12.75 11.75 C-12.42 13.07 -12.09 14.39 -11.75 15.75 C-10.43 14.1 -9.11 12.45 -7.75 10.75 C-10.6754644 10.5263932 -10.6754644 10.5263932 -12.75 11.75 Z M-6.75 12.75 C-8.10827971 14.39639965 -9.44254251 16.06295807 -10.75 17.75 C-9.43 17.75 -8.11 17.75 -6.75 17.75 C-6.42 16.1 -6.09 14.45 -5.75 12.75 C-6.08 12.75 -6.41 12.75 -6.75 12.75 Z " fill="#000000" transform="translate(302.75,46.25)"/>
<path d="M0 0 C0.7425 0.391875 1.485 0.78375 2.25 1.1875 C2.25 1.8475 2.25 2.5075 2.25 3.1875 C2.91 3.1875 3.57 3.1875 4.25 3.1875 C4.47223194 5.92836056 4.59781139 7.62713721 3.125 10 C0.47464043 11.67856106 -1.68246424 11.39200238 -4.75 11.1875 C-4.5025 11.744375 -4.255 12.30125 -4 12.875 C-3.75 15.1875 -3.75 15.1875 -5.6875 17.9375 C-6.368125 18.68 -7.04875 19.4225 -7.75 20.1875 C-13.5 19.4375 -13.5 19.4375 -15.75 17.1875 C-16.083728 14.05045684 -16.27849028 12.02195834 -14.5625 9.3125 C-12.18963721 7.83968861 -10.49086056 7.96526806 -7.75 8.1875 C-7.6675 7.259375 -7.585 6.33125 -7.5 5.375 C-6.75 2.1875 -6.75 2.1875 -5 0.1875 C-2.75 -0.8125 -2.75 -0.8125 0 0 Z M-4.75 2.1875 C-5.08 3.8375 -5.41 5.4875 -5.75 7.1875 C-5.09 7.1875 -4.43 7.1875 -3.75 7.1875 C-2.1053326 4.72423288 -2.1053326 4.72423288 -0.75 2.1875 C-2.07 2.1875 -3.39 2.1875 -4.75 2.1875 Z M1.25 3.1875 C-0.44088222 5.16706942 -2.10830472 7.16695196 -3.75 9.1875 C-2.1 9.1875 -0.45 9.1875 1.25 9.1875 C1.58 7.2075 1.91 5.2275 2.25 3.1875 C1.92 3.1875 1.59 3.1875 1.25 3.1875 Z M-13.75 11.1875 C-13.42 12.5075 -13.09 13.8275 -12.75 15.1875 C-11.43 13.5375 -10.11 11.8875 -8.75 10.1875 C-11.6754644 9.9638932 -11.6754644 9.9638932 -13.75 11.1875 Z M-7.75 12.1875 C-9.10827971 13.83389965 -10.44254251 15.50045807 -11.75 17.1875 C-10.43 17.1875 -9.11 17.1875 -7.75 17.1875 C-7.42 15.5375 -7.09 13.8875 -6.75 12.1875 C-7.08 12.1875 -7.41 12.1875 -7.75 12.1875 Z " fill="#FFFFFF" transform="translate(303.75,516.8125)"/>
<path d="M0 0 C0.7425 0.391875 1.485 0.78375 2.25 1.1875 C2.25 1.8475 2.25 2.5075 2.25 3.1875 C2.91 3.1875 3.57 3.1875 4.25 3.1875 C4.47223194 5.92836056 4.59781139 7.62713721 3.125 10 C0.47464043 11.67856106 -1.68246424 11.39200238 -4.75 11.1875 C-4.5025 11.744375 -4.255 12.30125 -4 12.875 C-3.75 15.1875 -3.75 15.1875 -5.6875 17.9375 C-6.368125 18.68 -7.04875 19.4225 -7.75 20.1875 C-13.5 19.4375 -13.5 19.4375 -15.75 17.1875 C-16.083728 14.05045684 -16.27849028 12.02195834 -14.5625 9.3125 C-12.18963721 7.83968861 -10.49086056 7.96526806 -7.75 8.1875 C-7.6675 7.259375 -7.585 6.33125 -7.5 5.375 C-6.75 2.1875 -6.75 2.1875 -5 0.1875 C-2.75 -0.8125 -2.75 -0.8125 0 0 Z M-4.75 2.1875 C-5.08 3.8375 -5.41 5.4875 -5.75 7.1875 C-5.09 7.1875 -4.43 7.1875 -3.75 7.1875 C-2.1053326 4.72423288 -2.1053326 4.72423288 -0.75 2.1875 C-2.07 2.1875 -3.39 2.1875 -4.75 2.1875 Z M1.25 3.1875 C-0.44088222 5.16706942 -2.10830472 7.16695196 -3.75 9.1875 C-2.1 9.1875 -0.45 9.1875 1.25 9.1875 C1.58 7.2075 1.91 5.2275 2.25 3.1875 C1.92 3.1875 1.59 3.1875 1.25 3.1875 Z M-13.75 11.1875 C-13.42 12.5075 -13.09 13.8275 -12.75 15.1875 C-11.43 13.5375 -10.11 11.8875 -8.75 10.1875 C-11.6754644 9.9638932 -11.6754644 9.9638932 -13.75 11.1875 Z M-7.75 12.1875 C-9.10827971 13.83389965 -10.44254251 15.50045807 -11.75 17.1875 C-10.43 17.1875 -9.11 17.1875 -7.75 17.1875 C-7.42 15.5375 -7.09 13.8875 -6.75 12.1875 C-7.08 12.1875 -7.41 12.1875 -7.75 12.1875 Z " fill="#FFFFFF" transform="translate(303.75,196.8125)"/>
<path d="M0 0 C1.4540625 0.0309375 1.4540625 0.0309375 2.9375 0.0625 C3.6875 1.8125 3.6875 1.8125 3.9375 4.0625 C2 6.3125 2 6.3125 -0.0625 8.0625 C1.2575 8.0625 2.5775 8.0625 3.9375 8.0625 C3.9375 9.0525 3.9375 10.0425 3.9375 11.0625 C-0.9375 12.0625 -0.9375 12.0625 -2.0625 12.0625 C-2.2171875 13.485625 -2.2171875 13.485625 -2.375 14.9375 C-3.0625 18.0625 -3.0625 18.0625 -6.0625 20.0625 C-8.5625 20.4375 -8.5625 20.4375 -11.0625 20.0625 C-12.9375 18.4375 -12.9375 18.4375 -14.0625 16.0625 C-14.1875 13 -14.1875 13 -13.0625 10.0625 C-10.73578135 9.04720459 -8.4021553 8.04761802 -6.0625 7.0625 C-4.61089062 4.04470128 -4.61089062 4.04470128 -4.0625 1.0625 C-3.0625 0.0625 -3.0625 0.0625 0 0 Z M-2.0625 2.0625 C-2.3925 3.7125 -2.7225 5.3625 -3.0625 7.0625 C-1.4125 5.4125 0.2375 3.7625 1.9375 2.0625 C0.6175 2.0625 -0.7025 2.0625 -2.0625 2.0625 Z M-9.0625 10.0625 C-10.0525 10.7225 -11.0425 11.3825 -12.0625 12.0625 C-11.7325 13.3825 -11.4025 14.7025 -11.0625 16.0625 C-9.7425 14.4125 -8.4225 12.7625 -7.0625 11.0625 C-7.7225 10.7325 -8.3825 10.4025 -9.0625 10.0625 Z M-5.0625 12.0625 C-6.75338222 14.04206942 -8.42080472 16.04195196 -10.0625 18.0625 C-8.4125 17.7325 -6.7625 17.4025 -5.0625 17.0625 C-4.7325 15.4125 -4.4025 13.7625 -4.0625 12.0625 C-4.3925 12.0625 -4.7225 12.0625 -5.0625 12.0625 Z " fill="#FFFFFF" transform="translate(475.0625,369.9375)"/>
<path d="M0 0 C1.4540625 0.0309375 1.4540625 0.0309375 2.9375 0.0625 C3.6875 1.8125 3.6875 1.8125 3.9375 4.0625 C2 6.3125 2 6.3125 -0.0625 8.0625 C1.2575 8.0625 2.5775 8.0625 3.9375 8.0625 C3.9375 9.0525 3.9375 10.0425 3.9375 11.0625 C-0.9375 12.0625 -0.9375 12.0625 -2.0625 12.0625 C-2.2171875 13.485625 -2.2171875 13.485625 -2.375 14.9375 C-3.0625 18.0625 -3.0625 18.0625 -6.0625 20.0625 C-8.5625 20.4375 -8.5625 20.4375 -11.0625 20.0625 C-12.9375 18.4375 -12.9375 18.4375 -14.0625 16.0625 C-14.1875 13 -14.1875 13 -13.0625 10.0625 C-10.73578135 9.04720459 -8.4021553 8.04761802 -6.0625 7.0625 C-4.61089062 4.04470128 -4.61089062 4.04470128 -4.0625 1.0625 C-3.0625 0.0625 -3.0625 0.0625 0 0 Z M-2.0625 2.0625 C-2.3925 3.7125 -2.7225 5.3625 -3.0625 7.0625 C-1.4125 5.4125 0.2375 3.7625 1.9375 2.0625 C0.6175 2.0625 -0.7025 2.0625 -2.0625 2.0625 Z M-9.0625 10.0625 C-10.0525 10.7225 -11.0425 11.3825 -12.0625 12.0625 C-11.7325 13.3825 -11.4025 14.7025 -11.0625 16.0625 C-9.7425 14.4125 -8.4225 12.7625 -7.0625 11.0625 C-7.7225 10.7325 -8.3825 10.4025 -9.0625 10.0625 Z M-5.0625 12.0625 C-6.75338222 14.04206942 -8.42080472 16.04195196 -10.0625 18.0625 C-8.4125 17.7325 -6.7625 17.4025 -5.0625 17.0625 C-4.7325 15.4125 -4.4025 13.7625 -4.0625 12.0625 C-4.3925 12.0625 -4.7225 12.0625 -5.0625 12.0625 Z " fill="#FFFFFF" transform="translate(475.0625,49.9375)"/>
<path d="M0 0 C2.3125 0.1875 2.3125 0.1875 5 1 C6.5625 3.375 6.5625 3.375 8 6 C10.06954847 7.78344178 10.06954847 7.78344178 12 9 C9.75 9.75 9.75 9.75 7 10 C4.6875 8.0625 4.6875 8.0625 3 6 C3 8.77042109 4.1836885 9.58164956 6 11.625 C6.556875 12.25664062 7.11375 12.88828125 7.6875 13.5390625 C8.120625 14.02117187 8.55375 14.50328125 9 15 C7.92598892 17.91517292 7.22189824 19.77810176 5 22 C3.68 22 2.36 22 1 22 C1 21.34 1 20.68 1 20 C0.21625 19.731875 -0.5675 19.46375 -1.375 19.1875 C-4 18 -4 18 -6 15 C-5.9375 12.0625 -5.9375 12.0625 -5 9 C-3.33729713 7.66172696 -1.67083819 6.32810215 0 5 C0.41870553 2.33071879 0.41870553 2.33071879 0 0 Z M-3 10 C-3.69159401 11.84725052 -3.69159401 11.84725052 -4 14 C-3.01 15.485 -3.01 15.485 -2 17 C-0.35 16.67 1.3 16.34 3 16 C3.33 15.01 3.66 14.02 4 13 C3.34 12.01 2.68 11.02 2 10 C-0.58380177 9.74969023 -0.58380177 9.74969023 -3 10 Z M5 15 C3.9739266 16.31337396 2.97272675 17.64664105 2 19 C2.99 19 3.98 19 5 19 C5.33 17.68 5.66 16.36 6 15 C5.67 15 5.34 15 5 15 Z " fill="#FFFFFF" transform="translate(451,387)"/>
<path d="M0 0 C2.3125 0.1875 2.3125 0.1875 5 1 C6.5625 3.375 6.5625 3.375 8 6 C10.06954847 7.78344178 10.06954847 7.78344178 12 9 C9.75 9.75 9.75 9.75 7 10 C4.6875 8.0625 4.6875 8.0625 3 6 C3 8.77042109 4.1836885 9.58164956 6 11.625 C6.556875 12.25664063 7.11375 12.88828125 7.6875 13.5390625 C8.120625 14.02117187 8.55375 14.50328125 9 15 C7.92598892 17.91517292 7.22189824 19.77810176 5 22 C3.68 22 2.36 22 1 22 C1 21.34 1 20.68 1 20 C0.21625 19.731875 -0.5675 19.46375 -1.375 19.1875 C-4 18 -4 18 -6 15 C-5.9375 12.0625 -5.9375 12.0625 -5 9 C-3.33729713 7.66172696 -1.67083819 6.32810215 0 5 C0.41870553 2.33071879 0.41870553 2.33071879 0 0 Z M-3 10 C-3.69159401 11.84725052 -3.69159401 11.84725052 -4 14 C-3.01 15.485 -3.01 15.485 -2 17 C-0.35 16.67 1.3 16.34 3 16 C3.33 15.01 3.66 14.02 4 13 C3.34 12.01 2.68 11.02 2 10 C-0.58380177 9.74969023 -0.58380177 9.74969023 -3 10 Z M5 15 C3.9739266 16.31337396 2.97272675 17.64664105 2 19 C2.99 19 3.98 19 5 19 C5.33 17.68 5.66 16.36 6 15 C5.67 15 5.34 15 5 15 Z " fill="#FFFFFF" transform="translate(451,67)"/>
<path d="M0 0 C2.3125 0.1875 2.3125 0.1875 5 1 C6.5625 3.375 6.5625 3.375 8 6 C10.06954847 7.78344178 10.06954847 7.78344178 12 9 C9.75 9.75 9.75 9.75 7 10 C4.6875 8.0625 4.6875 8.0625 3 6 C3 8.77042109 4.1836885 9.58164956 6 11.625 C6.556875 12.25664063 7.11375 12.88828125 7.6875 13.5390625 C8.120625 14.02117187 8.55375 14.50328125 9 15 C7.92598892 17.91517292 7.22189824 19.77810176 5 22 C3.68 22 2.36 22 1 22 C1 21.34 1 20.68 1 20 C0.21625 19.731875 -0.5675 19.46375 -1.375 19.1875 C-4 18 -4 18 -6 15 C-5.9375 12.0625 -5.9375 12.0625 -5 9 C-3.33729713 7.66172696 -1.67083819 6.32810215 0 5 C0.41870553 2.33071879 0.41870553 2.33071879 0 0 Z M-3 10 C-3.69159401 11.84725052 -3.69159401 11.84725052 -4 14 C-3.01 15.485 -3.01 15.485 -2 17 C-0.35 16.67 1.3 16.34 3 16 C3.33 15.01 3.66 14.02 4 13 C3.34 12.01 2.68 11.02 2 10 C-0.58380177 9.74969023 -0.58380177 9.74969023 -3 10 Z M5 15 C3.9739266 16.31337396 2.97272675 17.64664105 2 19 C2.99 19 3.98 19 5 19 C5.33 17.68 5.66 16.36 6 15 C5.67 15 5.34 15 5 15 Z " fill="#FFFFFF" transform="translate(131,67)"/>
<path d="M0 0 C0.29296875 2.75 0.29296875 2.75 0 6 C-2.01171875 8.125 -2.01171875 8.125 -4.6875 10 C-10.4051995 14.24581646 -14.73804541 18.008504 -17 25 C-17.33 25 -17.66 25 -18 25 C-18.77233708 19.07874905 -17.18535986 15.50009566 -13.9921875 10.51171875 C-10.89830105 6.61099525 -5.3284067 0 0 0 Z " fill="#B5ADCE" transform="translate(137,340)"/>
<path d="M0 0 C2.82716081 0.59519175 3.7917564 1.08347029 5.375 3.5 C5.8125 5.9375 5.8125 5.9375 5.375 8.5 C3.375 10.6875 3.375 10.6875 1.375 12.5 C1.375 13.16 1.375 13.82 1.375 14.5 C2.035 14.83 2.695 15.16 3.375 15.5 C2.385 15.5 1.395 15.5 0.375 15.5 C0.375 14.84 0.375 14.18 0.375 13.5 C-0.285 13.5 -0.945 13.5 -1.625 13.5 C-3.1328125 11.75 -3.1328125 11.75 -4.75 9.5 C-5.28882812 8.7575 -5.82765625 8.015 -6.3828125 7.25 C-6.79273437 6.6725 -7.20265625 6.095 -7.625 5.5 C-3.375 0.64285714 -3.375 0.64285714 0 0 Z " fill="#DBDBDB" transform="translate(114.625,410.5)"/>
<path d="M0 0 C11.35858317 -0.18966094 22.66112404 0.39534572 34 1 C34 1.33 34 1.66 34 2 C28.06 2.33 22.12 2.66 16 3 C17.65 4.98 19.3 6.96 21 9 C14.22484439 7.09719034 7.31636291 5.15180129 1 2 C0.67 1.34 0.34 0.68 0 0 Z " fill="#E67546" transform="translate(282,236)"/>
<path d="M0 0 C2 2 2 2 2.3125 4.875 C1.96690989 8.33090107 1.09457072 9.35901953 -1 12 C-0.67 12.99 -0.34 13.98 0 15 C-0.99 15 -1.98 15 -3 15 C-3 14.34 -3 13.68 -3 13 C-3.66 13 -4.32 13 -5 13 C-5 12.34 -5 11.68 -5 11 C-5.99 10.67 -6.98 10.34 -8 10 C-8 9.34 -8 8.68 -8 8 C-8.66 8 -9.32 8 -10 8 C-10.33 6.68 -10.66 5.36 -11 4 C-10.34 4 -9.68 4 -9 4 C-8.71125 3.360625 -8.4225 2.72125 -8.125 2.0625 C-6.0295042 -1.7792423 -3.82988038 -1.05321711 0 0 Z M-7 2 C-7.16687448 4.41645782 -7.16687448 4.41645782 -7 7 C-6.34 7.66 -5.68 8.32 -5 9 C-2.89179203 8.6814823 -2.89179203 8.6814823 -1 8 C-0.67 6.35 -0.34 4.7 0 3 C-3.26085939 1.02948211 -3.26085939 1.02948211 -7 2 Z " fill="#FFFFFF" transform="translate(265,558)"/>
<path d="M0 0 C2 2 2 2 2.3125 4.875 C1.96690989 8.33090107 1.09457072 9.35901953 -1 12 C-0.67 12.99 -0.34 13.98 0 15 C-1.32 14.67 -2.64 14.34 -4 14 C-4 13.34 -4 12.68 -4 12 C-4.66 12 -5.32 12 -6 12 C-6 11.34 -6 10.68 -6 10 C-6.66 10 -7.32 10 -8 10 C-8 9.34 -8 8.68 -8 8 C-8.66 8 -9.32 8 -10 8 C-10 7.34 -10 6.68 -10 6 C-10.66 5.67 -11.32 5.34 -12 5 C-11.01 4.67 -10.02 4.34 -9 4 C-8.30062468 2.68352881 -7.63270867 1.34977849 -7 0 C-4.29393021 -1.35303489 -2.8671629 -0.7884698 0 0 Z M-7 2 C-7.16687448 4.41645782 -7.16687448 4.41645782 -7 7 C-6.34 7.66 -5.68 8.32 -5 9 C-2.89179203 8.6814823 -2.89179203 8.6814823 -1 8 C-0.67 6.35 -0.34 4.7 0 3 C-3.26085939 1.02948211 -3.26085939 1.02948211 -7 2 Z " fill="#000000" transform="translate(435,558)"/>
<path d="M0 0 C2 2 2 2 2.3125 4.875 C1.96690989 8.33090107 1.09457072 9.35901953 -1 12 C-0.67 12.99 -0.34 13.98 0 15 C-1.32 14.67 -2.64 14.34 -4 14 C-4 13.34 -4 12.68 -4 12 C-4.66 12 -5.32 12 -6 12 C-6 11.34 -6 10.68 -6 10 C-6.66 10 -7.32 10 -8 10 C-8 9.34 -8 8.68 -8 8 C-8.66 8 -9.32 8 -10 8 C-10 7.34 -10 6.68 -10 6 C-10.66 5.67 -11.32 5.34 -12 5 C-11.01 4.67 -10.02 4.34 -9 4 C-8.30062468 2.68352881 -7.63270867 1.34977849 -7 0 C-4.29393021 -1.35303489 -2.8671629 -0.7884698 0 0 Z M-7 2 C-7.16687448 4.41645782 -7.16687448 4.41645782 -7 7 C-6.34 7.66 -5.68 8.32 -5 9 C-2.89179203 8.6814823 -2.89179203 8.6814823 -1 8 C-0.67 6.35 -0.34 4.7 0 3 C-3.26085939 1.02948211 -3.26085939 1.02948211 -7 2 Z " fill="#000000" transform="translate(115,558)"/>
<path d="M0 0 C2.5 1.25 2.5 1.25 4.5 4.25 C4.27642248 7.23103359 3.9014177 8.78435547 1.9375 11.0625 C1.463125 11.454375 0.98875 11.84625 0.5 12.25 C0.83 13.24 1.16 14.23 1.5 15.25 C0.51 15.25 -0.48 15.25 -1.5 15.25 C-1.5 14.59 -1.5 13.93 -1.5 13.25 C-2.16 13.25 -2.82 13.25 -3.5 13.25 C-3.5 12.59 -3.5 11.93 -3.5 11.25 C-4.16 11.25 -4.82 11.25 -5.5 11.25 C-5.5 10.59 -5.5 9.93 -5.5 9.25 C-6.16 9.25 -6.82 9.25 -7.5 9.25 C-8.16 7.93 -8.82 6.61 -9.5 5.25 C-3.39285714 -1.01785714 -3.39285714 -1.01785714 0 0 Z M-4.5 2.25 C-5.17958603 4.64719432 -5.17958603 4.64719432 -5.5 7.25 C-4.84 7.91 -4.18 8.57 -3.5 9.25 C-0.89719432 8.92958603 -0.89719432 8.92958603 1.5 8.25 C1.83 7.26 2.16 6.27 2.5 5.25 C1.84 4.26 1.18 3.27 0.5 2.25 C-2.08380177 1.99969023 -2.08380177 1.99969023 -4.5 2.25 Z " fill="#FFFFFF" transform="translate(436.5,410.75)"/>
<path d="M0 0 C2 2 2 2 2.3125 4.875 C1.96690989 8.33090107 1.09457072 9.35901953 -1 12 C-0.67 12.99 -0.34 13.98 0 15 C-1.32 14.67 -2.64 14.34 -4 14 C-4 13.34 -4 12.68 -4 12 C-4.66 12 -5.32 12 -6 12 C-6 11.34 -6 10.68 -6 10 C-6.66 10 -7.32 10 -8 10 C-8 9.34 -8 8.68 -8 8 C-8.66 8 -9.32 8 -10 8 C-10 7.34 -10 6.68 -10 6 C-10.66 5.67 -11.32 5.34 -12 5 C-11.01 4.67 -10.02 4.34 -9 4 C-8.30062468 2.68352881 -7.63270867 1.34977849 -7 0 C-4.29393021 -1.35303489 -2.8671629 -0.7884698 0 0 Z M-7 2 C-7.16687448 4.41645782 -7.16687448 4.41645782 -7 7 C-6.34 7.66 -5.68 8.32 -5 9 C-2.89179203 8.6814823 -2.89179203 8.6814823 -1 8 C-0.67 6.35 -0.34 4.7 0 3 C-3.26085939 1.02948211 -3.26085939 1.02948211 -7 2 Z " fill="#000000" transform="translate(435,238)"/>
<path d="M0 0 C2 2 2 2 2.3125 4.875 C1.96690989 8.33090107 1.09457072 9.35901953 -1 12 C-0.67 12.99 -0.34 13.98 0 15 C-1.32 14.67 -2.64 14.34 -4 14 C-4 13.34 -4 12.68 -4 12 C-4.66 12 -5.32 12 -6 12 C-6 11.34 -6 10.68 -6 10 C-6.66 10 -7.32 10 -8 10 C-8 9.34 -8 8.68 -8 8 C-8.66 8 -9.32 8 -10 8 C-10 7.34 -10 6.68 -10 6 C-10.66 5.67 -11.32 5.34 -12 5 C-11.01 4.67 -10.02 4.34 -9 4 C-8.30062468 2.68352881 -7.63270867 1.34977849 -7 0 C-4.29393021 -1.35303489 -2.8671629 -0.7884698 0 0 Z M-7 2 C-7.16687448 4.41645782 -7.16687448 4.41645782 -7 7 C-6.34 7.66 -5.68 8.32 -5 9 C-2.89179203 8.6814823 -2.89179203 8.6814823 -1 8 C-0.67 6.35 -0.34 4.7 0 3 C-3.26085939 1.02948211 -3.26085939 1.02948211 -7 2 Z " fill="#000000" transform="translate(115,238)"/>
<path d="M0 0 C2.5 1.25 2.5 1.25 4.5 4.25 C4.27642248 7.23103359 3.9014177 8.78435547 1.9375 11.0625 C1.463125 11.454375 0.98875 11.84625 0.5 12.25 C0.83 13.24 1.16 14.23 1.5 15.25 C0.51 15.25 -0.48 15.25 -1.5 15.25 C-1.5 14.59 -1.5 13.93 -1.5 13.25 C-2.16 13.25 -2.82 13.25 -3.5 13.25 C-3.5 12.59 -3.5 11.93 -3.5 11.25 C-4.16 11.25 -4.82 11.25 -5.5 11.25 C-5.5 10.59 -5.5 9.93 -5.5 9.25 C-6.16 9.25 -6.82 9.25 -7.5 9.25 C-8.16 7.93 -8.82 6.61 -9.5 5.25 C-3.39285714 -1.01785714 -3.39285714 -1.01785714 0 0 Z M-4.5 2.25 C-5.17958603 4.64719432 -5.17958603 4.64719432 -5.5 7.25 C-4.84 7.91 -4.18 8.57 -3.5 9.25 C-0.89719432 8.92958603 -0.89719432 8.92958603 1.5 8.25 C1.83 7.26 2.16 6.27 2.5 5.25 C1.84 4.26 1.18 3.27 0.5 2.25 C-2.08380177 1.99969023 -2.08380177 1.99969023 -4.5 2.25 Z " fill="#FFFFFF" transform="translate(436.5,90.75)"/>
<path d="M0 0 C2.5 1.25 2.5 1.25 4.5 4.25 C4.27642248 7.23103359 3.9014177 8.78435547 1.9375 11.0625 C1.463125 11.454375 0.98875 11.84625 0.5 12.25 C0.83 13.24 1.16 14.23 1.5 15.25 C0.51 15.25 -0.48 15.25 -1.5 15.25 C-1.5 14.59 -1.5 13.93 -1.5 13.25 C-2.16 13.25 -2.82 13.25 -3.5 13.25 C-3.5 12.59 -3.5 11.93 -3.5 11.25 C-4.16 11.25 -4.82 11.25 -5.5 11.25 C-5.5 10.59 -5.5 9.93 -5.5 9.25 C-6.16 9.25 -6.82 9.25 -7.5 9.25 C-8.16 7.93 -8.82 6.61 -9.5 5.25 C-3.39285714 -1.01785714 -3.39285714 -1.01785714 0 0 Z M-4.5 2.25 C-5.17958603 4.64719432 -5.17958603 4.64719432 -5.5 7.25 C-4.84 7.91 -4.18 8.57 -3.5 9.25 C-0.89719432 8.92958603 -0.89719432 8.92958603 1.5 8.25 C1.83 7.26 2.16 6.27 2.5 5.25 C1.84 4.26 1.18 3.27 0.5 2.25 C-2.08380177 1.99969023 -2.08380177 1.99969023 -4.5 2.25 Z " fill="#FFFFFF" transform="translate(116.5,90.75)"/>
<path d="M0 0 C2.625 0.25 2.625 0.25 4.4375 1.375 C6.18457504 4.13353953 6.01703417 6.04838764 5.625 9.25 C4.65626968 10.60622245 3.66065785 11.94417053 2.625 13.25 C2.955 14.24 3.285 15.23 3.625 16.25 C-0.29350942 14.59216909 -3.27791096 12.14061644 -6.375 9.25 C-7.25 6.9375 -7.25 6.9375 -7.375 5.25 C-6.715 5.25 -6.055 5.25 -5.375 5.25 C-4.9109375 4.2909375 -4.9109375 4.2909375 -4.4375 3.3125 C-2.88764755 0.3039629 -2.88764755 0.3039629 0 0 Z M-3.375 3.25 C-3.375 4.9 -3.375 6.55 -3.375 8.25 C-0.9 9.24 -0.9 9.24 1.625 10.25 C2.285 9.59 2.945 8.93 3.625 8.25 C3.30458603 5.64719432 3.30458603 5.64719432 2.625 3.25 C-0.42413228 2.23888907 -0.42413228 2.23888907 -3.375 3.25 Z " fill="#000000" transform="translate(261.375,86.75)"/>
<path d="M0 0 C2.475 0.99 2.475 0.99 5 2 C5 2.66 5 3.32 5 4 C5.66 4 6.32 4 7 4 C7.22223194 6.74086056 7.34781139 8.43963721 5.875 10.8125 C3.12844028 12.55198782 1.18153026 12.39769128 -2 12 C-3.875 10.8125 -3.875 10.8125 -5 9 C-5.5 6.5625 -5.5 6.5625 -5 4 C-2.5 1.6875 -2.5 1.6875 0 0 Z M-2 3 C-2.33 4.65 -2.66 6.3 -3 8 C-1.35 6.35 0.3 4.7 2 3 C0.68 3 -0.64 3 -2 3 Z M4 4 C2.30911778 5.97956942 0.64169528 7.97945196 -1 10 C0.65 9.67 2.3 9.34 4 9 C4.33 7.35 4.66 5.7 5 4 C4.67 4 4.34 4 4 4 Z " fill="#000000" transform="translate(471,516)"/>
<path d="M0 0 C2.475 0.99 2.475 0.99 5 2 C5 2.66 5 3.32 5 4 C5.66 4 6.32 4 7 4 C7.22223194 6.74086056 7.34781139 8.43963721 5.875 10.8125 C3.12844028 12.55198782 1.18153026 12.39769128 -2 12 C-3.875 10.8125 -3.875 10.8125 -5 9 C-5.5 6.5625 -5.5 6.5625 -5 4 C-2.5 1.6875 -2.5 1.6875 0 0 Z M-2 3 C-2.33 4.65 -2.66 6.3 -3 8 C-1.35 6.35 0.3 4.7 2 3 C0.68 3 -0.64 3 -2 3 Z M4 4 C2.30911778 5.97956942 0.64169528 7.97945196 -1 10 C0.65 9.67 2.3 9.34 4 9 C4.33 7.35 4.66 5.7 5 4 C4.67 4 4.34 4 4 4 Z " fill="#000000" transform="translate(151,516)"/>
<path d="M0 0 C1.9375 1.625 1.9375 1.625 3 4 C2.93439072 7.739729 2.76345433 10.0603639 0.375 13 C-3.14974145 14.48410166 -5.36810976 14.05654989 -9 13 C-11.56809203 10.19114934 -12 8.67384851 -12 4.875 C-11 2 -11 2 -8.8125 0.0625 C-5.32408458 -1.25534582 -3.53311738 -1.15210349 0 0 Z M-8.8125 2.1875 C-10.42525784 4.64907776 -10.4334014 6.11065736 -10 9 C-9 11 -9 11 -7 12 C-3.35265021 11.77669287 -1.61627165 11.61627165 1 9 C0.64736215 4.49682877 0.64736215 4.49682877 -2 1 C-4.84602594 0.63512488 -6.3864306 0.59800625 -8.8125 2.1875 Z " fill="#FFFFFF" transform="translate(212,462)"/>
<path d="M0 0 C2.475 0.99 2.475 0.99 5 2 C5 2.66 5 3.32 5 4 C5.66 4 6.32 4 7 4 C7.22223194 6.74086056 7.34781139 8.43963721 5.875 10.8125 C3.12844028 12.55198782 1.18153026 12.39769128 -2 12 C-3.875 10.8125 -3.875 10.8125 -5 9 C-5.5 6.5625 -5.5 6.5625 -5 4 C-2.5 1.6875 -2.5 1.6875 0 0 Z M-2 3 C-2.33 4.65 -2.66 6.3 -3 8 C-1.35 6.35 0.3 4.7 2 3 C0.68 3 -0.64 3 -2 3 Z M4 4 C2.30911778 5.97956942 0.64169528 7.97945196 -1 10 C0.65 9.67 2.3 9.34 4 9 C4.33 7.35 4.66 5.7 5 4 C4.67 4 4.34 4 4 4 Z " fill="#000000" transform="translate(471,196)"/>
<path d="M0 0 C2.475 0.99 2.475 0.99 5 2 C5 2.66 5 3.32 5 4 C5.66 4 6.32 4 7 4 C7.22223194 6.74086056 7.34781139 8.43963721 5.875 10.8125 C3.12844028 12.55198782 1.18153026 12.39769128 -2 12 C-3.875 10.8125 -3.875 10.8125 -5 9 C-5.5 6.5625 -5.5 6.5625 -5 4 C-2.5 1.6875 -2.5 1.6875 0 0 Z M-2 3 C-2.33 4.65 -2.66 6.3 -3 8 C-1.35 6.35 0.3 4.7 2 3 C0.68 3 -0.64 3 -2 3 Z M4 4 C2.30911778 5.97956942 0.64169528 7.97945196 -1 10 C0.65 9.67 2.3 9.34 4 9 C4.33 7.35 4.66 5.7 5 4 C4.67 4 4.34 4 4 4 Z " fill="#000000" transform="translate(151,196)"/>
<path d="M0 0 C1.9375 1.625 1.9375 1.625 3 4 C2.93439072 7.739729 2.76345433 10.0603639 0.375 13 C-3.14974145 14.48410166 -5.36810976 14.05654989 -9 13 C-11.56809203 10.19114934 -12 8.67384851 -12 4.875 C-11 2 -11 2 -8.8125 0.0625 C-5.32408458 -1.25534582 -3.53311738 -1.15210349 0 0 Z M-8.8125 2.1875 C-10.42525784 4.64907776 -10.4334014 6.11065736 -10 9 C-9 11 -9 11 -7 12 C-3.35265021 11.77669287 -1.61627165 11.61627165 1 9 C0.64736215 4.49682877 0.64736215 4.49682877 -2 1 C-4.84602594 0.63512488 -6.3864306 0.59800625 -8.8125 2.1875 Z " fill="#FFFFFF" transform="translate(212,142)"/>
<path d="M0 0 C2.3125 2.5 2.3125 2.5 4 5 C2.92598892 7.91517292 2.22189824 9.77810176 0 12 C-5.45454545 11.54545455 -5.45454545 11.54545455 -8 9 C-8.333728 5.86295684 -8.52849028 3.83445834 -6.8125 1.125 C-4.27353509 -0.45090926 -2.93597381 -0.57287294 0 0 Z M-6 3 C-5.67 4.32 -5.34 5.64 -5 7 C-3.68 5.35 -2.36 3.7 -1 2 C-3.9254644 1.7763932 -3.9254644 1.7763932 -6 3 Z M-2.0625 5.875 C-4.22458462 7.76703874 -4.22458462 7.76703874 -4 10 C-2.68 9.67 -1.36 9.34 0 9 C0.33 7.35 0.66 5.7 1 4 C-0.3412413 3.88788787 -0.3412413 3.88788787 -2.0625 5.875 Z " fill="#000000" transform="translate(466,525)"/>
<path d="M0 0 C2.3125 2.5 2.3125 2.5 4 5 C2.92598892 7.91517292 2.22189824 9.77810176 0 12 C-5.45454545 11.54545455 -5.45454545 11.54545455 -8 9 C-8.333728 5.86295684 -8.52849028 3.83445834 -6.8125 1.125 C-4.27353509 -0.45090926 -2.93597381 -0.57287294 0 0 Z M-6 3 C-5.67 4.32 -5.34 5.64 -5 7 C-3.68 5.35 -2.36 3.7 -1 2 C-3.9254644 1.7763932 -3.9254644 1.7763932 -6 3 Z M-2.0625 5.875 C-4.22458462 7.76703874 -4.22458462 7.76703874 -4 10 C-2.68 9.67 -1.36 9.34 0 9 C0.33 7.35 0.66 5.7 1 4 C-0.3412413 3.88788787 -0.3412413 3.88788787 -2.0625 5.875 Z " fill="#000000" transform="translate(146,525)"/>
<path d="M0 0 C2.3125 2.5 2.3125 2.5 4 5 C2.92598892 7.91517292 2.22189824 9.77810176 0 12 C-5.45454545 11.54545455 -5.45454545 11.54545455 -8 9 C-8.333728 5.86295684 -8.52849028 3.83445834 -6.8125 1.125 C-4.27353509 -0.45090926 -2.93597381 -0.57287294 0 0 Z M-6 3 C-5.67 4.32 -5.34 5.64 -5 7 C-3.68 5.35 -2.36 3.7 -1 2 C-3.9254644 1.7763932 -3.9254644 1.7763932 -6 3 Z M-2.0625 5.875 C-4.22458462 7.76703874 -4.22458462 7.76703874 -4 10 C-2.68 9.67 -1.36 9.34 0 9 C0.33 7.35 0.66 5.7 1 4 C-0.3412413 3.88788787 -0.3412413 3.88788787 -2.0625 5.875 Z " fill="#000000" transform="translate(466,205)"/>
<path d="M0 0 C2.3125 2.5 2.3125 2.5 4 5 C2.92598892 7.91517292 2.22189824 9.77810176 0 12 C-5.45454545 11.54545455 -5.45454545 11.54545455 -8 9 C-8.333728 5.86295684 -8.52849028 3.83445834 -6.8125 1.125 C-4.27353509 -0.45090926 -2.93597381 -0.57287294 0 0 Z M-6 3 C-5.67 4.32 -5.34 5.64 -5 7 C-3.68 5.35 -2.36 3.7 -1 2 C-3.9254644 1.7763932 -3.9254644 1.7763932 -6 3 Z M-2.0625 5.875 C-4.22458462 7.76703874 -4.22458462 7.76703874 -4 10 C-2.68 9.67 -1.36 9.34 0 9 C0.33 7.35 0.66 5.7 1 4 C-0.3412413 3.88788787 -0.3412413 3.88788787 -2.0625 5.875 Z " fill="#000000" transform="translate(146,205)"/>
<path d="M0 0 C1.9375 1.0625 1.9375 1.0625 3 3 C3.50030235 6.93094707 3.5996142 9.1005787 1.375 12.4375 C-1.71685231 14.47161336 -3.36367425 14.60605429 -7 14 C-9.375 12.375 -9.375 12.375 -11 10 C-11.60605429 6.36367425 -11.47161336 4.71685231 -9.4375 1.625 C-6.1005787 -0.5996142 -3.93094707 -0.50030235 0 0 Z M-7.3125 2 C-9.27860309 3.96012036 -9.27860309 3.96012036 -9.375 7.0625 C-9.28930236 10.11861241 -9.28930236 10.11861241 -7 12 C-4.04230823 12.50010524 -4.04230823 12.50010524 -1 12 C1.14782671 10.44202118 1.14782671 10.44202118 2 8 C1.65022176 5.29164947 1.65022176 5.29164947 0 3 C-2.9229091 1.15395215 -4.0924054 0.60752666 -7.3125 2 Z " fill="#000000" transform="translate(384,465)"/>
<path d="M0 0 C1.9375 1.0625 1.9375 1.0625 3 3 C3.50030235 6.93094707 3.5996142 9.1005787 1.375 12.4375 C-1.71685231 14.47161336 -3.36367425 14.60605429 -7 14 C-9.375 12.375 -9.375 12.375 -11 10 C-11.60605429 6.36367425 -11.47161336 4.71685231 -9.4375 1.625 C-6.1005787 -0.5996142 -3.93094707 -0.50030235 0 0 Z M-7.3125 2 C-9.27860309 3.96012036 -9.27860309 3.96012036 -9.375 7.0625 C-9.28930236 10.11861241 -9.28930236 10.11861241 -7 12 C-4.04230823 12.50010524 -4.04230823 12.50010524 -1 12 C1.14782671 10.44202118 1.14782671 10.44202118 2 8 C1.65022176 5.29164947 1.65022176 5.29164947 0 3 C-2.9229091 1.15395215 -4.0924054 0.60752666 -7.3125 2 Z " fill="#000000" transform="translate(64,465)"/>
<path d="M0 0 C1.9375 1.0625 1.9375 1.0625 3 3 C3.50030235 6.93094707 3.5996142 9.1005787 1.375 12.4375 C-1.71685231 14.47161336 -3.36367425 14.60605429 -7 14 C-9.375 12.375 -9.375 12.375 -11 10 C-11.60605429 6.36367425 -11.47161336 4.71685231 -9.4375 1.625 C-6.1005787 -0.5996142 -3.93094707 -0.50030235 0 0 Z M-7.3125 2 C-9.27860309 3.96012036 -9.27860309 3.96012036 -9.375 7.0625 C-9.28930236 10.11861241 -9.28930236 10.11861241 -7 12 C-4.04230823 12.50010524 -4.04230823 12.50010524 -1 12 C1.14782671 10.44202118 1.14782671 10.44202118 2 8 C1.65022176 5.29164947 1.65022176 5.29164947 0 3 C-2.9229091 1.15395215 -4.0924054 0.60752666 -7.3125 2 Z " fill="#000000" transform="translate(384,145)"/>
<path d="M0 0 C1.9375 1.0625 1.9375 1.0625 3 3 C3.50030235 6.93094707 3.5996142 9.1005787 1.375 12.4375 C-1.71685231 14.47161336 -3.36367425 14.60605429 -7 14 C-9.375 12.375 -9.375 12.375 -11 10 C-11.60605429 6.36367425 -11.47161336 4.71685231 -9.4375 1.625 C-6.1005787 -0.5996142 -3.93094707 -0.50030235 0 0 Z M-7.3125 2 C-9.27860309 3.96012036 -9.27860309 3.96012036 -9.375 7.0625 C-9.28930236 10.11861241 -9.28930236 10.11861241 -7 12 C-4.04230823 12.50010524 -4.04230823 12.50010524 -1 12 C1.14782671 10.44202118 1.14782671 10.44202118 2 8 C1.65022176 5.29164947 1.65022176 5.29164947 0 3 C-2.9229091 1.15395215 -4.0924054 0.60752666 -7.3125 2 Z " fill="#000000" transform="translate(64,145)"/>
<path d="M0 0 C2.84337625 1.49277253 4.06278815 2.4380763 5.5 5.3125 C5.42936148 8.77378747 5.14776603 10.59275997 2.8125 13.1875 C-0.26660389 14.68544243 -2.11700591 14.87633235 -5.5 14.3125 C-7.9375 12.1875 -7.9375 12.1875 -9.5 9.3125 C-9.43421001 6.02300054 -9.12175386 4.13208464 -7.125 1.5 C-4.56754124 -0.36891217 -3.06805809 -0.84371597 0 0 Z M-6.5 3.3125 C-7.58223366 6.22254903 -7.58223366 6.22254903 -7.5 9.3125 C-6.64780077 11.41492444 -6.64780077 11.41492444 -4.5 12.3125 C-0.85458155 12.07772801 -0.85458155 12.07772801 2.5 11.3125 C3.35650653 8.51204954 3.35650653 8.51204954 3.5 5.3125 C1.81167984 2.8733859 1.81167984 2.8733859 -0.5 1.3125 C-3.13707871 1.3125 -4.34139132 1.78058416 -6.5 3.3125 Z " fill="#FFFFFF" transform="translate(379.5,611.6875)"/>
<path d="M0 0 C2.84337625 1.49277253 4.06278815 2.4380763 5.5 5.3125 C5.42936148 8.77378747 5.14776603 10.59275997 2.8125 13.1875 C-0.26660389 14.68544243 -2.11700591 14.87633235 -5.5 14.3125 C-7.9375 12.1875 -7.9375 12.1875 -9.5 9.3125 C-9.43421001 6.02300054 -9.12175386 4.13208464 -7.125 1.5 C-4.56754124 -0.36891217 -3.06805809 -0.84371597 0 0 Z M-6.5 3.3125 C-7.58223366 6.22254903 -7.58223366 6.22254903 -7.5 9.3125 C-6.64780077 11.41492444 -6.64780077 11.41492444 -4.5 12.3125 C-0.85458155 12.07772801 -0.85458155 12.07772801 2.5 11.3125 C3.35650653 8.51204954 3.35650653 8.51204954 3.5 5.3125 C1.81167984 2.8733859 1.81167984 2.8733859 -0.5 1.3125 C-3.13707871 1.3125 -4.34139132 1.78058416 -6.5 3.3125 Z " fill="#FFFFFF" transform="translate(59.5,611.6875)"/>
<path d="M0 0 C2.84337625 1.49277253 4.06278815 2.4380763 5.5 5.3125 C5.42936148 8.77378747 5.14776603 10.59275997 2.8125 13.1875 C-0.26660389 14.68544243 -2.11700591 14.87633235 -5.5 14.3125 C-7.9375 12.1875 -7.9375 12.1875 -9.5 9.3125 C-9.43421001 6.02300054 -9.12175386 4.13208464 -7.125 1.5 C-4.56754124 -0.36891217 -3.06805809 -0.84371597 0 0 Z M-6.5 3.3125 C-7.58223366 6.22254903 -7.58223366 6.22254903 -7.5 9.3125 C-6.64780077 11.41492444 -6.64780077 11.41492444 -4.5 12.3125 C-0.85458155 12.07772801 -0.85458155 12.07772801 2.5 11.3125 C3.35650653 8.51204954 3.35650653 8.51204954 3.5 5.3125 C1.81167984 2.8733859 1.81167984 2.8733859 -0.5 1.3125 C-3.13707871 1.3125 -4.34139132 1.78058416 -6.5 3.3125 Z " fill="#FFFFFF" transform="translate(379.5,291.6875)"/>
<path d="M0 0 C2.84337625 1.49277253 4.06278815 2.4380763 5.5 5.3125 C5.42936148 8.77378747 5.14776603 10.59275997 2.8125 13.1875 C-0.26660389 14.68544243 -2.11700591 14.87633235 -5.5 14.3125 C-7.9375 12.1875 -7.9375 12.1875 -9.5 9.3125 C-9.43421001 6.02300054 -9.12175386 4.13208464 -7.125 1.5 C-4.56754124 -0.36891217 -3.06805809 -0.84371597 0 0 Z M-6.5 3.3125 C-7.58223366 6.22254903 -7.58223366 6.22254903 -7.5 9.3125 C-6.64780077 11.41492444 -6.64780077 11.41492444 -4.5 12.3125 C-0.85458155 12.07772801 -0.85458155 12.07772801 2.5 11.3125 C3.35650653 8.51204954 3.35650653 8.51204954 3.5 5.3125 C1.81167984 2.8733859 1.81167984 2.8733859 -0.5 1.3125 C-3.13707871 1.3125 -4.34139132 1.78058416 -6.5 3.3125 Z " fill="#FFFFFF" transform="translate(59.5,291.6875)"/>
<path d="M0 0 C3.625 0.375 3.625 0.375 6.0625 2 C8.09661336 5.09185231 8.23105429 6.73867425 7.625 10.375 C6 12.75 6 12.75 3.625 14.375 C0.625 14.875 0.625 14.875 -2.375 14.375 C-5.22280619 12.14293569 -6.22497666 10.82507001 -7.375 7.375 C-5.92777425 2.81067264 -5.02279499 0.55808833 0 0 Z M-4.375 3.375 C-5.46305146 5.7316226 -5.46305146 5.7316226 -5.375 8.375 C-4.4535608 10.79804368 -4.4535608 10.79804368 -2.375 12.375 C0.66730823 12.87510524 0.66730823 12.87510524 3.625 12.375 C5.91430236 10.49361241 5.91430236 10.49361241 6 7.4375 C5.93490066 4.29994943 5.93490066 4.29994943 3.75 2.5 C0.46090921 0.75871664 -1.35581701 1.329747 -4.375 3.375 Z " fill="#000000" transform="translate(206.375,611.625)"/>
<path d="M0 0 C0.94875 0.04125 1.8975 0.0825 2.875 0.125 C2.875 4.125 2.875 4.125 1.5 5.875 C-0.125 7.125 -0.125 7.125 -2.125 7.125 C-1.795 7.785 -1.465 8.445 -1.125 9.125 C0.195 8.795 1.515 8.465 2.875 8.125 C3.205 6.805 3.535 5.485 3.875 4.125 C4.535 4.125 5.195 4.125 5.875 4.125 C5.5625 6.5 5.5625 6.5 4.875 9.125 C1.875 11.125 1.875 11.125 -0.6875 10.875 C-3.125 10.125 -3.125 10.125 -5.125 8.125 C-5.375 5.125 -5.375 5.125 -5.125 2.125 C-3.125 0.125 -3.125 0.125 0 0 Z " fill="#E57E23" transform="translate(302.125,366.875)"/>
<path d="M0 0 C9.32454188 11.0513089 9.32454188 11.0513089 9.3125 17 C9.1578125 18.485 9.1578125 18.485 9 20 C6.47530701 18.7376535 6.34341224 17.80129523 5.25 15.25 C3.20688515 10.94707629 0.82556069 8.78222596 -3 6 C-2.01 4.02 -1.02 2.04 0 0 Z " fill="#B8AECC" transform="translate(349,345)"/>
<path d="M0 0 C2.8288245 1.23307734 4.42282343 2.74935282 6.4375 5.0625 C6.1075 6.0525 5.7775 7.0425 5.4375 8.0625 C3.4575 6.4125 1.4775 4.7625 -0.5625 3.0625 C-1.5525 3.5575 -1.5525 3.5575 -2.5625 4.0625 C-1.98868522 7.39062571 -0.96869252 8.76092455 1.4375 11.0625 C1.4375 11.7225 1.4375 12.3825 1.4375 13.0625 C-2.8367558 11.4794423 -4.82781794 8.55681596 -7.5625 5.0625 C-3.3097661 0.080726 -3.3097661 0.080726 0 0 Z " fill="#000000" transform="translate(439.5625,548.9375)"/>
<path d="M0 0 C2.8288245 1.23307734 4.42282343 2.74935282 6.4375 5.0625 C6.1075 6.0525 5.7775 7.0425 5.4375 8.0625 C3.4575 6.4125 1.4775 4.7625 -0.5625 3.0625 C-1.5525 3.5575 -1.5525 3.5575 -2.5625 4.0625 C-1.98868522 7.39062571 -0.96869252 8.76092455 1.4375 11.0625 C1.4375 11.7225 1.4375 12.3825 1.4375 13.0625 C-2.8367558 11.4794423 -4.82781794 8.55681596 -7.5625 5.0625 C-3.3097661 0.080726 -3.3097661 0.080726 0 0 Z " fill="#000000" transform="translate(119.5625,548.9375)"/>
<path d="M0 0 C2.03453195 1.51285709 3.8257948 2.86148845 5.4375 4.8125 C5.4375 5.4725 5.4375 6.1325 5.4375 6.8125 C2.96949953 5.66076645 1.38966435 4.76466435 -0.5625 2.8125 C-2.63124034 2.1699765 -2.63124034 2.1699765 -4.5625 1.8125 C-4.05269669 5.58504453 -3.35549818 7.26237123 -0.5625 9.8125 C-0.5625 10.4725 -0.5625 11.1325 -0.5625 11.8125 C-3.92841866 10.36996343 -6.07297079 8.47985273 -8.5625 5.8125 C-7.67526572 3.00292478 -7.04727947 1.2136968 -4.75 -0.6875 C-2.5625 -1.1875 -2.5625 -1.1875 0 0 Z " fill="#FFFFFF" transform="translate(444.5625,403.1875)"/>
<path d="M0 0 C2.8288245 1.23307734 4.42282343 2.74935282 6.4375 5.0625 C6.1075 6.0525 5.7775 7.0425 5.4375 8.0625 C3.4575 6.4125 1.4775 4.7625 -0.5625 3.0625 C-1.5525 3.5575 -1.5525 3.5575 -2.5625 4.0625 C-1.98868522 7.39062571 -0.96869252 8.76092455 1.4375 11.0625 C1.4375 11.7225 1.4375 12.3825 1.4375 13.0625 C-2.8367558 11.4794423 -4.82781794 8.55681596 -7.5625 5.0625 C-3.3097661 0.080726 -3.3097661 0.080726 0 0 Z " fill="#000000" transform="translate(439.5625,228.9375)"/>
<path d="M0 0 C2.8288245 1.23307734 4.42282343 2.74935282 6.4375 5.0625 C6.1075 6.0525 5.7775 7.0425 5.4375 8.0625 C3.4575 6.4125 1.4775 4.7625 -0.5625 3.0625 C-1.5525 3.5575 -1.5525 3.5575 -2.5625 4.0625 C-1.98868522 7.39062571 -0.96869252 8.76092455 1.4375 11.0625 C1.4375 11.7225 1.4375 12.3825 1.4375 13.0625 C-2.8367558 11.4794423 -4.82781794 8.55681596 -7.5625 5.0625 C-3.3097661 0.080726 -3.3097661 0.080726 0 0 Z " fill="#000000" transform="translate(119.5625,228.9375)"/>
<path d="M0 0 C2.03453195 1.51285709 3.8257948 2.86148845 5.4375 4.8125 C5.4375 5.4725 5.4375 6.1325 5.4375 6.8125 C2.96949953 5.66076645 1.38966435 4.76466435 -0.5625 2.8125 C-2.63124034 2.1699765 -2.63124034 2.1699765 -4.5625 1.8125 C-4.05269669 5.58504453 -3.35549818 7.26237123 -0.5625 9.8125 C-0.5625 10.4725 -0.5625 11.1325 -0.5625 11.8125 C-3.92841866 10.36996343 -6.07297079 8.47985273 -8.5625 5.8125 C-7.67526572 3.00292478 -7.04727947 1.2136968 -4.75 -0.6875 C-2.5625 -1.1875 -2.5625 -1.1875 0 0 Z " fill="#FFFFFF" transform="translate(444.5625,83.1875)"/>
<path d="M0 0 C2.03453195 1.51285709 3.8257948 2.86148845 5.4375 4.8125 C5.4375 5.4725 5.4375 6.1325 5.4375 6.8125 C2.96949953 5.66076645 1.38966435 4.76466435 -0.5625 2.8125 C-2.63124034 2.1699765 -2.63124034 2.1699765 -4.5625 1.8125 C-4.05269669 5.58504453 -3.35549818 7.26237123 -0.5625 9.8125 C-0.5625 10.4725 -0.5625 11.1325 -0.5625 11.8125 C-3.92841866 10.36996343 -6.07297079 8.47985273 -8.5625 5.8125 C-7.67526572 3.00292478 -7.04727947 1.2136968 -4.75 -0.6875 C-2.5625 -1.1875 -2.5625 -1.1875 0 0 Z " fill="#FFFFFF" transform="translate(124.5625,83.1875)"/>
<path d="M0 0 C3.76632169 1.52446354 5.21197315 3.82214966 7.625 7.0625 C4.625 7.0625 4.625 7.0625 2.4375 5.0625 C1.839375 4.4025 1.24125 3.7425 0.625 3.0625 C-0.365 3.3925 -1.355 3.7225 -2.375 4.0625 C-1.80118522 7.39062571 -0.78119252 8.76092455 1.625 11.0625 C1.625 11.7225 1.625 12.3825 1.625 13.0625 C-1.73415158 11.62286361 -4.09124938 9.93833411 -6.375 7.0625 C-6.29767031 4.51062019 -5.56344558 3.33574609 -4.125 1.25 C-2.375 0.0625 -2.375 0.0625 0 0 Z " fill="#000000" transform="translate(269.375,78.9375)"/>
<path d="M0 0 C3.00296082 1.0986442 4.48085688 2.54746531 6.5625 4.9375 C6.2325 5.9275 5.9025 6.9175 5.5625 7.9375 C3.5825 6.2875 1.6025 4.6375 -0.4375 2.9375 C-1.4275 3.4325 -1.4275 3.4325 -2.4375 3.9375 C-1.86368522 7.26562571 -0.84369252 8.63592455 1.5625 10.9375 C1.5625 11.5975 1.5625 12.2575 1.5625 12.9375 C-1.79665158 11.49786361 -4.15374938 9.81333411 -6.4375 6.9375 C-6.36017031 4.38562019 -5.62594558 3.21074609 -4.1875 1.125 C-2.4375 -0.0625 -2.4375 -0.0625 0 0 Z " fill="#FFFFFF" transform="translate(269.4375,549.0625)"/>
<path d="M0 0 C1.32 0 2.64 0 4 0 C3.67 1.65 3.34 3.3 3 5 C1.02 5.33 -0.96 5.66 -3 6 C-3 5.34 -3 4.68 -3 4 C-4.32 4 -5.64 4 -7 4 C-6.67 4.99 -6.34 5.98 -6 7 C-7.32 6.34 -8.64 5.68 -10 5 C-10 4.01 -10 3.02 -10 2 C-2.25 0.875 -2.25 0.875 0 2 C0 1.34 0 0.68 0 0 Z " fill="#CCC7DE" transform="translate(282,399)"/>
<path d="M0 0 C2.97 0.495 2.97 0.495 6 1 C6.625 2.8125 6.625 2.8125 7 5 C6.01 6.485 6.01 6.485 5 8 C2.375 8.1875 2.375 8.1875 0 8 C-1.125 5.6875 -1.125 5.6875 -2 3 C-1.34 2.01 -0.68 1.02 0 0 Z " fill="#DAD6E7" transform="translate(259,409)"/>
<path d="M0 0 C2.93453261 0.36681658 3.86437246 0.86437246 6 3 C5.625 5.625 5.625 5.625 5 8 C3.1875 8.625 3.1875 8.625 1 9 C0.01 8.34 -0.98 7.68 -2 7 C-2.3125 4.5 -2.3125 4.5 -2 2 C-1.34 1.34 -0.68 0.68 0 0 Z " fill="#CCCCCC" transform="translate(113,412)"/>
<path d="M0 0 C3.81936528 1.55603771 6.26044438 3.95604931 9 7 C9 7.66 9 8.32 9 9 C7.68 9 6.36 9 5 9 C4.34 7.35 3.68 5.7 3 4 C1.35 4 -0.3 4 -2 4 C-2 5.98 -2 7.96 -2 10 C-2.99 9.67 -3.98 9.34 -5 9 C-4.50769231 3.46153846 -4.50769231 3.46153846 -1.9375 1.125 C-1.298125 0.75375 -0.65875 0.3825 0 0 Z " fill="#B8B3CF" transform="translate(277,390)"/>
<path d="M0 0 C-0.99 0.495 -0.99 0.495 -2 1 C-0.68 2.65 0.64 4.3 2 6 C-1.11198065 4.50163895 -4.0534615 2.80066242 -7 1 C-4.78071806 3.90802461 -3.07030857 5.95312762 0 8 C-3.81166211 7.47060248 -6.11842249 6.57283706 -9 4 C-9.33 3.34 -9.66 2.68 -10 2 C-10.99 1.67 -11.98 1.34 -13 1 C-11.58622218 0.63447197 -10.16879424 0.28304505 -8.75 -0.0625 C-7.96109375 -0.25972656 -7.1721875 -0.45695312 -6.359375 -0.66015625 C-3.89605178 -1.01497267 -2.34395868 -0.76877544 0 0 Z " fill="#BEB0C2" transform="translate(289,385)"/>
<path d="M0 0 C0.99 0.33 1.98 0.66 3 1 C2.37240135 3.92879371 1.41377341 6.36095629 0 9 C1.65 9 3.3 9 5 9 C5.33 9.99 5.66 10.98 6 12 C3.36 11.67 0.72 11.34 -2 11 C-1 3.57142857 -1 3.57142857 0 0 Z " fill="#E6A18A" transform="translate(332,235)"/>
<path d="M0 0 C0.33 0 0.66 0 1 0 C1.125 6.625 1.125 6.625 0 10 C1.65 10 3.3 10 5 10 C5.33 10.99 5.66 11.98 6 13 C3.36 13 0.72 13 -2 13 C-2.23509196 8.18061476 -1.45184478 4.53701494 0 0 Z " fill="#EAA879" transform="translate(362,264)"/>
<path d="M0 0 C2.75983251 1.37991626 3.13611769 3.04351521 4.4375 5.8125 C6.02375161 9.17893366 7.67316306 12.08975787 10 15 C8.68 15 7.36 15 6 15 C4.98965502 13.25595212 3.99207578 11.50450439 3 9.75 C2.1646875 8.28820312 2.1646875 8.28820312 1.3125 6.796875 C0 4 0 4 0 0 Z " fill="#EE7829" transform="translate(260,319)"/>
<path d="M0 0 C2.9539367 1.18157468 4.49407022 2.54830805 6.5 5 C6.5 5.66 6.5 6.32 6.5 7 C3.83333333 5.66666667 1.16666667 4.33333333 -1.5 3 C-2.16 3.66 -2.82 4.32 -3.5 5 C-4.49 4.67 -5.48 4.34 -6.5 4 C-3.22727273 0 -3.22727273 0 0 0 Z " fill="#FFFEFD" transform="translate(269.5,229)"/>
<path d="M0 0 C0.928125 0.20625 1.85625 0.4125 2.8125 0.625 C2.1525 2.605 1.4925 4.585 0.8125 6.625 C-1.4975 4.975 -3.8075 3.325 -6.1875 1.625 C-3.1875 -0.375 -3.1875 -0.375 0 0 Z " fill="#F08D38" transform="translate(156.1875,370.375)"/>
<path d="M0 0 C0 0.66 0 1.32 0 2 C-1 3 -2 4 -3 5 C-3 5.66 -3 6.32 -3 7 C-1.68 7 -0.36 7 1 7 C1.33 6.01 1.66 5.02 2 4 C2.33 4.99 2.66 5.98 3 7 C2.34 7.66 1.68 8.32 1 9 C-3.55555556 8.44444444 -3.55555556 8.44444444 -5 7 C-5.25 4.5625 -5.25 4.5625 -5 2 C-2 0 -2 0 0 0 Z " fill="#000000" transform="translate(208,614)"/>
<path d="M0 0 C0.556875 0.9590625 0.556875 0.9590625 1.125 1.9375 C3.58052793 4.63858072 5.44578805 4.68407005 9 5 C8.67 6.98 8.34 8.96 8 11 C0.51708428 4.84965831 0.51708428 4.84965831 -2 1 C-1.34 0.67 -0.68 0.34 0 0 Z " fill="#C7C3D7" transform="translate(256,412)"/>
<path d="M0 0 C-0.66 1.65 -1.32 3.3 -2 5 C-3.98 5 -5.96 5 -8 5 C-8.33 4.01 -8.66 3.02 -9 2 C-3.375 0 -3.375 0 0 0 Z " fill="#C1B3C5" transform="translate(299,381)"/>
<path d="M0 0 C0.99 0 1.98 0 3 0 C3 0.66 3 1.32 3 2 C2.01 2.33 1.02 2.66 0 3 C0 3.99 0 4.98 0 6 C3.00259517 6.33218192 3.00259517 6.33218192 4.6875 4.5 C5.3371875 3.7575 5.3371875 3.7575 6 3 C5.42655063 5.86724686 5.1385485 6.8614515 3 9 C1 8.875 1 8.875 -1 8 C-2.25 5.9375 -2.25 5.9375 -3 4 C-1.6875 2 -1.6875 2 0 0 Z " fill="#FFFFFF" transform="translate(206,464)"/>
<path d="M0 0 C0.99 0 1.98 0 3 0 C3 0.66 3 1.32 3 2 C2.01 2.33 1.02 2.66 0 3 C0 3.99 0 4.98 0 6 C3.00259517 6.33218192 3.00259517 6.33218192 4.6875 4.5 C5.3371875 3.7575 5.3371875 3.7575 6 3 C5.42655063 5.86724686 5.1385485 6.8614515 3 9 C1 8.875 1 8.875 -1 8 C-2.25 5.9375 -2.25 5.9375 -3 4 C-1.6875 2 -1.6875 2 0 0 Z " fill="#FFFFFF" transform="translate(206,144)"/>
<path d="M0 0 C0.66 0.66 1.32 1.32 2 2 C1.01 2.33 0.02 2.66 -1 3 C-1 3.99 -1 4.98 -1 6 C-0.01 6 0.98 6 2 6 C2.33 5.34 2.66 4.68 3 4 C3.66 4 4.32 4 5 4 C4.67 5.32 4.34 6.64 4 8 C1.6875 8.6875 1.6875 8.6875 -1 9 C-2.8125 7.5625 -2.8125 7.5625 -4 6 C-2.25 1.125 -2.25 1.125 0 0 Z " fill="#FFFFFF" transform="translate(377,614)"/>
<path d="M0 0 C0.66 0.66 1.32 1.32 2 2 C1.01 2.33 0.02 2.66 -1 3 C-1 3.99 -1 4.98 -1 6 C-0.01 6 0.98 6 2 6 C2.33 5.34 2.66 4.68 3 4 C3.66 4 4.32 4 5 4 C4.67 5.32 4.34 6.64 4 8 C1.6875 8.6875 1.6875 8.6875 -1 9 C-2.8125 7.5625 -2.8125 7.5625 -4 6 C-2.25 1.125 -2.25 1.125 0 0 Z " fill="#FFFFFF" transform="translate(57,614)"/>
<path d="M0 0 C0.33 0.66 0.66 1.32 1 2 C0.01 2.495 0.01 2.495 -1 3 C-1.65213292 5.02463255 -1.65213292 5.02463255 -2 7 C-0.02463255 6.65213292 -0.02463255 6.65213292 2 6 C2.33 5.34 2.66 4.68 3 4 C3.66 4.33 4.32 4.66 5 5 C4.01 6.32 3.02 7.64 2 9 C0.35 8.67 -1.3 8.34 -3 8 C-3.33 6.35 -3.66 4.7 -4 3 C-2.68 2.01 -1.36 1.02 0 0 Z " fill="#000000" transform="translate(380,467)"/>
<path d="M0 0 C0.33 0.66 0.66 1.32 1 2 C0.01 2.495 0.01 2.495 -1 3 C-1.65213292 5.02463255 -1.65213292 5.02463255 -2 7 C-0.02463255 6.65213292 -0.02463255 6.65213292 2 6 C2.33 5.34 2.66 4.68 3 4 C3.66 4.33 4.32 4.66 5 5 C4.01 6.32 3.02 7.64 2 9 C0.35 8.67 -1.3 8.34 -3 8 C-3.33 6.35 -3.66 4.7 -4 3 C-2.68 2.01 -1.36 1.02 0 0 Z " fill="#000000" transform="translate(60,467)"/>
<path d="M0 0 C2.31 0 4.62 0 7 0 C6.34 1.65 5.68 3.3 5 5 C6.32 6.65 7.64 8.3 9 10 C6.03874657 8.62513234 3.39878817 7.23335451 1 5 C0.25 2.3125 0.25 2.3125 0 0 Z " fill="#CCC7DD" transform="translate(262,401)"/>
<path d="M0 0 C0.66 0 1.32 0 2 0 C2.268125 0.763125 2.53625 1.52625 2.8125 2.3125 C3.95800967 4.90496926 4.99711522 6.08815544 7 8 C7 8.66 7 9.32 7 10 C2.7257442 8.4169423 0.73468206 5.49431596 -2 2 C-1.34 1.34 -0.68 0.68 0 0 Z " fill="#FFFFFF" transform="translate(458,385)"/>
<path d="M0 0 C0.66 0.66 1.32 1.32 2 2 C1.01 2.33 0.02 2.66 -1 3 C-1 3.99 -1 4.98 -1 6 C-0.01 6 0.98 6 2 6 C2.33 5.34 2.66 4.68 3 4 C3.66 4 4.32 4 5 4 C4.67 5.32 4.34 6.64 4 8 C1.6875 8.6875 1.6875 8.6875 -1 9 C-2.8125 7.5625 -2.8125 7.5625 -4 6 C-2.25 1.125 -2.25 1.125 0 0 Z " fill="#FFFFFF" transform="translate(377,294)"/>
<path d="M0 0 C0.66 0.66 1.32 1.32 2 2 C1.01 2.33 0.02 2.66 -1 3 C-1 3.99 -1 4.98 -1 6 C-0.01 6 0.98 6 2 6 C2.33 5.34 2.66 4.68 3 4 C3.66 4 4.32 4 5 4 C4.67 5.32 4.34 6.64 4 8 C1.6875 8.6875 1.6875 8.6875 -1 9 C-2.8125 7.5625 -2.8125 7.5625 -4 6 C-2.25 1.125 -2.25 1.125 0 0 Z " fill="#FFFFFF" transform="translate(57,294)"/>
<path d="M0 0 C0.33 0.66 0.66 1.32 1 2 C0.01 2.495 0.01 2.495 -1 3 C-1.65213292 5.02463255 -1.65213292 5.02463255 -2 7 C-0.02463255 6.65213292 -0.02463255 6.65213292 2 6 C2.33 5.34 2.66 4.68 3 4 C3.66 4.33 4.32 4.66 5 5 C4.01 6.32 3.02 7.64 2 9 C0.35 8.67 -1.3 8.34 -3 8 C-3.33 6.35 -3.66 4.7 -4 3 C-2.68 2.01 -1.36 1.02 0 0 Z " fill="#000000" transform="translate(380,147)"/>
<path d="M0 0 C0.33 0.66 0.66 1.32 1 2 C0.01 2.495 0.01 2.495 -1 3 C-1.65213292 5.02463255 -1.65213292 5.02463255 -2 7 C-0.02463255 6.65213292 -0.02463255 6.65213292 2 6 C2.33 5.34 2.66 4.68 3 4 C3.66 4.33 4.32 4.66 5 5 C4.01 6.32 3.02 7.64 2 9 C0.35 8.67 -1.3 8.34 -3 8 C-3.33 6.35 -3.66 4.7 -4 3 C-2.68 2.01 -1.36 1.02 0 0 Z " fill="#000000" transform="translate(60,147)"/>
<path d="M0 0 C0.66 0 1.32 0 2 0 C2.268125 0.763125 2.53625 1.52625 2.8125 2.3125 C3.95800967 4.90496926 4.99711522 6.08815544 7 8 C7 8.66 7 9.32 7 10 C2.7257442 8.4169423 0.73468206 5.49431596 -2 2 C-1.34 1.34 -0.68 0.68 0 0 Z " fill="#FFFFFF" transform="translate(458,65)"/>
<path d="M0 0 C0.66 0 1.32 0 2 0 C2.268125 0.763125 2.53625 1.52625 2.8125 2.3125 C3.95800967 4.90496926 4.99711522 6.08815544 7 8 C7 8.66 7 9.32 7 10 C2.7257442 8.4169423 0.73468206 5.49431596 -2 2 C-1.34 1.34 -0.68 0.68 0 0 Z " fill="#FFFFFF" transform="translate(138,65)"/>
<path d="M0 0 C-2.3129482 2.3129482 -3.47904875 2.49580975 -6.625 3.125 C-7.44226563 3.29257813 -8.25953125 3.46015625 -9.1015625 3.6328125 C-10.04128906 3.81457031 -10.04128906 3.81457031 -11 4 C-11 3.34 -11 2.68 -11 2 C-11.99 1.67 -12.98 1.34 -14 1 C-9.32798795 -0.20568053 -4.78503708 -0.09382426 0 0 Z " fill="#F8A43F" transform="translate(237,242)"/>
<path d="M0 0 C3.0534135 -0.29359745 5.95743422 -0.4451258 9 0 C11.5625 2.5 11.5625 2.5 13 5 C11.39402675 4.54803755 9.79027492 4.08817673 8.1875 3.625 C6.84751953 3.24214844 6.84751953 3.24214844 5.48046875 2.8515625 C3 2 3 2 0 0 Z " fill="#EB8F43" transform="translate(290,240)"/>
<path d="M0 0 C5.445 1.485 5.445 1.485 11 3 C8 5 8 5 5 5 C4.67 5.66 4.34 6.32 4 7 C1.125 2.25 1.125 2.25 0 0 Z " fill="#EB7427" transform="translate(277,338)"/>
<path d="M0 0 C1.32 0 2.64 0 4 0 C2.95125002 2.62187494 2.35068687 3.79371361 -0.125 5.25 C-0.74375 5.4975 -1.3625 5.745 -2 6 C-1.125 1.125 -1.125 1.125 0 0 Z " fill="#F08425" transform="translate(300,368)"/>
<path d="M0 0 C0.33 0 0.66 0 1 0 C1 3.3 1 6.6 1 10 C0.67 10 0.34 10 0 10 C-0.33 8.35 -0.66 6.7 -1 5 C-1.99 5.99 -2.98 6.98 -4 8 C-2.25 2.25 -2.25 2.25 0 0 Z " fill="#F48C31" transform="translate(145,299)"/>
<path d="M0 0 C1.3479743 0.63654342 2.68596724 1.29605388 4 2 C-0.16138263 2.08159574 -3.9472484 1.98248524 -8 1 C-4.91013114 -0.87599181 -3.40359125 -1.27634672 0 0 Z " fill="#EAB09C" transform="translate(374,235)"/>
</svg>
