<?xml version="1.0" encoding="UTF-8"?>
<svg version="1.1" xmlns="http://www.w3.org/2000/svg" width="531" height="650">
<path d="M0 0 C7.98474073 6.98664814 12.28993199 17.7060656 13.22753906 28.16259766 C13.84246961 39.10565408 13.88280236 49.58644359 9 59.625 C8.56429687 60.54023437 8.12859375 61.45546875 7.6796875 62.3984375 C2.07171566 73.33857929 -5.84825793 82.7802657 -13.4453125 92.375 C-15.95970603 95.55805642 -18.39536714 98.79362982 -20.78125 102.07421875 C-22 103.625 -22 103.625 -23.54296875 104.87890625 C-25.74672247 107.5198658 -26.12241256 110.588517 -26.8125 113.875 C-32.61622577 138.90427724 -46.06139545 159.56182181 -64 177.625 C-64.66 177.955 -65.32 178.285 -66 178.625 C-65.4016333 178.63958252 -64.8032666 178.65416504 -64.18676758 178.66918945 C-52.80776601 178.97844302 -41.97179131 179.33346261 -31 182.625 C-33.78047504 185.59102788 -36.53448576 187.74904148 -40.015625 189.83984375 C-41.00699463 190.43708252 -41.99836426 191.03432129 -43.01977539 191.6496582 C-44.08574951 192.280896 -45.15172363 192.91213379 -46.25 193.5625 C-47.36173584 194.2227417 -48.47347168 194.8829834 -49.61889648 195.56323242 C-120.09000268 237.23041158 -120.09000268 237.23041158 -157 234.625 C-154.13999026 229.23737875 -150.8444957 224.81213747 -146.8125 220.25 C-146.26658203 219.62222656 -145.72066406 218.99445313 -145.15820312 218.34765625 C-141.33035714 213.95535714 -141.33035714 213.95535714 -140 212.625 C-140.65371582 212.63547363 -141.30743164 212.64594727 -141.98095703 212.65673828 C-179.59075045 213.17918837 -204.33224399 202.7732824 -235 181.625 C-259.34902308 164.73474078 -259.34902308 164.73474078 -288 159.625 C-308.74259713 254.4806966 -308.60292422 356.1608215 -314.6942749 464.40814209 C-316.03495959 488.2970192 -317.39604934 512.18468507 -318.77933121 536.07113457 C-319.17238774 542.85926938 -319.56231455 549.64757294 -319.94950676 556.43604469 C-320.1869697 560.58808032 -320.4271491 564.73995541 -320.66812515 568.89178848 C-320.77857135 570.80377982 -320.88792246 572.71583478 -320.99608994 574.62795639 C-321.14330687 577.22709034 -321.29453383 579.82596103 -321.44677734 582.42480469 C-321.48830681 583.17499311 -321.52983627 583.92518154 -321.57262421 584.69810295 C-321.81370153 588.73260603 -322.25662008 592.65195579 -323 596.625 C-321.78376953 596.68107422 -321.78376953 596.68107422 -320.54296875 596.73828125 C-319.43566406 596.80402344 -318.32835937 596.86976563 -317.1875 596.9375 C-315.56908203 597.02451172 -315.56908203 597.02451172 -313.91796875 597.11328125 C-310.53187533 597.55553273 -307.53199197 598.24159151 -304.25512695 599.15698242 C-302.77675102 599.56771248 -302.77675102 599.56771248 -301.26850891 599.98674011 C-300.145597 600.30267876 -300.145597 600.30267876 -299 600.625 C-298.9189653 599.8565123 -298.8379306 599.0880246 -298.75444031 598.29624939 C-297.9823625 590.98624142 -297.20350336 583.67700054 -296.41737652 576.36849117 C-296.01363627 572.61281578 -295.6123503 568.85691472 -295.21704102 565.1003418 C-294.83409253 561.46215925 -294.4442175 557.82477495 -294.04990578 554.18780708 C-293.90204325 552.81329228 -293.75650846 551.43852463 -293.61356163 550.06348991 C-290.22211094 517.51080941 -290.22211094 517.51080941 -278.90234375 507.97265625 C-274.18141748 504.6282629 -268.5316742 505.21111934 -263 505.625 C-257.18949013 507.41284919 -253.451692 511.76772208 -250 516.625 C-246.52705995 523.62876243 -246.97896981 531.64882955 -248.88671875 539.078125 C-250.42484341 543.34607451 -252.1620378 547.47871873 -254 551.625 C-254.45632813 552.66108398 -254.91265625 553.69716797 -255.3828125 554.76464844 C-258.36869284 561.5192457 -261.39942127 568.25268076 -264.44786072 574.97918701 C-267.41611014 581.53354885 -270.34185816 588.10622221 -273.25 594.6875 C-273.71559326 595.73349365 -274.18118652 596.7794873 -274.66088867 597.85717773 C-275.08732666 598.82341064 -275.51376465 599.78964355 -275.953125 600.78515625 C-276.51241699 602.04791382 -276.51241699 602.04791382 -277.08300781 603.33618164 C-277.9197065 605.42458691 -278.51904736 607.43073246 -279 609.625 C-278.236875 609.91375 -277.47375 610.2025 -276.6875 610.5 C-274 611.625 -274 611.625 -271 613.625 C-267.98064055 613.5129413 -266.95971386 612.58728827 -264.73828125 610.5078125 C-263.93777344 609.59773437 -263.13726562 608.68765625 -262.3125 607.75 C-261.87534668 607.25677246 -261.43819336 606.76354492 -260.98779297 606.25537109 C-257.33979931 602.10638806 -253.88127291 597.80813354 -250.4140625 593.5078125 C-247.22498177 589.6994928 -243.8454102 586.09046046 -240.44628906 582.47021484 C-237.25811118 579.05343912 -234.27538763 575.5440416 -231.375 571.875 C-218.96449951 556.43534275 -218.96449951 556.43534275 -210.52734375 555.2890625 C-209.67269531 555.27617188 -208.81804687 555.26328125 -207.9375 555.25 C-207.08027344 555.22164062 -206.22304688 555.19328125 -205.33984375 555.1640625 C-203 555.625 -203 555.625 -201.24609375 557.4765625 C-198.80600435 561.68361318 -198.77611593 564.66549682 -199.875 569.375 C-205.57508031 582.75118845 -221.32781496 592.78867651 -232.44140625 601.56640625 C-235.50724043 604.03311558 -238.50451145 606.57370606 -241.5 609.125 C-246.91394945 613.73564073 -252.41354339 618.22393147 -258 622.625 C-257.67 623.285 -257.34 623.945 -257 624.625 C-248.54388714 622.60347672 -240.23438025 620.25285507 -231.9296875 617.68359375 C-229.46226628 616.92764722 -226.99481754 616.17179053 -224.52734375 615.41601562 C-220.69137819 614.23709915 -216.85587896 613.05669992 -213.02099609 611.87426758 C-209.28348884 610.72321849 -205.54419733 609.57811724 -201.8046875 608.43359375 C-200.66901337 608.08147324 -199.53333923 607.72935272 -198.36325073 607.36656189 C-185.81522717 603.53236245 -174.62140194 600.43897841 -162 605.625 C-157.03706985 608.45947684 -154.65767019 612.19152548 -153 617.625 C-152.35538012 624.39350876 -153.32761602 629.98016518 -157.40625 635.54296875 C-163.86275076 642.68471134 -172.57526458 645.28609052 -181.99935913 645.78321838 C-183.05192902 645.79876266 -184.1044989 645.81430695 -185.18896484 645.83032227 C-186.38975677 645.85026749 -187.59054871 645.87021271 -188.82772827 645.89076233 C-190.10918732 645.90747482 -191.39064636 645.92418732 -192.7109375 645.94140625 C-194.04758304 645.96200309 -195.38422246 645.98300024 -196.72085571 646.00437927 C-200.22242247 646.05931826 -203.72404525 646.10885056 -207.22570801 646.15722656 C-210.80547005 646.20764861 -214.38515172 646.26322611 -217.96484375 646.31835938 C-224.97649271 646.4255958 -231.98821441 646.52711598 -239 646.625 C-239 646.955 -239 647.285 -239 647.625 C-261.04775824 647.75672104 -283.09552376 647.88716022 -305.14329815 648.01615143 C-315.38484231 648.07609849 -325.62638387 648.13643545 -335.86791992 648.19775391 C-344.81427237 648.25131674 -353.76062914 648.30408331 -362.70699149 648.35596704 C-367.42596361 648.38336023 -372.14493298 648.41110202 -376.86389732 648.43980408 C-395.71730011 648.55420901 -414.57028451 648.64542947 -433.42407227 648.65014648 C-434.19298967 648.6505682 -434.96190707 648.65098991 -435.754125 648.65142441 C-446.25245962 648.65556187 -456.74464313 648.59393176 -467.23828125 648.25268555 C-469.33058462 648.18488882 -471.4230243 648.12619627 -473.515625 648.06835938 C-480.7440176 647.85911154 -487.96660102 647.5584608 -495.1875 647.16796875 C-495.88554749 647.13296768 -496.58359497 647.09796661 -497.30279541 647.06190491 C-504.41492708 646.65109019 -510.25783786 645.5445135 -516.125 641.4375 C-518.25736888 638.23894668 -518.7950829 636.34958643 -518.55859375 632.55859375 C-517.4958115 628.87973212 -515.17315064 627.63873022 -512 625.625 C-501.32372188 621.86916363 -487.30473202 625.09464156 -476.6484375 627.25 C-475.2510641 627.5204977 -473.85340217 627.7895086 -472.45547485 628.05712891 C-468.82880398 628.75469746 -465.20560967 629.46876639 -461.58312988 630.18774414 C-455.75408232 631.34201737 -449.92026414 632.47180322 -444.08589554 633.59881592 C-442.06513752 633.99188862 -440.04611458 634.39303473 -438.02719116 634.79541016 C-436.18334335 635.15578369 -436.18334335 635.15578369 -434.30224609 635.5234375 C-433.22687592 635.73661621 -432.15150574 635.94979492 -431.04354858 636.16943359 C-427.95074399 636.63237277 -425.12102429 636.83504913 -422 636.625 C-419.92956867 634.80568727 -419.92956867 634.80568727 -418.3125 632.25 C-412.93479122 624.96574321 -406.31859936 618.9429542 -399 613.625 C-404.05765303 608.98424678 -409.16214258 604.44249665 -414.5 600.125 C-418.96064056 596.5163919 -423.22410835 592.74585349 -427.4609375 588.87890625 C-430.11895465 586.51940487 -432.85392294 584.28775885 -435.625 582.0625 C-444.11204451 575.14579847 -452.75418632 567.89943838 -455 556.625 C-455.41463666 551.13106419 -454.71502 547.44197096 -452 542.625 C-447.13208411 537.3844782 -442.50876369 534.60869227 -435.3125 534.25 C-426.96551339 534.43659434 -419.87945611 537.71970644 -414 543.625 C-412.03078027 546.09904695 -410.32700688 548.71212989 -408.625 551.375 C-408.12315186 552.14360352 -407.62130371 552.91220703 -407.10424805 553.70410156 C-405.39102683 556.33695943 -403.69448157 558.98004532 -402 561.625 C-401.3507959 562.63433594 -400.7015918 563.64367187 -400.03271484 564.68359375 C-396.58946498 570.03812173 -393.15760321 575.39969249 -389.73828125 580.76953125 C-387.50293603 584.27850995 -385.256479 587.77898045 -382.98046875 591.26171875 C-382.33791138 592.24736816 -382.33791138 592.24736816 -381.68237305 593.25292969 C-380.59350474 594.91939507 -379.50008911 596.58288689 -378.40625 598.24609375 C-377 600.625 -377 600.625 -377 602.625 C-375.02 602.295 -373.04 601.965 -371 601.625 C-371.20774048 601.09756195 -371.41548096 600.5701239 -371.6295166 600.02670288 C-373.84009267 594.41253546 -376.04658876 588.7967758 -378.25097656 583.18017578 C-379.06834245 581.09905615 -379.88666408 579.01831156 -380.70605469 576.93798828 C-385.0908831 565.80354071 -389.41569725 554.65126901 -393.53125 543.4140625 C-393.8677356 542.50095306 -394.20422119 541.58784363 -394.55090332 540.64706421 C-395.0139386 539.37084702 -395.0139386 539.37084702 -395.48632812 538.06884766 C-395.75578247 537.32849274 -396.02523682 536.58813782 -396.30285645 535.8253479 C-398.1876552 529.87648278 -399.07015181 524.203093 -396.625 518.3125 C-395 515.625 -395 515.625 -393 513.625 C-388.18599821 513.06336646 -386.02075476 513.02455602 -381.8125 515.5 C-375.89526914 521.1826182 -373.34151654 529.67504366 -371.75 537.5 C-371.56018555 538.37696533 -371.37037109 539.25393066 -371.17480469 540.1574707 C-370.42978555 543.64261143 -369.71383275 547.13337943 -369 550.625 C-368.63942024 552.38104212 -368.27873528 554.13706265 -367.91796875 555.89306641 C-366.28083542 563.87005059 -364.6453068 571.84730612 -363.03417969 579.82958984 C-362.84166626 580.78061081 -362.64915283 581.73163177 -362.45080566 582.71147156 C-362.08488279 584.5202441 -361.72047675 586.32932434 -361.35778809 588.13874817 C-361.19363403 588.94914047 -361.02947998 589.75953278 -360.86035156 590.59448242 C-360.64647797 591.65743782 -360.64647797 591.65743782 -360.42828369 592.74186707 C-359.98490216 594.83356957 -359.98490216 594.83356957 -359 597.625 C-358.195625 597.46 -357.39125 597.295 -356.5625 597.125 C-353.69551599 596.72261628 -351.15266168 596.57274311 -348.27734375 596.59375 C-347.07259399 596.60051758 -347.07259399 596.60051758 -345.84350586 596.60742188 C-345.23514893 596.61322266 -344.62679199 596.61902344 -344 596.625 C-341.1659388 555.16609045 -339.16417151 513.67339425 -337.29218191 472.16206515 C-327.74178452 260.4113096 -327.74178452 260.4113096 -290.5234375 135.98046875 C-286.81709247 132.68277202 -282.810952 130.86260381 -278.125 129.375 C-274.65717238 128.15532679 -272.6236621 126.49631874 -270 123.9375 C-266.07573549 120.27665428 -262.0553244 117.74257105 -257.3125 115.3125 C-256.70212891 114.98741455 -256.09175781 114.6623291 -255.46289062 114.32739258 C-244.71540178 109.04010012 -232.37413161 108.17770958 -220.61636353 106.97671509 C-206.7489082 105.53377875 -193.4349461 103.43415067 -180 99.625 C-178.89253418 99.31965332 -177.78506836 99.01430664 -176.64404297 98.69970703 C-147.85031933 90.74106169 -119.30316073 81.82975482 -92 69.625 C-91.15308594 69.25165527 -90.30617188 68.87831055 -89.43359375 68.49365234 C-67.33596114 59.87031506 -67.33596114 59.87031506 -50.9284668 45.10986328 C-50.60531494 44.06556152 -50.28216309 43.02125977 -49.94921875 41.9453125 C-49.57990234 40.78773437 -49.21058594 39.63015625 -48.83007812 38.4375 C-48.45302734 37.220625 -48.07597656 36.00375 -47.6875 34.75 C-39.41478598 8.07888672 -39.41478598 8.07888672 -31 3.625 C-21.73804193 -1.03854569 -10.03230138 -4.61839425 0 0 Z M-22.5625 13.6875 C-26.46493343 16.78943426 -28.05388174 20.8274269 -29 25.625 C-29.71580205 34.98909898 -28.86394777 43.84709381 -27.1875 53.0625 C-27.0222583 53.97306152 -26.8570166 54.88362305 -26.68676758 55.82177734 C-25.56572166 61.6005712 -24.00663261 67.09217354 -22 72.625 C-17.84040513 68.82487629 -15.13391172 64.92810651 -12.4375 60 C-12.04763916 59.29069336 -11.65777832 58.58138672 -11.25610352 57.85058594 C-5.84982162 47.8260834 -1.46609653 37.90542144 -4.625 26.3359375 C-6.97006916 20.91296507 -11.14124941 16.8989628 -16 13.625 C-18.92529877 12.56423745 -19.61078544 12.46361835 -22.5625 13.6875 Z " fill="#4E4E4E" transform="translate(518,1.375)"/>
<path d="M0 0 C-1.46858968 3.76938019 -3.33364056 5.06483173 -6.75 7.125 C-14.35434281 12.23845418 -17.74036335 19.66981745 -21 28 C-18.03 28 -15.06 28 -12 28 C-12.12528076 28.63349365 -12.25056152 29.2669873 -12.37963867 29.91967773 C-31.0406863 125.72998168 -32.56839471 225.92235133 -38.6942749 334.78314209 C-40.03495959 358.6720192 -41.39604934 382.55968507 -42.77933121 406.44613457 C-43.17238774 413.23426938 -43.56231455 420.02257294 -43.94950676 426.81104469 C-44.1869697 430.96308032 -44.4271491 435.11495541 -44.66812515 439.26678848 C-44.77857135 441.17877982 -44.88792246 443.09083478 -44.99608994 445.00295639 C-45.14330687 447.60209034 -45.29453383 450.20096103 -45.44677734 452.79980469 C-45.48830681 453.54999311 -45.52983627 454.30018154 -45.57262421 455.07310295 C-45.81370153 459.10760603 -46.25662008 463.02695579 -47 467 C-46.18917969 467.03738281 -45.37835938 467.07476563 -44.54296875 467.11328125 C-42.88201172 467.21189453 -42.88201172 467.21189453 -41.1875 467.3125 C-40.10855469 467.37050781 -39.02960938 467.42851563 -37.91796875 467.48828125 C-34.53187533 467.93053273 -31.53199197 468.61659151 -28.25512695 469.53198242 C-26.77675102 469.94271248 -26.77675102 469.94271248 -25.26850891 470.36174011 C-24.145597 470.67767876 -24.145597 470.67767876 -23 471 C-22.9189653 470.2315123 -22.8379306 469.4630246 -22.75444031 468.67124939 C-21.9823625 461.36124142 -21.20350336 454.05200054 -20.41737652 446.74349117 C-20.01363627 442.98781578 -19.6123503 439.23191472 -19.21704102 435.4753418 C-18.83409253 431.83715925 -18.4442175 428.19977495 -18.04990578 424.56280708 C-17.90204325 423.18829228 -17.75650846 421.81352463 -17.61356163 420.43848991 C-14.22211094 387.88580941 -14.22211094 387.88580941 -2.90234375 378.34765625 C1.81858252 375.0032629 7.4683258 375.58611934 13 376 C18.81050987 377.78784919 22.548308 382.14272208 26 387 C29.47294005 394.00376243 29.02103019 402.02382955 27.11328125 409.453125 C25.57515659 413.72107451 23.8379622 417.85371873 22 422 C21.54367187 423.03608398 21.08734375 424.07216797 20.6171875 425.13964844 C17.63130716 431.8942457 14.60057873 438.62768076 11.55213928 445.35418701 C8.58388986 451.90854885 5.65814184 458.48122221 2.75 465.0625 C2.28440674 466.10849365 1.81881348 467.1544873 1.33911133 468.23217773 C0.91267334 469.19841064 0.48623535 470.16464355 0.046875 471.16015625 C-0.32598633 472.00199463 -0.69884766 472.84383301 -1.08300781 473.71118164 C-1.9197065 475.79958691 -2.51904736 477.80573246 -3 480 C-2.236875 480.28875 -1.47375 480.5775 -0.6875 480.875 C2 482 2 482 5 484 C8.01935945 483.8879413 9.04028614 482.96228827 11.26171875 480.8828125 C12.06222656 479.97273438 12.86273438 479.06265625 13.6875 478.125 C14.12465332 477.63177246 14.56180664 477.13854492 15.01220703 476.63037109 C18.66020069 472.48138806 22.11872709 468.18313354 25.5859375 463.8828125 C28.77501823 460.0744928 32.1545898 456.46546046 35.55371094 452.84521484 C38.74188882 449.42843912 41.72461237 445.9190416 44.625 442.25 C57.03550049 426.81034275 57.03550049 426.81034275 65.47265625 425.6640625 C66.32730469 425.65117188 67.18195313 425.63828125 68.0625 425.625 C68.91972656 425.59664062 69.77695312 425.56828125 70.66015625 425.5390625 C73 426 73 426 74.75390625 427.8515625 C77.19399565 432.05861318 77.22388407 435.04049682 76.125 439.75 C70.42491969 453.12618845 54.67218504 463.16367651 43.55859375 471.94140625 C40.49275957 474.40811558 37.49548855 476.94870606 34.5 479.5 C29.08605055 484.11064073 23.58645661 488.59893147 18 493 C18.33 493.66 18.66 494.32 19 495 C27.45611286 492.97847672 35.76561975 490.62785507 44.0703125 488.05859375 C46.53773372 487.30264722 49.00518246 486.54679053 51.47265625 485.79101562 C55.30862181 484.61209915 59.14412104 483.43169992 62.97900391 482.24926758 C66.71651116 481.09821849 70.45580267 479.95311724 74.1953125 478.80859375 C75.33098663 478.45647324 76.46666077 478.10435272 77.63674927 477.74156189 C90.18477283 473.90736245 101.37859806 470.81397841 114 476 C118.96293015 478.83447684 121.34232981 482.56652548 123 488 C123.64461988 494.76850876 122.67238398 500.35516518 118.59375 505.91796875 C112.13724924 513.05971134 103.42473542 515.66109052 94.00064087 516.15821838 C92.94807098 516.17376266 91.8955011 516.18930695 90.81103516 516.20532227 C89.61024323 516.22526749 88.40945129 516.24521271 87.17227173 516.26576233 C85.89081268 516.28247482 84.60935364 516.29918732 83.2890625 516.31640625 C81.95241696 516.33700309 80.61577754 516.35800024 79.27914429 516.37937927 C75.77757753 516.43431826 72.27595475 516.48385056 68.77429199 516.53222656 C65.19452995 516.58264861 61.61484828 516.63822611 58.03515625 516.69335938 C51.02350729 516.8005958 44.01178559 516.90211598 37 517 C37 517.33 37 517.66 37 518 C14.95224176 518.13172104 -7.09552376 518.26216022 -29.14329815 518.39115143 C-39.38484231 518.45109849 -49.62638387 518.51143545 -59.86791992 518.57275391 C-68.81427237 518.62631674 -77.76062914 518.67908331 -86.70699149 518.73096704 C-91.42596361 518.75836023 -96.14493298 518.78610202 -100.86389732 518.81480408 C-119.71730011 518.92920901 -138.57028451 519.02042947 -157.42407227 519.02514648 C-158.19298967 519.0255682 -158.96190707 519.02598991 -159.754125 519.02642441 C-170.25245962 519.03056187 -180.74464313 518.96893176 -191.23828125 518.62768555 C-193.33058462 518.55988882 -195.4230243 518.50119627 -197.515625 518.44335938 C-204.7440176 518.23411154 -211.96660102 517.9334608 -219.1875 517.54296875 C-219.88554749 517.50796768 -220.58359497 517.47296661 -221.30279541 517.43690491 C-228.41492708 517.02609019 -234.25783786 515.9195135 -240.125 511.8125 C-242.25736888 508.61394668 -242.7950829 506.72458643 -242.55859375 502.93359375 C-241.4958115 499.25473212 -239.17315064 498.01373022 -236 496 C-225.32372188 492.24416363 -211.30473202 495.46964156 -200.6484375 497.625 C-199.2510641 497.8954977 -197.85340217 498.1645086 -196.45547485 498.43212891 C-192.82880398 499.12969746 -189.20560967 499.84376639 -185.58312988 500.56274414 C-179.75408232 501.71701737 -173.92026414 502.84680322 -168.08589554 503.97381592 C-166.06513752 504.36688862 -164.04611458 504.76803473 -162.02719116 505.17041016 C-160.18334335 505.53078369 -160.18334335 505.53078369 -158.30224609 505.8984375 C-157.22687592 506.11161621 -156.15150574 506.32479492 -155.04354858 506.54443359 C-151.95074399 507.00737277 -149.12102429 507.21004913 -146 507 C-143.92956867 505.18068727 -143.92956867 505.18068727 -142.3125 502.625 C-136.93479122 495.34074321 -130.31859936 489.3179542 -123 484 C-128.05765303 479.35924678 -133.16214258 474.81749665 -138.5 470.5 C-142.96064056 466.8913919 -147.22410835 463.12085349 -151.4609375 459.25390625 C-154.11895465 456.89440487 -156.85392294 454.66275885 -159.625 452.4375 C-168.11204451 445.52079847 -176.75418632 438.27443838 -179 427 C-179.41463666 421.50606419 -178.71502 417.81697096 -176 413 C-171.13208411 407.7594782 -166.50876369 404.98369227 -159.3125 404.625 C-150.96551339 404.81159434 -143.87945611 408.09470644 -138 414 C-136.03078027 416.47404695 -134.32700688 419.08712989 -132.625 421.75 C-132.12315186 422.51860352 -131.62130371 423.28720703 -131.10424805 424.07910156 C-129.39102683 426.71195943 -127.69448157 429.35504532 -126 432 C-125.3507959 433.00933594 -124.7015918 434.01867187 -124.03271484 435.05859375 C-120.58946498 440.41312173 -117.15760321 445.77469249 -113.73828125 451.14453125 C-111.50293603 454.65350995 -109.256479 458.15398045 -106.98046875 461.63671875 C-106.33791138 462.62236816 -106.33791138 462.62236816 -105.68237305 463.62792969 C-104.59350474 465.29439507 -103.50008911 466.95788689 -102.40625 468.62109375 C-101 471 -101 471 -101 473 C-99.02 472.67 -97.04 472.34 -95 472 C-95.20774048 471.47256195 -95.41548096 470.9451239 -95.6295166 470.40170288 C-97.84009267 464.78753546 -100.04658876 459.1717758 -102.25097656 453.55517578 C-103.06834245 451.47405615 -103.88666408 449.39331156 -104.70605469 447.31298828 C-109.0908831 436.17854071 -113.41569725 425.02626901 -117.53125 413.7890625 C-117.8677356 412.87595306 -118.20422119 411.96284363 -118.55090332 411.02206421 C-118.85959351 410.17125275 -119.16828369 409.32044128 -119.48632812 408.44384766 C-119.75578247 407.70349274 -120.02523682 406.96313782 -120.30285645 406.2003479 C-122.1876552 400.25148278 -123.07015181 394.578093 -120.625 388.6875 C-119 386 -119 386 -117 384 C-112.18599821 383.43836646 -110.02075476 383.39955602 -105.8125 385.875 C-99.89526914 391.5576182 -97.34151654 400.05004366 -95.75 407.875 C-95.46527832 409.190448 -95.46527832 409.190448 -95.17480469 410.5324707 C-94.42978555 414.01761143 -93.71383275 417.50837943 -93 421 C-92.63942024 422.75604212 -92.27873528 424.51206265 -91.91796875 426.26806641 C-90.28083542 434.24505059 -88.6453068 442.22230612 -87.03417969 450.20458984 C-86.84166626 451.15561081 -86.64915283 452.10663177 -86.45080566 453.08647156 C-86.08488279 454.8952441 -85.72047675 456.70432434 -85.35778809 458.51374817 C-85.19363403 459.32414047 -85.02947998 460.13453278 -84.86035156 460.96948242 C-84.71776917 461.67811935 -84.57518677 462.38675629 -84.42828369 463.11686707 C-83.98490216 465.20856957 -83.98490216 465.20856957 -83 468 C-82.195625 467.835 -81.39125 467.67 -80.5625 467.5 C-77.69551599 467.09761628 -75.15266168 466.94774311 -72.27734375 466.96875 C-71.07259399 466.97551758 -71.07259399 466.97551758 -69.84350586 466.98242188 C-68.93097046 466.99112305 -68.93097046 466.99112305 -68 467 C-65.1659388 425.54109045 -63.16417151 384.04839425 -61.29218191 342.53706515 C-51.74132186 130.77605166 -51.74132186 130.77605166 -14.546875 6.36328125 C-10.33441542 2.65078531 -5.61567085 0 0 0 Z " fill="#8C4513" transform="translate(242,131)"/>
<path d="M0 0 C4.98900021 4.98900021 3.27729577 16.74724735 3.3125 23.375 C3.29330812 56.40422084 -10.52705443 84.05497667 -33.3125 107.625 C-49.74271748 123.66728179 -69.66440325 133.99014652 -92 139 C-93.80404297 139.41765625 -93.80404297 139.41765625 -95.64453125 139.84375 C-124.45988289 145.99668127 -151.62803899 140.57614728 -176.7421875 125.3359375 C-180.73024968 122.71190818 -184.62944092 119.97233818 -188.52246094 117.21044922 C-208.40091283 103.11061706 -226.43896971 91.48641744 -251 88 C-247.91007238 81.99180741 -243.42360332 78.08087739 -237 76 C-227.26544362 75.06576608 -217.76233546 76.57884266 -208.18554688 78.13870239 C-188.20442884 81.34999225 -170.23097321 82.52005436 -150.43212891 77.58544922 C-147.96736641 76.99214461 -145.49677176 76.47370994 -143.01171875 75.97265625 C-93.07593412 65.70750436 -29.59955712 44.39933568 0 0 Z " fill="#D3D0D0" transform="translate(483,64)"/>
<path d="M0 0 C0.33 0 0.66 0 1 0 C0.39028686 11.42092062 -0.62937498 22.75718316 -1.875 34.125 C-2.48786551 39.7753509 -3.09354919 45.42644021 -3.69082642 51.07846069 C-3.9077309 53.12810212 -4.12609905 55.17758894 -4.34555054 57.22695923 C-6.48700453 77.33792003 -8.05589055 97.45281336 -9.40722656 117.62945557 C-9.66551283 121.46872256 -9.9298272 125.30757458 -10.19335938 129.14648438 C-10.75764853 137.385586 -11.31053065 145.6254216 -11.85803986 153.86565399 C-11.99700169 155.95492093 -12.13658943 158.04414524 -12.27630615 160.13336182 C-13.42864893 177.39239766 -14.44372125 194.65390598 -15.31890869 211.9291687 C-16.15616898 228.43860395 -17.00269801 244.94472781 -18.125 261.4375 C-18.77023691 270.92000829 -19.22597426 280.38663201 -19.53564453 289.88549805 C-20.04022108 303.92602667 -21.00111089 317.94441471 -21.89624023 331.96435547 C-22.02490417 333.99184123 -22.15324314 336.01934765 -22.28125 338.046875 C-22.34438385 339.0467041 -22.4075177 340.0465332 -22.4725647 341.07666016 C-22.88898267 347.81701155 -23.21404086 354.55751225 -23.49609375 361.3046875 C-23.92202091 371.35445866 -24.68131693 381.35612658 -25.5625 391.375 C-25.70287539 393.00908015 -25.84284985 394.64319479 -25.98242188 396.27734375 C-26.3170424 400.18530486 -26.65691541 404.09277325 -27 408 C-26.1646875 407.98042236 -26.1646875 407.98042236 -25.3125 407.96044922 C0.52616978 407.61673381 23.56913375 418.65856018 43 435 C43.66 435.66 44.32 436.32 45 437 C50.03464039 437.54448703 54.15203826 436.13451596 58.8125 434.4375 C66.30092028 431.8196993 73.84806473 429.58910901 81.5 427.5 C89.02965734 425.43682261 96.48476065 423.26943581 103.875 420.75 C105.31249283 420.26299967 106.74999247 419.77601943 108.1875 419.2890625 C108.84105469 419.06766602 109.49460937 418.84626953 110.16796875 418.61816406 C118.3701719 415.85057633 126.26506406 413.72354804 135 415 C137.73828125 416.44921875 137.73828125 416.44921875 140 418 C140.598125 418.391875 141.19625 418.78375 141.8125 419.1875 C143.83426975 422.2733591 143.56574261 425.4990516 143 429 C140.72310967 434.27824576 137.2798133 436.54351759 132.27471924 438.95248413 C125.25513828 441.19790486 117.81910745 440.60140173 110.5234375 440.48828125 C108.74412028 440.47894018 106.96479008 440.47183019 105.18545532 440.46684265 C100.53273167 440.4478745 95.88080516 440.39886348 91.22839355 440.34332275 C86.46877827 440.29190873 81.70903249 440.26928159 76.94921875 440.24414062 C67.63246484 440.19073326 58.31629906 440.10554611 49 440 C49 440.66 49 441.32 49 442 C-2.48 442 -53.96 442 -107 442 C-99.84421801 433.65158767 -93.90325416 427.60636787 -84.62304688 422.02001953 C-83.05164773 421.06146605 -81.52140412 420.0360741 -80 419 C-80 418.34 -80 417.68 -80 417 C-82.00214506 415.13173698 -84.02023803 413.37155166 -86.125 411.625 C-87.41811132 410.53532542 -88.71107607 409.44547687 -90.00390625 408.35546875 C-90.66922363 407.79778809 -91.33454102 407.24010742 -92.02001953 406.66552734 C-95.05443326 404.11302791 -98.05713461 401.52406412 -101.0625 398.9375 C-104.99478515 395.56337389 -108.93614957 392.20045807 -112.89428711 388.85668945 C-113.95973929 387.95647389 -115.02436403 387.05527804 -116.08813477 386.15307617 C-118.96224588 383.71593875 -121.84826683 381.29483308 -124.75 378.890625 C-126.00013466 377.84391081 -127.25013777 376.79703948 -128.5 375.75 C-129.07556641 375.27884766 -129.65113281 374.80769531 -130.24414062 374.32226562 C-135.9323915 369.52969703 -140.60057081 364.31383523 -141.3125 356.625 C-140.94884973 352.40665686 -139.95115008 350.95115008 -137 348 C-133.27390779 346.1369539 -129.0662937 346.5774484 -125 347 C-114.91297805 351.10319537 -109.96499815 360.43161097 -104.61254883 369.3828125 C-100.70916288 375.90223471 -96.61042437 382.27519397 -92.4375 388.625 C-86.49762413 397.67372965 -80.68250088 406.78766328 -75 416 C-74.45698242 415.82871582 -73.91396484 415.65743164 -73.35449219 415.48095703 C-49.0835826 407.87511338 -49.0835826 407.87511338 -36.65625 407.9609375 C-35.06006836 407.96939697 -35.06006836 407.96939697 -33.43164062 407.97802734 C-32.22797852 407.98890381 -32.22797852 407.98890381 -31 408 C-27.67887495 368.61903892 -25.91011777 329.22204331 -24.39550781 289.73657227 C-24.24074347 285.71368463 -24.08543361 281.69081849 -23.9296875 277.66796875 C-23.87300054 276.19943829 -23.87300054 276.19943829 -23.81516838 274.70124054 C-23.20431061 258.98309708 -22.38813382 243.28511478 -21.44628906 227.58374023 C-20.83498862 217.37299793 -20.3759231 207.15686554 -19.9375 196.9375 C-19.49133635 186.6664603 -19.0434216 176.39554064 -18.50390625 166.12890625 C-18.45036232 165.04995338 -18.45036232 165.04995338 -18.39573669 163.94920349 C-18.15827693 159.58402891 -17.63330846 155.3229365 -17 151 C-16.85416189 149.08513907 -16.7345863 147.16810647 -16.640625 145.25 C-14.69236124 108.8600456 -11.45866489 72.52578511 -6.375 36.4375 C-6.22906403 35.39595764 -6.08312805 34.35441528 -5.93276978 33.28131104 C-4.35004203 22.08734231 -2.6030774 11.00929147 0 0 Z " fill="#D0681D" transform="translate(213,198)"/>
<path d="M0 0 C0.33 0 0.66 0 1 0 C3.73883136 21.35205471 3.73883136 21.35205471 -1.75 28.625 C-3.4568134 30.457855 -5.20851339 32.24981568 -7 34 C-8.27080539 35.49113079 -9.54153254 36.98234164 -10.80639648 38.47851562 C-24.83176837 54.66183678 -43.80499044 66.01837613 -62.98876953 75.04980469 C-64.29360578 75.66626775 -65.59438001 76.291432 -66.89013672 76.92675781 C-90.83140016 88.65890605 -117.23792534 96.57569383 -143.18554688 102.36425781 C-145.55796745 102.90015157 -147.91067769 103.47929013 -150.265625 104.0859375 C-171.48905779 109.00796766 -193.93984621 106.12447049 -215.11083984 102.45751953 C-219.39012325 101.77986387 -223.68367562 101.35974375 -228 101 C-217.37838018 89.40910688 -202.96974412 86.58445817 -188 85 C-183.87397332 84.55052238 -179.74896251 84.09305226 -175.625 83.625 C-174.56821045 83.50527832 -173.5114209 83.38555664 -172.42260742 83.26220703 C-162.04973001 82.01514236 -152.08307394 79.68066398 -142 77 C-140.65392574 76.6538576 -139.30758889 76.30873401 -137.9609375 75.96484375 C-121.67315958 71.73002149 -105.66960414 66.69370878 -89.75 61.25 C-88.85024445 60.94286072 -87.95048889 60.63572144 -87.02346802 60.3192749 C-73.75610466 55.77653535 -60.66841929 51.04979237 -48 45 C-47.29810547 44.66838867 -46.59621094 44.33677734 -45.87304688 43.99511719 C-38.25066058 40.367596 -30.81326353 36.41614087 -23.4375 32.3125 C-22.79449951 31.95607422 -22.15149902 31.59964844 -21.48901367 31.23242188 C-18.23616616 29.39235861 -15.17429668 27.44301748 -12.16015625 25.23046875 C-9 23 -9 23 -7 23 C-6.82984375 22.26136719 -6.6596875 21.52273437 -6.484375 20.76171875 C-4.78171305 13.63408603 -2.64908945 6.83115453 0 0 Z " fill="#D9D9D9" transform="translate(480,32)"/>
<path d="M0 0 C3.49648266 2.25328883 5.46589239 4.159273 7 8 C8.37502133 17.90644339 5.81112412 25.40335301 1.625 34.25 C1.05106742 35.50982225 0.47977712 36.77085097 -0.08911133 38.03295898 C-1.34275889 40.80845054 -2.60827038 43.578136 -3.88037109 46.34521484 C-7.51305703 54.2822279 -10.97813626 62.29448975 -14.47467041 70.29211426 C-15.67352475 73.03057726 -16.87669732 75.76709797 -18.08154297 78.50292969 C-18.45965622 79.3619841 -18.83776947 80.22103851 -19.2273407 81.10612488 C-19.93807816 82.72054744 -20.64931959 84.33474827 -21.36116028 85.94868469 C-22.97104801 89.60955071 -24.54644984 93.27329089 -26 97 C-26.33 97 -26.66 97 -27 97 C-26.34292926 84.05216203 -24.93469002 71.18771 -23.52587891 58.30371094 C-23.12670388 54.64063583 -22.73694628 50.97663713 -22.34765625 47.3125 C-18.02914866 7.23583963 -18.02914866 7.23583963 -9.625 -0.0625 C-5.98229481 -1.36346614 -3.71735598 -0.99572035 0 0 Z " fill="#D0681D" transform="translate(254,516)"/>
<path d="M0 0 C0 0.66 0 1.32 0 2 C-19.35831776 12.59082314 -38.51442494 22.76422884 -59 31 C-60.05316406 31.42410156 -61.10632813 31.84820312 -62.19140625 32.28515625 C-79.85658028 39.04780657 -79.85658028 39.04780657 -86 37 C-75.47819495 23.54432653 -64.74634429 18.35153555 -48.6640625 13.2578125 C-40.80959902 10.73845629 -31.96426463 6.96426463 -26 1 C-17.48302904 -0.5643416 -8.62028003 -0.09625623 0 0 Z " fill="#D7D7D7" transform="translate(465,188)"/>
<path d="M0 0 C2.06308475 2.39317831 2.49034981 3.63789154 2.5625 6.8125 C0.89262186 12.10044746 -0.83056277 14.79407461 -5.4375 17.8125 C-9.26462836 19.38697899 -13.18244816 20.63456437 -17.125 21.88671875 C-18.26026123 22.25602005 -19.39552246 22.62532135 -20.56518555 23.0058136 C-22.96079127 23.78302909 -25.3580548 24.55515081 -27.75683594 25.32250977 C-31.42733338 26.49674757 -35.09290648 27.68539158 -38.7578125 28.87695312 C-41.0882695 29.63104994 -43.41899008 30.38433282 -45.75 31.13671875 C-46.84594482 31.49086349 -47.94188965 31.84500824 -49.07104492 32.20988464 C-50.09560791 32.53725113 -51.1201709 32.86461761 -52.17578125 33.2019043 C-53.07337158 33.48962204 -53.97096191 33.77733978 -54.89575195 34.07377625 C-57.39530448 34.80023646 -59.87858905 35.34184008 -62.4375 35.8125 C-62.9453125 33.65234375 -62.9453125 33.65234375 -62.4375 30.8125 C-60.00537524 28.57597734 -57.16113338 27.02721296 -54.3125 25.375 C-52.57357247 24.32398521 -50.83531888 23.27185475 -49.09765625 22.21875 C-47.71731201 21.39310547 -47.71731201 21.39310547 -46.30908203 20.55078125 C-41.4006625 17.57952236 -36.58050511 14.47070943 -31.75 11.375 C-29.11570386 9.6942264 -26.48009116 8.01559174 -23.84228516 6.34033203 C-22.26691029 5.3394492 -20.69358394 4.335333 -19.12255859 3.32763672 C-18.41566895 2.87791504 -17.7087793 2.42819336 -16.98046875 1.96484375 C-16.05850708 1.37497681 -16.05850708 1.37497681 -15.11791992 0.77319336 C-10.44654974 -1.89742144 -4.82021865 -2.34831165 0 0 Z " fill="#8E4512" transform="translate(392.4375,554.1875)"/>
<path d="M0 0 C2.0625 2.0625 2.0625 2.0625 3 5 C3 10.40819852 2.42544056 13.16904347 -1.23779297 17.34204102 C-5.08140876 20.95827749 -9.63648581 23.65833728 -14.0625 26.5 C-20.41041742 30.63331364 -26.73917355 34.76329341 -32.88671875 39.19140625 C-34.2468811 40.16980469 -34.2468811 40.16980469 -35.63452148 41.16796875 C-37.3482963 42.40934769 -39.05515619 43.6603424 -40.75415039 44.921875 C-41.90451782 45.75138672 -41.90451782 45.75138672 -43.078125 46.59765625 C-43.74231445 47.08758057 -44.40650391 47.57750488 -45.09082031 48.08227539 C-47 49 -47 49 -49.24511719 48.65014648 C-49.82422852 48.43559814 -50.40333984 48.2210498 -51 48 C-51 40.45346609 -40.22279434 31.99690861 -35.09082031 26.48706055 C-32.06380912 23.21976846 -29.21866745 19.85759063 -26.4375 16.375 C-10.49585693 -3.38002172 -10.49585693 -3.38002172 0 0 Z " fill="#8D4512" transform="translate(339,495)"/>
<path d="M0 0 C7.42323676 4.68118399 13.19417631 12.48379607 19 19 C19.60585938 19.67933594 20.21171875 20.35867188 20.8359375 21.05859375 C23.58549828 24.17699805 26.28773247 27.3352717 28.98828125 30.49609375 C29.7927771 31.43702881 29.7927771 31.43702881 30.61352539 32.39697266 C31.68570493 33.65198096 32.75655629 34.90812545 33.82592773 36.16552734 C34.56951538 37.03685303 34.56951538 37.03685303 35.328125 37.92578125 C35.7705957 38.44567627 36.21306641 38.96557129 36.66894531 39.5012207 C38.0083257 41.05941165 38.0083257 41.05941165 39.68652344 42.55541992 C40.1199707 43.03213135 40.55341797 43.50884277 41 44 C40.6875 46.1875 40.6875 46.1875 40 48 C36.24342202 47.43668214 33.72905559 46.44340969 30.58032227 44.33544922 C29.73917374 43.77751678 28.89802521 43.21958435 28.03138733 42.64474487 C27.13544357 42.03752594 26.23949982 41.43030701 25.31640625 40.8046875 C24.3832811 40.17901886 23.45015594 39.55335022 22.48875427 38.90872192 C20.51668672 37.58288204 18.54743331 36.25284814 16.58081055 34.91894531 C13.58559634 32.89064042 10.57780066 30.8821157 7.56835938 28.875 C5.65024479 27.58191043 3.73290144 26.28767597 1.81640625 24.9921875 C0.92248672 24.39711395 0.0285672 23.80204041 -0.8924408 23.18893433 C-13.1498301 14.8144077 -13.1498301 14.8144077 -14.46775818 8.90133667 C-14.60145796 5.86536746 -14.4114751 3.60741563 -12.6875 1.0625 C-8.55800241 -1.53755404 -4.52290047 -1.41238589 0 0 Z " fill="#8C4513" transform="translate(22,559)"/>
<path d="M0 0 C3.58765569 2.52881853 6.2007906 5.29178543 8.875 8.75 C15.13034076 16.57714115 22.08971754 23.7534308 29 31 C28.505 31.99 28.505 31.99 28 33 C23.67482712 30.08525107 19.35157122 27.16768827 15.0300293 24.24755859 C13.56114568 23.25558104 12.09175094 22.26435988 10.62182617 21.27392578 C8.50302855 19.84608722 6.38611417 18.41549386 4.26953125 16.984375 C3.61725052 16.54567078 2.96496979 16.10696655 2.29292297 15.65496826 C-7.48353041 9.03293918 -7.48353041 9.03293918 -9 6 C-9.039992 4.00039988 -9.04346799 1.99952758 -9 0 C-5.81229009 -1.59385496 -3.40972958 -0.75129635 0 0 Z " fill="#CE671D" transform="translate(21,563)"/>
<path d="M0 0 C2 2 2 2 2.125 5.1875 C-0.28310491 13.34829996 -8.88057962 17.37527497 -15.6796875 21.80078125 C-19.43142498 24.2857556 -23.09518546 26.87551725 -26.75 29.5 C-27.68126709 30.16866089 -27.68126709 30.16866089 -28.63134766 30.85083008 C-30.08866013 31.89903265 -31.5444991 32.94928338 -33 34 C-33.66 33.67 -34.32 33.34 -35 33 C-28.74153332 25.65080224 -22.46391304 18.33373227 -15.96875 11.19140625 C-14.14410979 9.16040792 -12.37818053 7.09264441 -10.625 5 C-7.19272035 1.07739469 -5.20855372 -0.53421064 0 0 Z " fill="#CE671D" transform="translate(336,498)"/>
<path d="M0 0 C2 2 2 2 2 4.3125 C0.4421292 8.49927776 -2.87095423 10.98838489 -6.83163452 12.87030029 C-8.84375023 13.62676358 -10.86470685 14.293439 -12.91796875 14.9296875 C-13.65702957 15.16914093 -14.39609039 15.40859436 -15.157547 15.65530396 C-16.70764191 16.15413586 -18.25991946 16.6462316 -19.81420898 17.13183594 C-22.19651596 17.87782323 -24.56994333 18.64812129 -26.94335938 19.421875 C-28.45526706 19.90509407 -29.96762241 20.38691521 -31.48046875 20.8671875 C-32.18987106 21.09727509 -32.89927338 21.32736267 -33.63017273 21.56442261 C-38.65314152 23.11561949 -38.65314152 23.11561949 -42 22 C-36.58382864 18.54041781 -31.16343755 15.08776152 -25.734375 11.6484375 C-22.43385575 9.55624029 -19.14744902 7.44858735 -15.890625 5.2890625 C-14.24320312 4.21785156 -14.24320312 4.21785156 -12.5625 3.125 C-11.63566406 2.50882813 -10.70882813 1.89265625 -9.75390625 1.2578125 C-6.29632456 -0.32139502 -3.75955822 -0.36744192 0 0 Z " fill="#CF671D" transform="translate(389,557)"/>
<path d="M0 0 C3.1875 -0.375 3.1875 -0.375 7 0 C13.35476042 5.29563368 16.49036008 15.02274484 18 23 C19.45840673 46.74150486 5.92971564 64.84670968 -9 82 C-9.99045894 83.00945089 -10.98771319 84.01243966 -12 85 C-11.10848983 80.55812138 -8.64547136 77.58898248 -5.9375 74.0625 C1.83631635 63.67422247 8.50649599 53.26162634 13 41 C13.433125 39.845 13.86625 38.69 14.3125 37.5 C16.09555472 28.42263054 15.68448701 20.11249354 11 12 C8.85616853 9.12497775 6.52511741 6.54269363 4 4 C3.195625 3.175 2.39125 2.35 1.5625 1.5 C1.046875 1.005 0.53125 0.51 0 0 Z " fill="#C1C1C1" transform="translate(506,8)"/>
<path d="M0 0 C5.61315938 0.49338364 11.08981798 1.62475844 16.60253906 2.76171875 C18.39498047 3.11943359 18.39498047 3.11943359 20.22363281 3.484375 C23.14342556 4.06833355 26.06117086 4.66093284 28.97753906 5.26171875 C28.97753906 5.59171875 28.97753906 5.92171875 28.97753906 6.26171875 C24.86995944 6.33661151 20.76265146 6.39066629 16.65454102 6.42651367 C15.26091578 6.44147813 13.86733662 6.46185726 12.47387695 6.48803711 C4.42972018 6.63523912 -2.51227723 6.43046736 -10.02246094 3.26171875 C-6.94486674 -0.44068698 -4.58659994 -0.14004885 0 0 Z " fill="#C9641C" transform="translate(19.0224609375,633.73828125)"/>
<path d="M0 0 C7.57339496 6.34527686 8.6377922 16.04503203 10.75 25.3125 C11.09998047 26.77526367 11.09998047 26.77526367 11.45703125 28.26757812 C11.67230469 29.20666016 11.88757813 30.14574219 12.109375 31.11328125 C12.30499023 31.95673096 12.50060547 32.80018066 12.70214844 33.66918945 C13.0126573 36.09904858 12.75746021 37.6900126 12 40 C10.45117573 35.7826782 8.90293201 31.56514387 7.35522461 27.34741211 C6.82869134 25.91278327 6.30199981 24.4782125 5.77514648 23.04370117 C5.01764929 20.98110986 4.26072252 18.91830999 3.50390625 16.85546875 C3.15073082 15.89437447 3.15073082 15.89437447 2.79042053 14.91386414 C0.85014537 9.62238616 -0.10712352 5.67754631 0 0 Z " fill="#CC661D" transform="translate(129,524)"/>
<path d="M0 0 C-1.96437696 9.71512517 -11.10845615 15.78795081 -18.3828125 21.68505859 C-20.94202704 23.76596583 -23.46921382 25.88465914 -26 28 C-26.66 27.67 -27.32 27.34 -28 27 C-27.35933594 26.29875 -26.71867187 25.5975 -26.05859375 24.875 C-25.19363281 23.92625 -24.32867187 22.9775 -23.4375 22 C-22.97931885 21.49815186 -22.5211377 20.99630371 -22.04907227 20.47924805 C-19.4579623 17.63288763 -16.9238397 14.75036837 -14.4375 11.8125 C-4.16576087 0 -4.16576087 0 0 0 Z " fill="#CC661D" transform="translate(310,565)"/>
<path d="M0 0 C3.1875 -0.375 3.1875 -0.375 7 0 C9.96568279 2.89977873 12.67225121 6.01675363 14 10 C13.70763193 11.34291094 13.37829212 12.67871882 13 14 C11.96939453 12.86111328 11.96939453 12.86111328 10.91796875 11.69921875 C10.00785258 10.69527617 9.0976941 9.69137193 8.1875 8.6875 C7.73568359 8.18798828 7.28386719 7.68847656 6.81835938 7.17382812 C4.59780179 4.72635224 2.36844075 2.30549215 0 0 Z " fill="#D1D1D1" transform="translate(506,8)"/>
<path d="M0 0 C0.33 0 0.66 0 1 0 C0.03644647 16.70842825 0.03644647 16.70842825 -1 25 C-1.33 25 -1.66 25 -2 25 C-3.50331806 16.12498979 -2.2379475 8.66098327 0 0 Z " fill="#BB5D1A" transform="translate(213,198)"/>
<path d="M0 0 C0.68359375 1.640625 0.68359375 1.640625 1 4 C-0.21484375 6.796875 -0.21484375 6.796875 -1.9375 9.75 C-2.50339844 10.73484375 -3.06929687 11.7196875 -3.65234375 12.734375 C-4.09707031 13.48203125 -4.54179688 14.2296875 -5 15 C-5.99 15 -6.98 15 -8 15 C-6.25565047 10.08410586 -3.74513488 3.74513488 0 0 Z " fill="#D0D0D0" transform="translate(519,53)"/>
<path d="M0 0 C0.66 0.66 1.32 1.32 2 2 C1.69903201 6.13830989 1.32101984 8.51847024 -1 12 C-1.66 12 -2.32 12 -3 12 C-2.01 8.04 -1.02 4.08 0 0 Z " fill="#C2C2C2" transform="translate(521,42)"/>
</svg>
