<?xml version="1.0" encoding="UTF-8"?>
<svg version="1.1" xmlns="http://www.w3.org/2000/svg" width="360" height="360">
<path d="M0 0 C0.99 0.33 1.98 0.66 3 1 C2.05125 1.845625 1.1025 2.69125 0.125 3.5625 C-4.10868301 7.75315778 -7.19560834 12.56752121 -10.35888672 17.58032227 C-14.02380813 23.31701001 -17.93181564 27.70584278 -24 31 C-17.19917245 29.74058749 -11.60176448 27.65713075 -5.4375 24.5625 C9.84787928 17 9.84787928 17 15 17 C15 17.66 15 18.32 15 19 C11.33393878 20.91782632 7.66704149 22.83404879 4 24.75 C2.45505859 25.55824219 2.45505859 25.55824219 0.87890625 26.3828125 C-1.15072871 27.44287662 -3.18196008 28.49989027 -5.21484375 29.55371094 C-6.89914647 30.42834359 -8.5799501 31.30982603 -10.25390625 32.20410156 C-14.729036 34.54894695 -19.09585972 36.06052661 -24 37.25 C-24.67933594 37.42273438 -25.35867187 37.59546875 -26.05859375 37.7734375 C-27.70367016 38.19049913 -29.35155128 38.59647349 -31 39 C-23.5883033 38.42629126 -16.86863166 36.71801871 -9.75 34.625 C-7.52263264 33.98914108 -5.29477238 33.35500609 -3.06640625 32.72265625 C-2.01211426 32.42246582 -0.95782227 32.12227539 0.12841797 31.81298828 C9.58497838 29.13569308 18.1150977 27.48253532 28 28 C28.95003906 28.01933594 29.90007812 28.03867188 30.87890625 28.05859375 C38.52153707 28.40936818 44.35523652 30.33969382 49.83203125 35.83984375 C55.13819047 42.27191486 59.05908538 49.68610298 63 57 C63.48227051 57.89219238 63.96454102 58.78438477 64.46142578 59.70361328 C66.06921343 62.69221267 67.6620652 65.68830897 69.25 68.6875 C69.75748779 69.63705566 70.26497559 70.58661133 70.7878418 71.56494141 C76.00825378 81.53314259 81.29861676 91.72284889 78.45703125 103.19140625 C75.78161526 110.98115336 71.31218191 116.0006981 64.75 120.75 C63.70078369 121.5227124 63.70078369 121.5227124 62.63037109 122.31103516 C55.97378781 127.14691276 49.06671111 131.55353473 42.01586914 135.78857422 C40.59432177 136.64284551 39.17723549 137.50456184 37.76342773 138.37158203 C30.91349588 142.54592151 23.89241281 146.35684156 16.8125 150.125 C15.58431166 150.78158938 14.35620415 151.43832996 13.12817383 152.09521484 C7.20642831 155.25786807 1.27005723 158.3889296 -4.6953125 161.46875 C-5.73018799 162.0035498 -6.76506348 162.53834961 -7.83129883 163.08935547 C-9.76072738 164.08322211 -11.69270452 165.07216313 -13.62768555 166.05517578 C-14.93539917 166.72782471 -14.93539917 166.72782471 -16.26953125 167.4140625 C-17.01823486 167.7951416 -17.76693848 168.1762207 -18.53833008 168.56884766 C-21.86091668 170.50051508 -24.89546012 172.73445463 -28 175 C-20.47987249 172.83594707 -12.95992135 170.67128246 -5.44018745 168.50586224 C-1.94751421 167.50011478 1.54521676 166.49456877 5.03808594 165.48950195 C8.41636182 164.51740079 11.79447783 163.54474588 15.17248917 162.57172585 C17.07206859 162.02471146 18.97180814 161.47825319 20.87155151 160.93180847 C27.59355898 158.99500989 34.30539087 157.02958929 41 155 C41 153.68 41 152.36 41 151 C41 150.34 41 149.68 41 149 C44 150 44 150 45.09765625 152.125 C51.78236304 172.04380241 51.38308487 192.06099647 42.5 211.23828125 C38.56689002 218.98614374 33.79840928 225.54810273 28 232 C27.41347656 232.65742188 26.82695312 233.31484375 26.22265625 233.9921875 C14.05723436 246.87322244 -2.90365866 254.42310589 -20 258 C-20.89847656 258.19078125 -21.79695312 258.3815625 -22.72265625 258.578125 C-41.73916496 261.02601885 -60.98903734 259.20309179 -78 250 C-79.25683594 249.32130859 -79.25683594 249.32130859 -80.5390625 248.62890625 C-93.3860239 241.29062644 -103.55330994 231.79899855 -111 219 C-119.16264892 221.25401258 -127.06912905 224.15235084 -134.98681641 227.13354492 C-137.12584885 227.93781917 -139.26783772 228.7338234 -141.41015625 229.52929688 C-149.59753703 232.55417323 -149.59753703 232.55417323 -157.51171875 236.21875 C-161.18404296 238.09397938 -164.75164636 239.38582175 -168.6875 240.5625 C-169.72233521 240.87610474 -169.72233521 240.87610474 -170.77807617 241.19604492 C-193.89922475 248.08846331 -193.89922475 248.08846331 -204.1875 245.0625 C-216.35641241 236.1386309 -221.53615168 222.03080796 -226.70825195 208.38623047 C-227.93945414 205.15871688 -229.21165988 201.95115867 -230.5 198.74609375 C-250.2447351 149.18634297 -250.2447351 149.18634297 -242.4375 126.875 C-232.09495188 103.71507975 -204.42111991 85.12548283 -182 75 C-180.83726562 74.46761719 -179.67453125 73.93523437 -178.4765625 73.38671875 C-163.44870315 66.73250643 -145.71445387 59 -129 59 C-128.67 56.69 -128.34 54.38 -128 52 C-127.01 51.67 -126.02 51.34 -125 51 C-125.33 53.64 -125.66 56.28 -126 59 C-121.14656627 58.85551347 -116.6376581 58.49142868 -112 57 C-109.89189035 54.47111846 -108.94167204 52.32061878 -107.89453125 49.21484375 C-107.59933594 48.48394531 -107.30414063 47.75304687 -107 47 C-106.01 46.67 -105.02 46.34 -104 46 C-104.28875 46.680625 -104.5775 47.36125 -104.875 48.0625 C-106.12597355 51.32893093 -107.07447955 54.62846123 -108 58 C-104.7 57.67 -101.4 57.34 -98 57 C-97.87995605 56.15405273 -97.75991211 55.30810547 -97.63623047 54.43652344 C-97.17177368 51.23557289 -96.68856491 48.0381235 -96.19335938 44.84179688 C-95.9845558 43.46984207 -95.78280815 42.09679082 -95.58886719 40.72265625 C-94.28168473 31.50499854 -92.41972185 22.81382812 -87 15 C-86.01 14.67 -85.02 14.34 -84 14 C-84.45375 15.19625 -84.9075 16.3925 -85.375 17.625 C-88.81833136 27.98747834 -89.31640433 39.17040551 -90 50 C-88.83167623 48.40858839 -87.66344089 46.81711181 -86.49560547 45.2253418 C-85.49006507 43.85523965 -84.48386919 42.48561836 -83.47705078 41.11645508 C-81.23206045 38.06027681 -78.99927011 34.9989714 -76.8046875 31.90625 C-72.87416636 26.36851172 -68.70362942 21.26397553 -64.078125 16.2890625 C-61.94245877 13.93661812 -59.96058922 11.49930969 -58 9 C-56.02 9.495 -56.02 9.495 -54 10 C-54.43135254 10.47091064 -54.86270508 10.94182129 -55.30712891 11.42700195 C-59.7874681 16.41755121 -63.65533916 21.61399441 -67.375 27.1875 C-68.50351742 28.85963749 -69.63242559 30.53151132 -70.76171875 32.203125 C-71.30876465 33.01587891 -71.85581055 33.82863281 -72.41943359 34.66601562 C-75.32575064 38.95770406 -78.31290305 43.19294367 -81.29296875 47.43359375 C-82.72115282 49.58077208 -83.92255544 51.66277412 -85 54 C-84.42894531 53.52691406 -83.85789063 53.05382812 -83.26953125 52.56640625 C-73.73642076 44.79138926 -63.74476346 37.91753111 -53.1875 31.625 C-52.49454834 31.20814941 -51.80159668 30.79129883 -51.08764648 30.36181641 C-39.43162211 23.53382171 -39.43162211 23.53382171 -34.76635742 24.42822266 C-34.18345947 24.61690918 -33.60056152 24.8055957 -33 25 C-33.51272461 25.25579834 -34.02544922 25.51159668 -34.55371094 25.77514648 C-45.09258699 31.07172223 -54.88565312 36.46838402 -64 44 C-63.38592285 43.76812988 -62.7718457 43.53625977 -62.13916016 43.29736328 C-59.3040129 42.23198682 -56.46459647 41.17845748 -53.625 40.125 C-52.17673828 39.57779297 -52.17673828 39.57779297 -50.69921875 39.01953125 C-45.92280322 37.25642485 -41.43857199 35.82911623 -36.3984375 35.0546875 C-33.997405 34.68691952 -33.997405 34.68691952 -32 34 C-30.55150499 31.64973559 -30.55150499 31.64973559 -30 29 C-27.96875 27.21875 -27.96875 27.21875 -25.5 25.5 C-21.1462212 22.19540022 -18.01333051 18.73887095 -14.8125 14.375 C-10.46654924 8.4511608 -6.14247062 4.09498041 0 0 Z M-81 57 C-74.60948029 56.72479598 -74.60948029 56.72479598 -69 53.875 C-66 52 -66 52 -62.06640625 52.59765625 C-55.89745631 53.43768348 -50.74133006 51.50687461 -44.9375 49.5625 C-43.88111328 49.22412109 -42.82472656 48.88574219 -41.73632812 48.53710938 C-39.15207582 47.70687447 -36.57412418 46.86102107 -34 46 C-34 45.67 -34 45.34 -34 45 C-49.96334604 44.42703843 -68.81002517 44.81002517 -81 57 Z M-92 51 C-91 53 -91 53 -91 53 Z M-65 53 C-65.33 53.66 -65.66 54.32 -66 55 C-65.34 55 -64.68 55 -64 55 C-64.33 54.34 -64.66 53.68 -65 53 Z " fill="#FC854A" transform="translate(265,36)"/>
<path d="M0 0 C3 1 3 1 4.09765625 3.125 C10.78236304 23.04380241 10.38308487 43.06099647 1.5 62.23828125 C-2.43310998 69.98614374 -7.20159072 76.54810273 -13 83 C-13.87978516 83.98613281 -13.87978516 83.98613281 -14.77734375 84.9921875 C-26.94276564 97.87322244 -43.90365866 105.42310589 -61 109 C-61.89847656 109.19078125 -62.79695313 109.3815625 -63.72265625 109.578125 C-82.73916496 112.02601885 -101.98903734 110.20309179 -119 101 C-119.83789062 100.54753906 -120.67578125 100.09507812 -121.5390625 99.62890625 C-138.90262971 89.71070764 -151.04115213 76.16974039 -157 57 C-157 55.68 -157 54.36 -157 53 C-149.53531525 50.12938894 -142.07341894 47.85320255 -134.3125 45.9375 C-127.68650565 44.29515952 -121.36422451 42.46899619 -115 40 C-112.862614 39.34669549 -110.71660359 38.72087198 -108.5625 38.125 C-107.3559375 37.78597656 -106.149375 37.44695312 -104.90625 37.09765625 C-104.27203125 36.91992676 -103.6378125 36.74219727 -102.984375 36.55908203 C-99.5049792 35.57878966 -96.03296229 34.57390327 -92.5625 33.5625 C-91.932229 33.38154785 -91.30195801 33.2005957 -90.65258789 33.01416016 C-86.33322319 31.75270994 -82.08322259 30.34251818 -77.828125 28.87890625 C-65.76172111 24.78813283 -53.45070882 21.44960508 -41.20275879 17.95098877 C-37.17894956 16.80092857 -33.15628563 15.64687015 -29.13358784 14.49292946 C-26.00399029 13.59518578 -22.8741396 12.69835562 -19.74369812 11.80355835 C-13.14788981 9.91587315 -6.56496735 7.99242319 0 6 C0 4.68 0 3.36 0 2 C0 1.34 0 0.68 0 0 Z " fill="#FEE892" transform="translate(306,185)"/>
<path d="M0 0 C0.99 0.33 1.98 0.66 3 1 C2.05125 1.845625 1.1025 2.69125 0.125 3.5625 C-4.10868301 7.75315778 -7.19560834 12.56752121 -10.35888672 17.58032227 C-14.02380813 23.31701001 -17.93181564 27.70584278 -24 31 C-17.19917245 29.74058749 -11.60176448 27.65713075 -5.4375 24.5625 C9.84787928 17 9.84787928 17 15 17 C15 17.66 15 18.32 15 19 C11.33393878 20.91782632 7.66704149 22.83404879 4 24.75 C2.45505859 25.55824219 2.45505859 25.55824219 0.87890625 26.3828125 C-1.15072871 27.44287662 -3.18196008 28.49989027 -5.21484375 29.55371094 C-6.89914647 30.42834359 -8.5799501 31.30982603 -10.25390625 32.20410156 C-14.729036 34.54894695 -19.09585972 36.06052661 -24 37.25 C-24.67933594 37.42273438 -25.35867187 37.59546875 -26.05859375 37.7734375 C-27.70367016 38.19049913 -29.35155128 38.59647349 -31 39 C-26.17633728 38.52554137 -21.59504154 37.90936123 -16.875 36.8125 C-9.75987559 35.42591103 -3.06378666 36.76073918 4 38 C4 38.66 4 39.32 4 40 C2.87722656 40.03738281 1.75445312 40.07476562 0.59765625 40.11328125 C-9.91080563 40.42184742 -9.91080563 40.42184742 -19.9453125 43.28125 C-25.70888584 45.29740493 -31.81295816 45.11791521 -37.8449707 45.23901367 C-53.60934138 45.59220128 -65.08472064 48.32053027 -79 56 C-79.72960937 56.40089844 -80.45921875 56.80179688 -81.2109375 57.21484375 C-89.89214429 62.31033469 -96.40065777 69.24038331 -102.609375 77.06640625 C-105.61623353 80.75619507 -108.81344785 84.23533217 -112.04980469 87.72290039 C-114.6281944 90.50224482 -117.15781555 93.30911814 -119.625 96.1875 C-123.52278955 100.68494949 -127.757901 104.83020951 -132 109 C-132.86625 109.86625 -133.7325 110.7325 -134.625 111.625 C-137.75 114.75 -140.875 117.875 -144 121 C-132.84993654 120.05317897 -121.8020741 118.76675849 -110.75 117 C-109.18100952 116.7510498 -109.18100952 116.7510498 -107.58032227 116.49707031 C-103.23893746 115.7856772 -98.95791771 115.03906893 -94.703125 113.9140625 C-91.08155092 113.02012966 -87.71717018 112.60732314 -84 112.375 C-82.2984375 112.26285156 -82.2984375 112.26285156 -80.5625 112.1484375 C-79.2940625 112.07496094 -79.2940625 112.07496094 -78 112 C-92.51036009 119.77422447 -113.68197188 123.14217397 -130.09375 123.01171875 C-142.46669738 122.40273093 -142.46669738 122.40273093 -153.22851562 127.44140625 C-155.09790972 129.36047656 -156.84932613 131.37416634 -158.56787109 133.42871094 C-161.20789651 136.32526797 -164.33337573 138.62502704 -167.4375 141 C-168.01773926 141.45616699 -168.59797852 141.91233398 -169.19580078 142.38232422 C-172.34681969 144.83719846 -175.56793046 146.96618101 -179 149 C-180.96031814 150.96031814 -181.64971144 152.17989208 -182.734375 154.66796875 C-183.06179687 155.39693359 -183.38921875 156.12589844 -183.7265625 156.87695312 C-184.3990641 158.39521531 -185.06591334 159.91599615 -185.7265625 161.43945312 C-189.0497975 168.78792433 -193.30886176 175.23491231 -201.02734375 178.359375 C-207.25038953 179.70047816 -213.70833003 179.23734966 -220.03637695 178.94995117 C-222.15400916 179.00392539 -223.9692985 179.41643902 -226 180 C-228.16621543 174.90412274 -229.14216104 169.86499565 -230.125 164.4375 C-230.30385742 163.45765137 -230.48271484 162.47780273 -230.66699219 161.46826172 C-231.86877682 154.55628327 -232.53326889 148.02137366 -232 141 C-230.85402344 140.89042969 -229.70804688 140.78085938 -228.52734375 140.66796875 C-226.99733473 140.50839726 -225.46739005 140.34820805 -223.9375 140.1875 C-222.80924805 140.08211914 -222.80924805 140.08211914 -221.65820312 139.97460938 C-214.76090054 139.22814806 -208.89079163 137.80782411 -204.3125 132.1875 C-203.77238281 131.54167969 -203.23226562 130.89585937 -202.67578125 130.23046875 C-201.4261401 128.56719346 -200.23885275 126.85672576 -199.0859375 125.125 C-196.22352082 120.83673531 -193.06655425 116.79363442 -189.92578125 112.70703125 C-187.86957428 110.09581672 -187.86957428 110.09581672 -187 107 C-191.52706265 111.92527649 -195.9705543 116.87899406 -200.125 122.125 C-201.10533203 123.35283203 -201.10533203 123.35283203 -202.10546875 124.60546875 C-203.33330432 126.15735164 -204.54539174 127.72187806 -205.73828125 129.30078125 C-210.67612653 135.5099798 -215.24239513 137.38452718 -223.01953125 138.390625 C-225.67977576 138.65016105 -228.33131629 138.85534238 -231 139 C-230.85851011 137.3954444 -230.71164314 135.79136233 -230.5625 134.1875 C-230.48128906 133.29417969 -230.40007812 132.40085938 -230.31640625 131.48046875 C-230 129 -230 129 -229 126 C-228.29875 125.97421875 -227.5975 125.9484375 -226.875 125.921875 C-220.59205898 125.5462644 -215.04667978 125.02174702 -210 121 C-206.92062712 117.41361173 -204.72048874 113.411287 -202.578125 109.21484375 C-199.26088375 102.7319556 -195.86410547 98.36087031 -190 94 C-199.58067967 98.6925778 -204.30443654 105.99762198 -209.2265625 115.265625 C-212.10622491 119.70563312 -215.8840926 122.63575803 -221 124 C-224.34074266 124.15418812 -227.65856398 124.11678806 -231 124 C-231.12246094 124.5465625 -231.24492187 125.093125 -231.37109375 125.65625 C-232 128 -232 128 -232.97265625 130.53125 C-241.77663856 154.51342403 -232.941855 182.63082626 -223 205 C-220.88303152 210.11969784 -218.91024753 215.2553724 -217.125 220.5 C-215.11918194 226.12431384 -212.24781892 231.00918493 -209 236 C-212.49798849 234.83400384 -212.74164064 234.20212888 -214.5 231.125 C-216.17249141 228.18394141 -216.17249141 228.18394141 -218.43334961 225.71069336 C-220.43775882 223.5219922 -221.25772641 221.37952394 -222.34765625 218.62109375 C-222.77836426 217.54843262 -223.20907227 216.47577148 -223.65283203 215.37060547 C-224.09739746 214.25830566 -224.54196289 213.14600586 -225 212 C-225.8905891 209.88505441 -226.78512603 207.77176691 -227.68359375 205.66015625 C-250.70947138 150.80463151 -250.70947138 150.80463151 -242.4375 126.875 C-232.09495188 103.71507975 -204.42111991 85.12548283 -182 75 C-180.83726562 74.46761719 -179.67453125 73.93523437 -178.4765625 73.38671875 C-163.44870315 66.73250643 -145.71445387 59 -129 59 C-128.67 56.69 -128.34 54.38 -128 52 C-127.01 51.67 -126.02 51.34 -125 51 C-125.33 53.64 -125.66 56.28 -126 59 C-121.14656627 58.85551347 -116.6376581 58.49142868 -112 57 C-109.89189035 54.47111846 -108.94167204 52.32061878 -107.89453125 49.21484375 C-107.59933594 48.48394531 -107.30414063 47.75304687 -107 47 C-106.01 46.67 -105.02 46.34 -104 46 C-104.28875 46.680625 -104.5775 47.36125 -104.875 48.0625 C-106.12597355 51.32893093 -107.07447955 54.62846123 -108 58 C-104.7 57.67 -101.4 57.34 -98 57 C-97.87995605 56.15405273 -97.75991211 55.30810547 -97.63623047 54.43652344 C-97.17177368 51.23557289 -96.68856491 48.0381235 -96.19335938 44.84179688 C-95.9845558 43.46984207 -95.78280815 42.09679082 -95.58886719 40.72265625 C-94.28168473 31.50499854 -92.41972185 22.81382812 -87 15 C-86.01 14.67 -85.02 14.34 -84 14 C-84.45375 15.19625 -84.9075 16.3925 -85.375 17.625 C-88.81833136 27.98747834 -89.31640433 39.17040551 -90 50 C-88.83167623 48.40858839 -87.66344089 46.81711181 -86.49560547 45.2253418 C-85.49006507 43.85523965 -84.48386919 42.48561836 -83.47705078 41.11645508 C-81.23206045 38.06027681 -78.99927011 34.9989714 -76.8046875 31.90625 C-72.87416636 26.36851172 -68.70362942 21.26397553 -64.078125 16.2890625 C-61.94245877 13.93661812 -59.96058922 11.49930969 -58 9 C-56.02 9.495 -56.02 9.495 -54 10 C-54.43135254 10.47091064 -54.86270508 10.94182129 -55.30712891 11.42700195 C-59.7874681 16.41755121 -63.65533916 21.61399441 -67.375 27.1875 C-68.50351742 28.85963749 -69.63242559 30.53151132 -70.76171875 32.203125 C-71.30876465 33.01587891 -71.85581055 33.82863281 -72.41943359 34.66601562 C-75.32575064 38.95770406 -78.31290305 43.19294367 -81.29296875 47.43359375 C-82.72115282 49.58077208 -83.92255544 51.66277412 -85 54 C-84.42894531 53.52691406 -83.85789063 53.05382812 -83.26953125 52.56640625 C-73.73642076 44.79138926 -63.74476346 37.91753111 -53.1875 31.625 C-52.49454834 31.20814941 -51.80159668 30.79129883 -51.08764648 30.36181641 C-39.43162211 23.53382171 -39.43162211 23.53382171 -34.76635742 24.42822266 C-34.18345947 24.61690918 -33.60056152 24.8055957 -33 25 C-33.51272461 25.25579834 -34.02544922 25.51159668 -34.55371094 25.77514648 C-45.09258699 31.07172223 -54.88565312 36.46838402 -64 44 C-63.38592285 43.76812988 -62.7718457 43.53625977 -62.13916016 43.29736328 C-59.3040129 42.23198682 -56.46459647 41.17845748 -53.625 40.125 C-52.17673828 39.57779297 -52.17673828 39.57779297 -50.69921875 39.01953125 C-45.92280322 37.25642485 -41.43857199 35.82911623 -36.3984375 35.0546875 C-33.997405 34.68691952 -33.997405 34.68691952 -32 34 C-30.55150499 31.64973559 -30.55150499 31.64973559 -30 29 C-27.96875 27.21875 -27.96875 27.21875 -25.5 25.5 C-21.1462212 22.19540022 -18.01333051 18.73887095 -14.8125 14.375 C-10.46654924 8.4511608 -6.14247062 4.09498041 0 0 Z M-92 51 C-91 53 -91 53 -91 53 Z " fill="#FC854A" transform="translate(265,36)"/>
<path d="M0 0 C-1.38010303 5.57190849 -5.22799143 7.94869477 -9.625 11.1875 C-10.38047119 11.75412354 -11.13594238 12.32074707 -11.91430664 12.90454102 C-18.70472728 17.92655674 -25.75010082 22.47928044 -33.00024414 26.8046875 C-34.41574867 27.65077591 -35.82589757 28.50585436 -37.23217773 29.3671875 C-44.0836935 33.54303302 -51.10553166 37.35610396 -58.1875 41.125 C-59.4207981 41.7838187 -60.65403279 42.44275612 -61.88720703 43.10180664 C-70.63487055 47.77040034 -79.42326019 52.35831188 -88.22998047 56.91455078 C-93.50199329 59.65427046 -98.68692511 62.49613829 -103.8125 65.5 C-112.49488173 70.5146453 -120.95710917 73.36643189 -130.6484375 75.86328125 C-135.76670755 77.185481 -140.85237759 78.61878002 -145.9375 80.0625 C-147.2510144 80.43060791 -147.2510144 80.43060791 -148.59106445 80.80615234 C-152.42403133 81.89711022 -156.18433187 83.03012429 -159.89453125 84.48828125 C-165.05332009 86.48290915 -170.39555115 87.76763016 -175.75 89.125 C-176.77738281 89.38925781 -177.80476563 89.65351563 -178.86328125 89.92578125 C-182.9055139 90.96400789 -186.95048144 91.99056504 -191 93 C-190.6390625 93.90363281 -190.278125 94.80726563 -189.90625 95.73828125 C-189.21015625 97.50751953 -189.21015625 97.50751953 -188.5 99.3125 C-188.0359375 100.48425781 -187.571875 101.65601563 -187.09375 102.86328125 C-186 106 -186 106 -186 109 C-187.47424438 109.55929199 -187.47424438 109.55929199 -188.97827148 110.12988281 C-192.66381522 111.52886014 -196.34807688 112.93118779 -200.03198242 114.33447266 C-201.61920576 114.93856151 -203.20676423 115.54177065 -204.79467773 116.14404297 C-212.95412246 119.23944729 -221.0797646 122.32470182 -229 126 C-242.72197541 132.124763 -263.82635756 141.49672467 -278.78125 135.97265625 C-279.5134375 135.65167969 -280.245625 135.33070313 -281 135 C-281 133 -281 133 -278.80078125 130.79296875 C-277.87652344 129.87128906 -276.95226562 128.94960938 -276 128 C-274.34614347 125.79036134 -272.75078364 123.58296855 -271.1875 121.3125 C-267.00097876 115.35434093 -262.65564226 109.60370032 -258 104 C-257.18789063 103.00226563 -256.37578125 102.00453125 -255.5390625 100.9765625 C-242.76502228 85.50828577 -228.50206635 70.51075642 -212 59 C-211.34999023 58.54334961 -210.69998047 58.08669922 -210.03027344 57.61621094 C-196.91548166 48.51198314 -183.22268001 41.73884534 -168.25 36.25 C-167.53803467 35.98026367 -166.82606934 35.71052734 -166.0925293 35.43261719 C-149.24787885 29.54107583 -130.79760412 28.0690667 -113.19232178 25.99234009 C-88.23041195 23.03721343 -88.23041195 23.03721343 -63.375 19.3125 C-62.27873291 19.13468994 -61.18246582 18.95687988 -60.05297852 18.77368164 C-53.28358165 17.60153104 -46.76096333 15.89157408 -40.17675781 13.93408203 C-37.25598995 13.07527033 -34.32804946 12.30111328 -31.375 11.5625 C-25.34210137 9.92840594 -19.7201296 7.4930171 -14 5 C-11.79382517 4.05743171 -9.58554081 3.11978304 -7.375 2.1875 C-6.39273437 1.76855469 -5.41046875 1.34960938 -4.3984375 0.91796875 C-2 0 -2 0 0 0 Z " fill="#F7641D" transform="translate(340,145)"/>
<path d="M0 0 C0.99 0.33 1.98 0.66 3 1 C2.05125 1.845625 1.1025 2.69125 0.125 3.5625 C-4.10868301 7.75315778 -7.19560834 12.56752121 -10.35888672 17.58032227 C-14.02380813 23.31701001 -17.93181564 27.70584278 -24 31 C-17.19917245 29.74058749 -11.60176448 27.65713075 -5.4375 24.5625 C9.84787928 17 9.84787928 17 15 17 C15 17.66 15 18.32 15 19 C11.33393878 20.91782632 7.66704149 22.83404879 4 24.75 C2.97003906 25.28882812 1.94007813 25.82765625 0.87890625 26.3828125 C-1.15072871 27.44287662 -3.18196008 28.49989027 -5.21484375 29.55371094 C-6.89914647 30.42834359 -8.5799501 31.30982603 -10.25390625 32.20410156 C-14.729036 34.54894695 -19.09585972 36.06052661 -24 37.25 C-24.67933594 37.42273438 -25.35867187 37.59546875 -26.05859375 37.7734375 C-27.70367016 38.19049913 -29.35155128 38.59647349 -31 39 C-26.17633728 38.52554137 -21.59504154 37.90936123 -16.875 36.8125 C-9.75987559 35.42591103 -3.06378666 36.76073918 4 38 C4 38.66 4 39.32 4 40 C2.87722656 40.03738281 1.75445312 40.07476562 0.59765625 40.11328125 C-9.91080563 40.42184742 -9.91080563 40.42184742 -19.9453125 43.28125 C-25.70888584 45.29740493 -31.81295816 45.11791521 -37.8449707 45.23901367 C-53.60934138 45.59220128 -65.08472064 48.32053027 -79 56 C-79.72960937 56.40089844 -80.45921875 56.80179688 -81.2109375 57.21484375 C-85.9684042 60.00726986 -89.9096123 63.45634395 -93.921875 67.23046875 C-95.89499591 68.91058862 -97.64416002 69.95570959 -100 71 C-100.99 71.495 -100.99 71.495 -102 72 C-100.32013597 63.98834078 -100.32013597 63.98834078 -99.32006836 60.90087891 C-97.10112944 54.03527796 -96.10516454 47.2663724 -95.1875 40.125 C-92.6338999 21.95598842 -92.6338999 21.95598842 -87 15 C-86.01 14.67 -85.02 14.34 -84 14 C-84.45375 15.19625 -84.9075 16.3925 -85.375 17.625 C-88.81833136 27.98747834 -89.31640433 39.17040551 -90 50 C-88.83167623 48.40858839 -87.66344089 46.81711181 -86.49560547 45.2253418 C-85.49006507 43.85523965 -84.48386919 42.48561836 -83.47705078 41.11645508 C-81.23206045 38.06027681 -78.99927011 34.9989714 -76.8046875 31.90625 C-72.87416636 26.36851172 -68.70362942 21.26397553 -64.078125 16.2890625 C-61.94245877 13.93661812 -59.96058922 11.49930969 -58 9 C-56.68 9.33 -55.36 9.66 -54 10 C-54.64702881 10.70636597 -54.64702881 10.70636597 -55.30712891 11.42700195 C-59.7874681 16.41755121 -63.65533916 21.61399441 -67.375 27.1875 C-68.50351742 28.85963749 -69.63242559 30.53151132 -70.76171875 32.203125 C-71.30876465 33.01587891 -71.85581055 33.82863281 -72.41943359 34.66601562 C-75.32575064 38.95770406 -78.31290305 43.19294367 -81.29296875 47.43359375 C-82.72115282 49.58077208 -83.92255544 51.66277412 -85 54 C-84.42894531 53.52691406 -83.85789063 53.05382812 -83.26953125 52.56640625 C-73.73642076 44.79138926 -63.74476346 37.91753111 -53.1875 31.625 C-52.49454834 31.20814941 -51.80159668 30.79129883 -51.08764648 30.36181641 C-39.43162211 23.53382171 -39.43162211 23.53382171 -34.76635742 24.42822266 C-33.8920105 24.71125244 -33.8920105 24.71125244 -33 25 C-33.51272461 25.25579834 -34.02544922 25.51159668 -34.55371094 25.77514648 C-45.09258699 31.07172223 -54.88565312 36.46838402 -64 44 C-63.38592285 43.76812988 -62.7718457 43.53625977 -62.13916016 43.29736328 C-59.3040129 42.23198682 -56.46459647 41.17845748 -53.625 40.125 C-52.65949219 39.76019531 -51.69398438 39.39539063 -50.69921875 39.01953125 C-45.92280322 37.25642485 -41.43857199 35.82911623 -36.3984375 35.0546875 C-33.997405 34.68691952 -33.997405 34.68691952 -32 34 C-30.55150499 31.64973559 -30.55150499 31.64973559 -30 29 C-27.96875 27.21875 -27.96875 27.21875 -25.5 25.5 C-21.1462212 22.19540022 -18.01333051 18.73887095 -14.8125 14.375 C-10.46654924 8.4511608 -6.14247062 4.09498041 0 0 Z M-92 51 C-91 53 -91 53 -91 53 Z " fill="#278019" transform="translate(265,36)"/>
<path d="M0 0 C0.495 0.99 0.495 0.99 1 2 C0.00664799 3.67063747 -0.99431758 5.33675599 -2 7 C-2.70670728 9.69254991 -2.70670728 9.69254991 -3 12 C0.3 12 3.6 12 7 12 C6.17812739 16.38332057 5.09845718 20.67940177 4 25 C5.32 24.01 6.64 23.02 8 22 C7.41957355 25.12443219 6.58399492 26.79576324 4.375 29.06640625 C3.56953735 29.90969482 3.56953735 29.90969482 2.74780273 30.77001953 C2.17102783 31.36153809 1.59425293 31.95305664 1 32.5625 C-3.03787761 36.79339069 -6.93210178 41.03184424 -10.5625 45.625 C-15.57904464 51.89336262 -21.26079562 57.4050773 -27 63 C-28.669357 64.66397198 -30.33585667 66.33081381 -32 68 C-33.27066727 69.27099938 -34.54150708 70.54182627 -35.8125 71.8125 C-36.71935547 72.71935547 -36.71935547 72.71935547 -37.64453125 73.64453125 C-38.09183594 74.09183594 -38.53914063 74.53914063 -39 75 C-27.84993654 74.05317897 -16.8020741 72.76675849 -5.75 71 C-4.70400635 70.8340332 -3.6580127 70.66806641 -2.58032227 70.49707031 C1.76106254 69.7856772 6.04208229 69.03906893 10.296875 67.9140625 C13.91844908 67.02012966 17.28282982 66.60732314 21 66.375 C22.7015625 66.26285156 22.7015625 66.26285156 24.4375 66.1484375 C25.283125 66.09945312 26.12875 66.05046875 27 66 C12.48963991 73.77422447 -8.68197188 77.14217397 -25.09375 77.01171875 C-37.58735716 76.42935804 -37.58735716 76.42935804 -48.43286133 81.59448242 C-50.75031956 83.95352701 -52.86478113 86.47655951 -55 89 C-56.87859278 90.60807542 -58.79338525 92.17532406 -60.75 93.6875 C-61.56984375 94.33074219 -62.3896875 94.97398437 -63.234375 95.63671875 C-63.81703125 96.08660156 -64.3996875 96.53648437 -65 97 C-65.66 96.67 -66.32 96.34 -67 96 C-65.16776671 94.31129165 -63.334511 92.62373183 -61.5 90.9375 C-60.67459717 90.1786853 -60.67459717 90.1786853 -59.83251953 89.40454102 C-56.8844309 86.70191075 -53.91369569 84.03852347 -50.875 81.4375 C-50.26140625 80.89222656 -49.6478125 80.34695312 -49.015625 79.78515625 C-47.48766187 78.43190209 -45.93003167 77.11205291 -44.359375 75.80859375 C-38.11734068 70.25318321 -36.25170342 66.74965475 -35.61328125 58.48828125 C-34.89803434 54.42002972 -33.15219756 51.53765783 -31.0625 48.0625 C-24.82536582 37.26831453 -25.06490528 24.11479535 -24.37548828 11.95410156 C-24.01947844 9.15324387 -23.44354086 7.39591238 -22 5 C-21.34 5 -20.68 5 -20 5 C-20.33 7.64 -20.66 10.28 -21 13 C-16.14627914 12.85550493 -11.63832879 12.48995125 -7 11 C-4.85939612 8.47790236 -3.88484611 6.32269566 -2.796875 3.21484375 C-2 1 -2 1 0 0 Z " fill="#3D821F" transform="translate(160,82)"/>
<path d="M0 0 C-0.64066406 0.70125 -1.28132813 1.4025 -1.94140625 2.125 C-7.68498189 8.41695077 -7.68498189 8.41695077 -13.3125 14.8125 C-16.62101925 18.62397704 -20.05787262 22.3097215 -23.5 26 C-28.09168557 30.92420933 -32.6232761 35.8824244 -37 41 C-37.5775 41.67160156 -38.155 42.34320313 -38.75 43.03515625 C-40.16936204 44.68779307 -41.58510479 46.34353732 -43 48 C-53.51318802 44.45871562 -60.97674855 32.98311091 -65.9375 23.5 C-67 21 -67 21 -67 19 C-67.66 18.67 -68.32 18.34 -69 18 C-67.73027344 17.69707031 -66.46054688 17.39414063 -65.15234375 17.08203125 C-55.77709018 14.81187664 -46.61931511 12.33801202 -37.5 9.18359375 C-32.94443392 7.6430396 -28.33973571 6.33734946 -23.70703125 5.05078125 C-20.94130771 4.26681957 -18.19536886 3.45304595 -15.44921875 2.60546875 C-14.67884277 2.37021484 -13.9084668 2.13496094 -13.11474609 1.89257812 C-11.60645392 1.43065365 -10.10016102 0.96213786 -8.59619141 0.48632812 C-3.33543823 -1.11181274 -3.33543823 -1.11181274 0 0 Z " fill="#FBCD21" transform="translate(225,217)"/>
<path d="M0 0 C0.99 0.495 0.99 0.495 2 1 C0.39583333 2.02083333 -1.20833333 3.04166667 -2.8125 4.0625 C-3.82441406 4.70703125 -4.83632812 5.3515625 -5.87890625 6.015625 C-7.80120444 7.23781209 -9.72529973 8.45718451 -11.65234375 9.671875 C-12.93818359 10.48398438 -12.93818359 10.48398438 -14.25 11.3125 C-15.16007812 11.88355469 -16.07015625 12.45460938 -17.0078125 13.04296875 C-19.20314518 14.4788195 -21.31572081 15.94183421 -23.4296875 17.48828125 C-31.39901066 23.22747499 -38.57775122 26.474587 -48.078125 28.90625 C-53.09949989 30.21617388 -57.49167861 32.47494778 -62 35 C-61.24356201 34.68039307 -60.48712402 34.36078613 -59.70776367 34.03149414 C-51.06604676 30.52682326 -42.42823336 28.31508217 -33.3125 26.4375 C-25.2229103 24.76308643 -17.39881868 23.12290019 -9.84448242 19.65649414 C-9.23580322 19.43985107 -8.62712402 19.22320801 -8 19 C-7.34 19.33 -6.68 19.66 -6 20 C-6.67546875 20.66386719 -7.3509375 21.32773438 -8.046875 22.01171875 C-9.38492188 23.33623047 -9.38492188 23.33623047 -10.75 24.6875 C-11.63171875 25.55761719 -12.5134375 26.42773438 -13.421875 27.32421875 C-16.01155248 29.9135189 -16.01155248 29.9135189 -18.0546875 32.66796875 C-24.25525397 40.10117795 -34.96704206 41.44793787 -44 43 C-44.70801758 43.12616699 -45.41603516 43.25233398 -46.14550781 43.38232422 C-58.70510383 45.59985219 -71.2963541 46.92556229 -84 48 C-83.04746129 46.88361407 -82.09419504 45.76784888 -81.140625 44.65234375 C-80.60985352 44.03093506 -80.07908203 43.40952637 -79.53222656 42.76928711 C-77.77193996 40.73665533 -76.00717389 38.79211954 -74 37 C-73.34 37 -72.68 37 -72 37 C-71.74992188 36.43925781 -71.49984375 35.87851563 -71.2421875 35.30078125 C-65.29056906 24.27718609 -55.81214915 20.80859214 -44.51171875 17.27734375 C-41.36365655 16.35386921 -38.24021327 15.54114902 -35 15 C-35 15.99 -35 16.98 -35 18 C-34.59007812 17.4946875 -34.18015625 16.989375 -33.7578125 16.46875 C-33.21898437 15.8190625 -32.68015625 15.169375 -32.125 14.5 C-31.59132812 13.8503125 -31.05765625 13.200625 -30.5078125 12.53125 C-30.01023438 12.0259375 -29.51265625 11.520625 -29 11 C-28.34 11 -27.68 11 -27 11 C-28.65091778 15.29238623 -31.73754566 17.8793915 -35 21 C-34.52618896 20.62560791 -34.05237793 20.25121582 -33.56420898 19.86547852 C-28.62219221 16.04842478 -23.55531656 12.89371973 -18.0625 9.9375 C-17.31548828 9.52951172 -16.56847656 9.12152344 -15.79882812 8.70117188 C-14.29938846 7.88223718 -12.79761592 7.06755836 -11.29345703 6.25732422 C-9.68328085 5.37458978 -8.0862158 4.46771758 -6.49951172 3.54345703 C-5.69400879 3.07665527 -4.88850586 2.60985352 -4.05859375 2.12890625 C-2.96309204 1.48223999 -2.96309204 1.48223999 -1.84545898 0.82250977 C-1.23645752 0.55108154 -0.62745605 0.27965332 0 0 Z " fill="#F7854A" transform="translate(204,110)"/>
<path d="M0 0 C7.97941719 0.66495143 13.56484706 3.12970464 19.0625 9.0625 C31.24665788 23.67397058 42.2588802 43.37085991 42.0625 62.8125 C42.05347656 63.97394531 42.04445313 65.13539063 42.03515625 66.33203125 C42.02355469 67.21246094 42.01195312 68.09289062 42 69 C41.67 68.34 41.34 67.68 41 67 C40.38592285 67.36875244 39.7718457 67.73750488 39.13916016 68.11743164 C36.31601117 69.79250004 33.47144039 71.42734971 30.625 73.0625 C29.65949219 73.64322266 28.69398438 74.22394531 27.69921875 74.82226562 C20.89620319 78.68035163 16.61115109 79.62731609 9 78 C7.58225897 77.8098384 6.16296957 77.6307635 4.7421875 77.46484375 C3.46601563 77.29082031 2.18984375 77.11679688 0.875 76.9375 C-1.07792969 76.67259766 -1.07792969 76.67259766 -3.0703125 76.40234375 C-4.03710938 76.26957031 -5.00390625 76.13679688 -6 76 C-4 74 -4 74 -2.08666992 73.93164062 C-1.30912354 74.00576172 -0.53157715 74.07988281 0.26953125 74.15625 C15.53234219 75.16277353 25.85681787 71.64280309 39 64 C38.28863856 60.25905721 37.31515618 56.82799842 36 53.25 C35.649375 52.28578125 35.29875 51.3215625 34.9375 50.328125 C34.20773882 48.07714114 34.20773882 48.07714114 33 47 C32.54625 48.03125 32.0925 49.0625 31.625 50.125 C31.34140625 50.76308594 31.0578125 51.40117188 30.765625 52.05859375 C29.86831563 54.16229749 29.86831563 54.16229749 29.375 57.1875 C27.51499374 60.99205825 25.4509833 61.66572719 21.578125 63.12109375 C20.72734375 63.41113281 19.8765625 63.70117188 19 64 C18.25234375 64.30035156 17.5046875 64.60070312 16.734375 64.91015625 C6.9485487 68.30362827 -3.78999189 67.26345793 -14 67 C-11.00950198 65.00633466 -9.85804812 64.66233787 -6.4296875 64.25390625 C-5.08390625 64.08084961 -5.08390625 64.08084961 -3.7109375 63.90429688 C-1.84387817 63.67927251 0.02330668 63.45528684 1.890625 63.23242188 C7.19483396 62.54861716 12.01385771 61.52806736 17.03515625 59.66845703 C19 59 19 59 22.875 58.3125 C26.03767093 57.35682603 26.03767093 57.35682603 27.02734375 55.203125 C27.83505116 53.08913046 27.83505116 53.08913046 28.39453125 50.97265625 C29 49 29 49 31 46 C30.75373632 40.70533092 28.48732301 36.55816403 26 32 C25.97421875 32.89203125 25.9484375 33.7840625 25.921875 34.703125 C25.83679688 36.45882812 25.83679688 36.45882812 25.75 38.25 C25.70359375 39.41015625 25.6571875 40.5703125 25.609375 41.765625 C24.88938157 45.5871286 24.07261648 46.68380014 21 49 C18.37109375 50.34375 18.37109375 50.34375 15.4375 51.5 C14.37789063 51.92023438 13.31828125 52.34046875 12.2265625 52.7734375 C4.54067108 55.69519284 -3.18496551 58.44383247 -11 61 C-11.99 61.33 -12.98 61.66 -14 62 C-15.56724952 62.13564417 -17.13887003 62.22402857 -18.7109375 62.28125 C-20.08378906 62.33732422 -20.08378906 62.33732422 -21.484375 62.39453125 C-22.43828125 62.42933594 -23.3921875 62.46414062 -24.375 62.5 C-26.25795042 62.56926384 -28.14077457 62.6420685 -30.0234375 62.71875 C-30.85794434 62.74904297 -31.69245117 62.77933594 -32.55224609 62.81054688 C-35.09852625 63.00762581 -37.50794835 63.45078139 -40 64 C-39 62 -39 62 -37.02734375 60.91015625 C-33.66773003 59.90010464 -30.69706799 59.72931914 -27.21069336 59.57080078 C-14.69471922 58.94079047 -4.70999145 55.14755603 6.61523438 50.03613281 C10.66998991 48.27442289 14.82737108 46.95761462 19.05078125 45.65625 C20.98099459 45.16718062 20.98099459 45.16718062 22 44 C23.40997635 33.9735015 24.13357408 26.51059933 18 18 C18 17.34 18 16.68 18 16 C17.34 16 16.68 16 16 16 C15.319375 14.6078125 15.319375 14.6078125 14.625 13.1875 C13.0578367 9.96078611 13.0578367 9.96078611 11 7 C6.90492861 8.5310402 5.22231051 11.11218471 2.75 14.625 C-7.21331829 28.36445504 -17.11185286 34.05095309 -33 39 C-34.70989683 39.57873431 -36.41855164 40.16117527 -38.125 40.75 C-45.44930436 43.16415619 -52.82933366 44.58533317 -60 41 C-57 40 -57 40 -53.18359375 40.2265625 C-46.38417837 40.29531291 -40.35857538 37.70638494 -34.0625 35.375 C-32.24588867 34.73498047 -32.24588867 34.73498047 -30.39257812 34.08203125 C-14.39940278 28.2805004 -2.0830915 19.5329464 7 5 C4.69 3.68 2.38 2.36 0 1 C0 0.67 0 0.34 0 0 Z " fill="#FEBB81" transform="translate(294,72)"/>
<path d="M0 0 C2.7187653 1.29614685 5.16455239 2.72296209 7.6171875 4.46875 C8.29934326 4.95230957 8.98149902 5.43586914 9.68432617 5.93408203 C10.40724854 6.45083496 11.1301709 6.96758789 11.875 7.5 C12.62950439 8.03608887 13.38400879 8.57217773 14.16137695 9.12451172 C16.44298977 10.74678911 18.72180195 12.37293183 21 14 C22.24603912 14.88809749 23.49212881 15.77612402 24.73828125 16.6640625 C27.57328899 18.6857873 30.40552235 20.71136005 33.23681641 22.73828125 C36.44792395 25.03612171 39.66166036 27.33028256 42.875 29.625 C44.05990634 30.47133946 45.2448032 31.31769219 46.4296875 32.1640625 C47.27789062 32.76992187 48.12609375 33.37578125 49 34 C41.30400139 41.92633659 29.5942549 51.52318748 18.11328125 52.16015625 C17.41589844 52.10730469 16.71851563 52.05445313 16 52 C15.76925781 51.175 15.53851563 50.35 15.30078125 49.5 C12.89441425 40.97784651 10.32276636 32.5195662 7.65429688 24.07617188 C6.97867722 21.93233997 6.30878926 19.78679159 5.640625 17.640625 C5.41818115 16.92632324 5.1957373 16.21202148 4.96655273 15.47607422 C4.54391965 14.11841078 4.12153868 12.76066883 3.69946289 11.40283203 C2.50926469 7.5868613 1.27627611 3.78803411 0 0 Z " fill="#FCCE22" transform="translate(235,223)"/>
<path d="M0 0 C6.71361806 -0.16772952 13.05940879 0.2816464 19.6875 1.3125 C29.39284192 2.7355025 39.11202035 3.7666915 48.875 4.6875 C49.93006241 4.78715561 49.93006241 4.78715561 51.00643921 4.88882446 C55.00375676 5.26512445 59.00161796 5.63519554 63 6 C62.63155534 12.05867639 61.60897476 16.6680873 58.75 22.125 C58.43861084 22.72393066 58.12722168 23.32286133 57.80639648 23.93994141 C55.52487468 28.24525213 53.00623553 32.17388205 50 36 C47.22924752 34.6865119 44.78020408 33.22447036 42.3046875 31.41796875 C41.59763672 30.90443848 40.89058594 30.3909082 40.16210938 29.86181641 C39.40736328 29.30929199 38.65261719 28.75676758 37.875 28.1875 C36.25785276 27.01166338 34.64066404 25.8358838 33.0234375 24.66015625 C32.19424805 24.05574707 31.36505859 23.45133789 30.51074219 22.82861328 C26.51410449 19.91779877 22.50748713 17.0208502 18.5 14.125 C17.75105469 13.58286865 17.00210938 13.0407373 16.23046875 12.48217773 C11.38267431 8.9786525 6.50068168 5.53581717 1.5546875 2.171875 C1.04164063 1.78515625 0.52859375 1.3984375 0 1 C0 0.67 0 0.34 0 0 Z " fill="#FCCE22" transform="translate(238,218)"/>
<path d="M0 0 C4.09900177 7.59074403 3.29946772 16.68145209 3 25 C-18.74629736 23.39889899 -40.36200781 20.64856168 -62 18 C-62 17.34 -62 16.68 -62 16 C-54.36209769 13.7560784 -46.72157076 11.52142849 -39.07750225 9.29861355 C-35.52826051 8.26621481 -31.98001393 7.23062911 -28.43383789 6.18774414 C-25.01251118 5.18170304 -21.58884006 4.18405524 -18.16337013 3.19221687 C-16.85594216 2.8120515 -15.54939217 2.42885333 -14.24374962 2.04260063 C-12.41703764 1.50275662 -10.58688068 0.9746111 -8.7565918 0.44702148 C-7.71512497 0.1427977 -6.67365814 -0.16142609 -5.60063171 -0.47486877 C-3 -1 -3 -1 0 0 Z " fill="#FCCF25" transform="translate(299,195)"/>
<path d="M0 0 C1.05513915 3.28806365 0.92681626 5.69610031 0.36328125 9.0859375 C0.19989258 10.08955322 0.03650391 11.09316895 -0.13183594 12.12719727 C-0.31520508 13.19897217 -0.49857422 14.27074707 -0.6875 15.375 C-0.86958008 16.47448975 -1.05166016 17.57397949 -1.23925781 18.70678711 C-3.04181876 29.49200704 -4.98848181 40.25196029 -7 51 C-13.41685221 50.59740935 -18.95018259 49.69558972 -24.875 47.1875 C-25.51179687 46.93935547 -26.14859375 46.69121094 -26.8046875 46.43554688 C-30.64082971 44.86512616 -33.29074306 43.13810917 -36 40 C-35.43152344 39.3709375 -34.86304688 38.741875 -34.27734375 38.09375 C-30.71885142 34.14911076 -27.16331824 30.2053394 -23.6875 26.1875 C-20.02340927 21.97678501 -16.22270262 17.89625422 -12.42724609 13.80444336 C-8.95540272 10.05474247 -5.54701239 6.258827 -2.20703125 2.390625 C-1.49611889 1.57158034 -0.76688674 0.76688674 0 0 Z " fill="#FCCE23" transform="translate(222,227)"/>
<path d="M0 0 C2.65759982 2.65759982 3.27360476 5.61128426 4.3125 9.125 C4.75634444 10.58598793 5.20035954 12.04692403 5.64453125 13.5078125 C5.86963379 14.25579102 6.09473633 15.00376953 6.32666016 15.77441406 C7.36020129 19.19057105 8.43101597 22.59480611 9.5 26 C9.91152965 27.32029027 10.32298756 28.64060291 10.734375 29.9609375 C11.60891026 32.76136938 12.49620098 35.55742172 13.390625 38.3515625 C13.61814453 39.06699219 13.84566406 39.78242188 14.08007812 40.51953125 C14.51294518 41.87997056 14.94892749 43.23942435 15.38867188 44.59765625 C16.58702726 48.377387 17.4443749 52.07438792 18 56 C12.08218663 58.06189931 6.79581786 58.24167838 0.5625 58.125 C-0.35982422 58.11597656 -1.28214844 58.10695313 -2.23242188 58.09765625 C-4.48855809 58.0742766 -6.74413684 58.04150916 -9 58 C-8.470776 47.66393119 -6.72414741 37.55823879 -4.98876953 27.37011719 C-4.49648487 24.47935868 -4.01132382 21.58747189 -3.52734375 18.6953125 C-3.21655338 16.84888969 -2.90536978 15.00253301 -2.59375 13.15625 C-2.44893188 12.29584106 -2.30411377 11.43543213 -2.15490723 10.5489502 C-1.94964417 9.34619446 -1.94964417 9.34619446 -1.74023438 8.11914062 C-1.62111694 7.41809204 -1.50199951 6.71704346 -1.37927246 5.99475098 C-0.99483076 3.9728128 -0.51852641 1.99138134 0 0 Z " fill="#FCCF25" transform="translate(229,221)"/>
<path d="M0 0 C0.66 0.33 1.32 0.66 2 1 C1.53851563 1.29648438 1.07703125 1.59296875 0.6015625 1.8984375 C-5.71967666 6.62062802 -8.85491459 12.59501725 -12.32177734 19.51318359 C-15.41383684 25.52799673 -18.38864735 29.12411853 -24.51171875 32.3046875 C-28.98888355 33.55576338 -33.37711907 33.11139472 -38 33 C-38.66 37.29 -39.32 41.58 -40 46 C-26.53204541 44.54174107 -26.53204541 44.54174107 -15.6875 37.25 C-14.41042968 35.5346452 -13.17690947 33.78556288 -12 32 C-10.9650478 30.59918092 -9.92390178 29.20290469 -8.875 27.8125 C-8.40964844 27.173125 -7.94429687 26.53375 -7.46484375 25.875 C-4.93068434 22.63127595 -1.96678837 19.84259723 1 17 C1.98162997 16.02330285 2.96109542 15.04442099 3.9375 14.0625 C4.9584375 13.0415625 4.9584375 13.0415625 6 12 C4.54333033 16.33799428 2.20404959 19.59586429 -0.625 23.125 C-1.52736625 24.27109376 -2.42838722 25.41824787 -3.328125 26.56640625 C-3.77736328 27.13891113 -4.22660156 27.71141602 -4.68945312 28.30126953 C-7.29681027 31.68092509 -9.74768053 35.17490968 -12.2109375 38.66015625 C-15.7226886 43.25303596 -18.2702955 45.63191453 -24 47 C-26.955453 47.3466358 -29.90264891 47.5040908 -32.875 47.625 C-34.050625 47.68300781 -34.050625 47.68300781 -35.25 47.7421875 C-37.16631367 47.83566622 -39.08312319 47.91888495 -41 48 C-39.29529515 68.03028204 -35.19842834 86.39074018 -28.82324219 105.45117188 C-28.0013226 107.99590512 -27.26961632 110.55556817 -26.54296875 113.12890625 C-25.14509238 117.84205085 -23.17933669 122.04487282 -20.875 126.375 C-16.88730319 133.96448747 -16.88730319 133.96448747 -16 138 C-20.10634196 134.37789647 -22.6954283 130.01298257 -25.5 125.375 C-25.99121338 124.56611328 -26.48242676 123.75722656 -26.98852539 122.92382812 C-30.26524075 117.43969353 -32.92977864 112.04976604 -35 106 C-35.66226464 104.41482038 -36.32911623 102.83155109 -37 101.25 C-39.50096831 94.97305994 -41.28655246 88.52943385 -43 82 C-43.30292969 80.90945312 -43.60585938 79.81890625 -43.91796875 78.6953125 C-47.54512976 64.22072631 -47.871304 48.88541968 -42 35 C-41.75507812 34.2471875 -41.51015625 33.494375 -41.2578125 32.71875 C-40 31 -40 31 -37.171875 30.3125 C-35.47804688 30.1578125 -35.47804688 30.1578125 -33.75 30 C-28.37260922 29.50438795 -25.17249714 28.51010614 -21 25 C-19.17036793 22.53782382 -17.68667782 19.92264876 -16.1875 17.25 C-12.04832741 10.23226423 -7.50133869 3.75066934 0 0 Z " fill="#FEB977" transform="translate(74,129)"/>
<path d="M0 0 C-1.09054688 0.55945313 -2.18109375 1.11890625 -3.3046875 1.6953125 C-14.43375363 7.55448613 -24.2434866 14.33853064 -33.95166016 22.31884766 C-35.84275904 23.87094622 -37.75175356 25.39708794 -39.66796875 26.91796875 C-51.14326245 36.15843543 -62.39372118 47.07373516 -64.44140625 62.27734375 C-64.78084601 72.5371841 -63.00191833 82.15072627 -60.8125 92.125 C-60.66660431 92.79683319 -60.52070862 93.46866638 -60.37039185 94.16085815 C-57.65763692 106.49691054 -54.07598159 118.41306209 -49 130 C-46.88300764 135.11941879 -44.91022403 140.25544143 -43.125 145.5 C-41.11918194 151.12431384 -38.24781892 156.00918493 -35 161 C-38.49798849 159.83400384 -38.74164064 159.20212888 -40.5 156.125 C-42.17249141 153.18394141 -42.17249141 153.18394141 -44.43334961 150.71069336 C-46.43775882 148.5219922 -47.25772641 146.37952394 -48.34765625 143.62109375 C-48.77836426 142.54843262 -49.20907227 141.47577148 -49.65283203 140.37060547 C-50.09739746 139.25830566 -50.54196289 138.14600586 -51 137 C-51.8905891 134.88505441 -52.78512603 132.77176691 -53.68359375 130.66015625 C-76.70947138 75.80463151 -76.70947138 75.80463151 -68.4375 51.875 C-63.52381375 40.87185258 -52.43805511 27.83205032 -41.19140625 23.12890625 C-38.18870449 21.58205989 -35.6811701 19.4837457 -33.0625 17.375 C-25.55832152 11.39001743 -17.39635205 6.62073754 -9 2 C-7.90558594 1.39027344 -6.81117187 0.78054687 -5.68359375 0.15234375 C-3 -1 -3 -1 0 0 Z " fill="#FC6E28" transform="translate(91,111)"/>
<path d="M0 0 C-1.5813524 13.00410003 -6.03614417 23.97140429 -13 35 C-14.16846584 37.12401123 -15.33514387 39.24900698 -16.5 41.375 C-19.40059335 46.38690959 -22.34787235 49.5821103 -27 53 C-27.50482817 47.65859222 -25.89899952 44.39616533 -23.125 40 C-19.21434431 33.67109433 -16.88615848 28.21457232 -16.3671875 20.7265625 C-16.28339844 19.57285156 -16.19960937 18.41914062 -16.11328125 17.23046875 C-16.03464844 16.04066406 -15.95601562 14.85085937 -15.875 13.625 C-15.74544922 11.80548828 -15.74544922 11.80548828 -15.61328125 9.94921875 C-15.40191173 6.96655991 -15.19771924 3.98358962 -15 1 C-9.89027647 0.21341226 -5.15077262 -0.09036443 0 0 Z " fill="#EF8A4F" transform="translate(153,94)"/>
<path d="M0 0 C0.99 0.495 0.99 0.495 2 1 C0.39583333 2.02083333 -1.20833333 3.04166667 -2.8125 4.0625 C-3.82441406 4.70703125 -4.83632812 5.3515625 -5.87890625 6.015625 C-7.80120444 7.23781209 -9.72529973 8.45718451 -11.65234375 9.671875 C-12.50957031 10.21328125 -13.36679688 10.7546875 -14.25 11.3125 C-15.16007812 11.88355469 -16.07015625 12.45460938 -17.0078125 13.04296875 C-19.20314518 14.4788195 -21.31572081 15.94183421 -23.4296875 17.48828125 C-31.40857032 23.23465855 -38.6444966 26.5658125 -48.17578125 28.96875 C-51.4219089 29.84411027 -54.08623239 30.85869155 -57.0625 32.375 C-61.36451112 34.47559137 -64.3790848 34.00819968 -69 33 C-68.06409496 31.8944811 -67.12620142 30.79064547 -66.1875 29.6875 C-65.40439453 28.76517578 -65.40439453 28.76517578 -64.60546875 27.82421875 C-64.07566406 27.22222656 -63.54585937 26.62023437 -63 26 C-62.56453857 25.5042749 -62.12907715 25.0085498 -61.68041992 24.49780273 C-59.70141148 22.73386015 -58.01052463 22.06966625 -55.5078125 21.2109375 C-54.63769531 20.90929687 -53.76757812 20.60765625 -52.87109375 20.296875 C-51.96488281 19.99265625 -51.05867188 19.6884375 -50.125 19.375 C-49.22652344 19.06304687 -48.32804687 18.75109375 -47.40234375 18.4296875 C-43.28007367 17.01703365 -39.2927523 15.78889197 -35 15 C-35 15.99 -35 16.98 -35 18 C-34.59007812 17.4946875 -34.18015625 16.989375 -33.7578125 16.46875 C-33.21898437 15.8190625 -32.68015625 15.169375 -32.125 14.5 C-31.59132812 13.8503125 -31.05765625 13.200625 -30.5078125 12.53125 C-30.01023438 12.0259375 -29.51265625 11.520625 -29 11 C-28.34 11 -27.68 11 -27 11 C-28.65091778 15.29238623 -31.73754566 17.8793915 -35 21 C-34.52618896 20.62560791 -34.05237793 20.25121582 -33.56420898 19.86547852 C-28.62219221 16.04842478 -23.55531656 12.89371973 -18.0625 9.9375 C-16.94198242 9.32551758 -16.94198242 9.32551758 -15.79882812 8.70117188 C-14.29938846 7.88223718 -12.79761592 7.06755836 -11.29345703 6.25732422 C-9.68328085 5.37458978 -8.0862158 4.46771758 -6.49951172 3.54345703 C-5.69400879 3.07665527 -4.88850586 2.60985352 -4.05859375 2.12890625 C-2.96309204 1.48223999 -2.96309204 1.48223999 -1.84545898 0.82250977 C-1.23645752 0.55108154 -0.62745605 0.27965332 0 0 Z " fill="#F68A51" transform="translate(204,110)"/>
<path d="M0 0 C0.556875 0.226875 1.11375 0.45375 1.6875 0.6875 C-0.3125 2.6875 -0.3125 2.6875 -3.59765625 4.69921875 C-8.27538061 8.00164121 -10.30439644 12.4467575 -12.75 17.5 C-13.19537109 18.38365234 -13.64074219 19.26730469 -14.09960938 20.17773438 C-15.18671307 22.34025248 -16.25687317 24.50949112 -17.3125 26.6875 C-16.25289062 25.81351563 -16.25289062 25.81351563 -15.171875 24.921875 C-6.09880406 17.67253691 3.55156777 11.76753115 13.60375977 5.97094727 C15.73546528 4.65795653 17.70859379 3.21920523 19.6875 1.6875 C20.3475 2.0175 21.0075 2.3475 21.6875 2.6875 C16.6084239 6.91257215 11.48195645 10.90057465 5.9375 14.5 C-4.07226777 21.06167296 -13.30579021 28.57771794 -22.11328125 36.671875 C-25.1148029 39.42282557 -28.20720993 42.05475407 -31.3125 44.6875 C-31.9725 44.3575 -32.6325 44.0275 -33.3125 43.6875 C-32.46365234 42.85605469 -32.46365234 42.85605469 -31.59765625 42.0078125 C-30.86417969 41.28335938 -30.13070312 40.55890625 -29.375 39.8125 C-28.64410156 39.09320313 -27.91320312 38.37390625 -27.16015625 37.6328125 C-25.25582001 35.81722808 -25.25582001 35.81722808 -24.3125 33.6875 C-27.81897501 36.5564341 -31.16531112 39.4192654 -34.3125 42.6875 C-32.7114653 36.57445841 -29.57546296 32.79045548 -24.9921875 28.53125 C-21.70868641 25.04671823 -19.2842382 21.2956424 -16.75 17.25 C-15.81152208 15.77192955 -14.87272562 14.29406129 -13.93359375 12.81640625 C-13.48806152 12.11410889 -13.0425293 11.41181152 -12.58349609 10.68823242 C-12.16406738 10.02799072 -11.74463867 9.36774902 -11.3125 8.6875 C-10.93561035 8.09235596 -10.5587207 7.49721191 -10.17041016 6.8840332 C-7.62151467 2.94238681 -5.13782926 -0.69430125 0 0 Z " fill="#35811D" transform="translate(201.3125,87.3125)"/>
<path d="M0 0 C0 3.66572003 -0.94174984 4.82160523 -3 7.8125 C-3.556875 8.64394531 -4.11375 9.47539062 -4.6875 10.33203125 C-10.73954608 17.31437495 -19.21708642 21.74792597 -27.0625 26.4375 C-28.16561523 27.09838623 -29.26873047 27.75927246 -30.40527344 28.44018555 C-38.40038708 33.1750591 -46.41500537 37.43838736 -55 41 C-55.80953125 41.38027344 -56.6190625 41.76054687 -57.453125 42.15234375 C-69.8167869 46.26724349 -85.68989647 41.61207614 -98 39 C-98 38.67 -98 38.34 -98 38 C-97.00484375 38.0721875 -96.0096875 38.144375 -94.984375 38.21875 C-91.16616645 38.48346553 -87.34635945 38.67554725 -83.5234375 38.85791016 C-81.06152953 38.99653539 -78.61265931 39.20482158 -76.15625 39.41796875 C-62.81806112 40.29251667 -53.47343545 36.46985941 -41.95092773 29.91796875 C-40 29 -40 29 -37 29 C-36.505 27.515 -36.505 27.515 -36 26 C-34.35965807 25.27095914 -32.68433905 24.62066432 -31 24 C-18.6199574 17.73695513 -8.14309458 11.45122676 0 0 Z " fill="#FABFA2" transform="translate(219,123)"/>
<path d="M0 0 C1.51400391 0.01740234 1.51400391 0.01740234 3.05859375 0.03515625 C4.07050781 0.04417969 5.08242187 0.05320312 6.125 0.0625 C7.29869141 0.07990234 7.29869141 0.07990234 8.49609375 0.09765625 C7.2143647 8.30072214 4.23894464 14.08162486 -1.31640625 20.16015625 C-1.82494141 20.73314453 -2.33347656 21.30613281 -2.85742188 21.89648438 C-3.87828234 23.04673147 -4.90314601 24.19343905 -5.93212891 25.33642578 C-8.5026356 28.21676677 -11.00277313 31.15708212 -13.50390625 34.09765625 C-13.50390625 30.50046245 -12.52039371 29.14399928 -10.75390625 26.03515625 C-7.19388564 19.18443101 -5.74230071 12.24604041 -4.265625 4.7109375 C-3.29963791 0.12869103 -3.29963791 0.12869103 0 0 Z " fill="#F88448" transform="translate(158.50390625,93.90234375)"/>
<path d="M0 0 C0.99 0.495 0.99 0.495 2 1 C1.32453125 1.51949219 0.6490625 2.03898438 -0.046875 2.57421875 C-1.38492188 3.62029297 -1.38492188 3.62029297 -2.75 4.6875 C-3.63171875 5.37199219 -4.5134375 6.05648437 -5.421875 6.76171875 C-11.00424256 11.60822877 -13.43417648 16.88774803 -16.25 23.5625 C-27.25312725 48.70893195 -27.25312725 48.70893195 -38.86938477 53.82299805 C-44.91503553 56.07690926 -50.65320453 56.53139329 -57.0625 56.6875 C-58.02349609 56.72166016 -58.98449219 56.75582031 -59.97460938 56.79101562 C-62.31628927 56.87256667 -64.65763863 56.94200966 -67 57 C-64.04706964 55.03137976 -62.98009905 54.68085557 -59.61328125 54.2890625 C-58.75669922 54.17820313 -57.90011719 54.06734375 -57.01757812 53.953125 C-55.23436659 53.73682208 -53.45051043 53.52575987 -51.66601562 53.3203125 C-42.95676836 52.17555707 -36.46827939 49.53658157 -30.84765625 42.6484375 C-25.94027018 35.61417164 -21.74506189 27.94921747 -18.22265625 20.1328125 C-14.45443613 11.88706025 -10.62496033 6.95889029 -3 2 C-2.01 1.34 -1.02 0.68 0 0 Z " fill="#FBBA9A" transform="translate(120,188)"/>
<path d="M0 0 C0.99 0.495 0.99 0.495 2 1 C-6.14255493 8.08290737 -14.49452425 14.76290029 -23.18359375 21.1640625 C-25.46841254 22.84773158 -27.69530985 24.55811448 -29.91015625 26.3359375 C-36.28143407 31.41462514 -43.00145459 35.43708799 -50.125 39.375 C-51.04361816 39.88740234 -51.96223633 40.39980469 -52.90869141 40.92773438 C-60.25274854 44.89265642 -67.5136419 48.27556763 -76 48 C-73.05830351 46.03886901 -70.89560341 45.2902723 -67.5390625 44.3046875 C-60.84761895 42.12247642 -55.27008537 38.92291728 -49.375 35.125 C-48.33520996 34.46588623 -47.29541992 33.80677246 -46.22412109 33.12768555 C-39.00109666 28.47717673 -32.17322576 23.47276106 -25.48413086 18.08959961 C-18.15330998 12.21165847 -10.37538688 7.07618901 -2.48022461 1.99291992 C-1.0143152 1.07875569 -1.0143152 1.07875569 0 0 Z " fill="#FBBD9E" transform="translate(226,136)"/>
<path d="M0 0 C-0.58970326 5.54321063 -1.70633841 10.88590286 -4 16 C-7.42932071 17.71466036 -11.21716065 17.05404056 -15 17 C-15 11.72 -15 6.44 -15 1 C-9.64210878 0.23458697 -5.29481709 -0.09289153 0 0 Z " fill="#FC8349" transform="translate(153,94)"/>
<path d="M0 0 C0 6.14332932 -6.35667575 11.46231369 -10.4375 15.75 C-18.15721792 23.11342324 -27.01783015 25.89062378 -37 29 C-38.70989683 29.57873431 -40.41855164 30.16117527 -42.125 30.75 C-49.44930436 33.16415619 -56.82933366 34.58533317 -64 31 C-61 30 -61 30 -57.18359375 30.2265625 C-50.38417837 30.29531291 -44.35857538 27.70638494 -38.0625 25.375 C-36.85142578 24.94832031 -35.64035156 24.52164063 -34.39257812 24.08203125 C-20.52638614 19.05206448 -10.52450659 12.22999675 -1 1 C-0.67 0.67 -0.34 0.34 0 0 Z " fill="#FBBFA3" transform="translate(298,82)"/>
<path d="M0 0 C0.598125 0.515625 1.19625 1.03125 1.8125 1.5625 C1.8125 2.2225 1.8125 2.8825 1.8125 3.5625 C1.26625977 3.40313965 0.72001953 3.2437793 0.15722656 3.07958984 C-13.22347811 0.12870141 -28.26712598 1.7409755 -40.94140625 6.515625 C-45.47676961 7.97829333 -48.59944478 7.62758425 -53.1875 6.5625 C-52.1875 4.5625 -52.1875 4.5625 -50.22558594 3.80053711 C-49.38286133 3.5660083 -48.54013672 3.33147949 -47.671875 3.08984375 C-46.75019531 2.83009766 -45.82851563 2.57035156 -44.87890625 2.30273438 C-43.90824219 2.03783203 -42.93757813 1.77292969 -41.9375 1.5 C-40.98230469 1.23123047 -40.02710938 0.96246094 -39.04296875 0.68554688 C-27.06104605 -2.65572642 -11.7859547 -5.31523447 0 0 Z " fill="#FA6C25" transform="translate(307.1875,66.4375)"/>
<path d="M0 0 C-6.14729661 11.02273876 -6.14729661 11.02273876 -12.625 13.5 C-17.26012791 15.31129999 -21.7717942 17.24580601 -26.2578125 19.3984375 C-26.83273438 19.59695312 -27.40765625 19.79546875 -28 20 C-28.66 19.67 -29.32 19.34 -30 19 C-13.54322004 -0.39833 -13.54322004 -0.39833 0 0 Z " fill="#F58448" transform="translate(193,92)"/>
<path d="M0 0 C0.99 0.495 0.99 0.495 2 1 C-13.75068844 11.8070417 -30.14681646 17.13716163 -48.80639648 20.76635742 C-57.4391805 22.4976755 -65.11274958 25.05618123 -73.0703125 28.77734375 C-74.03710938 29.18082031 -75.00390625 29.58429688 -76 30 C-76.66 29.67 -77.32 29.34 -78 29 C-67.25709951 23.17309704 -56.82159093 19.05109633 -45 16 C-42.47902019 15.33388745 -39.95818182 14.66723931 -37.4375 14 C-36.23222656 13.68160156 -35.02695313 13.36320313 -33.78515625 13.03515625 C-29.62765946 11.89817312 -25.49691402 10.69661925 -21.375 9.4375 C-20.38004517 9.14069336 -20.38004517 9.14069336 -19.36499023 8.83789062 C-15.54360195 7.65016845 -12.36442581 6.14836829 -9 4 C-7.78385272 3.42970248 -6.55576233 2.88348033 -5.3125 2.375 C-3.52097337 1.63134744 -1.73495517 0.86747759 0 0 Z " fill="#438424" transform="translate(214,118)"/>
<path d="M0 0 C1 3 1 3 -0.51953125 6.08984375 C-1.27518674 7.37752156 -2.04026583 8.65969573 -2.8125 9.9375 C-6.0515537 15.44465884 -9.01153403 20.99768642 -11.75561523 26.76806641 C-16.81660335 37.37062302 -21.67147167 47.10549481 -33 52 C-37.10618349 53.16087579 -41.06114612 53.10223228 -45.3125 53.0625 C-46.56675781 53.05347656 -47.82101563 53.04445312 -49.11328125 53.03515625 C-50.06589844 53.02355469 -51.01851562 53.01195312 -52 53 C-52 52.67 -52 52.34 -52 52 C-51.41734375 51.97421875 -50.8346875 51.9484375 -50.234375 51.921875 C-41.53583827 51.32008944 -32.33951576 49.96451576 -25.9375 43.5625 C-21.43895774 37.93465564 -18.38831089 31.36802179 -15.15625 24.96337891 C-11.82303683 18.39355057 -8.13340031 12.42757764 -3.77734375 6.49609375 C-2.26656363 4.37436079 -1.07364411 2.36424221 0 0 Z " fill="#FBBFA2" transform="translate(102,180)"/>
<path d="M0 0 C0.99 0.495 0.99 0.495 2 1 C1.50371094 1.4125 1.00742187 1.825 0.49609375 2.25 C-5.07064184 6.9822534 -10.07181363 12.03121848 -14.41796875 17.921875 C-19.00509711 23.93525335 -24.64143023 26.11556873 -31.9453125 27.59765625 C-37.89789654 28.36646103 -43.94912178 28.10332271 -49.9375 28.0625 C-51.19369141 28.05798828 -52.44988281 28.05347656 -53.74414062 28.04882812 C-56.82947663 28.03709681 -59.91471316 28.020681 -63 28 C-59.54803771 25.93885127 -56.52532043 25.5884344 -52.546875 25.25390625 C-50.65775391 25.08084961 -50.65775391 25.08084961 -48.73046875 24.90429688 C-46.09266529 24.67779265 -43.45464458 24.45380334 -40.81640625 24.23242188 C-28.48678426 23.36674755 -28.48678426 23.36674755 -18.5 16.75 C-14.90027924 12.86393782 -11.02249094 9.4411153 -7 6 C-6.319375 5.41476563 -5.63875 4.82953125 -4.9375 4.2265625 C-3.29398963 2.81499916 -1.64733469 1.40709838 0 0 Z " fill="#FBBA9B" transform="translate(284,73)"/>
<path d="M0 0 C-19.7678006 10.59100657 -46.13211773 11.60597372 -68 11 C-67.67 10.34 -67.34 9.68 -67 9 C-63.98653095 8.61096609 -61.02742415 8.33854031 -58 8.125 C-49.49806586 7.42460504 -41.10910408 6.35981635 -32.6875 5 C-31.64529297 4.83387207 -30.60308594 4.66774414 -29.52929688 4.49658203 C-23.93366697 3.57574779 -18.48223631 2.4479044 -13 1 C-8.60317508 0.10268879 -4.48635699 -0.08972714 0 0 Z " fill="#478221" transform="translate(187,148)"/>
<path d="M0 0 C0.495 0.99 0.495 0.99 1 2 C-0.17972781 4.21050009 -1.39842704 6.27358177 -2.75 8.375 C-3.1109375 8.9525 -3.471875 9.53 -3.84375 10.125 C-5.31666041 12.46244478 -6.792176 14.74221319 -8.52734375 16.89453125 C-11.23033554 20.75902084 -12.90737268 25.22134378 -14.77539062 29.53710938 C-18.09934474 36.89682703 -22.36358446 43.22974974 -30.078125 46.35546875 C-36.58828628 47.79153374 -43.37698497 47.27374115 -50 47 C-50 46.67 -50 46.34 -50 46 C-49.42556152 45.89977539 -48.85112305 45.79955078 -48.25927734 45.69628906 C-45.62836244 45.22873578 -43.00190218 44.73957565 -40.375 44.25 C-39.47136719 44.09273437 -38.56773438 43.93546875 -37.63671875 43.7734375 C-32.28922282 42.75858426 -28.12876722 41.76001934 -24 38 C-22.04834569 35.085211 -20.50061294 32.01134313 -18.9375 28.875 C-13.54316648 18.52657004 -7.06918831 9.26295751 0 0 Z " fill="#FABD9F" transform="translate(94,168)"/>
<path d="M0 0 C0.495 0.99 0.495 0.99 1 2 C-3.02599209 11.23064634 -8.65124034 23.0057233 -18.40234375 27.1015625 C-30.58477807 31.31503602 -42.14782202 33.92228295 -55 35 C-51.85244646 32.28710862 -49.30383179 31.41724631 -45.25 30.625 C-39.92912781 29.48266586 -34.75461636 28.11454803 -29.5625 26.5 C-28.57008301 26.19763428 -28.57008301 26.19763428 -27.55761719 25.88916016 C-13.79764126 21.55215508 -7.13479994 12.06721791 0 0 Z " fill="#FBBC9E" transform="translate(309,88)"/>
<path d="M0 0 C0.66 0 1.32 0 2 0 C2 4.29 2 8.58 2 13 C1.505 12.01 1.505 12.01 1 11 C0.38592285 11.36875244 -0.2281543 11.73750488 -0.86083984 12.11743164 C-3.68398883 13.79250004 -6.52855961 15.42734971 -9.375 17.0625 C-10.82326172 17.93358398 -10.82326172 17.93358398 -12.30078125 18.82226562 C-19.10379681 22.68035163 -23.38884891 23.62731609 -31 22 C-32.41774103 21.8098384 -33.83703043 21.6307635 -35.2578125 21.46484375 C-36.53398437 21.29082031 -37.81015625 21.11679688 -39.125 20.9375 C-41.07792969 20.67259766 -41.07792969 20.67259766 -43.0703125 20.40234375 C-44.03710938 20.26957031 -45.00390625 20.13679688 -46 20 C-44 18 -44 18 -42.08666992 17.93164062 C-41.30912354 18.00576172 -40.53157715 18.07988281 -39.73046875 18.15625 C-28.83348707 18.88291508 -20.18005193 18.19174684 -10.1875 13.5 C-9.28088623 13.09072266 -8.37427246 12.68144531 -7.44018555 12.25976562 C-2.84427269 10.01598548 -2.84427269 10.01598548 -0.21337891 5.87109375 C0.16025814 3.42398679 0.16025814 3.42398679 0 0 Z " fill="#FBC2A3" transform="translate(334,128)"/>
<path d="M0 0 C0 3.91093566 -1.79235544 6.10081082 -3.875 9.25 C-6.8934244 13.85877704 -8.72346606 17.70574345 -10 23 C-0.8742143 23.84432793 8.15069448 24.12761945 17.3125 24.0625 C18.54162109 24.05798828 19.77074219 24.05347656 21.03710938 24.04882812 C24.02479356 24.03720289 27.01236855 24.02086559 30 24 C19.9168655 30.72208967 4.99365598 28.21878701 -6.4765625 27.51171875 C-9.48471823 26.90170575 -10.92857381 26.28051381 -13 24 C-14.09284334 17.01155444 -9.90887783 12.39908874 -6 7 C-4.07316249 4.57577927 -2.08728055 2.29091768 0 0 Z " fill="#FAB898" transform="translate(148,204)"/>
<path d="M0 0 C0 3 0 3 -2.125 5.12890625 C-3.07375 5.93199219 -4.0225 6.73507813 -5 7.5625 C-11.90856639 13.60457578 -17.47360137 20.12565028 -21.9375 28.1875 C-25.80218659 34.89262564 -31.63401828 39.57546056 -39 42 C-41.23828125 42.1953125 -41.23828125 42.1953125 -43.3125 42.125 C-44.529375 42.08375 -45.74625 42.0425 -47 42 C-43.50939937 40.21116612 -39.93881504 38.69467475 -36.31640625 37.1953125 C-30.83254268 34.36552792 -27.92435693 30.66639496 -24.875 25.4375 C-19.17762197 16.13670426 -12.20135242 8.96216664 -3 3 C-1.20605554 1.37648891 -1.20605554 1.37648891 0 0 Z " fill="#FBBC9D" transform="translate(91,156)"/>
<path d="M0 0 C0.66 0.33 1.32 0.66 2 1 C1.66226563 1.65226562 1.32453125 2.30453125 0.9765625 2.9765625 C0.30753906 4.28753906 0.30753906 4.28753906 -0.375 5.625 C-0.84164062 6.53765625 -1.30828125 7.4503125 -1.7890625 8.390625 C-3.13855536 11.05465342 -3.13855536 11.05465342 -3.75 14.375 C-5.49987315 18.04973361 -7.70008319 18.72249589 -11.421875 20.12109375 C-12.27265625 20.41113281 -13.1234375 20.70117188 -14 21 C-14.74765625 21.30035156 -15.4953125 21.60070312 -16.265625 21.91015625 C-26.0514513 25.30362827 -36.78999189 24.26345793 -47 24 C-44.00950198 22.00633466 -42.85804812 21.66233787 -39.4296875 21.25390625 C-38.08390625 21.08084961 -38.08390625 21.08084961 -36.7109375 20.90429688 C-34.84387817 20.67927251 -32.97669332 20.45528684 -31.109375 20.23242188 C-25.80516604 19.54861716 -20.98614229 18.52806736 -15.96484375 16.66845703 C-14 16 -14 16 -10.125 15.3125 C-6.97956218 14.36623539 -6.97956218 14.36623539 -6.04296875 12.30859375 C-5.55110031 10.92241905 -5.09973517 9.52128046 -4.6875 8.109375 C-3.66431025 4.97004281 -1.92910146 2.66082961 0 0 Z " fill="#FBBEA0" transform="translate(327,115)"/>
<path d="M0 0 C0 3.69855113 -0.97820811 4.72752937 -3.125 7.6875 C-3.76695313 8.57695312 -4.40890625 9.46640625 -5.0703125 10.3828125 C-5.70710938 11.24648437 -6.34390625 12.11015625 -7 13 C-7.51304688 13.69867188 -8.02609375 14.39734375 -8.5546875 15.1171875 C-10.02083735 17.09054595 -11.50566446 19.04790598 -13 21 C-13.60199219 21.78890625 -14.20398438 22.5778125 -14.82421875 23.390625 C-21.94726139 32.64908713 -21.94726139 32.64908713 -26 34 C-27.72795352 34.06802967 -29.45835365 34.08495645 -31.1875 34.0625 C-32.08855469 34.05347656 -32.98960938 34.04445312 -33.91796875 34.03515625 C-34.60503906 34.02355469 -35.29210938 34.01195312 -36 34 C-33.76491561 31.76491561 -32.85999296 31.63954538 -29.875 30.9375 C-21.70856449 28.34206785 -17.3413505 20.54022289 -12.50390625 13.91015625 C-10.41312227 11.25458906 -8.03999272 8.95537545 -5.61328125 6.609375 C-3.54895846 4.55005057 -1.75923762 2.32219366 0 0 Z " fill="#FBC0A3" transform="translate(79,141)"/>
<path d="M0 0 C0.66 0.33 1.32 0.66 2 1 C1.53851563 1.29648438 1.07703125 1.59296875 0.6015625 1.8984375 C-5.71967666 6.62062802 -8.85491459 12.59501725 -12.32177734 19.51318359 C-15.37367297 25.44986817 -18.38959156 29.79653052 -25 32 C-27.39490986 32.06970052 -29.79167691 32.08448003 -32.1875 32.0625 C-33.45980469 32.05347656 -34.73210938 32.04445312 -36.04296875 32.03515625 C-37.50669922 32.01775391 -37.50669922 32.01775391 -39 32 C-39 31.67 -39 31.34 -39 31 C-38.20335937 30.90203125 -37.40671875 30.8040625 -36.5859375 30.703125 C-35.52632812 30.55359375 -34.46671875 30.4040625 -33.375 30.25 C-32.33085938 30.11078125 -31.28671875 29.9715625 -30.2109375 29.828125 C-24.846946 28.44471113 -21.4580104 26.05993538 -18.54296875 21.390625 C-17.74923184 20.01533336 -16.96434003 18.63490612 -16.1875 17.25 C-12.04832741 10.23226423 -7.50133869 3.75066934 0 0 Z " fill="#FBBFA1" transform="translate(74,129)"/>
<path d="M0 0 C0.33 0.66 0.66 1.32 1 2 C0.00664799 3.67063747 -0.99431758 5.33675599 -2 7 C-2.3738499 8.65804859 -2.71375149 10.32460432 -3 12 C1.69578359 11.88092069 6.39139087 11.7566255 11.08691406 11.62768555 C12.68127784 11.58461643 14.27567947 11.54292424 15.87011719 11.50268555 C18.17394375 11.44429695 20.47758459 11.38080789 22.78125 11.31640625 C23.83487732 11.29133751 23.83487732 11.29133751 24.90979004 11.26576233 C29.66237283 11.12638411 34.28921871 10.64888703 39 10 C32.28184452 16.71815548 16.89546513 15.29219893 8.1875 15.3125 C7.02412109 15.31781738 5.86074219 15.32313477 4.66210938 15.32861328 C-3.74212526 15.25787474 -3.74212526 15.25787474 -6 13 C-6.40407907 9.95425403 -6.25234805 8.43034355 -4.6875 5.76171875 C-4.130625 5.07722656 -3.57375 4.39273438 -3 3.6875 C-2.443125 2.99011719 -1.88625 2.29273438 -1.3125 1.57421875 C-0.6628125 0.79498047 -0.6628125 0.79498047 0 0 Z " fill="#FAB492" transform="translate(165,201)"/>
<path d="M0 0 C0 3 0 3 -1.45703125 5.6953125 C-3.22056981 9.47241027 -3.54781857 12.78762292 -3.6875 16.875 C-3.790625 19.22625 -3.89375 21.5775 -4 24 C4.58 24.66 13.16 25.32 22 26 C18.32396921 28.45068719 15.55746958 28.26598494 11.3125 28.1875 C10.59368652 28.17960449 9.87487305 28.17170898 9.13427734 28.16357422 C-4.04861931 27.95138069 -4.04861931 27.95138069 -7 25 C-8.09077004 17.2777342 -8.14457879 10.60244226 -3.5 4.0625 C-2.3670353 2.68001331 -1.21185929 1.31387805 0 0 Z " fill="#FAB797" transform="translate(125,219)"/>
<path d="M0 0 C0.556875 0.226875 1.11375 0.45375 1.6875 0.6875 C-0.3125 2.6875 -0.3125 2.6875 -3.62109375 4.72265625 C-8.18416974 7.94622197 -10.05671224 12.16378781 -12.375 17.125 C-15.34568208 23.39105535 -18.10613916 28.04031289 -23.3125 32.6875 C-24.3025 32.3575 -25.2925 32.0275 -26.3125 31.6875 C-25.38630859 30.30691406 -25.38630859 30.30691406 -24.44140625 28.8984375 C-23.58588173 27.61982898 -22.73041761 26.34118005 -21.875 25.0625 C-21.42487549 24.39186523 -20.97475098 23.72123047 -20.51098633 23.03027344 C-18.22582828 19.61194278 -15.97859672 16.17974842 -13.8203125 12.6796875 C-13.42900146 12.0501416 -13.03769043 11.4205957 -12.63452148 10.77197266 C-11.89543794 9.57690621 -11.16528414 8.37625613 -10.44555664 7.16943359 C-7.9589096 3.16740294 -5.10709032 -0.69014734 0 0 Z " fill="#39811E" transform="translate(201.3125,87.3125)"/>
<path d="M0 0 C0.66 0.33 1.32 0.66 2 1 C0.98679687 1.99580078 0.98679687 1.99580078 -0.046875 3.01171875 C-0.93890625 3.89472656 -1.8309375 4.77773437 -2.75 5.6875 C-3.63171875 6.55761719 -4.5134375 7.42773438 -5.421875 8.32421875 C-8.01192029 10.90961591 -8.01192029 10.90961591 -10.03125 13.6640625 C-14.80349094 19.32636425 -22.88594372 21.77343857 -30 23 C-32.2265625 22.5390625 -32.2265625 22.5390625 -34 22 C-32.96101562 21.59910156 -31.92203125 21.19820312 -30.8515625 20.78515625 C-21.74946694 17.12945924 -14.85867649 13.20971111 -8 6 C-3.17564403 1.05854801 -3.17564403 1.05854801 0 0 Z " fill="#F6BD9F" transform="translate(196,129)"/>
<path d="M0 0 C0.95648438 0.00902344 1.91296875 0.01804688 2.8984375 0.02734375 C5.22423525 0.05060173 7.54947294 0.08327787 9.875 0.125 C5.42052841 2.3522358 2.55524817 3.28909254 -2.5 3.5625 C-7.23909648 3.86354916 -11.82772981 4.34124698 -16.5 5.1875 C-21.14431321 6.02795883 -25.41292556 6.30623363 -30.125 6.125 C-30.125 5.135 -30.125 4.145 -30.125 3.125 C-28.84625 3.00125 -27.5675 2.8775 -26.25 2.75 C-22.92577538 2.42830084 -19.7538529 1.82033851 -16.5 1.09375 C-10.96229216 -0.03683535 -5.6332993 -0.10285518 0 0 Z " fill="#FABDA0" transform="translate(267.125,181.875)"/>
<path d="M0 0 C0.66 0.33 1.32 0.66 2 1 C0.17921965 2.93002717 -1.65521553 4.84313144 -3.5 6.75 C-4.0053125 7.28882812 -4.510625 7.82765625 -5.03125 8.3828125 C-10.23418124 13.71581702 -15.32610698 17.13416056 -22.9375 17.390625 C-24.62544806 17.36445526 -26.31319385 17.3173686 -28 17.25 C-28.87011719 17.23195313 -29.74023438 17.21390625 -30.63671875 17.1953125 C-32.75829907 17.14868436 -34.87930335 17.07696077 -37 17 C-33.40657783 14.60438522 -31.15009718 14.58046348 -26.875 14.1875 C-15.46010354 12.8714969 -8.61976475 7.25211941 0 0 Z " fill="#F9BD9F" transform="translate(271,73)"/>
<path d="M0 0 C0.66 0.33 1.32 0.66 2 1 C-11.27917457 9.37165353 -27.7578415 9.9216434 -43 7 C-43.33 6.34 -43.66 5.68 -44 5 C-42.87525269 4.970271 -42.87525269 4.970271 -41.7277832 4.93994141 C-38.25573174 4.84335471 -34.78417586 4.73422944 -31.3125 4.625 C-29.54422852 4.57859375 -29.54422852 4.57859375 -27.74023438 4.53125 C-14.3834287 4.46583375 -14.3834287 4.46583375 -1.7590332 0.86962891 C-1.17855225 0.58265137 -0.59807129 0.29567383 0 0 Z " fill="#FBB491" transform="translate(167,171)"/>
<path d="M0 0 C0 3.90838866 -1.50567876 5.11594107 -4 8 C-3.41210693 7.99476318 -2.82421387 7.98952637 -2.21850586 7.98413086 C9.57107607 7.89330912 21.24933388 7.97501978 33 9 C33 9.33 33 9.66 33 10 C26.23408165 11.08534013 19.59430228 11.18611456 12.7644043 11.18530273 C10.67541817 11.18751278 8.58694151 11.20578169 6.49804688 11.22460938 C5.18255859 11.22654297 3.86707031 11.22847656 2.51171875 11.23046875 C1.30990967 11.23457764 0.10810059 11.23868652 -1.13012695 11.24291992 C-4 11 -4 11 -6 9 C-5.88679697 5.71711224 -4.71715137 4.69645513 -2.4375 2.25 C-1.633125 1.5075 -0.82875 0.765 0 0 Z " fill="#FABB9C" transform="translate(188,191)"/>
<path d="M0 0 C-5.81248552 2.82730777 -11.53839875 4.82690747 -17.8125 6.38671875 C-19.95921249 6.79588829 -19.95921249 6.79588829 -21 8 C-28.02405122 9.56216724 -34.81998705 10.23933376 -42 10 C-42 9.67 -42 9.34 -42 9 C-40.52473958 8.59765625 -39.04947917 8.1953125 -37.57421875 7.79296875 C-36.63126953 7.53580078 -35.68832031 7.27863281 -34.71679688 7.01367188 C-25.88671875 4.60546875 -25.88671875 4.60546875 -22.9543457 3.80712891 C-20.95453763 3.26078022 -18.95569948 2.71087097 -16.95776367 2.15771484 C-15.50527222 1.75673584 -15.50527222 1.75673584 -14.0234375 1.34765625 C-13.15509277 1.10668213 -12.28674805 0.86570801 -11.39208984 0.61743164 C-3.06421648 -1.53210824 -3.06421648 -1.53210824 0 0 Z " fill="#F86D26" transform="translate(245,80)"/>
<path d="M0 0 C0.79198288 0.0028299 1.58396576 0.00565979 2.39994812 0.00857544 C4.91652874 0.01972387 7.43274664 0.04481828 9.94921875 0.0703125 C11.66080213 0.08034921 13.37239112 0.08947386 15.08398438 0.09765625 C19.26836781 0.11964569 23.45248189 0.15413842 27.63671875 0.1953125 C27.63671875 1.1853125 27.63671875 2.1753125 27.63671875 3.1953125 C26.55253662 3.18483887 25.46835449 3.17436523 24.35131836 3.16357422 C20.30529113 3.12720607 16.25927818 3.10435113 12.21313477 3.08544922 C10.4663652 3.07542982 8.71961225 3.06181055 6.97290039 3.04443359 C4.4532459 3.02000581 1.93381436 3.00878861 -0.5859375 3 C-1.35913834 2.98967743 -2.13233917 2.97935486 -2.92897034 2.96871948 C-7.78457721 2.96772859 -11.75377798 3.65258356 -16.36328125 5.1953125 C-11.86060338 -0.01831451 -6.51625506 -0.08831424 0 0 Z " fill="#FABA9B" transform="translate(105.36328125,119.8046875)"/>
<path d="M0 0 C0.66 0.33 1.32 0.66 2 1 C-4.10253683 6.07644657 -10.3707837 10.63066708 -17.015625 14.96875 C-21.55213707 18.05642837 -25.78371809 21.49265045 -30 25 C-30.66 24.34 -31.32 23.68 -32 23 C-27.84487326 16.84425668 -22.16409842 13.83071052 -15.84960938 10.11914062 C-13.9038547 8.9418255 -12.00535788 7.70890587 -10.109375 6.453125 C-9.47507568 6.03393799 -8.84077637 5.61475098 -8.18725586 5.18286133 C-6.95260638 4.36270935 -5.72153173 3.53714618 -4.49438477 2.70581055 C-3.03420316 1.74365254 -1.5207523 0.86324433 0 0 Z " fill="#3B811E" transform="translate(221,89)"/>
<path d="M0 0 C0.66 0.33 1.32 0.66 2 1 C0.39583333 2.02083333 -1.20833333 3.04166667 -2.8125 4.0625 C-3.82441406 4.70703125 -4.83632812 5.3515625 -5.87890625 6.015625 C-7.80120444 7.23781209 -9.72529973 8.45718451 -11.65234375 9.671875 C-12.50957031 10.21328125 -13.36679688 10.7546875 -14.25 11.3125 C-15.14203125 11.87582031 -16.0340625 12.43914062 -16.953125 13.01953125 C-19.3037952 14.54746688 -21.61677895 16.10487917 -23.921875 17.69921875 C-24.59702148 18.16223389 -25.27216797 18.62524902 -25.96777344 19.10229492 C-27.30518867 20.0221294 -28.63678676 20.95048939 -29.96191406 21.88793945 C-31.59013448 23.00385041 -33.29133584 24.01165504 -35 25 C-35.99 24.67 -36.98 24.34 -38 24 C-29.81486366 16.53602105 -20.99446649 11.34297341 -11.24511719 6.20898438 C-9.65295096 5.35161083 -8.07676596 4.46425602 -6.51269531 3.55664062 C-5.30371582 2.85571289 -5.30371582 2.85571289 -4.0703125 2.140625 C-2.97227295 1.4914209 -2.97227295 1.4914209 -1.85205078 0.82910156 C-0.93528564 0.41869629 -0.93528564 0.41869629 0 0 Z " fill="#F9BA9B" transform="translate(204,110)"/>
<path d="M0 0 C0.66 0.33 1.32 0.66 2 1 C1.67 1.33 1.34 1.66 1 2 C1.66 2.66 2.32 3.32 3 4 C-5.11368374 7.0212546 -13.09037766 7.45038718 -21.64916992 7.70874023 C-27.87659764 7.89264001 -27.87659764 7.89264001 -34 9 C-33 7 -33 7 -31.0859375 5.93359375 C-25.8020881 4.3350621 -20.32308322 4.24199433 -14.8359375 3.87695312 C-9.21286819 3.43112406 -5.10228616 2.36266813 0 0 Z " fill="#FBB390" transform="translate(288,127)"/>
<path d="M0 0 C-5.23125595 3.48750396 -10.63962874 6.42959637 -16.25 9.25 C-16.94738281 9.60320312 -17.64476562 9.95640625 -18.36328125 10.3203125 C-21.54929494 11.90411121 -24.5301197 13.22658144 -28 14 C-24.94734716 8.38629036 -21.93404095 6.53010615 -16.0625 4.25 C-15.35931641 3.95996094 -14.65613281 3.66992188 -13.93164062 3.37109375 C-12.57103236 2.81256852 -11.20605814 2.26453101 -9.83642578 1.72851562 C-8.26795039 1.10629672 -6.72271658 0.42601966 -5.18359375 -0.265625 C-3 -1 -3 -1 0 0 Z " fill="#F7BC9E" transform="translate(186,104)"/>
<path d="M0 0 C-1.45631068 6.55339806 -1.45631068 6.55339806 -3.75 8.4375 C-6.55794253 9.13948563 -9.11779715 9.13100922 -12 9 C-12 6.36 -12 3.72 -12 1 C-10.37512529 0.83211627 -8.75009558 0.66573213 -7.125 0.5 C-6.22007812 0.4071875 -5.31515625 0.314375 -4.3828125 0.21875 C-2 0 -2 0 0 0 Z " fill="#EF894F" transform="translate(149,110)"/>
<path d="M0 0 C0.66 0.33 1.32 0.66 2 1 C-3.50589337 7.81864109 -9.11465278 14.50527078 -15 21 C-15 16.38979591 -12.53848706 13.0229614 -10.41015625 9.0078125 C-9.12564183 6.26798951 -8.43390133 3.97689268 -8 1 C-7.34 1.66 -6.68 2.32 -6 3 C-4.576875 2.2265625 -4.576875 2.2265625 -3.125 1.4375 C-2.09375 0.963125 -1.0625 0.48875 0 0 Z " fill="#E9894D" transform="translate(160,107)"/>
<path d="M0 0 C1 3 1 3 0.0625 5.25 C-1.54508604 9.41081093 -1.85628102 12.87323692 -0.16015625 17.0859375 C2.88689142 22.60550533 6.22316857 24.65010247 12 27 C12 27.33 12 27.66 12 28 C6.46157527 27.77394185 3.54840855 26.49184684 -0.484375 22.66796875 C-3.94110252 18.86378666 -5.01926389 16.21362492 -4.9375 11.0625 C-4.20948073 6.76884088 -2.34597076 3.63247085 0 0 Z " fill="#FAB391" transform="translate(106,236)"/>
<path d="M0 0 C1.99788438 0.34578768 3.99759451 0.68143549 6 1 C6 1.33 6 1.66 6 2 C-0.95214281 3.31191997 -7.88444903 3.11058058 -14.9375 3.0625 C-16.19369141 3.05798828 -17.44988281 3.05347656 -18.74414062 3.04882812 C-21.82947663 3.03709681 -24.91471316 3.020681 -28 3 C-25.0801353 1.36465911 -22.69726733 0.66648996 -19.375 0.33203125 C-18.50359375 0.24373047 -17.6321875 0.15542969 -16.734375 0.06445312 C-15.38085938 -0.06026367 -15.38085938 -0.06026367 -14 -0.1875 C-13.09765625 -0.28224609 -12.1953125 -0.37699219 -11.265625 -0.47460938 C-7.19937101 -0.86860292 -3.95453964 -1.14046099 0 0 Z " fill="#FBB593" transform="translate(249,98)"/>
<path d="M0 0 C-2.51567458 1.92351166 -5.03844609 3.837501 -7.5625 5.75 C-8.26697266 6.28882813 -8.97144531 6.82765625 -9.69726562 7.3828125 C-13.97454298 10.61540921 -18.19535216 13.60070549 -23 16 C-23.66 15.67 -24.32 15.34 -25 15 C-5.28651685 -2.64325843 -5.28651685 -2.64325843 0 0 Z " fill="#FBB99A" transform="translate(223,154)"/>
<path d="M0 0 C0.66 0.33 1.32 0.66 2 1 C1.67 1.66 1.34 2.32 1 3 C7.6 3.33 14.2 3.66 21 4 C17.6592152 7.3407848 13.70488778 6.9821998 9.1328125 7.09765625 C7.79683965 7.09110736 6.46088291 7.07932798 5.125 7.0625 C4.09246094 7.05573242 4.09246094 7.05573242 3.0390625 7.04882812 C1.35933665 7.03716336 -0.32034375 7.01923271 -2 7 C-2 3 -2 3 0 0 Z " fill="#FAB797" transform="translate(212,185)"/>
<path d="M0 0 C-4.90537417 5.66737404 -12.31227359 7.55421324 -19.62890625 8.25 C-21.42120918 8.25 -23.21318443 8.1401424 -25 8 C-20.91249628 5.27499752 -16.555832 3.92745982 -11.9375 2.3125 C-11.01388672 1.97927734 -10.09027344 1.64605469 -9.13867188 1.30273438 C-8.25630859 0.99271484 -7.37394531 0.68269531 -6.46484375 0.36328125 C-5.25235962 -0.06537231 -5.25235962 -0.06537231 -4.01538086 -0.50268555 C-2 -1 -2 -1 0 0 Z " fill="#FAB390" transform="translate(169,126)"/>
<path d="M0 0 C2.31 0.33 4.62 0.66 7 1 C3.88326378 4.38388504 1.45076606 6.67679928 -3 8 C-3.66 8 -4.32 8 -5 8 C-7.34869747 9.97290587 -8.00102287 11.00306862 -9 14 C-10.65 14.33 -12.3 14.66 -14 15 C-6.94975689 6.63371151 -6.94975689 6.63371151 -4 4 C-3.34 4 -2.68 4 -2 4 C-1.34 2.68 -0.68 1.36 0 0 Z " fill="#E98547" transform="translate(134,143)"/>
<path d="M0 0 C1.5753545 2.9710633 2.69034664 5.93674473 3.75 9.125 C5.80004398 14.89463135 8.66959943 19.88228446 12 25 C8.50201151 23.83400384 8.25835936 23.20212888 6.5 20.125 C4.89434168 17.33568331 3.28364093 15.2528641 1 13 C-2 7.66666667 -2 7.66666667 -2 4 C-1.34 4 -0.68 4 0 4 C0 2.68 0 1.36 0 0 Z " fill="#FC7634" transform="translate(44,247)"/>
<path d="M0 0 C-5.93329295 3.95552864 -13.01245997 4.465836 -20 4 C-23 3 -23 3 -25 2 C-22.14554531 1.0485151 -20.78275636 0.96866901 -17.875 1.125 C-13.44319126 1.21175645 -10.09545853 0.18822822 -6.04296875 -1.5390625 C-3.38198097 -2.13943833 -2.26210849 -1.41318239 0 0 Z " fill="#FBB493" transform="translate(259,111)"/>
<path d="M0 0 C0 0.66 0 1.32 0 2 C-5.5439852 4.80512399 -9.77270879 5.3935213 -15.9375 5.1875 C-16.71673828 5.17396484 -17.49597656 5.16042969 -18.29882812 5.14648438 C-20.19952404 5.11150224 -22.09985834 5.05770959 -24 5 C-24 4.67 -24 4.34 -24 4 C-20.75128084 3.32698711 -17.50083621 2.6627049 -14.25 2 C-12.86941406 1.71382812 -12.86941406 1.71382812 -11.4609375 1.421875 C-10.57148437 1.24140625 -9.68203125 1.0609375 -8.765625 0.875 C-7.94868164 0.70742187 -7.13173828 0.53984375 -6.29003906 0.3671875 C-4 0 -4 0 0 0 Z " fill="#FBB594" transform="translate(68,210)"/>
<path d="M0 0 C10.33993211 0.58834965 20.67168969 1.23069638 31 2 C31 2.33 31 2.66 31 3 C20.00617316 4.02411631 10.66642364 4.33561305 0 1 C0 0.67 0 0.34 0 0 Z " fill="#FBB796" transform="translate(121,161)"/>
<path d="M0 0 C0.66 0.33 1.32 0.66 2 1 C0.93521458 4.10000819 0.04202519 4.97462191 -2.8203125 6.703125 C-3.91085938 7.21359375 -5.00140625 7.7240625 -6.125 8.25 C-7.22070312 8.77078125 -8.31640625 9.2915625 -9.4453125 9.828125 C-10.28835937 10.21484375 -11.13140625 10.6015625 -12 11 C-10.65758968 6.53038381 -9.01786257 4.92592711 -5 2.625 C-4.113125 2.10164062 -3.22625 1.57828125 -2.3125 1.0390625 C-1.549375 0.69617188 -0.78625 0.35328125 0 0 Z " fill="#FABEA1" transform="translate(198,141)"/>
<path d="M0 0 C10.88028169 -0.57042254 10.88028169 -0.57042254 15 3 C15 3.66 15 4.32 15 5 C14.1642041 4.76228882 14.1642041 4.76228882 13.31152344 4.51977539 C10.84122989 3.96429853 8.54446396 3.791532 6.015625 3.68359375 C5.08105469 3.64169922 4.14648438 3.59980469 3.18359375 3.55664062 C2.21550781 3.51732422 1.24742187 3.47800781 0.25 3.4375 C-0.73355469 3.39431641 -1.71710938 3.35113281 -2.73046875 3.30664062 C-5.15351275 3.20077948 -7.5766554 3.09869829 -10 3 C-10 2.67 -10 2.34 -10 2 C-6.7 1.67 -3.4 1.34 0 1 C0 0.67 0 0.34 0 0 Z " fill="#FC7635" transform="translate(294,65)"/>
<path d="M0 0 C0.66 0.33 1.32 0.66 2 1 C0.92643323 2.15498897 -0.15929788 3.29867867 -1.25 4.4375 C-1.85328125 5.07558594 -2.4565625 5.71367188 -3.078125 6.37109375 C-5 8 -5 8 -7.03125 8.5 C-9.68527597 9.17403834 -10.55999733 10.44999667 -12.25 12.5625 C-12.77078125 13.20316406 -13.2915625 13.84382813 -13.828125 14.50390625 C-14.21484375 14.99761719 -14.6015625 15.49132812 -15 16 C-15.33 15.34 -15.66 14.68 -16 14 C-15.07544441 12.491987 -14.1349253 10.99375083 -13.1875 9.5 C-12.66542969 8.6646875 -12.14335937 7.829375 -11.60546875 6.96875 C-11.07566406 6.3190625 -10.54585937 5.669375 -10 5 C-9.01 5 -8.02 5 -7 5 C-4.06224856 3.80653848 -2.12669835 2.33936818 0 0 Z " fill="#598E38" transform="translate(183,114)"/>
<path d="M0 0 C0 3 0 3 -1.4375 5.5625 C-3.46155626 10.01542378 -3.7226853 14.16133658 -4 19 C-4.33 19 -4.66 19 -5 19 C-5.33 20.98 -5.66 22.96 -6 25 C-6.33 25 -6.66 25 -7 25 C-7.8103483 15.35299645 -7.89282855 9.42279674 -1.53125 1.66015625 C-1.0259375 1.11230469 -0.520625 0.56445312 0 0 Z " fill="#F9AD89" transform="translate(125,219)"/>
<path d="M0 0 C0.33 0.66 0.66 1.32 1 2 C0.5875 2.66 0.175 3.32 -0.25 4 C-2.30808623 7.52814783 -3.22441444 10.95878057 -4.25390625 14.890625 C-5 17 -5 17 -7 18 C-7.71969331 11.37882151 -5.52844262 6.58135468 -2 1 C-1.34 0.67 -0.68 0.34 0 0 Z " fill="#2C811A" transform="translate(160,82)"/>
<path d="M0 0 C0.33 0.66 0.66 1.32 1 2 C0.33333333 4 -0.33333333 6 -1 8 C-1.50135199 10.62778044 -1.50135199 10.62778044 -1 13 C0.9004467 14.84315671 0.9004467 14.84315671 3 16 C0.2351335 16.22417836 -1.46277487 16.32233508 -3.875 14.875 C-5 13 -5 13 -4.9375 10.25 C-3.80881146 6.33721306 -2.1429452 3.45636323 0 0 Z " fill="#FAB493" transform="translate(93,251)"/>
<path d="M0 0 C0.33 0 0.66 0 1 0 C0.66009167 5.37992836 0.31442207 9.53273547 -3 14 C-3.66 13.67 -4.32 13.34 -5 13 C-4.48474397 7.71862571 -2.74522883 4.42778844 0 0 Z " fill="#33811C" transform="translate(135,118)"/>
<path d="M0 0 C-0.3125 1.9375 -0.3125 1.9375 -1 4 C-4.47325181 5.1577506 -7.36067448 5.06866652 -11 5 C-11 3.68 -11 2.36 -11 1 C-9.54182203 0.83197949 -8.0834516 0.66562857 -6.625 0.5 C-5.81289062 0.4071875 -5.00078125 0.314375 -4.1640625 0.21875 C-2 0 -2 0 0 0 Z " fill="#F9BD9F" transform="translate(149,110)"/>
<path d="M0 0 C1 3 1 3 0.3190918 4.77758789 C-0.05046631 5.41946045 -0.42002441 6.06133301 -0.80078125 6.72265625 C-1.20103516 7.42583984 -1.60128906 8.12902344 -2.01367188 8.85351562 C-2.44228516 9.58248047 -2.87089844 10.31144531 -3.3125 11.0625 C-3.93801758 12.16174805 -3.93801758 12.16174805 -4.57617188 13.28320312 C-7.68805804 18.68805804 -7.68805804 18.68805804 -10 21 C-10.76953125 19.40625 -10.76953125 19.40625 -11 17 C-9.64441164 14.67109332 -8.29840429 12.6365678 -6.6875 10.5 C-2.95818922 5.48725486 -2.95818922 5.48725486 0 0 Z " fill="#FBB390" transform="translate(102,180)"/>
<path d="M0 0 C0 3.75679178 -1.11311643 5.01429843 -3.25 8.0625 C-3.85328125 8.94035156 -4.4565625 9.81820312 -5.078125 10.72265625 C-7.00077205 13.00091485 -8.21868614 14.01541489 -11 15 C-11.99 15 -12.98 15 -14 15 C-12.98679687 14.00419922 -12.98679687 14.00419922 -11.953125 12.98828125 C-11.06109375 12.10527344 -10.1690625 11.22226563 -9.25 10.3125 C-8.36828125 9.44238281 -7.4865625 8.57226562 -6.578125 7.67578125 C-4.21194702 5.21997532 -2.08107444 2.69858952 0 0 Z " fill="#FBB797" transform="translate(79,141)"/>
<path d="M0 0 C0 0.66 0 1.32 0 2 C-6.88002171 4.62096065 -13.72176039 4.18170362 -21 4 C-21 3.67 -21 3.34 -21 3 C-20.07380859 2.94392578 -20.07380859 2.94392578 -19.12890625 2.88671875 C-13.64677793 2.46116541 -8.94123216 1.51997966 -3.8125 -0.4765625 C-2 -1 -2 -1 0 0 Z " fill="#FBB593" transform="translate(71,229)"/>
<path d="M0 0 C0 0.66 0 1.32 0 2 C-5.12919186 4.10428384 -9.5610835 4.21755666 -15 4 C-10.27844707 -0.02206361 -6.0476984 -0.14064415 0 0 Z " fill="#34811C" transform="translate(180,133)"/>
<path d="M0 0 C0.66 0 1.32 0 2 0 C-0.61756132 5.67138285 -4.75311807 10.56934643 -10 14 C-9.67 12.02 -9.34 10.04 -9 8 C-8.01 7.67 -7.02 7.34 -6 7 C-4.41441619 5.36497064 -4.41441619 5.36497064 -2.9375 3.4375 C-1.40234375 1.49609375 -1.40234375 1.49609375 0 0 Z " fill="#A9904A" transform="translate(175,121)"/>
<path d="M0 0 C-2.94209022 3.67761277 -5.59081436 4.72431991 -10 5.80078125 C-12.23734399 6.02364169 -13.86521444 5.66235534 -16 5 C-13.90163996 3.96728358 -11.79609109 2.94916283 -9.6875 1.9375 C-8.51574219 1.36902344 -7.34398437 0.80054688 -6.13671875 0.21484375 C-3 -1 -3 -1 0 0 Z " fill="#E9B995" transform="translate(178,146)"/>
<path d="M0 0 C-0.33 0.99 -0.66 1.98 -1 3 C-4.14930893 4.04976964 -6.38814456 4.10131595 -9.6875 4.0625 C-10.68136719 4.05347656 -11.67523438 4.04445313 -12.69921875 4.03515625 C-13.83810547 4.01775391 -13.83810547 4.01775391 -15 4 C-12.56815788 1.56815788 -10.79947325 1.20248949 -7.5 0.3125 C-6.5203125 0.04050781 -5.540625 -0.23148437 -4.53125 -0.51171875 C-2 -1 -2 -1 0 0 Z " fill="#FBC3A8" transform="translate(262,95)"/>
<path d="M0 0 C-3.25158583 1.77857827 -6.48913394 2.84277612 -10.0625 3.8125 C-11.62677734 4.25529297 -11.62677734 4.25529297 -13.22265625 4.70703125 C-16 5 -16 5 -17.87109375 3.57421875 C-18.24363281 3.05472656 -18.61617187 2.53523437 -19 2 C-12.6221448 0.82706111 -6.49678438 -0.29530838 0 0 Z " fill="#56862B" transform="translate(187,148)"/>
<path d="M0 0 C6.93 0 13.86 0 21 0 C15.47017435 2.76491282 13.11226863 3.09858498 7 3 C7 2.67 7 2.34 7 2 C4.69 1.67 2.38 1.34 0 1 C0 0.67 0 0.34 0 0 Z " fill="#F9A176" transform="translate(256,182)"/>
<path d="M0 0 C-6.17121215 3.3284547 -10.09212392 4.50717296 -17 3 C-16.67 2.34 -16.34 1.68 -16 1 C-13.1640625 0.33203125 -13.1640625 0.33203125 -9.625 -0.1875 C-8.46226562 -0.36667969 -7.29953125 -0.54585937 -6.1015625 -0.73046875 C-3 -1 -3 -1 0 0 Z " fill="#EBB996" transform="translate(152,140)"/>
<path d="M0 0 C-2 3 -2 3 -3.9453125 3.51171875 C-4.66460937 3.56972656 -5.38390625 3.62773438 -6.125 3.6875 C-8.043125 3.8421875 -8.043125 3.8421875 -10 4 C-9.67 2.68 -9.34 1.36 -9 0 C-3.375 -1.125 -3.375 -1.125 0 0 Z " fill="#F4BE9F" transform="translate(146,119)"/>
<path d="M0 0 C0.33 0 0.66 0 1 0 C1.33 3.96 1.66 7.92 2 12 C3.32 12.33 4.64 12.66 6 13 C5.67 13.66 5.34 14.32 5 15 C3.35 14.67 1.7 14.34 0 14 C0 9.38 0 4.76 0 0 Z " fill="#FAC1A5" transform="translate(119,231)"/>
<path d="M0 0 C1.32 0.66 2.64 1.32 4 2 C2.35 4.97 0.7 7.94 -1 11 C-1.66 11 -2.32 11 -3 11 C-2.44894091 7.0507432 -1.61064629 3.65079826 0 0 Z " fill="#7D832E" transform="translate(167,94)"/>
<path d="M0 0 C0.66 0.33 1.32 0.66 2 1 C0.71034824 2.37562854 -0.62689293 3.70766393 -2 5 C-2.66 5 -3.32 5 -4 5 C-5.20628008 7.33214148 -6.1654738 9.49642139 -7 12 C-7.99 12 -8.98 12 -10 12 C-8.62968895 6.34746692 -4.32310587 3.4886459 0 0 Z " fill="#FEAD6C" transform="translate(45,148)"/>
<path d="M0 0 C0.33 0.66 0.66 1.32 1 2 C-0.07674702 4.28258633 -1.19546116 6.4356434 -2.4375 8.625 C-2.77587891 9.23601562 -3.11425781 9.84703125 -3.46289062 10.4765625 C-4.30146192 11.988353 -5.14982577 13.49470399 -6 15 C-6.99 14.34 -7.98 13.68 -9 13 C-8.51789063 12.31292969 -8.03578125 11.62585938 -7.5390625 10.91796875 C-6.90742188 10.01691406 -6.27578125 9.11585937 -5.625 8.1875 C-4.99851562 7.29417969 -4.37203125 6.40085937 -3.7265625 5.48046875 C-2.46449761 3.66732122 -1.22541192 1.83811789 0 0 Z " fill="#FBB898" transform="translate(309,88)"/>
<path d="M0 0 C0.99 0 1.98 0 3 0 C1.55575365 3.23861303 -0.25772247 5.61969163 -2.625 8.25 C-3.25664062 8.95640625 -3.88828125 9.6628125 -4.5390625 10.390625 C-5.02117187 10.92171875 -5.50328125 11.4528125 -6 12 C-6 8.43041489 -5.13243327 7.2511948 -3.1875 4.3125 C-2.66542969 3.50425781 -2.14335937 2.69601563 -1.60546875 1.86328125 C-1.07566406 1.24839844 -0.54585937 0.63351563 0 0 Z " fill="#D6A16E" transform="translate(151,116)"/>
<path d="M0 0 C0 3.90838866 -1.50567876 5.11594107 -4 8 C-0.7 8 2.6 8 6 8 C6 8.33 6 8.66 6 9 C2.37 9.33 -1.26 9.66 -5 10 C-5.33 8.68 -5.66 7.36 -6 6 C-4.78515625 4.296875 -4.78515625 4.296875 -3.0625 2.75 C-2.21365234 1.96882812 -2.21365234 1.96882812 -1.34765625 1.171875 C-0.90292969 0.78515625 -0.45820313 0.3984375 0 0 Z " fill="#F9AC86" transform="translate(188,191)"/>
<path d="M0 0 C0.66 0.33 1.32 0.66 2 1 C0.95199219 1.83144531 0.95199219 1.83144531 -0.1171875 2.6796875 C-1.02726562 3.40414062 -1.93734375 4.12859375 -2.875 4.875 C-3.77992187 5.59429687 -4.68484375 6.31359375 -5.6171875 7.0546875 C-8.00265176 8.93560474 -8.00265176 8.93560474 -10 11 C-10.99 10.67 -11.98 10.34 -13 10 C-11.3970551 8.70681744 -9.79259858 7.41550844 -8.1875 6.125 C-7.29417969 5.40570313 -6.40085937 4.68640625 -5.48046875 3.9453125 C-3 2 -3 2 0 0 Z " fill="#FBAD87" transform="translate(120,188)"/>
<path d="M0 0 C-1.52059907 3.88014936 -3.86078531 5.73906562 -7.125 8.25 C-8.03507812 8.95640625 -8.94515625 9.6628125 -9.8828125 10.390625 C-10.58148438 10.92171875 -11.28015625 11.4528125 -12 12 C-12.66 11.67 -13.32 11.34 -14 11 C-12.04709472 9.16056628 -10.08818082 7.32840869 -8.125 5.5 C-7.29162109 4.71302734 -7.29162109 4.71302734 -6.44140625 3.91015625 C-2.2265625 0 -2.2265625 0 0 0 Z " fill="#5A8124" transform="translate(107,167)"/>
<path d="M0 0 C0 0.99 0 1.98 0 3 C-3.3 4.32 -6.6 5.64 -10 7 C-10 6.01 -10 5.02 -10 4 C-6.70450534 2.27735506 -3.66881155 0.70554068 0 0 Z " fill="#F9B694" transform="translate(163,104)"/>
<path d="M0 0 C0.66 0.33 1.32 0.66 2 1 C-1.00517424 4.86379545 -3.45081065 7.90983192 -8 10 C-8.66 9.67 -9.32 9.34 -10 9 C-6.7 6.03 -3.4 3.06 0 0 Z " fill="#E88647" transform="translate(189,114)"/>
<path d="M0 0 C2 2 2 2 2.1171875 3.875 C1.99730469 4.926875 1.99730469 4.926875 1.875 6 C1.81054688 6.70125 1.74609375 7.4025 1.6796875 8.125 C1 10 1 10 -3 12 C-2.01 8.04 -1.02 4.08 0 0 Z " fill="#578124" transform="translate(152,98)"/>
<path d="M0 0 C-2.19636905 2.19636905 -4.23760649 3.58511552 -7 5 C-7.99 4.67 -8.98 4.34 -10 4 C-4.75 -1.425 -4.75 -1.425 0 0 Z " fill="#2A811A" transform="translate(203,88)"/>
<path d="M0 0 C0.66 0.33 1.32 0.66 2 1 C1.57847656 1.39832031 1.15695313 1.79664063 0.72265625 2.20703125 C0.17480469 2.73683594 -0.37304688 3.26664063 -0.9375 3.8125 C-1.75541016 4.59560547 -1.75541016 4.59560547 -2.58984375 5.39453125 C-4.23519092 7.05812198 -4.23519092 7.05812198 -5 10 C-6.65 10.33 -8.3 10.66 -10 11 C-6.79239749 7.19364503 -3.59253891 3.45436433 0 0 Z " fill="#CE833E" transform="translate(130,147)"/>
<path d="M0 0 C0 3.63195496 -0.95453155 4.74713911 -3 7.6875 C-3.556875 8.49574219 -4.11375 9.30398437 -4.6875 10.13671875 C-5.120625 10.75160156 -5.55375 11.36648437 -6 12 C-6.99 11.67 -7.98 11.34 -9 11 C-6.03 7.37 -3.06 3.74 0 0 Z " fill="#F9A77E" transform="translate(148,204)"/>
<path d="M0 0 C0.66 0.33 1.32 0.66 2 1 C-3.94 4.465 -3.94 4.465 -10 8 C-10.66 7.34 -11.32 6.68 -12 6 C-10.04669132 4.96958487 -8.08718472 3.9509107 -6.125 2.9375 C-5.03445312 2.36902344 -3.94390625 1.80054687 -2.8203125 1.21484375 C-1.42425781 0.61349609 -1.42425781 0.61349609 0 0 Z " fill="#648329" transform="translate(214,118)"/>
<path d="M0 0 C0.66 0.33 1.32 0.66 2 1 C-1.3 3.64 -4.6 6.28 -8 9 C-8.99 8.34 -9.98 7.68 -11 7 C-9.21475351 5.80286983 -7.4215972 4.61752721 -5.625 3.4375 C-4.62726563 2.77621094 -3.62953125 2.11492187 -2.6015625 1.43359375 C-1.74304688 0.96050781 -0.88453125 0.48742187 0 0 Z " fill="#5B8125" transform="translate(221,89)"/>
<path d="M0 0 C0.66 0 1.32 0 2 0 C0.84414715 3.91211733 -0.35534962 6.8745041 -3 10 C-3.2295711 6.63295715 -3.33943529 4.58629732 -1.625 1.625 C-1.08875 1.08875 -0.5525 0.5525 0 0 Z " fill="#FABC9E" transform="translate(139,216)"/>
<path d="M0 0 C0.66 0.33 1.32 0.66 2 1 C-1.32307692 4.93846154 -1.32307692 4.93846154 -4.75 5.25 C-5.4925 5.1675 -6.235 5.085 -7 5 C-4.63707344 2.47411298 -3.33537489 1.11179163 0 0 Z " fill="#F1BE9F" transform="translate(167,125)"/>
<path d="M0 0 C1.8871875 0.061875 1.8871875 0.061875 3.8125 0.125 C3.8125 1.115 3.8125 2.105 3.8125 3.125 C0.1825 2.795 -3.4475 2.465 -7.1875 2.125 C-4.09861478 0.06574319 -3.47814073 -0.1140374 0 0 Z " fill="#FBBC9D" transform="translate(130.1875,109.875)"/>
<path d="M0 0 C0.66 0 1.32 0 2 0 C1.67 2.64 1.34 5.28 1 8 C0.01 8.33 -0.98 8.66 -2 9 C-1.125 1.125 -1.125 1.125 0 0 Z " fill="#258119" transform="translate(138,87)"/>
<path d="M0 0 C1.485 0.99 1.485 0.99 3 2 C3 2.99 3 3.98 3 5 C4.65 5 6.3 5 8 5 C6.68 5.33 5.36 5.66 4 6 C4 6.66 4 7.32 4 8 C2.68 7.34 1.36 6.68 0 6 C0 4.02 0 2.04 0 0 Z " fill="#FAAE8A" transform="translate(135,222)"/>
<path d="M0 0 C2.97 0 5.94 0 9 0 C9 0.99 9 1.98 9 3 C6.36 3 3.72 3 1 3 C0.67 2.01 0.34 1.02 0 0 Z " fill="#F9AA84" transform="translate(236,185)"/>
<path d="M0 0 C0.99 0.33 1.98 0.66 3 1 C-0.96 4.465 -0.96 4.465 -5 8 C-5.66 7.67 -6.32 7.34 -7 7 C-4.69 4.69 -2.38 2.38 0 0 Z " fill="#50892E" transform="translate(175,124)"/>
<path d="M0 0 C0.8125 1.6875 0.8125 1.6875 1 4 C-1.4375 6.75 -1.4375 6.75 -4 9 C-3.7525 8.1028125 -3.7525 8.1028125 -3.5 7.1875 C-2.8885876 4.88655664 -2.8885876 4.88655664 -3 2 C-2.01 1.34 -1.02 0.68 0 0 Z " fill="#558123" transform="translate(144,124)"/>
<path d="M0 0 C0 3.99904969 -1.72586967 5.80200422 -4 9 C-4.99 8.34 -5.98 7.68 -7 7 C-4.69 4.69 -2.38 2.38 0 0 Z " fill="#FBB898" transform="translate(298,82)"/>
<path d="M0 0 C1.98 0 3.96 0 6 0 C3.31158141 2.25245881 1.35358125 3.88213958 -2 5 C-1.34 3.35 -0.68 1.7 0 0 Z " fill="#CEB388" transform="translate(188,147)"/>
<path d="M0 0 C-0.99 0.33 -1.98 0.66 -3 1 C-2.34 1.66 -1.68 2.32 -1 3 C-2.98 3.33 -4.96 3.66 -7 4 C-7 2.68 -7 1.36 -7 0 C-3.86650268 -1.04449911 -3.01031744 -0.93423645 0 0 Z " fill="#FBB593" transform="translate(307,122)"/>
<path d="M0 0 C0.99 0.99 1.98 1.98 3 3 C2.67 3.66 2.34 4.32 2 5 C0.35 4.67 -1.3 4.34 -3 4 C-3 3.01 -3 2.02 -3 1 C-2.01 0.67 -1.02 0.34 0 0 Z " fill="#FDDD64" transform="translate(152,237)"/>
<path d="M0 0 C2 0.6875 2 0.6875 4 2.6875 C2.02 3.0175 0.04 3.3475 -2 3.6875 C-2 3.0275 -2 2.3675 -2 1.6875 C-2.66 1.3575 -3.32 1.0275 -4 0.6875 C-2 -0.3125 -2 -0.3125 0 0 Z " fill="#5B8125" transform="translate(182,131.3125)"/>
<path d="M0 0 C-1.36983503 3.16115776 -1.9890638 3.9927092 -5 6 C-5.99 5.67 -6.98 5.34 -8 5 C-2.25 0 -2.25 0 0 0 Z " fill="#E1B994" transform="translate(174,129)"/>
<path d="M0 0 C0.66 0.33 1.32 0.66 2 1 C1.67 1.33 1.34 1.66 1 2 C1.66 2.66 2.32 3.32 3 4 C1.02 4.33 -0.96 4.66 -3 5 C-3 3.68 -3 2.36 -3 1 C-2.01 0.67 -1.02 0.34 0 0 Z " fill="#FBB491" transform="translate(288,127)"/>
<path d="M0 0 C-1.15173355 2.46800047 -2.04783565 4.04783565 -4 6 C-4.99 5.67 -5.98 5.34 -7 5 C-2.25 0 -2.25 0 0 0 Z " fill="#DFB289" transform="translate(177,121)"/>
<path d="M0 0 C0.33 0.99 0.66 1.98 1 3 C-0.98 3.33 -2.96 3.66 -5 4 C-3 1 -3 1 0 0 Z " fill="#FE9664" transform="translate(359,134)"/>
<path d="M0 0 C0.99 0.495 0.99 0.495 2 1 C1.01 1.495 1.01 1.495 0 2 C0 1.34 0 0.68 0 0 Z " fill="#FE9664" transform="translate(48,295)"/>
</svg>
