<?xml version="1.0" encoding="UTF-8"?>
<svg version="1.1" xmlns="http://www.w3.org/2000/svg" width="2500" height="2589">
<path d="M0 0 C1.94712891 -0.03867188 1.94712891 -0.03867188 3.93359375 -0.078125 C9.29390037 0.40655289 11.4927483 2.11196628 15.1328125 5.984375 C17.70006202 9.24303832 19.63083783 12.77684251 21.4375 16.5 C21.77990723 17.20125 22.12231445 17.9025 22.47509766 18.625 C59.10151754 95.02740708 69.87831866 186.83890087 85.875 269.5 C86.11614532 270.74366333 86.35729065 271.98732666 86.60574341 273.26867676 C87.27855445 276.74614014 87.94694685 280.22441544 88.61328125 283.703125 C88.8125824 284.73429443 89.01188354 285.76546387 89.21722412 286.82788086 C89.39602112 287.76801025 89.57481812 288.70813965 89.7590332 289.67675781 C89.91523636 290.49267395 90.07143951 291.30859009 90.2323761 292.14923096 C90.5625 294.25 90.5625 294.25 90.5625 297.25 C91.18253906 297.26417969 91.80257813 297.27835937 92.44140625 297.29296875 C119.54546285 298.75272143 143.93810658 316.90376712 162.5625 335.25 C163.05959473 335.73339844 163.55668945 336.21679688 164.06884766 336.71484375 C172.29600305 344.71700609 172.29600305 344.71700609 173.5625 347.25 C178.38579969 346.67771819 182.69079856 345.684115 187.27734375 344.09765625 C188.59547377 343.65036903 189.91393093 343.20404505 191.23266602 342.75854492 C191.92546661 342.52299896 192.61826721 342.287453 193.33206177 342.04476929 C243.58112942 325.07203067 296.65277977 315.51650103 349.5625 312.25 C350.74851807 312.16314941 351.93453613 312.07629883 353.15649414 311.98681641 C368.9596142 310.91822605 384.80491917 311.09765149 400.63549805 311.11962891 C404.81420839 311.12536777 408.99285505 311.122007 413.17156315 311.11605644 C416.4291379 311.11242656 419.68669777 311.11359981 422.94427299 311.11618423 C424.48506109 311.11684459 426.0258506 311.11605679 427.56663704 311.11370468 C435.61362122 311.1040957 443.57204075 311.19096618 451.5625 312.25 C446.82503471 317.62399697 440.90588359 321.17976331 434.9375 325.0625 C427.91443553 329.65517983 421.00312379 334.32942682 414.2421875 339.30102539 C409.85637608 342.49088805 405.36583764 345.52318907 400.875 348.5625 C398.9399636 349.87739732 397.00506863 351.19250282 395.0703125 352.5078125 C394.13219727 353.14493164 393.19408203 353.78205078 392.22753906 354.43847656 C380.24813248 362.58131248 368.37784161 370.87105106 356.5625 379.25 C360.32794546 380.50514849 364.01895579 380.68607221 367.94921875 380.9765625 C369.74396135 381.11799437 371.5386359 381.26029171 373.33325195 381.40332031 C374.29317047 381.47925415 375.25308899 381.55518799 376.24209595 381.63342285 C470.37798047 389.193863 563.71552981 406.50048444 777.5625 481.25 C779.21789795 481.9920166 779.21789795 481.9920166 780.90673828 482.74902344 C809.7748012 495.74836616 838.50668989 509.62360875 865.82373047 525.65185547 C868.82980753 527.40598102 871.85270059 529.12850126 874.87890625 530.84765625 C927.66696823 560.9038297 977.76602967 595.94143007 1023.98608398 635.37451172 C1027.25824618 638.1635461 1030.57986055 640.87737744 1033.9375 643.5625 C1039.92705756 648.42956361 1045.49515253 653.71910384 1051.10546875 659.01171875 C1054.28974029 662.01084826 1057.55855836 664.89423984 1060.875 667.74609375 C1063.2614132 669.87287403 1065.47765391 672.15366262 1067.71508789 674.43505859 C1069.37938269 676.07010122 1071.0851347 677.56747183 1072.87109375 679.06640625 C1078.91841301 684.32633588 1084.51655278 690.05517079 1090.17163086 695.72875977 C1092.1204687 697.68295624 1094.07459272 699.63175147 1096.02929688 701.58007812 C1107.35184768 712.89721032 1107.35184768 712.89721032 1112.19702148 718.67016602 C1113.73848424 720.45361058 1115.37988571 722.09983281 1117.0625 723.75 C1120.09844925 726.73872337 1122.90758659 729.86706479 1125.6875 733.09375 C1127.73609094 735.44962958 1129.83453002 737.7550746 1131.9375 740.0625 C1135.79272386 744.33310151 1139.43832515 748.73773669 1143.0546875 753.2109375 C1145.95082427 756.72058611 1148.93945826 760.14004592 1151.9375 763.5625 C1157.54759406 769.99095244 1162.87717385 776.58880307 1168.08642578 783.34423828 C1169.68121479 785.40327285 1171.29062291 787.4502889 1172.90234375 789.49609375 C1180.5290474 799.19759224 1187.89016537 809.05582212 1195.04052734 819.11328125 C1196.44235272 821.08132355 1197.85427163 823.04160916 1199.26953125 825 C1214.91101745 846.76464887 1229.82797987 869.23594156 1243.5625 892.25 C1244.21524902 893.34199707 1244.86799805 894.43399414 1245.54052734 895.55908203 C1255.29220692 911.90522909 1264.66877635 928.41831322 1273.5625 945.25 C1274.06587891 946.20036133 1274.56925781 947.15072266 1275.08789062 948.12988281 C1278.62204441 954.81483223 1282.1069147 961.52413388 1285.5625 968.25 C1286.28687256 969.65572266 1286.28687256 969.65572266 1287.02587891 971.08984375 C1328.91366786 1052.65564849 1358.95841634 1140.80487724 1407.875 1409.5 C1407.95045044 1410.35151642 1408.02590088 1411.20303284 1408.1036377 1412.08035278 C1408.65998989 1418.46568774 1409.12952798 1424.855185 1409.5625 1431.25 C1409.64863556 1432.50970612 1409.73477112 1433.76941223 1409.82351685 1435.06729126 C1411.37592287 1458.17036037 1411.93133628 1481.20643555 1411.88055801 1504.35882568 C1411.87489221 1506.98750876 1411.87208832 1509.61618532 1411.86947632 1512.24487305 C1411.83388427 1536.89994873 1411.58741919 1561.44825395 1408.81896973 1585.97521973 C1408.54745535 1588.38343985 1408.28658155 1590.79268263 1408.02636719 1593.20214844 C1399.22263515 1673.74578449 1379.52852704 1753.17234906 1315.15966797 1903.99267578 C1313.73580144 1906.89656254 1312.32190114 1909.80505353 1310.91015625 1912.71484375 C1305.096986 1924.60943082 1298.65673877 1936.10105652 1292.07617188 1947.58544922 C1290.33519227 1950.65013493 1288.64413763 1953.7395699 1286.95996094 1956.83569336 C1273.97574951 1980.61890106 1259.14599277 2003.20607388 1243.99316406 2025.64282227 C1241.7130253 2029.02124629 1239.4544091 2032.41346612 1237.19921875 2035.80859375 C1225.43367529 2053.47693604 1212.61815857 2070.5184764 1199.5625 2087.25 C1198.92779785 2088.06597656 1198.92779785 2088.06597656 1198.28027344 2088.8984375 C1187.79258659 2102.37484339 1177.04797443 2115.6403965 1165.95263672 2128.62158203 C1164.49715989 2130.32653996 1163.04723947 2132.0361233 1161.59765625 2133.74609375 C1155.8644919 2140.49208017 1150.0119858 2147.09927088 1144 2153.59765625 C1142.04506122 2155.72490534 1140.13367955 2157.87272252 1138.25 2160.0625 C1130.45485948 2169.0409992 1122.26899448 2177.7617887 1113.72265625 2186.02734375 C1111.86625292 2187.93745857 1110.13443775 2189.88832874 1108.3984375 2191.90625 C1104.18510727 2196.755597 1099.67665183 2201.28253991 1095.125 2205.8125 C1093.91360352 2207.02969727 1093.91360352 2207.02969727 1092.67773438 2208.27148438 C1088.37540631 2212.56687879 1083.99128661 2216.68447722 1079.38256836 2220.64819336 C1076.64561034 2223.05693669 1074.10648506 2225.64079563 1071.5625 2228.25 C1067.76651891 2232.09270631 1063.92581241 2235.78423643 1059.80859375 2239.28515625 C1057.3451077 2241.440171 1054.96245234 2243.66867875 1052.5769043 2245.90917969 C1046.94944647 2251.19446281 1041.23665796 2256.24522049 1035.20703125 2261.07421875 C1032.40410752 2263.380317 1029.73246725 2265.79151531 1027.0625 2268.25 C1022.25463097 2272.66511354 1017.28840675 2276.81654482 1012.20849609 2280.91308594 C1009.60551114 2283.0272873 1007.02682359 2285.17071329 1004.4440918 2287.30957031 C996.86101084 2293.5839433 989.2080232 2299.75158791 981.43603516 2305.79003906 C979.39332393 2307.38183124 977.35858278 2308.98349304 975.32421875 2310.5859375 C966.46076591 2317.54973287 957.4808468 2324.30737991 948.30419922 2330.85302734 C945.33423869 2332.97580225 942.3743047 2335.11093321 939.42724609 2337.26538086 C928.5343851 2345.21882194 917.43284038 2352.80544019 906.1875 2360.25 C904.45067542 2361.40277849 902.71394126 2362.55569323 900.97729492 2363.70874023 C896.86821689 2366.43513343 892.75577129 2369.15638858 888.6416626 2371.87518311 C886.85418675 2373.05712626 885.06829533 2374.24146497 883.28271484 2375.42626953 C841.89883969 2402.87376848 798.26983851 2427.16740502 753.76953125 2449.15625 C750.66869162 2450.69062456 747.58793757 2452.26061296 744.51171875 2453.84375 C727.19287818 2462.70632161 709.46683799 2470.55807938 691.64331055 2478.33917236 C688.61755558 2479.663628 685.59839544 2481.0029377 682.578125 2482.33984375 C622.49987595 2508.72943882 559.9072022 2529.32592223 496.5625 2546.25 C495.3252417 2546.58097687 495.3252417 2546.58097687 494.06298828 2546.91864014 C413.24011062 2568.47181155 330.11893353 2581.45416861 246.6875 2586.9375 C245.30377197 2587.02890762 245.30377197 2587.02890762 243.89208984 2587.12216187 C216.36188828 2588.91496817 188.891789 2589.45703166 161.3125 2589.4375 C160.04267651 2589.43709969 160.04267651 2589.43709969 158.74720001 2589.43669128 C130.97616757 2589.42572588 103.28170012 2589.09955796 75.5625 2587.25 C74.57147278 2587.18447937 73.58044556 2587.11895874 72.55938721 2587.05145264 C-28.73001328 2580.28719191 -128.81658733 2563.65074287 -353.4375 2492.25 C-354.10918213 2491.9805658 -354.78086426 2491.71113159 -355.47290039 2491.43353271 C-373.64921068 2484.13323879 -391.59999452 2476.34080742 -409.4375 2468.25 C-411.03271484 2467.53070312 -411.03271484 2467.53070312 -412.66015625 2466.796875 C-441.92947344 2453.56700137 -471.01185888 2439.42701352 -498.98876953 2423.63037109 C-501.60909518 2422.15327027 -504.23955354 2420.69530008 -506.87109375 2419.23828125 C-521.20578272 2411.26286899 -535.23489786 2402.81101689 -549.21044922 2394.22802734 C-552.04203557 2392.49240073 -554.88040367 2390.76885521 -557.72265625 2389.05078125 C-579.52193274 2375.80611504 -600.8655699 2361.55878999 -621.54052734 2346.61865234 C-623.59019914 2345.13982865 -625.64823543 2343.67312247 -627.70703125 2342.20703125 C-647.21817652 2328.26866456 -666.29493945 2313.66287786 -684.8046875 2298.41796875 C-686.55479526 2296.97685627 -688.30999612 2295.54190597 -690.0703125 2294.11328125 C-696.41775632 2288.95945296 -702.64784908 2283.68211059 -708.83984375 2278.34375 C-711.1753338 2276.33054875 -713.52106402 2274.33071839 -715.87890625 2272.34375 C-723.03807524 2266.29437959 -729.96371813 2260.0470688 -736.75732422 2253.58862305 C-739.97213151 2250.53609172 -743.21855416 2247.54670202 -746.5703125 2244.64453125 C-750.7800969 2240.99049565 -754.63665055 2237.08219521 -758.53125 2233.09375 C-760.65534255 2230.96440814 -762.87113349 2228.98704692 -765.15234375 2227.02734375 C-770.16432768 2222.6852023 -774.82345612 2218.01018877 -779.5 2213.3125 C-780.35916016 2212.45720703 -781.21832031 2211.60191406 -782.10351562 2210.72070312 C-786.533622 2206.28382807 -790.79917982 2201.77681927 -794.88452148 2197.02124023 C-797.12208715 2194.46919828 -799.50887745 2192.12147849 -801.9375 2189.75 C-805.64427857 2186.09288824 -809.19055491 2182.36035429 -812.5703125 2178.3984375 C-814.46563277 2176.21762966 -816.41761286 2174.09561449 -818.38305664 2171.97802734 C-823.19829859 2166.7885864 -827.76019385 2161.4723389 -832.19921875 2155.953125 C-834.48565705 2153.19184175 -836.87358218 2150.56461778 -839.3125 2147.9375 C-843.57479267 2143.30572066 -847.48000493 2138.48685427 -851.3293457 2133.51464844 C-854.3099043 2129.66802092 -857.3633579 2125.9082742 -860.5 2122.1875 C-865.67229179 2116.01804223 -870.58388372 2109.67017826 -875.4375 2103.25 C-876.28320557 2102.1352832 -876.28320557 2102.1352832 -877.14599609 2100.99804688 C-885.26697971 2090.28535196 -893.21627749 2079.47727272 -900.89990234 2068.44677734 C-902.52196771 2066.12932034 -904.15998408 2063.82375881 -905.80078125 2061.51953125 C-914.43792251 2049.3533005 -922.53458826 2036.90327108 -930.4375 2024.25 C-931.52994237 2022.51171526 -932.62239019 2020.77343396 -933.71484375 2019.03515625 C-941.91242338 2005.94159326 -949.77755115 1992.66464164 -957.4375 1979.25 C-958.03868652 1978.20005859 -958.63987305 1977.15011719 -959.25927734 1976.06835938 C-982.29826706 1935.63283022 -1002.39561084 1893.54712762 -1019.4375 1850.25 C-1019.87771484 1849.13286621 -1020.31792969 1848.01573242 -1020.77148438 1846.86474609 C-1044.11026283 1787.28271861 -1062.41123571 1725.32553346 -1073.4375 1662.25 C-1073.58018311 1661.43605774 -1073.72286621 1660.62211548 -1073.86987305 1659.7835083 C-1077.54908631 1638.68311007 -1080.70222388 1617.52462164 -1083.1875 1596.25 C-1083.28250793 1595.46029816 -1083.37751587 1594.67059631 -1083.47540283 1593.85696411 C-1087.55547565 1559.52241874 -1088.95341111 1525.02001054 -1088.82861328 1490.46826172 C-1088.81152317 1485.70327357 -1088.82172454 1480.93878876 -1088.83893681 1476.17381763 C-1088.95485601 1438.18643781 -1086.79649748 1400.28157795 -1081.94140625 1362.58984375 C-1081.76793419 1361.23329933 -1081.76793419 1361.23329933 -1081.59095764 1359.84934998 C-1070.07971491 1271.47583704 -1046.51949464 1185.17069582 -964.95703125 1009.87890625 C-963.36959859 1007.13252532 -961.82113211 1004.36705119 -960.28125 1001.59375 C-936.82974316 959.39318687 -909.11707057 919.29949808 -879.4375 881.25 C-878.81077393 880.44199951 -878.81077393 880.44199951 -878.17138672 879.61767578 C-864.55451053 862.06351283 -850.37263691 844.9224854 -835.44140625 828.46875 C-833.62438018 826.45691607 -831.83805608 824.42339566 -830.0625 822.375 C-826.28072385 818.0368246 -822.39183908 813.79893497 -818.48974609 809.56933594 C-816.64090784 807.56292282 -814.80348635 805.5482426 -812.97436523 803.52368164 C-804.10153614 793.76381927 -794.79081168 784.45134818 -785.45458984 775.13671875 C-782.67559327 772.36311638 -779.90202717 769.58416319 -777.12890625 766.8046875 C-775.34146663 765.01790819 -773.5537171 763.23143885 -771.765625 761.4453125 C-770.94773499 760.62539825 -770.12984497 759.80548401 -769.28717041 758.96072388 C-765.02943405 754.72016067 -760.69542637 750.63782844 -756.14080811 746.71749878 C-754.19127702 745.03786461 -752.30531835 743.30109127 -750.4375 741.53125 C-749.7775 740.90863281 -749.1175 740.28601563 -748.4375 739.64453125 C-747.7775 739.01933594 -747.1175 738.39414062 -746.4375 737.75 C-741.20497344 732.79340746 -735.89524394 727.95787802 -730.4375 723.25 C-729.86596191 722.75628906 -729.29442383 722.26257813 -728.70556641 721.75390625 C-725.22480998 718.7548479 -721.73080627 715.77121906 -718.23681641 712.78759766 C-717.0766774 711.79620614 -715.91742905 710.80377096 -714.75927734 709.81005859 C-708.24656543 704.22241439 -701.64778653 698.78254579 -694.87451172 693.51318359 C-691.06489694 690.54526442 -687.30622121 687.52321617 -683.57226562 684.46069336 C-675.72984873 678.02918747 -667.73443248 671.85219819 -659.57519531 665.82861328 C-657.31511041 664.15961957 -655.05981801 662.48427451 -652.8046875 660.80859375 C-643.22603161 653.70513382 -633.5691141 646.72670012 -623.79248047 639.8984375 C-621.20180534 638.08501863 -618.61859539 636.26121095 -616.03515625 634.4375 C-603.892661 625.89423926 -591.57042793 617.7264966 -578.98535156 609.85107422 C-576.63478699 608.37397548 -574.2956092 606.88095832 -571.9609375 605.37890625 C-548.67592825 590.43557107 -524.68225048 576.56799567 -500.4375 563.25 C-499.03419434 562.4751123 -499.03419434 562.4751123 -497.60253906 561.68457031 C-420.53579227 519.17882208 -339.61710392 485.09110637 -216.19970703 444.40869141 C-208.59821986 442.06757148 -201.01940997 439.6536257 -193.4375 437.25 C-194.2462558 437.02608582 -195.0550116 436.80217163 -195.88827515 436.57147217 C-206.1970705 433.71691179 -216.50510181 430.85960123 -226.8125 428 C-227.63170929 427.7727272 -228.45091858 427.54545441 -229.29495239 427.31129456 C-255.37635079 420.07449096 -281.43498414 412.76620599 -307.4375 405.25 C-307.4375 404.59 -307.4375 403.93 -307.4375 403.25 C-236.79540754 373.43413555 -161.56346529 355.07206219 -84.5625 355 C-83.13300018 354.99749237 -83.13300018 354.99749237 -81.67462158 354.99493408 C-68.66233346 354.99357878 -55.76918143 355.40763344 -42.8125 356.625 C-42.11379791 356.6901178 -41.41509583 356.7552356 -40.69522095 356.82232666 C-34.3019119 357.43090903 -27.93470946 358.13651402 -21.58984375 359.140625 C-14.24953558 360.62832635 -14.24953558 360.62832635 -7.203125 359.12890625 C-5.44371546 357.47282385 -5.44371546 357.47282385 -4.05859375 355.4453125 C-2.04571994 352.71944484 0.2778042 350.90669121 2.9375 348.8125 C7.37207578 345.25260607 11.61658949 341.55063669 15.78515625 337.68359375 C17.5625 336.25 17.5625 336.25 19.5625 336.25 C-19.76526226 233.89192767 -19.76526226 233.89192767 -65.4375 134.25 C-66.26677002 132.57744141 -66.26677002 132.57744141 -67.11279297 130.87109375 C-74.56778991 115.912989 -82.2773012 100.72077377 -93.21875 87.94921875 C-96.25868697 84.25098557 -96.80244096 81.30001339 -96.70703125 76.546875 C-95.14844625 63.26502018 -84.18284321 52.50508999 -75.4375 43.25 C-74.57705078 42.32767578 -74.57705078 42.32767578 -73.69921875 41.38671875 C-56.35703889 23.38230768 -26.023223 0.30949324 0 0 Z " fill="#FE291E" transform="translate(1088.4375,-0.25)"/>
<path d="M0 0 C1.94712891 -0.03867188 1.94712891 -0.03867188 3.93359375 -0.078125 C9.29390037 0.40655289 11.4927483 2.11196628 15.1328125 5.984375 C17.70006202 9.24303832 19.63083783 12.77684251 21.4375 16.5 C21.77990723 17.20125 22.12231445 17.9025 22.47509766 18.625 C59.10151754 95.02740708 69.87831866 186.83890087 85.875 269.5 C86.11614532 270.74366333 86.35729065 271.98732666 86.60574341 273.26867676 C87.27855445 276.74614014 87.94694685 280.22441544 88.61328125 283.703125 C88.8125824 284.73429443 89.01188354 285.76546387 89.21722412 286.82788086 C89.39602112 287.76801025 89.57481812 288.70813965 89.7590332 289.67675781 C89.91523636 290.49267395 90.07143951 291.30859009 90.2323761 292.14923096 C90.5625 294.25 90.5625 294.25 90.5625 297.25 C91.18253906 297.26417969 91.80257813 297.27835937 92.44140625 297.29296875 C119.54546285 298.75272143 143.93810658 316.90376712 162.5625 335.25 C163.05959473 335.73339844 163.55668945 336.21679688 164.06884766 336.71484375 C172.29600305 344.71700609 172.29600305 344.71700609 173.5625 347.25 C178.38579969 346.67771819 182.69079856 345.684115 187.27734375 344.09765625 C188.59547377 343.65036903 189.91393093 343.20404505 191.23266602 342.75854492 C191.92546661 342.52299896 192.61826721 342.287453 193.33206177 342.04476929 C243.58112942 325.07203067 296.65277977 315.51650103 349.5625 312.25 C350.74851807 312.16314941 351.93453613 312.07629883 353.15649414 311.98681641 C368.9596142 310.91822605 384.80491917 311.09765149 400.63549805 311.11962891 C404.81420839 311.12536777 408.99285505 311.122007 413.17156315 311.11605644 C416.4291379 311.11242656 419.68669777 311.11359981 422.94427299 311.11618423 C424.48506109 311.11684459 426.0258506 311.11605679 427.56663704 311.11370468 C435.61362122 311.1040957 443.57204075 311.19096618 451.5625 312.25 C446.82503471 317.62399697 440.90588359 321.17976331 434.9375 325.0625 C427.91443553 329.65517983 421.00312379 334.32942682 414.2421875 339.30102539 C409.85637608 342.49088805 405.36583764 345.52318907 400.875 348.5625 C398.9399636 349.87739732 397.00506863 351.19250282 395.0703125 352.5078125 C394.13219727 353.14493164 393.19408203 353.78205078 392.22753906 354.43847656 C380.24813248 362.58131248 368.37784161 370.87105106 356.5625 379.25 C360.32794546 380.50514849 364.01895579 380.68607221 367.94921875 380.9765625 C369.74396135 381.11799437 371.5386359 381.26029171 373.33325195 381.40332031 C374.29317047 381.47925415 375.25308899 381.55518799 376.24209595 381.63342285 C470.37798047 389.193863 563.71552981 406.50048444 777.5625 481.25 C779.21789795 481.9920166 779.21789795 481.9920166 780.90673828 482.74902344 C809.7748012 495.74836616 838.50668989 509.62360875 865.82373047 525.65185547 C868.82980753 527.40598102 871.85270059 529.12850126 874.87890625 530.84765625 C927.66696823 560.9038297 977.76602967 595.94143007 1023.98608398 635.37451172 C1027.25824618 638.1635461 1030.57986055 640.87737744 1033.9375 643.5625 C1039.92705756 648.42956361 1045.49515253 653.71910384 1051.10546875 659.01171875 C1054.28974029 662.01084826 1057.55855836 664.89423984 1060.875 667.74609375 C1063.2614132 669.87287403 1065.47765391 672.15366262 1067.71508789 674.43505859 C1069.37938269 676.07010122 1071.0851347 677.56747183 1072.87109375 679.06640625 C1078.91841301 684.32633588 1084.51655278 690.05517079 1090.17163086 695.72875977 C1092.1204687 697.68295624 1094.07459272 699.63175147 1096.02929688 701.58007812 C1107.35184768 712.89721032 1107.35184768 712.89721032 1112.19702148 718.67016602 C1113.73848424 720.45361058 1115.37988571 722.09983281 1117.0625 723.75 C1120.09844925 726.73872337 1122.90758659 729.86706479 1125.6875 733.09375 C1127.73609094 735.44962958 1129.83453002 737.7550746 1131.9375 740.0625 C1135.79272386 744.33310151 1139.43832515 748.73773669 1143.0546875 753.2109375 C1145.95082427 756.72058611 1148.93945826 760.14004592 1151.9375 763.5625 C1157.54759406 769.99095244 1162.87717385 776.58880307 1168.08642578 783.34423828 C1169.68121479 785.40327285 1171.29062291 787.4502889 1172.90234375 789.49609375 C1180.5290474 799.19759224 1187.89016537 809.05582212 1195.04052734 819.11328125 C1196.44235272 821.08132355 1197.85427163 823.04160916 1199.26953125 825 C1214.91101745 846.76464887 1229.82797987 869.23594156 1243.5625 892.25 C1244.21524902 893.34199707 1244.86799805 894.43399414 1245.54052734 895.55908203 C1255.29220692 911.90522909 1264.66877635 928.41831322 1273.5625 945.25 C1274.06587891 946.20036133 1274.56925781 947.15072266 1275.08789062 948.12988281 C1278.62204441 954.81483223 1282.1069147 961.52413388 1285.5625 968.25 C1286.28687256 969.65572266 1286.28687256 969.65572266 1287.02587891 971.08984375 C1328.91366786 1052.65564849 1358.95841634 1140.80487724 1407.875 1409.5 C1407.95045044 1410.35151642 1408.02590088 1411.20303284 1408.1036377 1412.08035278 C1408.65998989 1418.46568774 1409.12952798 1424.855185 1409.5625 1431.25 C1409.64863556 1432.50970612 1409.73477112 1433.76941223 1409.82351685 1435.06729126 C1411.37592287 1458.17036037 1411.93133628 1481.20643555 1411.88055801 1504.35882568 C1411.87489221 1506.98750876 1411.87208832 1509.61618532 1411.86947632 1512.24487305 C1411.83388427 1536.89994873 1411.58741919 1561.44825395 1408.81896973 1585.97521973 C1408.54745535 1588.38343985 1408.28658155 1590.79268263 1408.02636719 1593.20214844 C1399.22263515 1673.74578449 1379.52852704 1753.17234906 1315.15966797 1903.99267578 C1313.73580144 1906.89656254 1312.32190114 1909.80505353 1310.91015625 1912.71484375 C1305.096986 1924.60943082 1298.65673877 1936.10105652 1292.07617188 1947.58544922 C1290.33519227 1950.65013493 1288.64413763 1953.7395699 1286.95996094 1956.83569336 C1273.97574951 1980.61890106 1259.14599277 2003.20607388 1243.99316406 2025.64282227 C1241.7130253 2029.02124629 1239.4544091 2032.41346612 1237.19921875 2035.80859375 C1225.43367529 2053.47693604 1212.61815857 2070.5184764 1199.5625 2087.25 C1198.92779785 2088.06597656 1198.92779785 2088.06597656 1198.28027344 2088.8984375 C1187.79258659 2102.37484339 1177.04797443 2115.6403965 1165.95263672 2128.62158203 C1164.49715989 2130.32653996 1163.04723947 2132.0361233 1161.59765625 2133.74609375 C1155.8644919 2140.49208017 1150.0119858 2147.09927088 1144 2153.59765625 C1142.04506122 2155.72490534 1140.13367955 2157.87272252 1138.25 2160.0625 C1130.45485948 2169.0409992 1122.26899448 2177.7617887 1113.72265625 2186.02734375 C1111.86625292 2187.93745857 1110.13443775 2189.88832874 1108.3984375 2191.90625 C1104.18510727 2196.755597 1099.67665183 2201.28253991 1095.125 2205.8125 C1093.91360352 2207.02969727 1093.91360352 2207.02969727 1092.67773438 2208.27148438 C1088.37540631 2212.56687879 1083.99128661 2216.68447722 1079.38256836 2220.64819336 C1076.64561034 2223.05693669 1074.10648506 2225.64079563 1071.5625 2228.25 C1067.76651891 2232.09270631 1063.92581241 2235.78423643 1059.80859375 2239.28515625 C1057.3451077 2241.440171 1054.96245234 2243.66867875 1052.5769043 2245.90917969 C1046.94944647 2251.19446281 1041.23665796 2256.24522049 1035.20703125 2261.07421875 C1032.40410752 2263.380317 1029.73246725 2265.79151531 1027.0625 2268.25 C1022.25463097 2272.66511354 1017.28840675 2276.81654482 1012.20849609 2280.91308594 C1009.60551114 2283.0272873 1007.02682359 2285.17071329 1004.4440918 2287.30957031 C996.86101084 2293.5839433 989.2080232 2299.75158791 981.43603516 2305.79003906 C979.39332393 2307.38183124 977.35858278 2308.98349304 975.32421875 2310.5859375 C966.46076591 2317.54973287 957.4808468 2324.30737991 948.30419922 2330.85302734 C945.33423869 2332.97580225 942.3743047 2335.11093321 939.42724609 2337.26538086 C928.5343851 2345.21882194 917.43284038 2352.80544019 906.1875 2360.25 C904.45067542 2361.40277849 902.71394126 2362.55569323 900.97729492 2363.70874023 C896.86821689 2366.43513343 892.75577129 2369.15638858 888.6416626 2371.87518311 C886.85418675 2373.05712626 885.06829533 2374.24146497 883.28271484 2375.42626953 C841.89883969 2402.87376848 798.26983851 2427.16740502 753.76953125 2449.15625 C750.66869162 2450.69062456 747.58793757 2452.26061296 744.51171875 2453.84375 C727.19287818 2462.70632161 709.46683799 2470.55807938 691.64331055 2478.33917236 C688.61755558 2479.663628 685.59839544 2481.0029377 682.578125 2482.33984375 C622.49987595 2508.72943882 559.9072022 2529.32592223 496.5625 2546.25 C495.3252417 2546.58097687 495.3252417 2546.58097687 494.06298828 2546.91864014 C413.24011062 2568.47181155 330.11893353 2581.45416861 246.6875 2586.9375 C245.30377197 2587.02890762 245.30377197 2587.02890762 243.89208984 2587.12216187 C216.36188828 2588.91496817 188.891789 2589.45703166 161.3125 2589.4375 C160.04267651 2589.43709969 160.04267651 2589.43709969 158.74720001 2589.43669128 C130.97616757 2589.42572588 103.28170012 2589.09955796 75.5625 2587.25 C74.57147278 2587.18447937 73.58044556 2587.11895874 72.55938721 2587.05145264 C-28.73001328 2580.28719191 -128.81658733 2563.65074287 -353.4375 2492.25 C-354.10918213 2491.9805658 -354.78086426 2491.71113159 -355.47290039 2491.43353271 C-373.64921068 2484.13323879 -391.59999452 2476.34080742 -409.4375 2468.25 C-411.03271484 2467.53070312 -411.03271484 2467.53070312 -412.66015625 2466.796875 C-441.92947344 2453.56700137 -471.01185888 2439.42701352 -498.98876953 2423.63037109 C-501.60909518 2422.15327027 -504.23955354 2420.69530008 -506.87109375 2419.23828125 C-521.20578272 2411.26286899 -535.23489786 2402.81101689 -549.21044922 2394.22802734 C-552.04203557 2392.49240073 -554.88040367 2390.76885521 -557.72265625 2389.05078125 C-579.52193274 2375.80611504 -600.8655699 2361.55878999 -621.54052734 2346.61865234 C-623.59019914 2345.13982865 -625.64823543 2343.67312247 -627.70703125 2342.20703125 C-647.21817652 2328.26866456 -666.29493945 2313.66287786 -684.8046875 2298.41796875 C-686.55479526 2296.97685627 -688.30999612 2295.54190597 -690.0703125 2294.11328125 C-696.41775632 2288.95945296 -702.64784908 2283.68211059 -708.83984375 2278.34375 C-711.1753338 2276.33054875 -713.52106402 2274.33071839 -715.87890625 2272.34375 C-723.03807524 2266.29437959 -729.96371813 2260.0470688 -736.75732422 2253.58862305 C-739.97213151 2250.53609172 -743.21855416 2247.54670202 -746.5703125 2244.64453125 C-750.7800969 2240.99049565 -754.63665055 2237.08219521 -758.53125 2233.09375 C-760.65534255 2230.96440814 -762.87113349 2228.98704692 -765.15234375 2227.02734375 C-770.16432768 2222.6852023 -774.82345612 2218.01018877 -779.5 2213.3125 C-780.35916016 2212.45720703 -781.21832031 2211.60191406 -782.10351562 2210.72070312 C-786.533622 2206.28382807 -790.79917982 2201.77681927 -794.88452148 2197.02124023 C-797.12208715 2194.46919828 -799.50887745 2192.12147849 -801.9375 2189.75 C-805.64427857 2186.09288824 -809.19055491 2182.36035429 -812.5703125 2178.3984375 C-814.46563277 2176.21762966 -816.41761286 2174.09561449 -818.38305664 2171.97802734 C-823.19829859 2166.7885864 -827.76019385 2161.4723389 -832.19921875 2155.953125 C-834.48565705 2153.19184175 -836.87358218 2150.56461778 -839.3125 2147.9375 C-843.57479267 2143.30572066 -847.48000493 2138.48685427 -851.3293457 2133.51464844 C-854.3099043 2129.66802092 -857.3633579 2125.9082742 -860.5 2122.1875 C-865.67229179 2116.01804223 -870.58388372 2109.67017826 -875.4375 2103.25 C-876.28320557 2102.1352832 -876.28320557 2102.1352832 -877.14599609 2100.99804688 C-885.26697971 2090.28535196 -893.21627749 2079.47727272 -900.89990234 2068.44677734 C-902.52196771 2066.12932034 -904.15998408 2063.82375881 -905.80078125 2061.51953125 C-914.43792251 2049.3533005 -922.53458826 2036.90327108 -930.4375 2024.25 C-931.52994237 2022.51171526 -932.62239019 2020.77343396 -933.71484375 2019.03515625 C-941.91242338 2005.94159326 -949.77755115 1992.66464164 -957.4375 1979.25 C-958.03868652 1978.20005859 -958.63987305 1977.15011719 -959.25927734 1976.06835938 C-982.29826706 1935.63283022 -1002.39561084 1893.54712762 -1019.4375 1850.25 C-1019.87771484 1849.13286621 -1020.31792969 1848.01573242 -1020.77148438 1846.86474609 C-1044.11026283 1787.28271861 -1062.41123571 1725.32553346 -1073.4375 1662.25 C-1073.58018311 1661.43605774 -1073.72286621 1660.62211548 -1073.86987305 1659.7835083 C-1077.54908631 1638.68311007 -1080.70222388 1617.52462164 -1083.1875 1596.25 C-1083.28250793 1595.46029816 -1083.37751587 1594.67059631 -1083.47540283 1593.85696411 C-1087.55547565 1559.52241874 -1088.95341111 1525.02001054 -1088.82861328 1490.46826172 C-1088.81152317 1485.70327357 -1088.82172454 1480.93878876 -1088.83893681 1476.17381763 C-1088.95485601 1438.18643781 -1086.79649748 1400.28157795 -1081.94140625 1362.58984375 C-1081.76793419 1361.23329933 -1081.76793419 1361.23329933 -1081.59095764 1359.84934998 C-1070.07971491 1271.47583704 -1046.51949464 1185.17069582 -964.95703125 1009.87890625 C-963.36959859 1007.13252532 -961.82113211 1004.36705119 -960.28125 1001.59375 C-936.82974316 959.39318687 -909.11707057 919.29949808 -879.4375 881.25 C-878.81077393 880.44199951 -878.81077393 880.44199951 -878.17138672 879.61767578 C-864.55451053 862.06351283 -850.37263691 844.9224854 -835.44140625 828.46875 C-833.62438018 826.45691607 -831.83805608 824.42339566 -830.0625 822.375 C-826.28072385 818.0368246 -822.39183908 813.79893497 -818.48974609 809.56933594 C-816.64090784 807.56292282 -814.80348635 805.5482426 -812.97436523 803.52368164 C-804.10153614 793.76381927 -794.79081168 784.45134818 -785.45458984 775.13671875 C-782.67559327 772.36311638 -779.90202717 769.58416319 -777.12890625 766.8046875 C-775.34146663 765.01790819 -773.5537171 763.23143885 -771.765625 761.4453125 C-770.94773499 760.62539825 -770.12984497 759.80548401 -769.28717041 758.96072388 C-765.02943405 754.72016067 -760.69542637 750.63782844 -756.14080811 746.71749878 C-754.19127702 745.03786461 -752.30531835 743.30109127 -750.4375 741.53125 C-749.7775 740.90863281 -749.1175 740.28601563 -748.4375 739.64453125 C-747.7775 739.01933594 -747.1175 738.39414062 -746.4375 737.75 C-741.20497344 732.79340746 -735.89524394 727.95787802 -730.4375 723.25 C-729.86596191 722.75628906 -729.29442383 722.26257813 -728.70556641 721.75390625 C-725.22480998 718.7548479 -721.73080627 715.77121906 -718.23681641 712.78759766 C-717.0766774 711.79620614 -715.91742905 710.80377096 -714.75927734 709.81005859 C-708.24656543 704.22241439 -701.64778653 698.78254579 -694.87451172 693.51318359 C-691.06489694 690.54526442 -687.30622121 687.52321617 -683.57226562 684.46069336 C-675.72984873 678.02918747 -667.73443248 671.85219819 -659.57519531 665.82861328 C-657.31511041 664.15961957 -655.05981801 662.48427451 -652.8046875 660.80859375 C-643.22603161 653.70513382 -633.5691141 646.72670012 -623.79248047 639.8984375 C-621.20180534 638.08501863 -618.61859539 636.26121095 -616.03515625 634.4375 C-603.892661 625.89423926 -591.57042793 617.7264966 -578.98535156 609.85107422 C-576.63478699 608.37397548 -574.2956092 606.88095832 -571.9609375 605.37890625 C-548.67592825 590.43557107 -524.68225048 576.56799567 -500.4375 563.25 C-499.03419434 562.4751123 -499.03419434 562.4751123 -497.60253906 561.68457031 C-420.53579227 519.17882208 -339.61710392 485.09110637 -216.19970703 444.40869141 C-208.59821986 442.06757148 -201.01940997 439.6536257 -193.4375 437.25 C-194.2462558 437.02608582 -195.0550116 436.80217163 -195.88827515 436.57147217 C-206.1970705 433.71691179 -216.50510181 430.85960123 -226.8125 428 C-227.63170929 427.7727272 -228.45091858 427.54545441 -229.29495239 427.31129456 C-255.37635079 420.07449096 -281.43498414 412.76620599 -307.4375 405.25 C-307.4375 404.59 -307.4375 403.93 -307.4375 403.25 C-236.79540754 373.43413555 -161.56346529 355.07206219 -84.5625 355 C-83.13300018 354.99749237 -83.13300018 354.99749237 -81.67462158 354.99493408 C-68.66233346 354.99357878 -55.76918143 355.40763344 -42.8125 356.625 C-42.11379791 356.6901178 -41.41509583 356.7552356 -40.69522095 356.82232666 C-34.3019119 357.43090903 -27.93470946 358.13651402 -21.58984375 359.140625 C-14.24953558 360.62832635 -14.24953558 360.62832635 -7.203125 359.12890625 C-5.44371546 357.47282385 -5.44371546 357.47282385 -4.05859375 355.4453125 C-2.04571994 352.71944484 0.2778042 350.90669121 2.9375 348.8125 C7.37207578 345.25260607 11.61658949 341.55063669 15.78515625 337.68359375 C17.5625 336.25 17.5625 336.25 19.5625 336.25 C-19.76526226 233.89192767 -19.76526226 233.89192767 -65.4375 134.25 C-66.26677002 132.57744141 -66.26677002 132.57744141 -67.11279297 130.87109375 C-74.56778991 115.912989 -82.2773012 100.72077377 -93.21875 87.94921875 C-96.25868697 84.25098557 -96.80244096 81.30001339 -96.70703125 76.546875 C-95.14844625 63.26502018 -84.18284321 52.50508999 -75.4375 43.25 C-74.57705078 42.32767578 -74.57705078 42.32767578 -73.69921875 41.38671875 C-56.35703889 23.38230768 -26.023223 0.30949324 0 0 Z M312.5625 696.25 C281.59572459 729.85593734 259.02576972 769.67992142 238.5625 810.25 C238.06959473 811.22501465 237.57668945 812.2000293 237.06884766 813.20458984 C225.35374764 836.5504508 215.38844779 860.76914401 205.38671875 884.88671875 C195.14994681 909.54173287 184.10493821 934.81774019 166.5625 955.25 C165.799375 956.28125 165.03625 957.3125 164.25 958.375 C156.73951492 966.40947241 148.0861842 972.03245998 137.0625 972.9375 C123.45116141 972.50839096 112.01402317 963.21304571 102.99707031 953.78808594 C77.71410143 926.68075034 59.29723938 892.67988548 40.16796875 861.18359375 C0.80916366 795.16433144 0.80916366 795.16433144 -63.4375 756.25 C-64.43652344 755.89164063 -65.43554688 755.53328125 -66.46484375 755.1640625 C-96.69278873 744.81575701 -131.63795335 747.9735943 -162.4375 754.25 C-163.71415527 754.50305908 -163.71415527 754.50305908 -165.01660156 754.76123047 C-217.87926549 765.31681406 -268.54731707 786.4592534 -318.71972656 805.64477539 C-328.72880619 809.47025894 -338.75091813 813.25203085 -348.8125 816.9375 C-349.98578857 817.36796631 -351.15907715 817.79843262 -352.36791992 818.24194336 C-358.26050318 820.39374069 -364.16296805 822.51047641 -370.08473206 824.58032227 C-413.82247672 839.87227742 -453.37660819 861.19498258 -488.51953125 891.734375 C-491.33767333 894.16393792 -494.21662367 896.49228903 -497.125 898.8125 C-501.75724701 902.57620069 -505.93740123 906.64753669 -510.10546875 910.9140625 C-512.1510397 912.96305986 -514.23692291 914.87135102 -516.4375 916.75 C-523.2783897 922.62349116 -529.54828734 929.08310221 -535.40234375 935.93359375 C-537.58547914 938.41842924 -539.83623871 940.82839681 -542.10058594 943.23901367 C-548.16700851 949.70080919 -553.91883553 956.3092906 -559.4375 963.25 C-560.34527121 964.36676658 -561.25418852 965.48260221 -562.1640625 966.59765625 C-601.23908354 1014.65777256 -632.60803859 1069.13981972 -656.22998047 1126.33984375 C-657.25894341 1128.81967356 -658.30974091 1131.28733497 -659.37890625 1133.75 C-665.20339769 1147.27949923 -669.75783686 1161.29454209 -674.4375 1175.25 C-674.96561279 1176.80436768 -674.96561279 1176.80436768 -675.50439453 1178.39013672 C-692.53430577 1228.64792557 -702.31925975 1280.64170468 -708.4375 1333.25 C-708.60411358 1334.63143544 -708.77078174 1336.0128643 -708.9375 1337.39428711 C-715.82487669 1395.52685474 -715.08011777 1454.42654275 -709.68096924 1512.62261963 C-709.46587308 1514.94381404 -709.25657429 1517.26541167 -709.05029297 1519.58740234 C-708.33428393 1527.49685301 -707.44743123 1535.37293716 -706.4375 1543.25 C-706.33759766 1544.03338745 -706.23769531 1544.8167749 -706.13476562 1545.62390137 C-702.19913529 1576.41176693 -697.25924069 1606.79883325 -690.9375 1637.1875 C-690.75190521 1638.08066925 -690.56631042 1638.9738385 -690.37509155 1639.89407349 C-688.30304016 1649.82917679 -686.12929087 1659.73467529 -683.78515625 1669.609375 C-683.47952759 1670.89780556 -683.47952759 1670.89780556 -683.16772461 1672.21226501 C-681.73800694 1678.16563438 -680.1203467 1684.03774854 -678.38671875 1689.91015625 C-677.38878539 1693.42140326 -676.53362188 1696.949244 -675.6875 1700.5 C-673.14761501 1710.91314614 -669.87785058 1721.10665943 -666.66503906 1731.32763672 C-665.5778268 1734.79245277 -664.50825378 1738.26253131 -663.44104004 1741.73355103 C-654.02646379 1772.31859032 -643.81379808 1802.72079602 -631.4375 1832.25 C-630.63799908 1834.18488684 -629.83852145 1836.11978331 -629.0390625 1838.0546875 C-613.42878609 1875.60175632 -596.28814349 1912.66566278 -575.82666016 1947.83447266 C-574.10298115 1950.83167478 -572.45063383 1953.8643137 -570.80126953 1956.90283203 C-554.84626325 1986.19672692 -536.02634553 2014.26802922 -516.4375 2041.25 C-515.88932617 2042.00780762 -515.34115234 2042.76561523 -514.77636719 2043.54638672 C-507.3450122 2053.79917258 -499.71159381 2063.84515461 -491.72021484 2073.66748047 C-489.91987392 2075.88860911 -488.14919566 2078.1329637 -486.375 2080.375 C-482.85496299 2084.77869775 -479.22252743 2089.08074799 -475.56518555 2093.37036133 C-472.71160612 2096.722177 -469.93205203 2100.12018051 -467.1875 2103.5625 C-462.69377715 2109.09448372 -457.83890723 2114.25694839 -452.92871094 2119.41723633 C-452.01653809 2120.37666138 -452.01653809 2120.37666138 -451.0859375 2121.35546875 C-450.55145996 2121.91387451 -450.01698242 2122.47228027 -449.46630859 2123.04760742 C-447.70702433 2124.95741528 -446.0147331 2126.90328977 -444.32250977 2128.87207031 C-439.97110704 2133.85912405 -435.31267092 2138.51842347 -430.62890625 2143.19140625 C-429.70335434 2144.11791489 -428.77780243 2145.04442352 -427.82420349 2145.99900818 C-425.87685145 2147.94782361 -423.92773087 2149.89484737 -421.97729492 2151.84057617 C-419.49853605 2154.31363861 -417.02429569 2156.79116533 -414.5513773 2159.27006626 C-412.16299855 2161.66296201 -409.7707792 2164.05200318 -407.37890625 2166.44140625 C-406.06292198 2167.76042686 -406.06292198 2167.76042686 -404.72035217 2169.10609436 C-400.31602727 2173.49384622 -395.85577179 2177.74841851 -391.13287354 2181.79273987 C-388.56404217 2184.00078161 -386.10364438 2186.31622076 -383.625 2188.625 C-378.97711458 2192.9187538 -374.19333652 2196.9853184 -369.26171875 2200.953125 C-366.77509861 2202.97543847 -364.33442001 2205.04190937 -361.9050293 2207.13232422 C-354.3779048 2213.59667367 -346.54236519 2219.60967924 -338.62695312 2225.58837891 C-336.46606712 2227.22831983 -334.3171628 2228.88268966 -332.171875 2230.54296875 C-301.6114817 2254.17384753 -269.01936451 2275.19041652 -235.4375 2294.25 C-234.74221191 2294.64719238 -234.04692383 2295.04438477 -233.33056641 2295.45361328 C-200.50788864 2314.17054893 -166.4421736 2330.52465965 -131.34069824 2344.49212646 C-129.40991677 2345.26098393 -127.4808218 2346.03397374 -125.55175781 2346.80712891 C-95.01149541 2359.01051318 -63.71338055 2369.96958686 -31.71826172 2377.68066406 C-28.80862077 2378.4069842 -25.93453122 2379.23556842 -23.05541992 2380.07348633 C-9.70708126 2383.94335051 3.87774931 2386.88345058 17.46020508 2389.79821777 C18.84253186 2390.09527917 20.22454155 2390.39382064 21.60620117 2390.69396973 C50.34706955 2396.9373888 79.38038955 2400.71337235 108.5625 2404.25 C109.36101379 2404.34774719 110.15952759 2404.44549438 110.98223877 2404.54620361 C145.52814076 2408.76939303 180.13903401 2409.59115012 214.90258789 2409.51074219 C219.89143605 2409.49930947 224.88007163 2409.50616078 229.8689127 2409.51762199 C252.85311577 2409.56240677 275.64719423 2409.10063087 298.5625 2407.25 C300.35830223 2407.11308659 302.15411787 2406.97634901 303.94995117 2406.83984375 C308.47173224 2406.48372415 312.98624938 2406.07093915 317.5 2405.625 C318.31591614 2405.54485657 319.13183228 2405.46471313 319.97247314 2405.38214111 C372.72939184 2400.11949098 425.20376223 2391.48564225 476.5625 2378.25 C478.82321081 2377.68087316 481.0849996 2377.11627796 483.34716797 2376.55297852 C485.22605932 2376.08407259 487.10330814 2375.60859975 488.98046875 2375.1328125 C491.48045944 2374.51667521 493.97581288 2373.92605971 496.48828125 2373.3671875 C507.47582692 2370.91252304 518.163739 2367.73301467 528.90771484 2364.37939453 C532.26581268 2363.34168173 535.62891584 2362.32343643 538.99530029 2361.31307983 C574.04834605 2350.79196935 608.62203867 2338.95914464 642.5625 2325.25 C643.18284119 2324.99945862 643.80318237 2324.74891724 644.44232178 2324.49078369 C687.69747083 2306.97792764 730.60071547 2287.3600723 770.90332031 2263.78466797 C773.79932644 2262.11332253 776.71964641 2260.49208328 779.6484375 2258.87890625 C793.26206545 2251.37848455 806.53112046 2243.46465828 819.63818359 2235.11132812 C822.55100867 2233.25731423 825.47167495 2231.41627576 828.39453125 2229.578125 C839.29293363 2222.70913365 850.0209407 2215.65406395 860.5625 2208.25 C861.92700903 2207.29807056 863.29159404 2206.34625004 864.65625 2205.39453125 C879.90426249 2194.72677417 894.88815409 2183.69414398 909.5625 2172.25 C910.71221491 2171.35934315 911.86195528 2170.46871916 913.01171875 2169.578125 C919.9765276 2164.16393185 926.77629983 2158.59175477 933.484375 2152.86328125 C936.2895732 2150.47117731 939.13713157 2148.13544149 942 2145.8125 C952.09901629 2137.56959814 961.88408321 2129.056078 971.37133789 2120.11499023 C974.44593485 2117.21804563 977.53181877 2114.36345235 980.75 2111.625 C984.76121563 2108.18182144 988.42671619 2104.41191062 992.13916016 2100.65405273 C994.88485284 2097.88709244 997.65572771 2095.21778337 1000.625 2092.6875 C1007.85380333 2086.51289716 1014.46020252 2079.639925 1020.62109375 2072.41015625 C1023.16361268 2069.58115631 1025.85727067 2066.92252147 1028.5625 2064.25 C1032.44622707 2060.40847443 1036.18804785 2056.52627223 1039.73046875 2052.36328125 C1041.61144563 2050.19354033 1043.55178109 2048.08529757 1045.50537109 2045.98095703 C1050.26578977 2040.85048195 1054.80098482 2035.60710976 1059.19140625 2030.15234375 C1061.88081577 2026.86036472 1064.65431954 2023.65005506 1067.4375 2020.4375 C1072.84875049 2014.16465068 1078.00241422 2007.72374349 1083.0703125 2001.171875 C1084.67324785 1999.10736141 1086.28882058 1997.05317524 1087.90625 1995 C1096.07275293 1984.61020367 1103.91936046 1974.02971095 1111.5625 1963.25 C1112.41328125 1962.05503906 1112.41328125 1962.05503906 1113.28125 1960.8359375 C1122.04110639 1948.51738945 1130.46233226 1936.01202809 1138.5625 1923.25 C1139.08666504 1922.4245166 1139.61083008 1921.5990332 1140.15087891 1920.74853516 C1174.22557691 1866.86418497 1204.34193778 1809.12298813 1224.76074219 1748.60205078 C1225.56351719 1746.24701596 1226.39043839 1743.90198002 1227.2265625 1741.55859375 C1230.73447511 1731.71692209 1234.04385713 1721.81918646 1237.25 1711.875 C1237.61851074 1710.73482422 1237.98702148 1709.59464844 1238.36669922 1708.41992188 C1252.16226573 1665.33444487 1262.3648411 1621.05648682 1268.5625 1576.25 C1268.74264648 1574.95465332 1268.92279297 1573.65930664 1269.10839844 1572.32470703 C1271.20844963 1556.98066209 1272.90330425 1541.61535714 1274.25 1526.1875 C1274.31084778 1525.50239349 1274.37169556 1524.81728699 1274.43438721 1524.11141968 C1276.549392 1499.99912817 1276.77260065 1475.8742478 1276.75 1451.6875 C1276.74943855 1450.9007552 1276.74887711 1450.11401039 1276.74829865 1449.30342484 C1276.69447877 1388.9350505 1272.25692372 1328.44294993 1259.23486328 1269.35498047 C1258.22412527 1264.68738207 1257.28092688 1260.00641989 1256.32958984 1255.32641602 C1252.59488364 1237.00115646 1248.45851435 1218.84854259 1243.30761719 1200.86816406 C1242.46652839 1197.91277866 1241.64340067 1194.95263545 1240.8203125 1191.9921875 C1232.90078064 1163.67213671 1223.62742401 1135.87067369 1213.5625 1108.25 C1213.22573242 1107.32171387 1212.88896484 1106.39342773 1212.54199219 1105.43701172 C1198.56385828 1067.12629731 1181.50802027 1029.8424941 1163.5625 993.25 C1163.03946289 992.18201172 1162.51642578 991.11402344 1161.97753906 990.01367188 C1155.01704085 975.84184669 1147.79725005 961.8477184 1140.11914062 948.05126953 C1138.50250914 945.1420428 1136.8994105 942.22560569 1135.296875 939.30859375 C1127.04648159 924.36114374 1118.29577487 909.76215795 1109.37011719 895.21337891 C1107.51458106 892.17144245 1105.69544909 889.11062034 1103.89086914 886.03833008 C1083.8247536 851.94859906 1059.13082506 820.15131009 1032.265625 791.171875 C1030.47311929 789.23431102 1028.69168799 787.28643878 1026.921875 785.328125 C1017.97956268 775.44451665 1008.79003064 765.63276581 998.60546875 757.01171875 C996.45730423 755.15928625 994.37644303 753.24163446 992.2980957 751.31152344 C986.24880549 745.69820951 980.00770316 740.4078676 973.5625 735.25 C972.43166043 734.32759625 971.30148485 733.40437804 970.171875 732.48046875 C943.60275097 710.84432745 914.63164551 692.59019866 884.5625 676.25 C883.76634277 675.81429687 882.97018555 675.37859375 882.14990234 674.9296875 C867.32453208 666.84795548 852.08147205 659.89016489 836.5625 653.25 C835.29067871 652.69965088 835.29067871 652.69965088 833.99316406 652.13818359 C810.09729808 641.86346218 784.71198293 633.82716078 759.5625 627.25 C758.41491211 626.94642578 757.26732422 626.64285156 756.08496094 626.33007812 C728.40444285 619.05356991 700.71360501 613.58708112 672.3125 610 C670.84139771 609.81241119 670.84139771 609.81241119 669.34057617 609.62103271 C641.40749366 606.09574238 613.79322092 604.89588012 585.66943359 604.93432617 C582.03258836 604.93893817 578.39607917 604.93208922 574.75927734 604.91381836 C480.05213218 604.44309283 390.09518018 621.18356456 312.5625 696.25 Z " fill="#D50F05" transform="translate(1088.4375,-0.25)"/>
<path d="M0 0 C1.94712891 -0.03867188 1.94712891 -0.03867188 3.93359375 -0.078125 C9.29390037 0.40655289 11.4927483 2.11196628 15.1328125 5.984375 C17.70006202 9.24303832 19.63083783 12.77684251 21.4375 16.5 C21.77990723 17.20125 22.12231445 17.9025 22.47509766 18.625 C59.10151754 95.02740708 69.87831866 186.83890087 85.875 269.5 C86.23671799 271.365495 86.23671799 271.365495 86.60574341 273.26867676 C87.27855445 276.74614014 87.94694685 280.22441544 88.61328125 283.703125 C88.8125824 284.73429443 89.01188354 285.76546387 89.21722412 286.82788086 C89.39602112 287.76801025 89.57481812 288.70813965 89.7590332 289.67675781 C89.99333794 290.90063202 89.99333794 290.90063202 90.2323761 292.14923096 C90.5625 294.25 90.5625 294.25 90.5625 297.25 C91.18253906 297.26417969 91.80257813 297.27835937 92.44140625 297.29296875 C119.54546285 298.75272143 143.93810658 316.90376712 162.5625 335.25 C163.05959473 335.73339844 163.55668945 336.21679688 164.06884766 336.71484375 C172.29600305 344.71700609 172.29600305 344.71700609 173.5625 347.25 C178.38579969 346.67771819 182.69079856 345.684115 187.27734375 344.09765625 C188.59547377 343.65036903 189.91393093 343.20404505 191.23266602 342.75854492 C191.92546661 342.52299896 192.61826721 342.287453 193.33206177 342.04476929 C243.58112942 325.07203067 296.65277977 315.51650103 349.5625 312.25 C350.74851807 312.16314941 351.93453613 312.07629883 353.15649414 311.98681641 C368.9596142 310.91822605 384.80491917 311.09765149 400.63549805 311.11962891 C404.81420839 311.12536777 408.99285505 311.122007 413.17156315 311.11605644 C416.4291379 311.11242656 419.68669777 311.11359981 422.94427299 311.11618423 C424.48506109 311.11684459 426.0258506 311.11605679 427.56663704 311.11370468 C435.61362122 311.1040957 443.57204075 311.19096618 451.5625 312.25 C446.82503471 317.62399697 440.90588359 321.17976331 434.9375 325.0625 C427.91443553 329.65517983 421.00312379 334.32942682 414.2421875 339.30102539 C409.85638011 342.49088512 405.3659011 345.52328904 400.875 348.5625 C398.93733156 349.87865831 396.99983255 351.19506607 395.0625 352.51171875 C394.1240625 353.14899902 393.185625 353.7862793 392.21875 354.44287109 C388.59557773 356.90782708 384.98383911 359.38912658 381.375 361.875 C380.10680046 362.7474389 378.83857103 363.61983436 377.5703125 364.4921875 C375.45104136 365.95018632 373.3321394 367.40871414 371.21386719 368.86816406 C368.727189 370.58064138 366.23872009 372.29049187 363.75 374 C362.99759033 374.51900879 362.24518066 375.03801758 361.4699707 375.57275391 C357.41994227 378.3516571 353.33115472 381.04493142 349.17578125 383.6640625 C343.52180956 387.2406932 338.03634676 391.03008816 332.5625 394.875 C330.54077821 396.28835227 328.51863651 397.70110406 326.49609375 399.11328125 C325.49819824 399.81018066 324.50030273 400.50708008 323.47216797 401.22509766 C319.20566826 404.19424924 314.91787293 407.1316604 310.625 410.0625 C309.86268066 410.58384521 309.10036133 411.10519043 308.31494141 411.64233398 C304.50389156 414.24732948 300.68703813 416.84337952 296.86328125 419.4296875 C295.38800861 420.43227367 293.91274766 421.43487706 292.4375 422.4375 C291.7556665 422.89552002 291.07383301 423.35354004 290.37133789 423.82543945 C286.92501964 426.02615482 286.92501964 426.02615482 284.5625 429.25 C286.0945105 429.45363159 286.0945105 429.45363159 287.6574707 429.66137695 C321.84657114 434.21243057 321.84657114 434.21243057 332.8125 435.9375 C333.49868408 436.04425049 334.18486816 436.15100098 334.8918457 436.26098633 C338.92934491 436.91413366 342.89699075 437.76163253 346.88232422 438.66723633 C350.11950018 439.37111126 353.36794494 439.99903524 356.62109375 440.625 C373.39539603 443.86176388 390.06637765 447.42272613 406.6875 451.375 C407.55825165 451.58060547 408.4290033 451.78621094 409.32614136 451.99804688 C419.59225643 454.42887887 429.75386697 457.07757769 439.8527832 460.13232422 C443.43344477 461.21111781 447.02515494 462.23733071 450.625 463.25 C482.44079214 472.32550065 514.26329395 482.93467617 544.5625 496.25 C545.57038574 496.69263184 546.57827148 497.13526367 547.61669922 497.59130859 C565.93881935 505.70368179 584.1262841 514.36112466 601.5625 524.25 C601.5625 524.58 601.5625 524.91 601.5625 525.25 C583.17860212 527.14476327 564.75528782 528.48087735 546.32571006 529.83467591 C541.72459204 530.17317153 537.12366802 530.51428566 532.52272034 530.85508728 C524.5739576 531.44354444 516.62508282 532.03046719 508.6761322 532.61638069 C497.178171 533.46394775 485.68043839 534.31458446 474.18276626 535.16606288 C455.51567041 536.54846023 436.8484636 537.92935246 418.18115234 539.30883789 C417.06687766 539.39118179 415.95260297 539.47352569 414.80456239 539.55836486 C402.35127886 540.47862114 389.89797135 541.39855231 377.44464111 542.31817627 C372.91573036 542.65262269 368.38682001 542.98707461 363.85791016 543.3215332 C362.74015703 543.40407823 361.62240391 543.48662326 360.47077948 543.57166965 C341.84844995 544.94697994 323.22630038 546.32471096 304.60428953 547.70432943 C293.12925533 548.55435479 281.6540687 549.40226636 270.1786778 550.24746286 C262.33037089 550.82566425 254.48223038 551.4060878 246.63421845 551.98827917 C242.10507341 552.32418895 237.57585735 552.6590561 233.0464344 552.99119949 C228.90309548 553.29504899 224.75997891 553.60176107 220.61702222 553.91077726 C219.11630613 554.02219628 217.61551033 554.13254779 216.11463052 554.24173928 C214.07848422 554.39002437 212.04264646 554.54252819 210.00682831 554.69525242 C208.30889673 554.82064265 208.30889673 554.82064265 206.57666349 554.94856602 C203.84641247 555.22160709 201.23911067 555.65612001 198.5625 556.25 C197.643813 558.9785004 196.72754029 561.70777644 195.8125 564.4375 C195.43351562 565.56188477 195.43351562 565.56188477 195.046875 566.70898438 C193.5354249 571.22444155 192.09451902 575.75538524 190.70947266 580.3112793 C188.73788312 586.73325629 186.64735204 593.10887506 184.5078125 599.4765625 C183.72734203 601.80931471 182.94690727 604.14207886 182.16650391 606.47485352 C181.76216125 607.68166779 181.3578186 608.88848206 180.94122314 610.13186646 C178.7998624 616.52514336 176.6645474 622.92043474 174.53125 629.31640625 C174.31749348 629.95724844 174.10373695 630.59809063 173.88350296 631.25835228 C169.93690843 643.09420182 166.04101655 654.946034 162.1875 666.8125 C161.90757202 667.67434906 161.62764404 668.53619812 161.3392334 669.42416382 C159.68356336 674.52387894 158.03089131 679.62456104 156.37963867 684.72570801 C153.90169391 692.38053618 151.42115998 700.03452424 148.9375 707.6875 C148.66932465 708.51383942 148.40114929 709.34017883 148.12484741 710.19155884 C143.11024897 725.63436969 137.99573431 741.04279789 132.84124756 756.43940735 C130.09556572 764.64116931 127.36187891 772.84692337 124.62796021 781.0526123 C123.34089128 784.91540859 122.05324576 788.77801264 120.765625 792.640625 C120.33495804 793.93261622 119.90429365 795.2246083 119.47363281 796.51660156 C119.17295898 797.41862305 118.87228516 798.32064453 118.5625 799.25 C115.5943401 796.63412026 113.86896177 793.58600456 111.90234375 790.17578125 C111.55659805 789.58008835 111.21085236 788.98439545 110.85462952 788.37065125 C110.11593626 787.09741093 109.37921195 785.82302661 108.64428711 784.54760742 C106.71993507 781.20924463 104.78021079 777.8798539 102.83984375 774.55078125 C102.46097015 773.90029816 102.08209656 773.24981506 101.69174194 772.57962036 C99.06496299 768.08083088 96.36789785 763.63904993 93.5625 759.25 C88.84402143 751.8462253 84.4277102 744.267037 80 736.6875 C79.43611572 735.72241013 79.43611572 735.72241013 78.86083984 734.73782349 C77.39130052 732.22242763 75.92192432 729.70693659 74.45285034 727.19126892 C69.34712281 718.45213474 64.11436643 709.79276272 58.84375 701.15234375 C57.41600679 698.81029737 55.98899652 696.46780591 54.5625 694.125 C54.200354 693.53029907 53.83820801 692.93559814 53.46508789 692.32287598 C46.27573243 680.50679419 39.27563431 668.5841381 32.30078125 656.640625 C28.48487191 650.10771256 24.61443752 643.61090446 20.70068359 637.13623047 C18.31293257 633.17918104 15.93933543 629.21361166 13.5625 625.25 C12.53520374 623.53773192 11.50786075 621.82549188 10.48046875 620.11328125 C3.5078125 608.4921875 -3.46484375 596.87109375 -10.4375 585.25 C-14.69871542 585.85187781 -18.4998444 586.85658506 -22.5390625 588.33203125 C-24.32836182 588.97845581 -24.32836182 588.97845581 -26.15380859 589.63793945 C-27.10498566 589.98485336 -27.10498566 589.98485336 -28.07537842 590.33877563 C-31.55044951 591.60442221 -35.03264791 592.85005286 -38.515625 594.09375 C-39.24683563 594.35485062 -39.97804626 594.61595123 -40.73141479 594.88496399 C-48.72047277 597.72523558 -56.76243739 600.40111992 -64.8125 603.0625 C-79.41465888 607.89421057 -93.98009256 612.8256435 -108.52490234 617.82739258 C-119.17780626 621.4850287 -129.8559145 625.06476942 -140.54296875 628.62109375 C-161.91002961 635.7316868 -183.25808929 642.8985158 -204.60229492 650.07739258 C-209.04257197 651.57068206 -213.4833477 653.06247454 -217.92456055 654.55297852 C-240.75032258 662.21400937 -263.55131103 669.91506201 -286.21850586 678.03442383 C-293.38349594 680.5981777 -300.58571851 683.0361886 -307.81634521 685.40753174 C-311.51575693 686.62136409 -315.21090328 687.84807738 -318.90625 689.07421875 C-319.67564911 689.32937256 -320.44504822 689.58452637 -321.23776245 689.84741211 C-329.73839642 692.67240486 -338.21308081 695.57277553 -346.68728638 698.47589111 C-353.46592789 700.79750669 -360.24724996 703.11129292 -367.02801514 705.42669678 C-369.39679095 706.23609002 -371.76507432 707.04691116 -374.13330078 707.85791016 C-377.7203275 709.08542552 -381.30989601 710.3051932 -384.90167236 711.51873779 C-386.20641856 711.96091725 -387.51027248 712.40573925 -388.81317139 712.85333252 C-390.5801122 713.45994082 -392.35050994 714.05645245 -394.12109375 714.65234375 C-395.10650146 714.98741943 -396.09190918 715.32249512 -397.10717773 715.66772461 C-399.4375 716.25 -399.4375 716.25 -401.4375 715.25 C-386.01503793 691.33436644 -369.85034303 667.99282528 -351.4375 646.25 C-350.97923828 645.70827148 -350.52097656 645.16654297 -350.04882812 644.60839844 C-344.28426449 637.80561365 -338.44609322 631.08026058 -332.44921875 624.48046875 C-330.58011111 622.40811834 -328.7553013 620.30480175 -326.9375 618.1875 C-323.6732426 614.43209276 -320.1658147 610.96171585 -316.625 607.46875 C-314.64029658 605.45569368 -312.77653084 603.39553597 -310.9375 601.25 C-305.24836705 594.64114579 -299.01649764 588.66723956 -292.40234375 582.99609375 C-290.32929676 581.15384325 -288.38314198 579.22598338 -286.4375 577.25 C-283.3597003 574.1366188 -280.19895493 571.19990942 -276.87890625 568.34765625 C-274.93781852 566.67987368 -273.01099044 564.99913878 -271.08984375 563.30859375 C-263.87316715 556.97603855 -256.54389282 550.86166555 -248.94921875 544.98828125 C-246.56820792 543.14463982 -244.22119187 541.26722418 -241.89453125 539.35546875 C-233.61279641 532.56761943 -225.03608208 526.41293691 -216.140625 520.453125 C-212.71734281 518.15240318 -209.38211227 515.75637971 -206.0625 513.30859375 C-200.58734279 509.30473009 -194.94962189 505.63776058 -189.1875 502.0625 C-188.14811279 501.41667969 -187.10872559 500.77085937 -186.0378418 500.10546875 C-170.50126291 490.52064349 -154.56123468 481.74141776 -138.375 473.3125 C-137.77974518 473.00103027 -137.18449036 472.68956055 -136.57119751 472.36865234 C-128.01451557 467.90210499 -119.35096025 463.93736578 -110.4375 460.25 C-123.5226214 456.47462071 -136.63577947 452.81446024 -149.77099609 449.21728516 C-155.88938535 447.53342076 -161.99199569 445.8208915 -168.05566406 443.94873047 C-168.94479492 443.67689941 -169.83392578 443.40506836 -170.75 443.125 C-171.44651672 442.91130264 -172.14303345 442.69760529 -172.86065674 442.47743225 C-177.74820456 440.9990622 -182.64573591 439.67284886 -187.60984802 438.47850037 C-206.86403837 433.84407095 -225.89554243 428.34992366 -244.96087646 423.00396729 C-248.8552028 421.91287077 -252.75045299 420.8250944 -256.64573574 419.73741817 C-260.45459764 418.67368041 -264.26309076 417.60862758 -268.07145882 416.54312325 C-269.86317889 416.04184635 -271.65495895 415.54078385 -273.44680595 415.03996086 C-284.80353922 411.86403501 -296.13296655 408.60712527 -307.4375 405.25 C-307.4375 404.59 -307.4375 403.93 -307.4375 403.25 C-236.79540754 373.43413555 -161.56346529 355.07206219 -84.5625 355 C-83.60950012 354.99832825 -82.65650024 354.99665649 -81.67462158 354.99493408 C-68.66233346 354.99357878 -55.76918143 355.40763344 -42.8125 356.625 C-42.11379791 356.6901178 -41.41509583 356.7552356 -40.69522095 356.82232666 C-34.3019119 357.43090903 -27.93470946 358.13651402 -21.58984375 359.140625 C-14.24953558 360.62832635 -14.24953558 360.62832635 -7.203125 359.12890625 C-5.44371546 357.47282385 -5.44371546 357.47282385 -4.05859375 355.4453125 C-2.04571994 352.71944484 0.2778042 350.90669121 2.9375 348.8125 C7.37207578 345.25260607 11.61658949 341.55063669 15.78515625 337.68359375 C17.5625 336.25 17.5625 336.25 19.5625 336.25 C-19.76526226 233.89192767 -19.76526226 233.89192767 -65.4375 134.25 C-66.26677002 132.57744141 -66.26677002 132.57744141 -67.11279297 130.87109375 C-74.56778991 115.912989 -82.2773012 100.72077377 -93.21875 87.94921875 C-96.25868697 84.25098557 -96.80244096 81.30001339 -96.70703125 76.546875 C-95.14844625 63.26502018 -84.18284321 52.50508999 -75.4375 43.25 C-74.86386719 42.63511719 -74.29023437 42.02023438 -73.69921875 41.38671875 C-56.35703889 23.38230768 -26.023223 0.30949324 0 0 Z " fill="#6C8306" transform="translate(1088.4375,-0.25)"/>
<path d="M0 0 C1.04828979 0.00126892 2.09657959 0.00253784 3.17663574 0.00384521 C41.4834725 0.09232548 79.74087901 5.00422894 116.28125 16.95703125 C118.73041048 17.75402045 121.18856099 18.52409432 123.65625 19.26171875 C199.75440662 42.04320471 282.98179839 85.91721874 341.80859375 140.1171875 C343.81553483 141.96065157 345.86162242 143.73529093 347.9375 145.5 C356.25358911 152.75338401 363.95615635 160.75443554 371.0625 169.1875 C371.86945312 170.11691406 372.67640625 171.04632812 373.5078125 172.00390625 C391.56871015 192.88353774 407.44728857 216.17569477 421.0625 240.1875 C421.43713379 240.84347168 421.81176758 241.49944336 422.19775391 242.17529297 C425.21689333 247.4781878 428.15516104 252.8226169 431.0625 258.1875 C431.52527344 259.03779785 431.98804687 259.8880957 432.46484375 260.76416016 C452.50829485 297.77528886 468.7730404 337.62130029 480.0625 378.1875 C480.32530762 379.11739746 480.58811523 380.04729492 480.85888672 381.00537109 C487.54486409 404.73239062 493.21749233 428.67483791 496.0625 453.1875 C496.16546387 454.02812988 496.26842773 454.86875977 496.37451172 455.73486328 C499.82806492 484.57994353 502.75400143 521.33208443 485.25 546.5 C478.07603205 555.23985943 471.56267803 559.2534145 460.21875 560.5 C443.3050864 561.2274694 429.44271241 553.98409447 417 543.125 C390.7277963 518.47677085 375.79008193 482.01025189 359.6171875 450.47265625 C342.89679452 417.92427025 324.56293383 386.13517352 302.0625 357.1875 C301.4334375 356.37667969 300.804375 355.56585937 300.15625 354.73046875 C282.95606966 332.91302689 264.00378572 312.31659773 242.0625 295.1875 C241.44149414 294.69926758 240.82048828 294.21103516 240.18066406 293.70800781 C204.83291988 265.97932913 165.32569656 245.32655549 123.0625 230.1875 C122.03253906 229.7853125 121.00257813 229.383125 119.94140625 228.96875 C75.70768051 212.07655608 28.48275948 208.60570926 -17.9375 216.1875 C-18.75798828 216.3210791 -19.57847656 216.4546582 -20.42382812 216.59228516 C-42.44520382 220.43214688 -64.57015518 229.58486934 -85.08398438 238.18383789 C-93.06262022 241.50089957 -101.11724816 244.44969816 -109.3125 247.1875 C-110.38741699 247.54924316 -111.46233398 247.91098633 -112.56982422 248.28369141 C-123.53917705 251.8764827 -134.20611183 254.76072243 -145.8125 254.625 C-146.76012207 254.61597656 -147.70774414 254.60695313 -148.68408203 254.59765625 C-166.36285123 254.16580845 -183.79253732 247.10491752 -196.9375 235.1875 C-197.68257812 234.54554688 -198.42765625 233.90359375 -199.1953125 233.2421875 C-212.98367904 220.57558637 -219.21215204 202.25485906 -220.2109375 183.91015625 C-220.87407595 162.5423618 -215.8712305 142.49655924 -206.9375 123.1875 C-206.6084668 122.46739746 -206.27943359 121.74729492 -205.94042969 121.00537109 C-191.80356467 90.42717702 -168.75194166 62.3736882 -141.62011719 42.43017578 C-139.97172918 41.21277953 -138.34871934 39.96688723 -136.7265625 38.71484375 C-111.50016702 19.60027062 -80.39585682 6.95115901 -49.125 2.5625 C-48.24811523 2.43915283 -47.37123047 2.31580566 -46.46777344 2.1887207 C-31.00455523 0.14925828 -15.56932719 -0.0193549 0 0 Z " fill="#FF6C68" transform="translate(1718.9375,700.8125)"/>
<path d="M0 0 C15.82467226 3.95616806 28.85009823 15.66797524 41 26 C41.86020752 26.72968994 41.86020752 26.72968994 42.73779297 27.47412109 C44.89599255 29.30564688 47.05355116 31.13790664 49.20776367 32.97412109 C54.77073516 37.6962482 60.50634965 42.18601939 66.27685547 46.65039062 C67.97486006 47.98030978 69.64743745 49.33701926 71.31640625 50.703125 C83.62923785 60.85960818 83.62923785 60.85960818 98.6875 64.125 C100.86794603 63.6904748 100.86794603 63.6904748 103 63 C103.71800781 62.79246094 104.43601562 62.58492188 105.17578125 62.37109375 C111.52822496 60.16108392 117.12203124 56.63872002 122.85888672 53.19750977 C156.0228129 33.41971124 199.1469079 11.02415342 238.625 10.75 C239.75035156 10.7190625 239.75035156 10.7190625 240.8984375 10.6875 C244.29866093 10.66338494 246.5727985 10.74341458 249.5234375 12.515625 C250.01070312 13.00546875 250.49796875 13.4953125 251 14 C250.57894834 24.10523989 243.01277019 30.43074985 236 37 C233.20968064 39.35138534 230.32270052 41.53776794 227.375 43.6875 C226.55580078 44.285625 225.73660156 44.88375 224.89257812 45.5 C204.84334232 59.87492378 182.5557881 70.8414445 160.48046875 81.71484375 C159.22737618 82.3340655 157.97428373 82.95328751 156.72119141 83.57250977 C154.3650724 84.73619084 152.00400534 85.88689001 149.63818359 87.03100586 C136.32928146 93.16153533 136.32928146 93.16153533 126 103 C125.41649495 105.45709375 125.41649495 105.45709375 126 108 C129.84467712 111.68232991 133.98442171 113.51521785 138.875 115.375 C139.66181152 115.67535156 140.44862305 115.97570312 141.25927734 116.28515625 C159.52443029 123.03184045 178.84532688 126.5804955 197.83789062 130.66183472 C205.03111674 132.21290586 212.20186497 133.85864277 219.375 135.5 C229.43284722 137.79295425 239.5077687 139.95393312 249.61746216 142.00482178 C345.07188759 161.37191123 345.07188759 161.37191123 366 174 C365.67 175.65 365.34 177.3 365 179 C350.1068287 183.01072836 335.15104418 184.04917086 319.7890625 184.52734375 C319.11556133 184.54831682 318.44206017 184.56928989 317.74814987 184.59089851 C301.91110476 185.06615488 286.06955702 185.14929219 270.2265625 185.24609375 C269.55491058 185.25027628 268.88325867 185.25445881 268.19125366 185.25876808 C255.533753 185.33758816 242.87620756 185.40951198 230.21859157 185.46710515 C173.8400496 184.70327124 173.8400496 184.70327124 118 191 C117.27264648 191.13631836 116.54529297 191.27263672 115.79589844 191.41308594 C94.90549297 195.41023378 75.68194654 204.25341572 62.875 221.93359375 C60.77461917 225.21954111 58.83818995 228.56305995 57 232 C56.51732666 232.89356201 56.51732666 232.89356201 56.02490234 233.80517578 C48.93849172 247.19218421 44.49954371 261.58663811 40 276 C39.70270996 276.94601074 39.40541992 277.89202148 39.09912109 278.86669922 C35.83769851 289.35079409 32.99765382 299.92185544 30.33203125 310.5703125 C30.09462219 311.51469177 29.85721313 312.45907104 29.61260986 313.43206787 C28.41916585 318.18388239 27.23896532 322.9382625 26.08251953 327.69921875 C19.37695053 354.89290458 19.37695053 354.89290458 13 360 C10.75 360.625 10.75 360.625 8 360 C3.05604778 355.93647763 -0.6819876 351.00831402 -4.0625 345.625 C-4.52237305 344.90223877 -4.98224609 344.17947754 -5.45605469 343.43481445 C-20.15138807 319.98819034 -33.12452205 295.04933497 -45.36425781 270.23974609 C-65.45044334 225.47983241 -65.45044334 225.47983241 -101 195 C-144.34791003 187.31103909 -208.43786141 225.63067629 -247 243 C-247.79752686 243.35922546 -248.59505371 243.71845093 -249.41674805 244.08856201 C-292.45344711 263.50636768 -335.30315895 283.83558147 -376.23730469 307.41064453 C-379.12513029 309.07198641 -382.01881855 310.7227171 -384.9140625 312.37109375 C-388.51948667 314.42488922 -392.12468145 316.47905811 -395.7265625 318.5390625 C-396.47583008 318.96735352 -397.22509766 319.39564453 -397.99707031 319.83691406 C-399.66881521 320.80768353 -401.31797476 321.8172139 -402.9609375 322.8359375 C-405 324 -405 324 -407 324 C-405.41280594 319.02679193 -402.46386722 315.38155458 -399.3125 311.3125 C-398.21480275 309.87602534 -397.11844173 308.43852857 -396.0234375 307 C-395.49717773 306.3090625 -394.97091797 305.618125 -394.42871094 304.90625 C-392.69204006 302.58910608 -391.05634214 300.21312445 -389.4375 297.8125 C-373.85726683 275.34100985 -352.88351302 256.4123345 -332 239 C-331.38576172 238.48614746 -330.77152344 237.97229492 -330.13867188 237.44287109 C-291.25162453 205.02702727 -247.90964721 179.33486901 -202.9453125 156.39453125 C-175.23410578 143.39695887 -175.23410578 143.39695887 -156 121 C-155.32531979 116.27723855 -155.27954078 113.34234557 -158.125 109.4375 C-175.32309186 92.2004102 -208.67226821 89.79933759 -231.640625 86.0859375 C-242.77093073 84.284073 -253.83776712 82.31283998 -264.875 80 C-266.03330322 79.76297363 -267.19160645 79.52594727 -268.38500977 79.28173828 C-282.66225022 76.22299707 -282.66225022 76.22299707 -288 73 C-289.26904297 70.87109375 -289.26904297 70.87109375 -290 69 C-286.15286533 65.14208904 -281.46357938 65.0305242 -276.3125 64.375 C-275.47138672 64.25382812 -274.63027344 64.13265625 -273.76367188 64.0078125 C-259.54539501 62.07991055 -245.19295944 61.8411115 -230.8671875 61.83203125 C-229.27041068 61.8279897 -227.67363435 61.82375292 -226.07685852 61.81933594 C-221.00956072 61.80798364 -215.94230643 61.80940154 -210.875 61.8125 C-209.58339148 61.81267939 -209.58339148 61.81267939 -208.26568985 61.8128624 C-139.90909047 61.82490386 -139.90909047 61.82490386 -108 67 C-107.12939941 67.13631836 -106.25879883 67.27263672 -105.36181641 67.41308594 C-94.14351724 69.22120935 -83.99345838 72.18353819 -73.52734375 76.609375 C-70.16677181 78.18338387 -70.16677181 78.18338387 -67 78 C-66.51789063 76.89140625 -66.03578125 75.7828125 -65.5390625 74.640625 C-64.90109778 73.17705887 -64.26307384 71.71351856 -63.625 70.25 C-63.30789063 69.52039063 -62.99078125 68.79078125 -62.6640625 68.0390625 C-62.3546875 67.33007812 -62.0453125 66.62109375 -61.7265625 65.890625 C-61.30238037 64.91657715 -61.30238037 64.91657715 -60.86962891 63.92285156 C-59.96411991 61.92066492 -58.99481594 59.95913944 -58 58 C-57.34 58 -56.68 58 -56 58 C-55.770849 58.63956131 -55.541698 59.27912262 -55.30560303 59.93806458 C-52.90472903 66.6387525 -50.50349189 73.33931022 -48.10205078 80.03979492 C-47.20772472 82.53519455 -46.31354609 85.03064687 -45.41943359 87.52612305 C-44.1288227 91.12817921 -42.83787912 94.730116 -41.546875 98.33203125 C-41.15191833 99.43456741 -40.75696167 100.53710358 -40.35003662 101.67304993 C-39.96994446 102.73331894 -39.58985229 103.79358795 -39.19824219 104.88598633 C-38.65218323 106.41311752 -38.65218323 106.41311752 -38.09509277 107.97109985 C-37.35145431 110.02791798 -36.59521563 112.08021534 -35.82775879 114.12826538 C-35.46081909 115.11033966 -35.09387939 116.09241394 -34.71582031 117.10424805 C-34.38559875 117.97607224 -34.0553772 118.84789642 -33.71514893 119.74613953 C-33 122 -33 122 -33 125 C-31.73929688 124.80664062 -30.47859375 124.61328125 -29.1796875 124.4140625 C-19.57756672 122.97323477 -9.9822995 121.70491724 -0.3125 120.8125 C0.57002441 120.72887207 1.45254883 120.64524414 2.36181641 120.55908203 C3.21565918 120.48415527 4.06950195 120.40922852 4.94921875 120.33203125 C6.05269653 120.23498901 6.05269653 120.23498901 7.1784668 120.13598633 C11.45152438 119.93004248 15.72285466 119.97515987 20 120 C18.61980637 111.54025299 17.23754173 103.08084789 15.85277081 94.62184906 C15.20954104 90.69223206 14.56697412 86.76250928 13.92602539 82.83251953 C13.30521159 79.02615194 12.68252183 75.22009522 12.0586338 71.41423035 C11.82321785 69.97619625 11.58843128 68.53805894 11.35434532 67.09980774 C9.90950361 58.22575316 8.35246554 49.38093686 6.67350769 40.54812622 C5.88708494 36.40514877 5.132001 32.25738912 4.39453125 28.10546875 C4.26559982 27.3805574 4.1366684 26.65564606 4.00382996 25.9087677 C3.73883656 24.41639078 3.47428845 22.92393471 3.21020508 21.43139648 C2.80466265 19.14328082 2.39547181 16.8558335 1.98632812 14.56835938 C1.72633968 13.10160198 1.46656554 11.63480658 1.20703125 10.16796875 C1.08519974 9.48993698 0.96336823 8.81190521 0.83784485 8.11332703 C0.35410613 5.35899599 0 2.80390261 0 0 Z " fill="#91A70B" transform="translate(1184,327)"/>
<path d="M0 0 C-1.40172736 4.80592237 -4.20012966 7.39446662 -7.9375 10.5 C-8.55230225 11.01771973 -9.16710449 11.53543945 -9.80053711 12.06884766 C-16.99313318 17.99844486 -24.69560609 23.16647511 -32.45849609 28.31152344 C-35.0297883 30.01979019 -37.58823367 31.74595242 -40.14453125 33.4765625 C-53.97461168 42.81280625 -67.9622325 51.98685611 -82.54296875 60.1171875 C-83.42839355 60.61387939 -84.31381836 61.11057129 -85.22607422 61.62231445 C-86.91388527 62.5621292 -88.60930557 63.48844323 -90.31298828 64.39916992 C-91.06177246 64.81529541 -91.81055664 65.2314209 -92.58203125 65.66015625 C-93.24436768 66.01730713 -93.9067041 66.37445801 -94.58911133 66.74243164 C-95.05470459 67.1574292 -95.52029785 67.57242676 -96 68 C-96 69.32 -96 70.64 -96 72 C-87.20389812 76.46723376 -78.07454632 79.30268925 -68.67822266 82.17431641 C-64.12721766 83.57737009 -59.59609382 85.04186645 -55.0625 86.5 C0.09986823 104.2400961 0.09986823 104.2400961 55.52490234 121.1340332 C56.69617676 121.48167725 57.86745117 121.82932129 59.07421875 122.1875 C60.10119873 122.49042969 61.12817871 122.79335938 62.1862793 123.10546875 C64.85176051 123.95287206 67.41886264 124.92529051 70 126 C70 126.33 70 126.66 70 127 C68.83966248 126.99555878 67.67932495 126.99111755 66.48382568 126.98654175 C55.36964728 126.94540918 44.25548495 126.91574142 33.1412468 126.89637566 C27.43185931 126.8860839 21.72253483 126.8722043 16.01318359 126.84912109 C-63.81473958 122.30319846 -63.81473958 122.30319846 -134 152 C-145.97736808 164.53771278 -153.77825434 181.29298369 -161.85986328 196.42871094 C-165.32740826 202.91588176 -168.81992631 209.38050414 -172.5 215.75 C-172.87261963 216.41008057 -173.24523926 217.07016113 -173.62915039 217.75024414 C-176.22852628 222.18543289 -179.15103836 225.57348537 -183 229 C-185.625 229.3125 -185.625 229.3125 -188 228 C-191.34638509 222.79375788 -193.46688034 217.42523776 -195.5625 211.625 C-209.18055756 175.07658464 -230.16851893 125.44880555 -268 108 C-268.58233398 107.73074707 -269.16466797 107.46149414 -269.76464844 107.18408203 C-279.96429366 102.87397554 -293.60542894 103.38503352 -304 106.8125 C-306.3770585 107.82530956 -308.67970444 108.8738063 -311 110 C-311.69303223 110.31743164 -312.38606445 110.63486328 -313.10009766 110.96191406 C-329.53510477 118.55712123 -344.22159537 128.97470857 -359.16563416 139.08403015 C-367.93993671 145.0053746 -376.91228011 150.5745802 -386 156 C-386.74781738 156.45358887 -387.49563477 156.90717773 -388.26611328 157.37451172 C-414.82689493 173.42986693 -443.36328292 187.08656396 -472 199 C-473.3724984 199.58830244 -474.74490437 200.17682059 -476.1171875 200.765625 C-482.02224621 203.20263335 -486.59925862 204.62752366 -493 204 C-491.39238266 193.97471962 -476.76834826 185.74821072 -469.00292969 180.12011719 C-451.0989666 167.47962813 -432.65654175 155.49548233 -414 144 C-413.03642578 143.40590332 -412.07285156 142.81180664 -411.08007812 142.19970703 C-405.58799988 138.81598226 -400.09274793 135.43742167 -394.59765625 132.05859375 C-392.94080811 131.03934814 -392.94080811 131.03934814 -391.25048828 129.99951172 C-389.16072951 128.71401342 -387.07059151 127.42913131 -384.97998047 126.14501953 C-372.61559235 118.53791395 -360.40927401 110.71164578 -348.3125 102.6875 C-347.69064819 102.27697388 -347.06879639 101.86644775 -346.42810059 101.44348145 C-322.95399851 87.35077203 -322.95399851 87.35077203 -308 66 C-307.08229337 60.90849303 -307.33862158 58.11591648 -310.0234375 53.5859375 C-313.10438765 49.49795428 -316.91777101 46.92708177 -321.1875 44.1875 C-322.61956283 43.24511849 -324.05060059 42.3011769 -325.48046875 41.35546875 C-326.42249146 40.74674927 -326.42249146 40.74674927 -327.38354492 40.12573242 C-329 39 -329 39 -331 37 C-330.875 34.5 -330.875 34.5 -330 32 C-320.72509748 25.72326365 -302.27629321 31.03415136 -292 33 C-271.39433694 37.13686845 -251.52718836 44.52884389 -232.140625 52.5246582 C-231.38523437 52.8362085 -230.62984375 53.14775879 -229.8515625 53.46875 C-229.20010254 53.74138672 -228.54864258 54.01402344 -227.87744141 54.29492188 C-225.99905479 55.0782557 -225.99905479 55.0782557 -223.89306641 55.29541016 C-222 56 -222 56 -220.81152344 58.08544922 C-220.49731445 58.98279785 -220.18310547 59.88014648 -219.859375 60.8046875 C-219.51132813 61.78050781 -219.16328125 62.75632812 -218.8046875 63.76171875 C-218.45664063 64.78910156 -218.10859375 65.81648438 -217.75 66.875 C-217.20472656 68.40447266 -217.20472656 68.40447266 -216.6484375 69.96484375 C-214 77.5218515 -214 77.5218515 -214 81 C-212.73929688 80.80664062 -211.47859375 80.61328125 -210.1796875 80.4140625 C-200.57756672 78.97323477 -190.9822995 77.70491724 -181.3125 76.8125 C-180.42997559 76.72887207 -179.54745117 76.64524414 -178.63818359 76.55908203 C-177.78434082 76.48415527 -176.93049805 76.40922852 -176.05078125 76.33203125 C-174.94730347 76.23498901 -174.94730347 76.23498901 -173.8215332 76.13598633 C-169.54847562 75.93004248 -165.27714534 75.97515987 -161 76 C-161.13780884 75.17172195 -161.27561768 74.34344391 -161.41760254 73.49006653 C-162.71663824 65.67801097 -164.01181075 57.86532684 -165.30266571 50.05191517 C-165.96641571 46.03514896 -166.63164828 42.01864012 -167.30029297 38.00268555 C-167.94571113 34.1258932 -168.5872035 30.24846974 -169.22599792 26.37058067 C-169.47019726 24.89241148 -169.71580185 23.41447372 -169.96284485 21.93677711 C-170.30904949 19.86445548 -170.6502145 17.79136167 -170.99023438 15.71801758 C-171.18564819 14.53887283 -171.38106201 13.35972809 -171.58239746 12.14485168 C-171.95123913 9.36720489 -172.16385779 6.79503723 -172 4 C-171 3 -171 3 -168 2.625 C-159.97634353 2.85239107 -154.44499335 8.35423517 -148.9375 13.625 C-139.13080941 23.00753081 -127.84311999 31.32977455 -115 36 C-114.35417969 36.24234375 -113.70835937 36.4846875 -113.04296875 36.734375 C-93.40912656 42.85186688 -72.68777986 32.75191142 -55.64453125 23.8203125 C-54.26282284 23.08891559 -52.88131247 22.35714442 -51.5 21.625 C-49.42881972 20.5379353 -47.35625817 19.45353795 -45.28358459 18.36932373 C-43.91336573 17.65246519 -42.54359976 16.93474027 -41.17430115 16.21612549 C-36.26647904 13.64508409 -31.33332409 11.1284611 -26.37890625 8.6484375 C-25.73453613 8.325336 -25.09016602 8.0022345 -24.42626953 7.66934204 C-7.3578309 -0.83611715 -7.3578309 -0.83611715 0 0 Z " fill="#B7C811" transform="translate(1365,371)"/>
<path d="M0 0 C17.52024532 7.62352447 26.60127701 37.90792381 33.0625 54.1875 C43.36812647 81.09997612 48.89310749 109.64344852 54.71191406 137.78466797 C55.85144569 143.29446332 57.00741701 148.80070853 58.16574097 154.30657959 C65.50203772 189.21238238 72.39110849 224.19478543 79.06298828 259.23339844 C79.37320585 260.86089651 79.68342713 262.48839388 79.99365234 264.1158905 C80.56625914 267.12030251 81.13652037 270.12514472 81.70507812 273.13032532 C83.15080138 280.74432578 84.6831542 288.33216322 86.34881592 295.90139771 C87.45707912 301.17497089 88.27960583 306.49166923 89.125 311.8125 C91.43218196 325.96907258 93.97534988 340.07965051 96.5625 354.1875 C96.7520929 355.22645416 96.94168579 356.26540833 97.13702393 357.33584595 C97.69391432 360.38459661 98.25397735 363.43273514 98.81640625 366.48046875 C98.99675415 367.45782486 99.17710205 368.43518097 99.36291504 369.44215393 C100.23686755 374.1200804 101.15262218 378.78259288 102.16748047 383.43212891 C102.35398666 384.28744705 102.54049286 385.1427652 102.73265076 386.02400208 C103.08152913 387.60238427 103.43783412 389.17915437 103.80360413 390.75370789 C104.88337738 395.60735545 105.23989987 400.02268011 105 405 C104.67 405.33 104.34 405.66 104 406 C97.81494718 405.53175306 92.20721372 404.0624563 86.3125 402.1875 C85.48427734 401.93935547 84.65605469 401.69121094 83.80273438 401.43554688 C77.66063395 399.5029244 73.52772451 397.43481094 70 391.8125 C64.00140198 378.54360117 61.67465635 363.92808428 58.91870117 349.7419281 C56.74379408 338.55737147 54.26277289 327.44825278 51.75 316.33544922 C50.99015239 312.95620504 50.24306378 309.57437826 49.5 306.19140625 C46.45132864 292.32089527 43.25749644 278.49434222 39.89648438 264.69628906 C39.04997192 261.20603891 38.21150029 257.7139756 37.37565613 254.22116089 C36.59387623 250.95714583 35.80825879 247.6940602 35.02212524 244.43109131 C34.64016679 242.84276461 34.25955379 241.25411359 33.88046265 239.6651001 C31.55829031 229.93932344 28.9869606 220.33394212 26.11401367 210.75634766 C25.00781034 207.02633571 24.00264321 203.28477116 23.03881836 199.51635742 C9.21018914 145.95919375 -13.44712782 95.3527563 -41.21923828 47.68334961 C-45.66595768 40.0130267 -48.27722175 34.06415435 -47 25 C-45.125 22.25 -45.125 22.25 -42 20 C-41.01193359 19.27683594 -41.01193359 19.27683594 -40.00390625 18.5390625 C-37.36701235 16.64476773 -34.68526274 14.82516597 -32 13 C-30.64368398 12.05981486 -29.288276 11.11831891 -27.93359375 10.17578125 C-26.49750777 9.17952612 -25.06130973 8.18343251 -23.625 7.1875 C-22.93494873 6.70716309 -22.24489746 6.22682617 -21.53393555 5.73193359 C-20.87562744 5.2777002 -20.21731934 4.8234668 -19.5390625 4.35546875 C-18.95334473 3.94965576 -18.36762695 3.54384277 -17.76416016 3.12573242 C-11.97296135 -0.56970318 -6.79287947 -1.05495477 0 0 Z " fill="#91A70B" transform="translate(1090,40)"/>
<path d="M0 0 C17.32505145 8.46250293 27.81713309 30.65241024 34 48 C40.4505751 67.62817852 44.52626343 87.92145692 48.60299683 108.14529419 C49.36515629 111.92162374 50.14450707 115.69236297 50.96923828 119.45556641 C53.66041624 131.78215679 55.77927772 144.17561086 57.80529785 156.62734985 C58.77871827 162.60360265 59.76810729 168.57720698 60.7578125 174.55078125 C60.95169556 175.72176865 61.14557861 176.89275604 61.34533691 178.09922791 C64.92993794 199.68397661 68.9161904 221.19080223 73.30957031 242.62597656 C73.93460655 245.68043231 74.55420821 248.73594812 75.17218018 251.7918396 C78.58678 268.66109104 82.17665733 285.48392388 85.9375 302.27929688 C88.25933751 312.64936321 90.54569514 323.02649497 92.79324341 333.41293335 C93.13251562 334.98076377 93.47223817 336.54849682 93.81246948 338.11611938 C94.74079878 342.39491962 95.66008271 346.67547814 96.5663147 350.95901489 C96.85713782 352.32767011 97.15077072 353.69573109 97.44711304 355.0632019 C98.99653925 362.22361862 100.39771665 369.07991727 100.1875 376.4375 C100.14689453 378.32275391 100.14689453 378.32275391 100.10546875 380.24609375 C100.07066406 381.15488281 100.03585937 382.06367188 100 383 C90.71129707 383.30962343 90.71129707 383.30962343 88 381 C84.81308488 374.72274294 83.49648744 368.09331235 82 361.25 C79.90913441 351.79567283 79.90913441 351.79567283 77.4609375 342.4296875 C75.8464231 336.63507145 74.71606643 330.78739443 73.625 324.875 C73.18707369 322.5480121 72.7482512 320.22119269 72.30859375 317.89453125 C72.08929199 316.73131348 71.86999023 315.5680957 71.64404297 314.36962891 C70.69907675 309.42557138 69.69168499 304.49479578 68.6875 299.5625 C66.59553682 289.22662746 64.66654228 278.86358573 62.75570679 268.49313354 C56.92425423 236.86126006 50.86142839 205.25828605 43.66308594 173.90527344 C42.98440414 170.93166763 42.32233714 167.95474776 41.6640625 164.9765625 C39.72361086 156.23361236 37.69810932 147.57684223 35.1328125 138.9921875 C34.20932835 135.8290463 33.40408644 132.64508424 32.6171875 129.4453125 C22.82685323 89.83409134 10.20063397 48.6816435 -11.6015625 13.91015625 C-13.18619722 10.61252255 -13.47873085 8.61315807 -13 5 C-8.99040611 0.50143125 -6.17955365 -1.15212017 0 0 Z " fill="#B7C811" transform="translate(1086,51)"/>
</svg>
